<svg width="117" height="46" viewBox="0 0 117 46" fill="none" xmlns="http://www.w3.org/2000/svg">
<g clip-path="url(#clip0_753_1253)">
<path d="M59.1892 37.2069C56.0784 36.287 54.2285 33.7665 51.8677 31.6174C52.8771 31.1223 53.7341 30.8006 54.4881 30.318C56.6347 28.9443 57.9778 27.0674 57.71 24.3819C57.4546 21.8161 55.8436 20.3311 53.5569 19.4895C48.6828 17.6992 43.6562 18.0788 38.6543 18.6026C37.101 18.7676 36.619 19.6545 36.8827 21.1973C38.024 27.8181 38.5307 34.4802 38.4195 41.1959C38.3989 42.4829 38.9551 43.1388 40.2324 43.1842C41.2748 43.2213 42.3584 43.147 43.3678 42.9037C45.3825 42.4169 46.017 41.5011 46.0376 39.4179C46.05 38.1598 46.0376 36.9016 46.0376 35.4702C47.5992 37.4049 48.9836 39.1869 50.4462 40.903C51.9047 42.6149 53.7588 43.6256 56.0414 43.7658C58.7689 43.9349 60.8578 41.7816 60.5941 39.0756C60.5035 38.1515 60.0709 37.4668 59.185 37.2069H59.1892ZM46.3425 27.154C45.8811 27.154 45.5144 26.8157 45.4814 26.6054C45.3372 25.7267 45.296 24.8274 45.1848 23.5651C48.8929 22.5834 50.063 24.2128 50.232 25.1698C50.4915 26.6095 48.0194 27.1581 46.3425 27.1581V27.154Z" fill="#4FC21C"/>
<path d="M111.959 21.2015C114.262 21.3087 113.376 18.7883 113.212 18.1654C112.68 16.1853 111.094 15.0509 108.568 15.942C107.715 16.2431 108.354 18.2108 108.461 18.7058C109.005 21.2386 109.347 21.0818 111.959 21.2015Z" fill="#4FC21C"/>
<path d="M32.3901 22.0346C30.5772 22.0841 28.7602 22.1088 26.9432 22.1501C25.2869 22.1872 25.324 22.179 24.8873 20.5207C24.6071 19.4605 23.4947 16.2594 23.2639 15.488C23.8243 15.488 24.1621 15.4963 24.4959 15.488C29.2546 15.3271 34.0175 15.1828 38.7763 14.993C42.3608 14.8486 45.8506 14.3412 48.9736 12.3447C50.6258 11.2845 51.9772 9.98513 52.517 8.0752C53.7942 3.56233 51.5982 0.319993 47.1731 0.414871C45.4138 0.451997 44.4992 0.96351 44.9235 2.84456C45.521 5.49288 41.7304 7.0398 39.0359 7.29968C37.3796 7.46056 35.715 7.59669 34.0546 7.58844C27.2852 7.55956 10.6645 4.82874 4.09701 8.45884C1.54664 9.87375 0.652563 12.7407 0.858571 14.2216C1.53015 19.0067 3.93632 20.7764 11.1507 20.2608C12.91 20.1329 13.013 19.345 12.4691 19.1099C11.1589 18.5447 11.0889 17.4433 11.6904 16.4162C11.9747 15.9294 13.6351 15.4591 14.4097 16.9194C15.7653 19.4853 16.3586 22.3068 17.1785 25.0624C18.3404 28.9689 18.9831 32.9414 19.2715 36.984C19.424 39.1703 19.4569 41.3648 19.5311 43.5594C19.5764 44.9372 20.0955 45.7787 21.3851 45.8365C22.7901 45.8983 24.2445 45.754 25.6124 45.4281C26.9103 45.1187 27.5942 44.0833 27.52 42.6849C27.3223 38.7949 27.1121 34.9049 26.902 31.0191C26.8773 30.5777 26.832 30.1404 26.7908 29.6248C27.2646 29.5588 31.702 29.2576 33.5355 29.0101C34.2235 28.9194 35.1011 28.5852 35.4637 28.0655C36.4649 26.6217 35.8839 25.0748 35.27 23.6351C34.7427 22.3976 33.6797 22.0016 32.3983 22.0387L32.3901 22.0346Z" fill="#4FC21C"/>
<path d="M76.5907 19.6341C75.3629 19.5474 74.1103 19.5887 72.8908 19.7454C71.7989 19.8857 71.3292 20.6158 71.4322 21.7668C71.7412 24.5182 72.0709 28.0039 71.5682 31.0441C71.3993 32.063 70.6123 32.6612 69.5246 32.6777C68.4698 32.6942 67.959 31.9805 67.7117 31.0936C67.5099 30.3717 67.3945 29.6127 67.3409 28.8619C67.1596 26.3332 67.0237 23.8004 66.8589 21.2717C66.6817 18.5615 66.0348 17.9593 63.2785 17.9634C62.714 17.9634 62.1372 17.984 61.5892 18.0913C60.0483 18.3965 59.5539 19.0401 59.6527 20.6241C59.8093 23.1528 59.9411 25.6856 60.1801 28.2102C60.3655 30.1614 60.5138 32.1455 60.9959 34.0348C61.7128 36.8523 63.847 38.2878 66.8671 38.7333C74.3658 39.8389 78.523 35.7179 78.5848 29.5591C78.6136 26.8406 78.3088 24.1222 78.1646 21.4037C78.111 20.3848 77.563 19.7001 76.5907 19.6299V19.6341Z" fill="#4FC21C"/>
<path d="M116.008 32.2073C115.592 29.7817 115.262 27.3397 114.698 24.9512C114.537 24.2747 113.8 23.4827 113.145 23.2311C112.238 22.8846 111.155 22.9011 110.153 22.9423C109.247 22.9794 108.905 23.5611 109.066 24.5263C109.482 27.022 109.84 29.5301 110.166 32.0423C110.273 32.8797 110.701 33.3665 111.455 33.5686C112.073 33.7336 114.488 33.7336 115.036 33.6057C115.765 33.4366 116.144 32.9869 116.012 32.2032L116.008 32.2073Z" fill="#4FC21C"/>
<path d="M112.932 35.7134C109.339 35.1606 108.878 33.919 108.466 31.2418C108.066 28.6347 107.51 26.0359 106.826 23.4866C105.446 15.422 100.135 14.8197 94.0494 17.9795C93.7981 18.1115 93.3778 18.1239 93.1347 17.996C91.3466 17.0596 89.4349 16.9771 87.4901 17.105C84.1199 17.3278 81.6601 19.1635 80.9968 22.15C80.3829 24.7447 80.9144 30.5199 81.0957 32.9001C81.1616 34.5212 81.7631 35.1029 83.5266 35.1813C85.9657 35.2885 87.5437 34.4552 87.692 32.9619C87.7209 32.6608 87.7085 32.3556 87.692 32.0544C87.6508 31.3366 87.5932 30.6189 87.5478 29.9011C87.4366 28.1232 87.2841 26.3494 87.2347 24.5715C87.1935 23.1937 87.7662 22.381 88.7427 22.2367C89.7892 22.0799 90.5885 22.5295 90.8687 23.5113C91.19 24.6292 91.3837 25.7966 91.4867 26.9558C91.6968 29.2535 91.7916 31.5635 91.9687 33.8653C92.08 35.3133 92.6486 35.9733 93.8599 36.1837C95.7222 36.5054 97.6834 35.9155 98.1407 34.843C98.2808 34.513 98.3055 34.1046 98.2849 33.7375C98.1902 32.1905 98.046 30.6436 97.9388 29.0967C97.8111 27.3229 97.6545 25.5491 97.6339 23.7794C97.6216 22.9751 98.7217 21.3786 100.312 22.4058C100.992 22.8431 101.346 24.5673 101.507 25.4047C101.824 27.0383 102.001 28.6966 102.24 30.3466C102.632 33.0197 103.443 35.5566 105.33 37.5449C107.106 39.4177 111.037 40.0241 113.579 38.2668C114.036 37.9533 114.547 36.9633 114.432 36.5467C114.308 36.1012 113.653 35.7299 112.928 35.7175L112.932 35.7134Z" fill="#4FC21C"/>
</g>
<defs>
<clipPath id="clip0_753_1253">
<rect width="115.208" height="45.434" fill="white" transform="translate(0.830078 0.415039)"/>
</clipPath>
</defs>
</svg>
