<svg width="125" height="67" viewBox="0 0 125 67" fill="none" xmlns="http://www.w3.org/2000/svg">
<g clip-path="url(#clip0_753_863)">
<path d="M40.7927 30.1724C40.6787 29.4445 40.3317 28.8909 39.7694 28.5194C39.2679 28.1908 38.6676 27.9911 37.9811 27.9229C37.3251 27.8622 36.6159 27.933 35.8788 28.1352C35.1418 28.3348 34.4553 28.6483 33.8424 29.0653L33.5156 29.2877L34.8505 34.9394L35.2532 34.9824C35.3925 34.9975 35.5419 35.0051 35.699 34.9975C36.0536 34.9849 36.4589 34.9167 36.9021 34.7928C37.5201 34.6184 38.1255 34.3404 38.6929 33.9688C39.2729 33.5897 39.7719 33.0968 40.1797 32.5104C40.6103 31.881 40.8231 31.1228 40.8028 30.2482V30.2128L40.7952 30.1724H40.7927Z" fill="#1D1D1B"/>
<path d="M124.377 30.6955C124.36 30.4453 124.309 30.2051 124.238 29.9751C124.048 28.3221 122.789 26.8081 121.077 26.0321C120.948 25.9487 120.819 25.8805 120.697 25.835C120.267 25.6757 120.674 25.3345 121.194 25.0337C121.832 24.8239 122.412 24.5459 122.921 24.1971L123.21 23.9999L120.186 1.25177L120.13 1.1532C119.874 0.710871 119.421 0.427783 118.78 0.301404C118.653 0.268545 118.504 0.248325 118.339 0.240742C118.177 0.230632 118.007 0.220522 117.825 0.223049H117.751C117.311 0.240742 116.852 0.291294 116.386 0.369648C116.376 0.369648 116.363 0.369648 116.353 0.369648C116.176 0.389869 115.933 0.437893 115.652 0.506137C115.262 0.592075 114.864 0.69065 114.459 0.817029C114.104 0.925715 113.76 1.04704 113.423 1.17594C112.369 1.53233 111.336 1.92663 110.796 2.18192C109.618 2.74557 108.19 3.61758 107.151 4.24189C106.708 4.50729 106.341 4.77268 106.044 5.03302C105.935 4.70949 105.829 4.39102 105.72 4.06749L105.644 3.83748L105.426 3.73132C104.519 3.29658 103.544 3.16262 102.531 3.33449C101.609 3.48868 100.685 3.78693 99.783 4.2242C98.8686 4.66653 97.6325 5.31611 96.9436 5.87723C96.4243 6.29934 95.8342 6.90596 95.1857 7.68951L95.0717 7.82852L95.0566 8.00292C94.9679 8.94571 94.8868 9.82025 94.8109 10.6518C94.5297 13.7607 94.2992 16.2959 93.8864 19.3164L93.433 18.7931C91.1787 16.1796 89.2283 13.92 86.9563 11.4758L86.8195 11.3646C86.3712 11.1093 85.814 11.0183 85.1124 11.0992C84.5197 11.1674 83.8738 11.3267 83.1975 11.5617C82.5567 11.7842 81.9082 12.0622 81.2066 12.4085C80.5455 12.7371 79.9478 13.0631 79.4336 13.3841C78.8991 13.7127 78.4559 14.0337 78.1038 14.3421C77.7365 14.6656 77.4047 15.0296 77.4579 15.4567L77.4731 15.5351C77.7391 16.531 78.0025 17.5395 78.2634 18.5555C77.7467 18.1107 77.2122 17.7189 76.6626 17.3828C75.4848 16.6573 74.2361 16.1999 72.9443 16.0179C71.6424 15.8334 70.3303 15.9951 68.9676 16.536C67.4352 17.2741 66.1586 18.2977 65.1784 19.5716C64.1855 20.8329 63.4282 22.2458 62.9216 23.7649C62.8051 24.1036 62.7063 24.4524 62.6126 24.7987C62.0781 24.1112 61.493 23.4767 60.8573 22.9156C59.7301 21.9021 58.4586 21.1387 57.0807 20.6433C55.6623 20.1252 54.1248 20.0089 52.4936 20.3046C50.7586 20.6282 49.216 21.3283 47.904 22.3848C46.9871 23.1406 46.2069 24.0429 45.5636 25.0817C45.5053 25.0261 45.4521 24.9705 45.3913 24.9175C44.2819 23.9266 43.0535 23.2063 41.7364 22.7918C40.4927 22.3949 39.1756 22.2205 37.823 22.266L37.6001 22.2761C36.1766 22.352 34.7658 22.6199 33.4031 23.0774C31.7744 23.6233 30.1711 24.3386 29.1123 24.9882C28.8388 25.1525 28.5855 25.3016 28.3423 25.4457C27.9827 25.653 27.6483 25.8501 27.3241 26.0624C27.081 25.567 26.7137 25.1449 26.235 24.8088C25.6119 24.374 24.8697 24.0682 24.0389 23.8988C23.3702 23.7649 22.6534 23.7017 21.9062 23.7169C21.7922 23.7169 21.6757 23.7194 21.5592 23.727C20.6778 23.7674 19.8444 23.9115 19.0795 24.1491C18.2943 24.3942 17.5927 24.7254 16.9949 25.1399C16.2832 25.6302 15.8121 26.2116 15.5866 26.8637L15.4853 27.1594L15.5486 27.4627L15.617 27.7913C15.536 27.6927 15.46 27.6144 15.3891 27.5562C14.3176 26.7095 13.2412 26.1332 12.3217 25.7414C12.0203 25.4912 11.6708 25.2789 11.268 25.1096C10.5664 24.8062 9.75841 24.6091 8.87443 24.5181C8.4337 24.4726 7.97778 24.4524 7.52186 24.4625C7.09126 24.4701 6.648 24.5029 6.20475 24.556C5.2777 24.6748 4.41651 24.8846 3.64144 25.1829C2.81572 25.5064 2.12677 25.9209 1.58979 26.4188C0.933768 27.033 0.56903 27.7711 0.528503 28.5647L0.523438 28.7038L0.548767 28.8428L7.59531 64.4967L7.68143 64.9315L7.69156 64.9365L7.64344 65.0098C7.64344 65.0098 11.4276 67.5956 14.6419 66.4632C14.8166 66.4025 14.9939 66.3368 15.1687 66.2686C15.8323 66.0992 16.501 65.8793 17.1697 65.5937C17.9093 65.2828 18.5856 64.9568 19.196 64.6181C19.8039 64.2819 20.3156 63.966 20.731 63.6677C20.7791 63.6323 20.8171 63.602 20.8627 63.5666C21.2071 63.377 21.4123 63.2557 21.4123 63.2557C21.4123 63.2557 22.1722 61.5218 25.4675 60.9607C25.4852 60.9556 25.4979 60.9531 25.5156 60.9506C25.736 61.0188 25.8778 61.0643 25.8778 61.0643C26.2426 61.3044 26.9037 61.4156 27.8636 61.3904C28.8211 61.3701 29.8368 61.2337 30.9082 60.986C31.9821 60.7382 32.9953 60.3768 33.9477 59.8966C34.9 59.4214 35.5535 58.8451 35.9107 58.1753L35.6548 57.1112C35.7308 57.0682 36.0728 56.8812 36.3235 56.818C36.3387 56.8154 36.359 56.8079 36.3793 56.8028C36.82 56.8534 37.2759 56.8711 37.7572 56.8483C38.7602 56.8003 39.6872 56.5728 40.5332 56.1709C41.3716 55.7665 41.863 55.1776 41.9947 54.4016L41.5312 52.4427C42.0606 52.5995 44.8949 53.4058 45.6598 53.3451C45.7231 53.3375 45.7839 53.3299 45.8447 53.3223L45.865 53.3527C46.022 53.3249 46.1867 53.2895 46.3564 53.2541C46.7034 53.1985 47.0453 53.1227 47.3746 53.0266C47.7773 52.9331 48.1902 52.8295 48.6081 52.7334C49.601 52.5034 51.3741 51.7755 52.2428 51.3761C53.1116 50.9742 53.8411 50.4662 54.4363 49.8469C54.9936 49.2656 55.2975 48.5629 55.3659 47.7415C55.7459 47.8223 56.1359 47.883 56.5311 47.9184C57.8912 48.0397 59.2793 47.8274 60.6901 47.2966C62.3669 46.551 63.7397 45.588 64.8086 44.4126C65.647 43.5027 66.3182 42.5271 66.8273 41.4908C67.1161 41.7208 67.4175 41.9381 67.729 42.1404C69.0259 42.977 70.4823 43.5179 72.0882 43.7681C73.7016 44.0183 75.4291 43.8591 77.2578 43.298C79.2006 42.6939 80.8596 41.8067 82.2274 40.6364C82.9189 40.0349 83.5116 39.3828 84.0131 38.6801C84.9351 39.039 86.0622 39.36 86.9943 39.6027C87.4578 39.7796 87.934 39.906 88.4203 39.9793C88.5115 39.9919 88.5976 39.997 88.6888 40.0096C88.7471 40.0248 88.7901 40.0323 88.7901 40.0323L88.818 40.0273C89.7526 40.1335 90.6442 40.1511 91.4801 40.0425C92.435 39.9186 93.2481 39.7012 93.9193 39.3752C94.512 39.087 94.8792 38.8191 95.016 38.5916L95.0414 38.584L95.6898 37.2798L98.8964 38.0558C99.4562 38.2605 100.031 38.4147 100.606 38.5108C101.219 38.6119 101.792 38.4248 102.316 37.9294C102.316 37.9218 102.316 37.9168 102.318 37.9117L103.912 36.2258L104.264 36.428L104.286 36.5013L104.456 36.6151C105.054 37.0195 105.834 37.3455 106.837 37.6109C107.222 37.712 107.607 37.7828 107.997 37.8308C108.245 37.9168 108.509 37.9951 108.795 38.0684C109.722 38.301 110.672 38.3818 111.647 38.2984C112.62 38.2074 113.559 37.9345 114.451 37.4416C115.343 36.9538 116.021 36.1475 116.485 35.005C116.48 34.9873 116.475 34.9721 116.47 34.957C116.938 35.0783 117.658 35.1718 118.747 35.1718C118.901 35.1744 119.056 35.1744 119.21 35.1668C123.263 35.0682 124.497 32.25 124.372 30.6955H124.377ZM31.6199 58.2157C30.6676 58.6934 29.6544 59.0574 28.5804 59.3051C27.5065 59.5528 26.4908 59.6893 25.5359 59.712C25.4776 59.712 25.4219 59.712 25.3636 59.712H25.1534C25.118 59.712 25.0825 59.707 25.047 59.707C24.9736 59.707 24.9052 59.7045 24.8419 59.6994C24.8089 59.6969 24.776 59.6944 24.7456 59.6918C24.6823 59.6868 24.619 59.6817 24.5582 59.6767C24.5278 59.6767 24.4999 59.6666 24.4695 59.664C24.4138 59.6564 24.3555 59.6489 24.3049 59.6413C24.2745 59.6362 24.2492 59.6312 24.2188 59.6236C24.1706 59.6135 24.1225 59.6059 24.0769 59.5958C24.0465 59.5882 24.0161 59.5781 23.9883 59.568C23.9528 59.5579 23.9123 59.5452 23.8768 59.5376C23.8414 59.5275 23.8135 59.5098 23.7806 59.4972C23.7527 59.4871 23.7249 59.4795 23.7021 59.4669C23.6463 59.4441 23.5982 59.4138 23.5526 59.386L20.8677 48.1989L16.9189 49.0482L19.12 61.3297C19.0567 61.4687 18.8186 61.6861 18.4032 61.9843C17.9878 62.2801 17.4762 62.596 16.8683 62.9347C16.2578 63.2709 15.5841 63.5969 14.842 63.9104C14.1023 64.2263 13.3602 64.4689 12.6231 64.6408C12.4534 64.6813 12.2837 64.7141 12.1191 64.7419C12.071 64.752 12.0228 64.7571 11.9747 64.7647C11.8557 64.7824 11.7391 64.8001 11.6226 64.8127C11.5669 64.8177 11.5112 64.8253 11.4529 64.8279C11.3389 64.838 11.225 64.8456 11.1085 64.8506C11.0603 64.8557 11.0122 64.8582 10.9615 64.8582C10.7969 64.8607 10.6348 64.8607 10.4752 64.8557C9.78627 64.8177 9.20117 64.6282 8.72752 64.2743L1.67844 28.6178C1.70124 28.1199 1.93173 27.6725 2.36739 27.2681C2.80305 26.8662 3.36536 26.5326 4.05431 26.2647C4.74326 25.9967 5.50566 25.8097 6.34406 25.7035C6.54922 25.6757 6.75439 25.6606 6.95955 25.6454C7.00768 25.6403 7.0558 25.6403 7.10646 25.6378C7.25843 25.6302 7.41041 25.6201 7.55985 25.6201C7.66877 25.6176 7.77515 25.6201 7.88153 25.6252C7.97525 25.6252 8.0715 25.6252 8.16521 25.6277C8.36278 25.6353 8.56035 25.6505 8.75538 25.6707C9.52285 25.749 10.2118 25.9184 10.8172 26.1762C11.42 26.4315 11.8557 26.7929 12.1267 27.263L15.2118 41.0661L19.3657 40.4014L16.6758 27.2454C16.8176 26.8283 17.1444 26.4416 17.6484 26.0928C18.1525 25.744 18.7426 25.4634 19.4214 25.2536C20.0977 25.0438 20.8297 24.92 21.6149 24.8821C21.7669 24.8745 21.9138 24.872 22.0607 24.872C22.1443 24.872 22.2254 24.872 22.309 24.872C22.4077 24.872 22.5065 24.877 22.6028 24.8821C22.6788 24.8871 22.7522 24.8897 22.8257 24.8947C22.9371 24.9048 23.0435 24.9175 23.1524 24.9276C23.2107 24.9351 23.2715 24.9377 23.3272 24.9478C23.4944 24.9705 23.6565 24.9958 23.816 25.0287C24.4949 25.1677 25.085 25.4078 25.584 25.7591C26.083 26.1054 26.3819 26.5654 26.4908 27.1442L33.588 56.4919C33.2309 57.1643 32.5774 57.7355 31.625 58.2132L31.6199 58.2157ZM52.0833 48.1282C51.5514 48.7045 50.8801 49.1898 50.0899 49.5689C49.2667 49.9657 48.37 50.2892 47.4278 50.5268C46.5666 50.7417 45.8143 50.9161 45.138 51.0551L36.1614 40.0096L39.5555 53.3122C39.4415 53.8456 39.0793 54.2601 38.4588 54.5735C37.6913 54.9552 36.8352 55.1801 35.9157 55.2408C35.4066 55.2736 34.9178 55.2559 34.4542 55.1978L27.6863 27.2175C28.0637 26.9471 28.4639 26.7095 28.9249 26.4416C29.1757 26.295 29.4391 26.1433 29.7177 25.9715C30.7081 25.3648 32.2253 24.6925 33.7754 24.1718C35.0393 23.7447 36.3489 23.497 37.6685 23.4287L37.8686 23.4211C39.092 23.3782 40.2749 23.5349 41.3919 23.8938C42.5519 24.2628 43.6411 24.8947 44.6289 25.7794C45.5357 26.5882 46.0854 27.4273 46.7971 29.1082C46.9947 29.8664 47.058 30.6121 46.9871 31.3173C46.9111 32.0755 46.749 32.8288 46.5109 33.5491C46.2652 34.2872 45.946 35.0227 45.5661 35.738C45.1659 36.4811 44.7556 37.2116 44.3478 37.9142L44.1173 38.306L52.8254 46.4574C52.7646 47.1121 52.524 47.658 52.0883 48.1256L52.0833 48.1282ZM64.1526 39.1073C63.6536 40.3887 62.8861 41.5969 61.8679 42.7015C60.8547 43.8136 59.5351 44.7362 57.9723 45.4338C56.6425 45.9342 55.3203 46.1339 54.0691 46.0252C54.0412 46.0227 54.0133 46.0176 53.988 46.0151V45.9797L45.5636 38.0988C45.903 37.5073 46.2399 36.8982 46.5742 36.284C46.9871 35.5105 47.3315 34.7143 47.5975 33.9106C47.8634 33.1093 48.0408 32.2752 48.1269 31.4335C48.2155 30.5742 48.137 29.6819 47.8964 28.7745L47.871 28.6987C47.4126 27.6169 46.9744 26.7499 46.3716 25.974C46.9769 24.925 47.7368 24.0227 48.6309 23.2821C49.7885 22.3494 51.1588 21.7302 52.7038 21.442C53.1724 21.3561 53.6359 21.3106 54.0843 21.3005C54.991 21.2853 55.8649 21.4269 56.6906 21.7302C57.9318 22.1725 59.0766 22.8625 60.0974 23.7775C61.1181 24.6799 62.0097 25.7718 62.7544 27.028C63.5016 28.269 64.0639 29.5834 64.4363 30.9356C64.8061 32.2803 64.9808 33.6755 64.9555 35.0834C64.9327 36.4786 64.6617 37.8334 64.1576 39.1123L64.1526 39.1073ZM82.3692 35.0859C81.8702 36.5342 81.0622 37.8131 79.9731 38.8848C78.8561 39.9666 77.4782 40.7932 75.8774 41.3391C74.9174 41.6626 73.9828 41.837 73.1013 41.8522C72.6125 41.8598 72.1312 41.8219 71.6677 41.7385C70.3557 41.4958 69.15 40.9751 68.0912 40.1966C67.2149 39.5471 66.4398 38.7281 65.7686 37.7727C65.9737 36.9007 66.0852 36.0085 66.1004 35.0985C66.1282 33.5795 65.9408 32.0781 65.5406 30.6298C65.1455 29.1764 64.5376 27.766 63.7397 26.4365C63.6662 26.3102 63.5827 26.1964 63.5067 26.0726C63.6333 25.4129 63.798 24.7658 64.0133 24.1339C64.4793 22.7336 65.1733 21.437 66.0877 20.2768C66.9616 19.1419 68.0988 18.2295 69.4311 17.5875C70.2239 17.2741 71.0243 17.1073 71.807 17.0946C72.1312 17.0921 72.463 17.1098 72.7872 17.1578C73.9194 17.3145 75.0213 17.7214 76.0648 18.3635C77.1286 19.008 78.1317 19.8952 79.0562 20.9972C79.9934 22.1043 80.7938 23.3959 81.4295 24.8467C82.2679 26.7196 82.7644 28.5496 82.9011 30.2835C83.0354 32.0275 82.8581 33.6426 82.3692 35.0859ZM112.379 35.9781C111.579 36.4078 110.71 36.6656 109.798 36.7389C108.899 36.8072 108.01 36.7288 107.136 36.4963C106.366 36.2915 105.738 36.0464 105.269 35.7658C104.205 32.3182 103.154 28.9767 101.875 24.9731L100.915 21.9703L100.753 25.1197C100.55 29.0627 100.284 32.9147 99.9603 36.5645C99.6208 36.8274 99.2713 36.9159 98.8964 36.8501C98.3696 36.7566 97.8402 36.61 97.3184 36.4154C97.2576 36.3345 97.1335 36.1677 96.8904 35.8214C96.5383 35.3184 96.1178 34.6966 95.6239 33.9636C95.1275 33.2256 94.588 32.437 94.013 31.6029L92.4097 29.2952C91.9081 28.5698 91.4953 27.9935 91.1483 27.536C90.5961 26.803 90.4669 26.6261 90.125 26.6312L89.7476 26.7171L89.6285 26.9345C89.4892 27.1872 89.545 27.3945 89.7856 28.1376C89.9452 28.638 90.1503 29.2624 90.3985 30.0156C90.6442 30.7637 90.9001 31.5726 91.1736 32.437C91.4472 33.309 91.7055 34.1178 91.9487 34.871C92.1893 35.6116 92.3818 36.2334 92.5262 36.7364C92.592 36.9664 92.6326 37.1155 92.6528 37.209C92.5591 37.2975 92.3413 37.4618 91.8499 37.6918C91.2521 37.9774 90.4897 38.1796 89.588 38.2858C88.704 38.3869 87.7263 38.354 86.6828 38.1948C85.7633 38.0533 84.8692 37.6893 84.0232 37.1206C83.8586 36.4912 83.6965 35.8568 83.5344 35.2173C84.0106 33.6856 84.1879 31.9997 84.0485 30.195C83.9016 28.3297 83.3723 26.3759 82.4807 24.3816C81.7993 22.8373 80.9407 21.4471 79.9326 20.2591C79.9047 20.2288 79.8768 20.1985 79.8515 20.1681C79.4564 18.5758 79.0511 16.9885 78.6357 15.4315C78.6788 15.3834 78.7497 15.3076 78.8688 15.204C79.1676 14.9411 79.5628 14.658 80.0389 14.3648C80.5278 14.0615 81.0926 13.7506 81.7208 13.4397C82.3768 13.1137 82.9847 12.8559 83.58 12.6486C84.1777 12.4388 84.7375 12.3023 85.2441 12.2417C85.6265 12.1987 85.9533 12.2265 86.1838 12.3301C88.4102 14.7313 90.3352 16.9657 92.5642 19.5464L94.6589 21.9728L94.8438 20.7318C95.3808 17.1073 95.6366 14.3042 95.9583 10.758C96.0292 9.98202 96.1026 9.16308 96.1862 8.28854C96.7308 7.63895 97.2424 7.11322 97.668 6.772C98.1416 6.3878 99.0712 5.84943 100.284 5.26051C101.087 4.87379 101.908 4.60839 102.721 4.46937C103.425 4.35058 104.081 4.41882 104.712 4.67664C108.286 15.3203 111.272 24.6596 114.099 34.0369C113.686 34.9469 113.121 35.5863 112.379 35.9832V35.9781ZM114.291 23.4135L110.431 4.38849C110.636 3.99672 111.118 3.57461 111.835 3.17273C112.736 2.66216 113.732 2.235 114.798 1.90894C115.862 1.58036 116.87 1.39837 117.787 1.36804H117.848C118.466 1.35288 118.896 1.45651 119.079 1.65113L121.976 23.4338C121.541 23.6891 121.049 23.8938 120.507 24.0454C119.833 24.23 119.127 24.3336 118.405 24.3488L118.39 24.92L118.382 24.3488C117.675 24.3589 116.938 24.2755 116.184 24.0935C115.522 23.9393 114.887 23.7093 114.289 23.4135H114.291ZM120.013 33.0461C119.803 33.0512 119.59 33.0386 119.372 33.0158C117.212 32.7529 115.439 31.0898 115.421 29.3028C115.406 27.7888 116.71 26.6665 118.524 26.6337C118.732 26.6312 118.947 26.6413 119.162 26.6665C121.323 26.9269 123.098 28.5925 123.114 30.377C123.129 31.8936 121.824 33.0158 120.011 33.0461H120.013Z" fill="#1D1D1B"/>
<path d="M75.0972 25.4836C74.7148 24.5838 74.2462 23.8382 73.7067 23.2821C73.2026 22.7589 72.6454 22.4985 72.0527 22.5112C71.8931 22.5137 71.7335 22.5365 71.5309 22.5921C70.7077 22.8777 70.1175 23.4514 69.7705 24.2931C69.4565 25.0514 69.2969 25.9209 69.2969 26.8814C69.2969 27.8191 69.4261 28.8048 69.6819 29.8209C69.9352 30.8218 70.267 31.7495 70.6722 32.5861C71.0876 33.4328 71.5816 34.1406 72.1413 34.689C72.7543 35.2855 73.3926 35.5762 74.0385 35.5661L74.1651 35.5611C74.7072 35.4726 75.4392 35.1415 75.852 34.0571C76.1205 33.3368 76.2674 32.4698 76.2852 31.4765C76.2978 30.5059 76.1965 29.4746 75.9838 28.4181C75.771 27.3515 75.4746 26.3683 75.1023 25.4887L75.0972 25.4836Z" fill="#1D1D1B"/>
<path d="M57.3541 30.7282C56.9716 29.8562 56.5157 29.1206 55.9965 28.5393C55.4063 27.8745 54.7756 27.5131 54.1196 27.4727H54.0867H54.0537C53.5016 27.4979 52.7442 27.7532 52.2503 28.8097C51.9261 29.5099 51.7108 30.3718 51.6145 31.3702C51.5234 32.3483 51.5436 33.4023 51.6753 34.5044C51.8096 35.6089 52.0426 36.6275 52.3643 37.5299C52.7012 38.4701 53.1444 39.241 53.689 39.8199C54.1981 40.3633 54.7832 40.6337 55.424 40.6211C55.576 40.6186 55.7331 40.5984 55.9281 40.5529C56.8121 40.2875 57.4681 39.7415 57.881 38.9276C58.2558 38.1896 58.4661 37.3327 58.5091 36.3925C58.5496 35.48 58.4559 34.5069 58.2356 33.5009C58.0203 32.5076 57.7214 31.5724 57.3516 30.7256L57.3541 30.7282Z" fill="#1D1D1B"/>
<path d="M79.852 20.1683C79.4568 18.576 79.0516 16.9886 78.6362 15.4316C78.6792 15.3836 78.7502 15.3078 78.8692 15.2042C79.1681 14.9413 79.5632 14.6582 80.0394 14.365C80.5283 14.0617 81.0931 13.7508 81.7213 13.4399C82.3773 13.1139 82.9852 12.856 83.5804 12.6488C84.1782 12.439 84.7379 12.3025 85.2445 12.2418C85.627 12.1989 85.9537 12.2267 86.1842 12.3303C88.4107 14.7315 90.3357 16.9659 92.5646 19.5465L94.6593 21.973L94.8442 20.732C95.3812 17.1074 95.637 14.3043 95.9587 10.7582C96.0296 9.9822 96.1031 9.16326 96.1867 8.28872C96.7313 7.63914 97.2429 7.1134 97.6684 6.77218C98.1421 6.38799 99.0717 5.84961 100.285 5.26069C101.088 4.87397 101.909 4.60857 102.722 4.46956C103.426 4.35076 104.082 4.419 104.712 4.67682C108.286 15.3204 111.273 24.6598 114.099 34.0371C113.687 34.9471 113.122 35.5865 112.38 35.9834C111.579 36.4131 110.71 36.6709 109.799 36.7442C108.899 36.8124 108.01 36.7341 107.136 36.5015C106.366 36.2968 105.738 36.0516 105.27 35.771C104.206 32.3234 103.155 28.982 101.876 24.9783L100.916 21.9755L100.754 25.1249C100.551 29.0679 100.285 32.9199 99.9607 36.5698C99.6213 36.8326 99.2718 36.9211 98.8969 36.8554C98.37 36.7619 97.8407 36.6153 97.3189 36.4206C97.2581 36.3397 97.134 36.1729 96.8908 35.8266C96.5387 35.3237 96.1183 34.7019 95.6244 33.9689C95.1279 33.2308 94.5884 32.4422 94.0134 31.6081L92.4101 29.3005C91.9086 28.575 91.4957 27.9988 91.1487 27.5413C90.5966 26.8083 90.4674 26.6313 90.1254 26.6364L89.748 26.7223L89.629 26.9397C89.4897 27.1925 89.5454 27.3997 89.786 28.1428C89.9456 28.6433 90.1508 29.2676 90.399 30.0208C90.6447 30.769 90.9005 31.5778 91.1741 32.4422C91.4476 33.3142 91.706 34.1231 91.9491 34.8763C92.1898 35.6169 92.3823 36.2386 92.5266 36.7416C92.5925 36.9716 92.633 37.1208 92.6533 37.2143C92.5596 37.3028 92.3417 37.467 91.8503 37.6971C91.2526 37.9827 90.4902 38.1849 89.5885 38.291C88.7045 38.3921 87.7268 38.3593 86.6832 38.2C85.7638 38.0585 84.8697 37.6945 84.0237 37.1258C83.859 36.4965 83.6969 35.862 83.5348 35.2226C84.011 33.6908 84.1883 32.005 84.049 30.2003C83.9021 28.3349 83.3727 26.3811 82.4811 24.3868C81.7998 22.8425 80.9411 21.4523 79.933 20.2644C79.9052 20.234 79.8773 20.2037 79.852 20.1734V20.1683ZM69.4291 17.5902C70.2219 17.2768 71.0223 17.11 71.8049 17.0973C72.1291 17.0948 72.461 17.1125 72.7852 17.1605C73.9174 17.3172 75.0192 17.7242 76.0627 18.3662C77.1266 19.0107 78.1296 19.8979 79.0541 20.9999C79.9913 22.107 80.7917 23.3986 81.4274 24.8494C82.2658 26.7223 82.7623 28.5523 82.8991 30.2862C83.0333 32.0302 82.856 33.6454 82.3671 35.0886C81.8682 36.5369 81.0602 37.8159 79.971 38.8875C78.854 39.9693 77.4761 40.7959 75.8753 41.3418C74.9153 41.6654 73.9807 41.8398 73.0992 41.8549C72.6104 41.8625 72.1291 41.8246 71.6656 41.7412C70.3536 41.4985 69.1479 40.9778 68.0891 40.1994C67.2128 39.5498 66.4377 38.7308 65.7665 37.7754C65.9716 36.9034 66.0831 36.0112 66.0983 35.1012C66.1262 33.5822 65.9387 32.0808 65.5385 30.6325C65.1434 29.1791 64.5355 27.7687 63.7376 26.4392C63.6642 26.3129 63.5806 26.1991 63.5046 26.0753C63.6312 25.4156 63.7959 24.7685 64.0112 24.1366C64.4772 22.7363 65.1712 21.4397 66.0856 20.2795C66.9595 19.1447 68.0968 18.2322 69.4291 17.5902ZM69.6798 29.8161C69.9331 30.817 70.2649 31.7446 70.6702 32.5812C71.0856 33.428 71.5795 34.1357 72.1393 34.6842C72.7522 35.2807 73.3905 35.5714 74.0364 35.5613L74.1631 35.5562C74.7051 35.4677 75.4371 35.1366 75.85 34.0523C76.1185 33.3319 76.2654 32.465 76.2831 31.4716C76.2958 30.5011 76.1945 29.4698 75.9817 28.4133C75.7689 27.3466 75.4726 26.3634 75.1002 25.4838C74.7178 24.584 74.2492 23.8384 73.7097 23.2823C73.2056 22.7591 72.6484 22.4987 72.0557 22.5114C71.8961 22.5139 71.7365 22.5367 71.5339 22.5923C70.7107 22.8779 70.1205 23.4516 69.7735 24.2933C69.4594 25.0516 69.2999 25.9211 69.2999 26.8816C69.2999 27.8193 69.4291 28.805 69.6849 29.8211L69.6798 29.8161ZM119.079 1.65384C118.897 1.45921 118.466 1.35558 117.848 1.36822H117.787C116.87 1.39855 115.862 1.58307 114.798 1.91165C113.735 2.23771 112.737 2.66487 111.835 3.17544C111.118 3.57985 110.637 3.99943 110.432 4.3912L114.292 23.4163C114.89 23.712 115.525 23.942 116.187 24.0962C116.939 24.2782 117.676 24.3641 118.385 24.3515L118.393 24.9227L118.408 24.3515C119.13 24.3363 119.839 24.2327 120.51 24.0482C121.05 23.8965 121.541 23.6918 121.979 23.4365L119.082 1.65384H119.079ZM48.6314 23.2798C49.7889 22.3471 51.1592 21.7278 52.7043 21.4397C53.1729 21.3538 53.6364 21.3083 54.0847 21.2982C54.9915 21.283 55.8654 21.4245 56.6911 21.7278C57.9322 22.1702 59.0771 22.8602 60.0978 23.7752C61.1186 24.6775 62.0102 25.7694 62.7549 27.0256C63.5021 28.2667 64.0644 29.581 64.4367 30.9333C64.8065 32.2779 64.9813 33.6732 64.956 35.081C64.9332 36.4762 64.6621 37.831 64.1581 39.11C63.6591 40.3915 62.8916 41.5996 61.8734 42.7042C60.8602 43.8163 59.5406 44.7389 57.9778 45.4365C56.648 45.937 55.3258 46.1366 54.0746 46.0279C54.0467 46.0254 54.0189 46.0204 53.9935 46.0178V45.9824L45.5691 38.1015C45.9085 37.51 46.2454 36.9009 46.5797 36.2867C46.9926 35.5132 47.3371 34.717 47.603 33.9133C47.869 33.112 48.0463 32.2779 48.1324 31.4363C48.221 30.5769 48.1425 29.6846 47.9019 28.7772L47.8766 28.7014C47.4181 27.6196 46.9799 26.7527 46.3771 25.9767C46.9825 24.9277 47.7423 24.0254 48.6364 23.2848L48.6314 23.2798ZM55.4246 40.6215C55.5766 40.6189 55.7336 40.5987 55.9287 40.5532C56.8127 40.2878 57.4687 39.7419 57.8815 38.928C58.2564 38.1899 58.4666 37.3331 58.5097 36.3928C58.5502 35.4804 58.4565 34.5073 58.2362 33.5013C58.0209 32.5079 57.722 31.5727 57.3522 30.726C56.9697 29.854 56.5138 29.1185 55.9945 28.5371C55.4044 27.8724 54.7737 27.5109 54.1176 27.4705H54.0847H54.0518C53.4996 27.4958 52.7423 27.751 52.2484 28.8076C51.9242 29.5077 51.7089 30.3696 51.6126 31.368C51.5214 32.3462 51.5417 33.4002 51.6734 34.5022C51.8076 35.6068 52.0407 36.6254 52.3623 37.5277C52.6992 38.468 53.1425 39.2389 53.6871 39.8177C54.1962 40.3611 54.7813 40.6316 55.4221 40.6189L55.4246 40.6215ZM27.6842 27.2177C28.0616 26.9473 28.4618 26.7097 28.9228 26.4418C29.1736 26.2952 29.437 26.1435 29.7156 25.9716C30.706 25.365 32.2232 24.6927 33.7733 24.172C35.0373 23.7448 36.3468 23.4971 37.6664 23.4289L37.8665 23.4213C39.0899 23.3783 40.2728 23.5351 41.3898 23.894C42.5499 24.263 43.639 24.8949 44.6268 25.7795C45.5336 26.5884 46.0833 27.4275 46.795 29.1084C46.9926 29.8666 47.0559 30.6123 46.985 31.3175C46.909 32.0757 46.7469 32.8289 46.5088 33.5493C46.2631 34.2874 45.944 35.0229 45.564 35.7382C45.1638 36.4813 44.7535 37.2118 44.3457 37.9144L44.1152 38.3062L52.8233 46.4576C52.7625 47.1123 52.5219 47.6582 52.0863 48.1258C51.5543 48.7021 50.8831 49.1874 50.0929 49.5665C49.2697 49.9634 48.373 50.2869 47.4308 50.5245C46.5696 50.7393 45.8173 50.9137 45.141 51.0528L36.1644 40.0073L39.5585 53.3099C39.4445 53.8432 39.0823 54.2577 38.4618 54.5711C37.6943 54.9528 36.8382 55.1778 35.9187 55.2384C35.4096 55.2713 34.9208 55.2536 34.4572 55.1955L27.6893 27.2152L27.6842 27.2177ZM36.904 34.7903C37.522 34.6159 38.1274 34.3379 38.6948 33.9664C39.2748 33.5872 39.7738 33.0943 40.1816 32.5079C40.6122 31.8786 40.825 31.1203 40.8047 30.2458V30.2104L40.7971 30.1699C40.6831 29.442 40.3361 28.8885 39.7738 28.5169C39.2723 28.1883 38.672 27.9886 37.9856 27.9204C37.3295 27.8597 36.6203 27.9305 35.8833 28.1327C35.1462 28.3324 34.4598 28.6458 33.8468 29.0629L33.5201 29.2853L34.8549 34.9369L35.2576 34.9799C35.3969 34.9951 35.5464 35.0027 35.7034 34.9951C36.058 34.9824 36.4633 34.9142 36.9066 34.7903H36.904ZM10.4757 64.8559C10.6352 64.8609 10.7999 64.8609 10.962 64.8584C11.0127 64.8584 11.0608 64.8558 11.1089 64.8508C11.2229 64.8483 11.3369 64.8407 11.4534 64.828C11.5091 64.8255 11.5674 64.8179 11.6231 64.8129C11.7396 64.8002 11.8586 64.7826 11.9752 64.7649C12.0233 64.7547 12.0714 64.7497 12.1195 64.7421C12.2842 64.7118 12.4539 64.6789 12.6236 64.641C13.3607 64.4691 14.1028 64.2265 14.8424 63.9105C15.582 63.5996 16.2583 63.2711 16.8687 62.9349C17.4766 62.5962 17.9883 62.2803 18.4037 61.9845C18.8191 61.6863 19.0572 61.4664 19.1205 61.3299L16.9194 49.0484L20.8682 48.1991L23.5531 59.3862C23.5987 59.4165 23.6468 59.4443 23.7025 59.4671C23.7253 59.4797 23.7557 59.4898 23.781 59.4974C23.8114 59.5126 23.8418 59.5277 23.8773 59.5378C23.9127 59.5479 23.9533 59.5581 23.9887 59.5682C24.0191 59.5757 24.047 59.5859 24.0774 59.596C24.123 59.6061 24.1711 59.6137 24.2192 59.6238C24.2496 59.6314 24.2749 59.6364 24.3053 59.6415C24.3585 59.6465 24.4143 59.6566 24.47 59.6642C24.5004 59.6667 24.5282 59.6743 24.5586 59.6768C24.6194 59.6819 24.6827 59.687 24.7461 59.692C24.7765 59.692 24.8094 59.6971 24.8423 59.6996C24.9056 59.7021 24.974 59.7047 25.0475 59.7072C25.0829 59.7072 25.1159 59.7122 25.1539 59.7122H25.3641C25.4198 59.7122 25.4781 59.7122 25.5363 59.7122C26.4912 59.6895 27.5095 59.553 28.5809 59.3053C29.6548 59.0576 30.668 58.6936 31.6204 58.2159C32.5727 57.7382 33.2262 57.167 33.5834 56.4946L26.4862 27.147C26.3798 26.5681 26.0784 26.1081 25.5794 25.7618C25.0804 25.4105 24.4902 25.1704 23.8114 25.0314C23.6519 24.9985 23.4897 24.9732 23.3226 24.9505C23.2669 24.9404 23.2061 24.9379 23.1478 24.9303C23.0414 24.9202 22.9325 24.9075 22.8211 24.8974C22.7476 24.8924 22.6742 24.8924 22.5982 24.8848C22.5019 24.8797 22.4031 24.8747 22.3043 24.8747C22.2208 24.8747 22.1397 24.8747 22.0561 24.8747C21.9092 24.8747 21.7623 24.8747 21.6103 24.8848C20.8251 24.9227 20.0931 25.0465 19.4168 25.2563C18.738 25.4661 18.1478 25.7467 17.6438 26.0955C17.1398 26.4443 16.813 26.8285 16.6712 27.2481L19.3611 40.4041L15.2071 41.0688L12.1221 27.2658C11.8536 26.7956 11.4154 26.4342 10.8126 26.1789C10.2097 25.9211 9.52077 25.7517 8.75077 25.6734C8.55827 25.6506 8.3607 25.638 8.1606 25.6304C8.06688 25.6279 7.97063 25.6279 7.87691 25.6279C7.77053 25.6228 7.66415 25.6203 7.55524 25.6228C7.40579 25.6228 7.25382 25.6329 7.10185 25.6405C7.05119 25.6431 7.00306 25.6431 6.95494 25.6481C6.7523 25.6633 6.54714 25.6784 6.33944 25.7062C5.50358 25.8124 4.74118 25.9994 4.04969 26.2674C3.36074 26.5353 2.79844 26.8689 2.36278 27.2708C1.92712 27.6752 1.69662 28.1226 1.67383 28.6205L8.71784 64.2796C9.19149 64.6334 9.77406 64.823 10.4655 64.8609L10.4757 64.8559ZM119.165 26.6692C118.95 26.644 118.735 26.6339 118.527 26.6364C116.713 26.6692 115.409 27.7915 115.424 29.3055C115.442 31.0925 117.215 32.7556 119.375 33.0185C119.591 33.0438 119.803 33.0539 120.016 33.0488C121.83 33.0185 123.132 31.8937 123.119 30.3797C123.104 28.5927 121.328 26.9296 119.168 26.6692H119.165Z" fill="#FFED00"/>
</g>
<defs>
<clipPath id="clip0_753_863">
<rect width="123.862" height="66.5283" fill="white" transform="translate(0.523438 0.220703)"/>
</clipPath>
</defs>
</svg>
