<svg width="114" height="71" viewBox="0 0 114 71" fill="none" xmlns="http://www.w3.org/2000/svg">
<g clip-path="url(#clip0_753_1012)">
<path fill-rule="evenodd" clip-rule="evenodd" d="M106.038 16.2607C104.621 17.1801 101.478 20.3064 98.7307 23.3137C98.7307 23.2001 98.7469 23.0649 98.7469 22.9622V22.9405L98.7144 22.1508V22.1184C98.5359 20.8095 97.7246 19.798 96.5401 19.414C94.4631 18.7379 91.7749 20.1117 90.0333 21.7722L90.0117 21.7939C90.0117 21.7939 88.4377 23.449 88.151 23.7464C87.0909 23.3408 85.6576 23.1785 83.7807 23.6815C81.6551 24.217 79.7458 25.5043 78.2583 27.3487C78.0258 26.1101 77.566 25.1311 76.8845 24.455C76.1219 23.6978 74.7372 22.9135 72.4709 23.4976L72.4222 23.5084C71.1404 23.8817 70.0099 24.5794 68.9714 25.5908C68.8741 25.5313 68.7767 25.4664 68.674 25.4232L68.6144 25.3961L68.5333 25.3691C65.9425 24.4929 63.7195 25.8937 62.2753 27.0242C61.9184 27.2892 61.6533 27.538 61.4207 27.7544L60.4309 28.6739C61.0367 28.8037 61.9887 29.2201 61.9995 30.0964C61.9995 30.2803 61.9778 30.4642 61.967 30.6481C61.967 30.6481 61.967 30.6913 61.967 30.6968C61.8967 30.6318 61.8264 30.5561 61.7507 30.4912C60.4309 29.404 58.7001 29.1552 56.6123 29.7178C56.7746 29.1985 56.8773 28.6522 56.8882 28.0627V28.0464L56.8665 27.392C56.7584 25.8126 56.3527 25.1095 55.7956 24.2873L55.3304 23.6004L54.6165 24.0277C54.1351 24.3198 53.4968 24.693 52.8153 25.0067C52.2366 25.2825 51.5118 25.6017 50.43 25.9424C47.8122 26.7645 45.4431 27.2892 42.4953 27.6895C41.3054 27.8517 40.5211 27.8571 39.3907 27.4893L38.5307 28.3277L38.5199 28.3385C37.5084 29.4149 36.9729 30.5778 36.9513 31.6757C36.9405 32.195 37.0433 32.698 37.265 33.174C37.4976 33.6716 37.8438 34.0935 38.2765 34.4342C36.9243 35.013 35.6261 36.0082 34.923 37.0034C33.917 36.0947 32.1753 35.1969 30.3742 35.5322C29.9307 35.6134 29.4222 35.7864 28.9192 36.1001C28.9679 35.9487 29.022 35.781 29.0599 35.6404C29.4547 34.2936 29.6656 33.1037 29.6819 32.0976C29.7143 30.5723 29.3141 29.404 28.4919 28.6252C27.3994 27.5867 25.8578 27.4136 23.9107 28.1059L22.4882 28.609C22.4882 28.609 22.6396 30.0477 22.645 30.0856C22.645 30.1234 22.6558 30.3181 22.6558 30.3668C22.6504 30.6427 22.5855 31.0267 22.4557 31.6812C22.2069 32.963 20.8168 36.376 19.5295 39.1669C17.8528 36.4679 15.6893 32.9576 14.878 31.6162C13.2012 28.8253 11.2162 27.3757 8.98237 27.3108C6.41319 27.2351 3.89269 29.0146 1.49118 32.6115C1.15042 33.1469 0.928661 33.4931 0.685265 33.9745L0.0253906 35.2456C1.26942 35.1157 2.59457 35.159 3.68715 35.9433C4.15231 36.2786 4.68778 36.8682 5.50992 37.8256C6.76476 39.3562 10.6861 44.2891 13.9963 48.9677C12.0113 52.7701 8.89042 57.4487 7.33809 59.4554L7.30023 59.504L7.27319 59.5419C6.19143 61.1105 3.81155 63.7445 2.80552 64.4801L2.14564 64.9615L2.03747 65.7729L2.0591 65.7512C2.02665 65.8918 2.01583 66.0433 2.00501 66.1677V66.1893V66.211C1.98338 67.2386 2.37822 68.2014 3.11382 68.9208C4.06036 69.8457 5.53155 70.3325 7.01357 70.181C9.9235 69.8727 12.4711 67.4658 14.0504 65.1562C15.6082 63.0035 17.7717 59.5906 19.5836 56.4264C20.0217 56.9024 20.5194 57.3622 21.2333 57.8868C22.8668 59.0551 24.7544 59.2498 26.4204 58.4331C26.4204 58.4331 26.4258 58.4331 26.4312 58.4277C26.4204 58.5629 26.4095 58.6927 26.4095 58.8225C26.3771 60.364 26.9829 61.7595 28.1079 62.6952C29.498 63.8527 31.4505 64.1448 33.6033 63.512C36.7836 62.5871 39.1851 60.1369 40.7429 56.2371C41.7219 53.7923 42.1978 51.1637 42.4899 49.157C42.9389 49.7628 43.4527 50.1252 43.9124 50.3415C45.0645 50.877 47.4498 51.2773 50.5328 47.9779C50.668 47.8373 50.7816 47.6912 50.8952 47.5506C52.2204 48.681 54.0269 49.1245 55.9633 48.7243C57.9267 48.2267 59.5385 47.1774 60.8799 45.6521C60.8636 46.1118 60.842 46.6527 60.842 46.6527C60.7879 49.303 61.5019 52.478 64.6768 52.9324C66.9107 53.2515 69.2581 51.7911 70.8104 49.1245C71.2215 48.416 71.4649 47.6479 71.7191 46.8745L70.8537 46.6203C70.3615 46.4742 70.1992 46.3552 69.9883 46.1064C69.918 46.0253 69.8044 45.7981 69.7178 45.2194C70.1992 45.1815 70.686 45.1058 71.189 44.9544L71.2431 44.9381L71.3026 44.9165C73.358 44.143 74.9103 42.5204 76.1165 39.9079C76.5113 40.8058 77.0197 41.5739 77.6634 42.1526C78.7181 43.0937 80.5841 44.0781 83.4941 43.3858C85.4629 42.8666 87.0368 41.8822 88.4756 40.292L88.5134 40.2487C88.7298 39.9891 88.9353 39.7132 89.13 39.4374C89.2544 40.6111 89.7953 41.5522 90.7094 42.1147C92.2996 43.0937 94.3117 42.5474 95.1068 42.2662H95.1284L96.1669 41.8173L97.0864 41.3954L96.9404 40.7084C96.8214 40.1405 96.7673 39.5996 96.7781 39.0425C96.7835 38.7342 96.8105 38.4205 96.8592 38.1068C96.8592 38.1068 96.8592 38.1176 96.8592 38.1339C96.87 38.0798 96.8863 37.9391 96.9404 37.4848C97.4326 38.1339 97.9626 38.81 98.5684 39.5239C100.397 41.7091 102.663 44.0132 105.594 44.5649L105.643 44.5757L105.713 44.5866C107.996 44.857 110.176 44.1376 111.696 42.6069C112.815 41.4819 113.453 40.0161 113.48 38.5774C113.48 38.3394 113.475 38.1014 113.443 37.8688C113.405 37.4199 113.313 36.8574 113.215 36.4625L112.956 35.4295L111.993 35.8838C111.247 36.2354 110.819 36.4139 109.932 36.2408C108.959 36.019 107.222 34.8994 105.74 33.531C104.053 31.9516 102.76 30.6697 101.879 29.7069C103.344 28.1979 106.13 25.6882 108.007 24.3144C108.407 24.0223 108.932 23.8654 109.278 24.4117L110.873 23.2164C114.162 20.7013 114.13 18.1051 113.102 16.6447C111.944 15.0004 109.083 14.3135 106.06 16.2715L106.038 16.2607ZM89.6493 24.6173C89.5411 24.5253 89.4221 24.4388 89.2977 24.3468C89.4005 24.3522 89.5465 24.363 89.5465 24.363C89.7521 24.3793 89.8927 24.3955 89.9414 24.8931C89.8494 24.8012 89.7521 24.6984 89.6493 24.6118V24.6173ZM50.522 34.1097C50.403 34.2882 50.2894 34.4775 50.1758 34.6668C50.1866 34.5045 50.1975 34.3477 50.2083 34.1854C50.3435 34.153 50.3651 34.1476 50.5166 34.1097H50.522ZM83.7753 32.3302C83.7861 32.552 83.797 32.7791 83.797 33.0279C83.7375 34.0394 83.6347 34.8074 83.4833 35.424C83.467 35.1915 83.4616 34.9427 83.4562 34.6452C83.5103 33.9474 83.6022 33.1415 83.7753 32.3302ZM55.9903 39.9404C56.0011 39.5293 56.0336 39.1291 56.0822 38.7559C56.0931 38.8911 56.0985 39.0155 56.0985 39.1345C56.0822 39.5726 56.0444 39.9458 55.9957 40.2812C55.9957 40.2595 55.9957 40.2379 55.9957 40.2162C55.9957 40.1892 55.9957 39.9458 55.9957 39.9458L55.9903 39.9404ZM25.966 44.0998C25.9498 44.3594 25.9336 44.619 25.9282 44.8786C25.8957 46.4201 26.0093 47.9617 26.2527 49.3409C26.2635 49.3896 26.2743 49.4328 26.2851 49.4815C25.8416 48.8974 25.2899 48.1131 24.6138 47.0908C25.0898 46.0794 25.5441 45.0788 25.966 44.0944V44.0998ZM34.7121 42.8882C34.6526 43.6779 34.5714 44.4081 34.4633 45.0139C34.5227 44.3053 34.6093 43.5751 34.7121 42.8882Z" fill="#FAEACC"/>
<path fill-rule="evenodd" clip-rule="evenodd" d="M57.7646 8.54211C57.7646 8.54211 57.9864 8.48261 58.2081 8.42852C58.2785 8.72601 58.2893 9.24525 58.2785 9.74827C58.2785 9.91053 58.2676 10.062 58.2622 10.208C57.3103 10.4893 56.618 10.7435 56.0933 11.0085C56.1582 10.6299 56.2285 10.2946 56.3042 9.98626C56.4881 9.26689 56.9263 8.81255 57.6835 8.56915L57.7646 8.54752V8.54211ZM62.638 7.38462C63.0598 7.28726 63.4114 7.20613 63.7197 7.125C63.6656 7.90928 63.6115 8.67192 63.5899 8.99104C63.0003 9.01267 62.4865 9.0938 62.0105 9.19657C62.0105 9.14248 62.0268 8.92613 62.0268 8.92613C62.0592 8.45557 62.0917 8.02286 62.0971 7.64965C62.0971 7.60097 62.0971 7.5577 62.0971 7.50903C62.3675 7.44412 62.6325 7.38462 62.6325 7.38462H62.638ZM58.0783 13.9996C58.0297 14.9894 57.9702 15.99 57.9053 16.969C57.4617 17.0934 57.0993 17.1692 56.7099 17.2503C56.645 17.2503 56.6017 17.2395 56.553 17.1962C56.3962 17.0556 56.05 16.5363 55.9473 14.7027C55.9689 14.6919 56.2502 14.5513 56.2502 14.5513C56.4016 14.4702 56.5693 14.3728 57.1642 14.2214C57.1751 14.2214 58.0567 14.0104 58.0892 13.9996H58.0783ZM63.26 12.8205C63.2383 13.0693 63.2167 13.2856 63.1897 13.4587L63.1518 13.7237C62.9625 15.0219 62.8922 15.5032 61.7942 15.7791H61.7725L61.4534 15.8873C61.3993 15.9035 61.3507 15.9143 61.302 15.9305C61.329 15.7358 61.3723 15.4654 61.3723 15.4654V15.487C61.448 15.011 61.5616 14.2214 61.6806 13.1396C62.1998 13.0206 62.6758 12.9124 63.26 12.8151V12.8205Z" fill="#FAEACC"/>
<path fill-rule="evenodd" clip-rule="evenodd" d="M57.1789 3.62028C60.7163 2.80896 64.2861 2.04632 67.7423 0.921285L68.9863 0.515625L68.7375 1.79751C68.5482 2.77651 68.4617 3.80418 68.3643 4.79399C68.0506 8.01223 67.8234 11.2359 67.5314 14.4487V14.4595V14.4703C67.2555 16.7042 65.979 18.3376 63.8317 19.0083H63.8209L63.8155 19.0137C62.3497 19.4356 60.8893 19.8846 59.4181 20.2956C58.2823 20.6147 57.0869 20.9285 55.9186 21.0907C55.0532 21.2043 54.2149 21.0583 53.5117 20.5228C51.6024 19.0516 51.7322 15.5196 51.7268 13.3453V13.3291V13.3129C51.7863 11.9174 51.8837 10.4949 52.0513 9.10481C52.4354 6.10833 54.3555 4.40996 57.1464 3.62569H57.1627L57.1843 3.61487L57.1789 3.62028ZM61.4681 15.736C61.5492 15.709 61.6303 15.6819 61.7115 15.6603L61.7385 15.6495H61.7602C62.0901 15.5629 62.4525 15.4331 62.6526 15.141C62.9068 14.757 62.988 13.8916 63.0583 13.4373C63.0799 13.2912 63.1015 13.1398 63.1124 12.9883C62.6742 13.0695 62.2415 13.1614 61.8088 13.2642C61.7277 14.016 61.6303 14.7678 61.5059 15.5088C61.4951 15.5846 61.4843 15.6657 61.4735 15.7414L61.4681 15.736ZM57.7739 16.861C57.8334 15.9686 57.8875 15.0761 57.9307 14.1783C57.6819 14.2378 57.4331 14.2973 57.1843 14.3568C56.8165 14.4487 56.5785 14.5244 56.254 14.7029C56.1999 14.7354 56.1404 14.7624 56.0809 14.7895C56.0917 14.9571 56.1025 15.1248 56.1188 15.2925C56.1675 15.7306 56.2378 16.2174 56.3838 16.6339C56.4217 16.7366 56.5515 17.0558 56.6651 17.1098C56.6651 17.1098 56.6759 17.1098 56.6867 17.1098C57.0599 17.0341 57.4169 16.953 57.7793 16.8556L57.7739 16.861ZM62.2415 7.6228C62.2415 7.7472 62.2361 7.86619 62.2253 7.97978C62.2091 8.33135 62.182 8.67751 62.1604 9.02908C62.5985 8.94254 63.0258 8.87764 63.4639 8.856C63.5018 8.34217 63.5397 7.82292 63.5775 7.30908C63.5397 7.3199 63.5018 7.33072 63.4639 7.33613C63.0583 7.43349 62.6472 7.52544 62.2415 7.6228ZM56.4379 10.0135C56.3784 10.2623 56.3243 10.5111 56.281 10.7545C56.8652 10.4841 57.5142 10.2785 58.1308 10.0946C58.1471 9.61864 58.1579 8.9804 58.0984 8.59638C57.9686 8.62883 57.8388 8.66669 57.7144 8.70456C57.0491 8.92632 56.6218 9.32116 56.4433 10.0135H56.4379Z" fill="white"/>
<path fill-rule="evenodd" clip-rule="evenodd" d="M55.6912 9.82948C55.9563 8.78558 56.654 8.23929 57.487 7.96885C57.8169 7.8769 58.1468 7.77954 58.493 7.70382V7.70923C58.9906 8.04458 58.9365 9.39678 58.8716 10.6841C57.7087 11.0086 56.7838 11.3223 56.1239 11.7009C55.9238 11.8091 55.6101 12.0417 55.3234 12.3229C55.3775 11.2195 55.5398 10.4731 55.6912 9.82948ZM61.4462 7.0169C62.9282 6.65992 63.8748 6.48684 64.4102 6.24344C64.3507 7.39552 64.2642 8.45564 64.1777 9.62395C63.3339 9.58068 62.6524 9.69967 61.9168 9.86734C61.7167 9.91061 61.5273 9.97011 61.3218 10.0188C61.3434 9.73212 61.3597 9.45627 61.3759 9.19665C61.4354 8.32042 61.5111 7.46583 61.4408 7.02231L61.4462 7.0169ZM58.7526 13.1938C58.6823 14.6433 58.6066 16.0983 58.5038 17.4505C57.8277 17.6668 57.3734 17.7588 56.7946 17.8778C55.4965 18.0238 55.3072 15.5466 55.2802 13.978C55.3884 14.0267 55.5344 14.0862 55.6912 14.1241C56.0158 13.9943 56.0428 13.8536 57.0002 13.6156C57.633 13.4588 58.1252 13.3506 58.7526 13.1938ZM60.5375 16.8122C60.5646 16.439 60.6782 15.9036 60.7431 15.3897C60.8512 14.7461 60.9811 13.8104 61.1001 12.6312C61.8411 12.4636 62.436 12.3121 63.2636 12.1769C63.5124 12.1444 63.7341 12.1282 63.9343 12.1499C63.918 12.4095 63.8856 13.0531 63.8099 13.5453C63.5881 15.0273 63.5502 15.9847 61.9438 16.385C61.4408 16.5472 60.9919 16.7041 60.5375 16.8068V16.8122ZM66.7685 14.3837C67.0606 11.1655 67.2877 7.9364 67.6014 4.71816C67.7367 3.31728 67.8286 2.46269 67.9855 1.65137C64.513 2.78181 60.8945 3.56068 57.3572 4.372C55.3451 4.93451 53.2086 6.15149 52.8138 9.20747C52.6461 10.5813 52.5433 12.2039 52.4946 13.3506C52.4946 15.5141 52.2296 20.8202 55.8102 20.3388C57.7412 20.0792 60.3374 19.2246 63.5989 18.2834C65.3081 17.748 66.5089 16.4823 66.7685 14.3837Z" fill="#111C4E"/>
<path fill-rule="evenodd" clip-rule="evenodd" d="M105.822 16.1144C104.226 17.1475 100.175 21.2744 97.2058 24.6657C97.2437 24.3574 97.3032 23.849 97.3032 23.849V23.8219C97.3843 23.1729 97.4222 22.632 97.433 22.2047L97.4059 21.4691C97.2653 20.4252 96.6541 19.6517 95.7238 19.3489C93.9335 18.7701 91.4617 20.079 89.9256 21.5394L88.6437 22.8808L88.9898 22.9024C90.0229 22.989 90.0878 23.8219 90.0662 24.9037L90.0337 25.7475C90.0337 25.7475 90.0121 26.0666 89.9905 26.4019C89.6551 25.5852 89.1846 24.9145 88.5896 24.4115C87.6863 23.6543 86.0421 22.897 83.3647 23.6164C80.7955 24.2655 78.6049 26.0341 77.1283 28.6087C77.1121 26.5696 76.6632 25.0822 75.7761 24.2006C75.1433 23.5731 73.9858 22.9241 72.0387 23.4271L72.0062 23.4379C70.654 23.8273 69.4803 24.6008 68.4202 25.7745C68.2309 25.5852 68.0199 25.4229 67.7819 25.3202L67.7441 25.304L67.69 25.2877C65.4615 24.5305 63.536 25.715 62.1081 26.8292C61.7727 27.078 61.5294 27.3052 61.2968 27.5161L61.0155 27.7812C61.7673 28.0841 62.1027 28.4951 62.1081 29.3551C62.1081 29.366 62.1081 29.3768 62.1081 29.3822C62.0973 29.512 62.0378 30.5018 62.0378 30.5018L61.9729 31.4592C61.9621 31.6377 61.9512 31.8162 61.935 32.0055C61.6321 31.2969 61.2156 30.7182 60.691 30.2855C59.5173 29.3173 57.9379 29.1172 55.9853 29.6905L55.9529 29.7013C55.4444 29.8636 54.9631 30.0583 54.5033 30.28C55.1091 29.5499 55.5418 28.5871 55.5688 27.289L55.5472 26.6507C55.4553 25.2769 55.1091 24.6765 54.6007 23.9247L54.5141 23.7949L54.3789 23.876C53.8813 24.1789 53.216 24.5629 52.5075 24.8929C51.9179 25.1741 51.1661 25.5041 50.041 25.8611C47.3853 26.694 44.9784 27.2241 41.9927 27.6351C41.1057 27.7541 40.4566 27.8082 40.0239 27.7866C39.6994 27.7704 39.4019 27.6784 39.0774 27.5756L38.9855 27.5432L38.4446 28.0678C37.1681 29.4363 36.757 30.9075 37.3141 32.1136C37.8604 33.2928 39.2343 33.9418 40.9759 33.8499C40.9759 33.8499 42.2091 33.7741 42.6905 33.7471C42.6418 34.0987 42.2253 37.2466 42.2253 37.2466C42.1821 37.5441 42.1442 37.8416 42.1009 38.139C42.1009 38.1228 42.1009 38.1066 42.1009 38.0904C42.1171 37.8686 42.128 37.6523 42.1334 37.4413C42.1442 36.8517 42.1063 36.3163 42.0036 35.7051C41.8467 34.7315 41.1868 34.0608 40.2349 33.9039C38.5149 33.6227 35.897 35.1967 34.8802 36.6895C34.7071 36.9437 34.561 37.2087 34.4475 37.4521C34.3014 37.2466 34.1392 37.0465 33.939 36.8517C33.0736 36.0296 31.5051 35.1696 29.9041 35.4725C28.9521 35.651 27.6594 36.2946 26.9022 38.3662L26.8914 38.3933L26.8805 38.4365C26.3721 40.1187 26.0854 42.0875 26.0422 44.132C26.0097 45.6248 26.1233 47.1231 26.3559 48.459C26.5722 49.53 26.9292 50.4549 27.4052 51.2067C27.2862 51.2229 27.1726 51.2284 27.0699 51.1905C26.8481 51.1202 25.9124 50.5577 23.2026 46.3929C25.3769 41.8603 26.9887 37.3764 27.7784 34.6828C28.1516 33.4009 28.3571 32.2705 28.3734 31.3294C28.4004 30.0096 28.0759 29.0252 27.4052 28.387C26.5236 27.5486 25.2254 27.4296 23.5487 28.0192L22.6563 28.3329L22.759 29.274L22.7753 29.6094C22.7699 29.9393 22.6995 30.3395 22.5643 31.0589C22.2452 32.7032 20.3305 37.2033 19.0215 39.8969C17.307 37.1384 14.608 32.7735 13.6722 31.2266C12.1307 28.6574 10.3404 27.3214 8.3662 27.2619C6.06205 27.1916 3.74708 28.8684 1.4862 32.2434C1.16167 32.7519 0.950731 33.0926 0.718152 33.5361L0.59375 33.7741H0.86419C1.79991 33.785 2.81136 34.0987 3.50369 34.5963C4.02834 34.9749 4.59086 35.5915 5.45086 36.5921C6.75438 38.1823 10.8651 43.3477 14.2293 48.1453C12.2389 52.0505 8.93413 57.0158 7.30067 59.1252L7.27903 59.1577L7.26281 59.1793C6.12696 60.829 3.70381 63.5063 2.63287 64.2852L2.2218 64.5881L2.15149 65.0965L2.12444 65.4535C2.10822 66.2811 2.42733 67.0599 3.01689 67.6387C3.87689 68.4824 5.26696 68.8719 6.6462 68.6609H6.68406C8.96117 68.2228 11.0382 66.6489 12.8609 63.9823C14.5755 61.6133 16.977 57.7946 18.8647 54.425C19.411 55.1119 19.9681 55.7339 21.0553 56.5452C22.4561 57.5458 24.0788 57.7243 25.5067 57.0266C27.1564 56.2153 28.3193 54.3655 28.4004 52.4129V52.348C28.5843 52.4994 28.7682 52.6401 28.9575 52.7536C30.0771 53.4189 31.4131 53.5163 32.9168 53.0457L32.96 53.0349C33.4468 52.8618 33.9066 52.613 34.3663 52.3101C34.1283 53.3594 33.8417 54.2897 33.5496 54.9712C33.1602 54.1167 32.2948 53.5704 31.1914 53.5055C29.1306 53.3865 26.8265 54.9063 26.5506 57.6486C26.3992 59.136 26.9184 60.4936 27.9677 61.3645C29.1685 62.3651 30.8885 62.6085 32.8086 62.046C35.7672 61.186 38.0173 58.8764 39.4885 55.193C40.6892 52.1857 41.1273 48.8377 41.387 46.8418C41.4465 46.3983 41.5005 45.8899 41.5546 45.3544C41.8143 47.5395 42.75 48.5077 43.6208 48.9134C44.5944 49.3677 46.6443 49.6814 49.419 46.7066C49.7327 46.3712 49.9815 46.0251 50.2141 45.7006C50.252 45.7438 50.2844 45.7925 50.3277 45.8358C51.5122 47.1285 53.2971 47.6369 55.2281 47.2367L55.2768 47.2258L55.3309 47.2096C56.8507 46.7499 58.4896 46.1008 60.3286 43.7047L60.3556 43.6723L60.3827 43.629C60.691 43.153 60.9506 42.6662 61.1832 42.174C61.1183 43.0773 61.0263 44.2834 61.0263 44.2834L60.9614 45.8899C60.9398 46.9824 60.9993 47.6748 61.1724 48.3509C61.551 50.0655 62.676 51.2175 64.1851 51.4339C66.1214 51.7097 68.1984 50.3846 69.5993 47.9723C69.8265 47.5828 69.9779 47.1934 70.1402 46.7769L70.2267 46.5606L70.0536 46.5119C69.4641 46.3334 69.172 46.1603 68.8475 45.7817C68.5608 45.4463 68.4039 44.8027 68.3282 43.7426C68.9719 43.7858 69.6588 43.6993 70.3781 43.4829L70.4106 43.4721L70.4539 43.4559C72.7418 42.5905 74.3861 40.5297 75.5976 37.0248C75.906 38.615 76.5658 39.9564 77.5394 40.8272C78.4697 41.6548 80.1194 42.5148 82.7319 41.8982C84.5438 41.4222 86.0096 40.5081 87.3456 39.0261L87.378 38.9882C88.1515 38.0579 88.7897 36.9978 89.2981 35.8457C89.2495 36.6841 89.217 37.3439 89.2062 37.8145V38.3554C89.2603 39.6914 89.9364 40.3729 90.4881 40.719C91.8132 41.5358 93.5765 41.049 94.2743 40.8002L95.2911 40.3675L95.6751 40.189L95.6481 40.0592C95.5183 39.448 95.4534 38.8422 95.4696 38.231C95.475 37.8902 95.5075 37.5495 95.5561 37.2033L95.6914 36.154C95.6914 36.154 95.7941 35.3427 95.859 34.8234C96.6271 35.889 97.46 37.0194 98.5148 38.258C100.262 40.3512 102.414 42.5526 105.13 43.0611H105.168L105.211 43.0719C107.272 43.3153 109.23 42.6716 110.593 41.2978C111.745 40.1349 112.323 38.5826 112.14 37.1438C112.107 36.7328 112.021 36.2027 111.929 35.8349L111.88 35.6402L111.701 35.7213C110.863 36.1161 110.279 36.3379 109.203 36.1324C107.904 35.8403 105.984 34.4719 104.659 33.2441C102.642 31.3564 101.187 29.896 100.316 28.8846C101.803 27.2511 105.806 23.6326 107.834 22.3562C108.299 22.0803 108.797 21.9829 108.986 22.4914L109.852 21.8423C112.735 19.6409 112.767 17.4558 111.923 16.255C110.96 14.8866 108.499 14.3565 105.849 16.0711L105.822 16.1144ZM33.0682 45.6519C33.1169 43.3802 33.6524 39.924 34.1338 38.8097C34.2582 38.5177 34.3934 38.2364 34.5827 37.9822C34.772 38.3121 34.8693 38.6691 34.8964 39.21V39.2749L34.9018 40.5351C34.8585 42.7419 34.5935 44.7865 34.2365 45.7492C33.939 46.5443 33.5983 47.0744 33.2034 47.3881C33.1061 47.0041 33.0574 46.4199 33.0736 45.6573L33.0682 45.6519ZM50.5332 32.4868C50.8848 32.3895 51.3932 32.2543 51.9504 32.0325C50.3493 33.5361 49.273 35.6185 48.6943 38.2202C48.6943 37.9011 48.6943 37.5711 48.7051 37.2574C48.7321 35.8403 48.8132 34.3637 48.9322 32.8601C49.1432 32.8114 50.5332 32.4868 50.5332 32.4868ZM54.671 39.1884C54.7034 37.5008 55.1307 35.8241 55.65 35.2237C55.9421 35.9323 56.2017 37.49 56.2017 38.3824C56.1314 40.1511 55.7582 41.4763 55.2173 41.936C54.9198 41.433 54.6872 40.4216 54.671 39.475V39.1884ZM69.2207 31.1779C69.4532 30.6803 69.7129 30.3882 69.9292 30.2097C69.9671 30.4207 69.9941 30.7344 69.9833 31.2212C69.9725 31.7999 69.9076 32.5031 69.794 33.3144C69.4478 35.3968 68.9124 37.1006 68.2525 38.2797C68.3769 34.6504 68.8366 31.8216 69.1341 31.3348C69.1666 31.2807 69.1936 31.2374 69.2207 31.1833V31.1779ZM83.1051 29.4633C83.197 29.2686 83.2998 29.128 83.3917 29.0198C83.7325 29.8257 83.911 30.8912 83.911 32.3029C83.792 34.3312 83.5107 35.505 82.9428 36.3487C82.7805 36.5813 82.6399 36.6733 82.5534 36.7111C82.456 36.5813 82.218 36.0945 82.1531 34.4719C82.1369 34.1203 82.1423 33.7904 82.1748 33.4388C82.2883 32.211 82.5101 30.7398 83.1105 29.4687L83.1051 29.4633ZM49.3163 44.7811C49.1107 44.5106 48.9593 44.0617 48.8619 43.4397C49.0783 44.0779 49.3541 44.6729 49.7327 45.1921C49.7544 45.2192 49.776 45.2408 49.7976 45.2678C49.6246 45.138 49.4569 44.992 49.3163 44.7865V44.7811Z" fill="white"/>
<path d="M5.88236 68.8016C4.7357 68.8016 3.67016 68.4014 2.9562 67.7091C2.35041 67.1195 2.03129 66.3298 2.04752 65.4861L2.07456 65.1237L2.14488 64.5882L2.57758 64.2691C3.64312 63.4902 6.05544 60.8237 7.1967 59.174L7.23456 59.1199C8.85721 57.0321 12.1566 52.0776 14.147 48.1779C10.7827 43.3857 6.68827 38.2365 5.39016 36.6571C4.53557 35.6565 3.97305 35.0399 3.45381 34.6667C2.7723 34.1745 1.77708 33.8662 0.846765 33.8554H0.484375L0.646639 33.5308C0.884627 33.0819 1.10098 32.7249 1.41469 32.2435V32.2327C3.64312 28.9117 5.93104 27.2242 8.20815 27.2242C8.25683 27.2242 8.3001 27.2242 8.34878 27.2242C10.3446 27.2837 12.1458 28.625 13.7035 31.2159C14.6717 32.8169 17.3761 37.1926 18.9987 39.7942C20.2698 37.1655 22.1683 32.7249 22.4928 31.059C22.628 30.3667 22.6983 29.9502 22.7037 29.6203L22.6875 29.2903L22.5848 28.3059L23.5205 27.976C25.208 27.3756 26.5386 27.5054 27.431 28.3546C28.1126 29.0037 28.4425 30.0043 28.4154 31.3349C28.3938 32.276 28.1937 33.4118 27.8151 34.7045C27.0308 37.3873 25.4244 41.8658 23.25 46.3984C25.9436 50.5307 26.8523 51.077 27.0687 51.1473C27.1281 51.1689 27.1985 51.1744 27.2958 51.1689C26.8361 50.4171 26.4953 49.5139 26.2844 48.4808C26.0464 47.1394 25.9382 45.6411 25.9707 44.1429C26.0139 42.093 26.3006 40.1188 26.809 38.4312L26.8307 38.3555C27.5987 36.2569 28.9131 35.6024 29.8758 35.4239C30.0976 35.3806 30.3248 35.3644 30.5519 35.3644C31.9366 35.3644 33.2239 36.1162 33.9595 36.8194C34.1434 36.9979 34.2894 37.1818 34.4138 37.3494C34.5274 37.1169 34.6572 36.8843 34.8087 36.6625C35.6957 35.3698 37.8917 33.9257 39.6063 33.8283C38.4866 33.612 37.6483 33.0224 37.2372 32.1408C36.6639 30.913 37.0803 29.4147 38.3731 28.0301L38.941 27.4784L39.0708 27.5216C39.4061 27.6298 39.6928 27.7164 40.0011 27.7326C40.4284 27.7542 41.0666 27.7055 41.9591 27.5811C44.9502 27.1701 47.3571 26.64 49.9966 25.8071C51.1162 25.4555 51.868 25.1201 52.4576 24.8443C53.1932 24.5035 53.8747 24.1033 54.329 23.8328L54.5075 23.7247L54.6265 23.8977C55.1458 24.6604 55.4919 25.2662 55.5839 26.6508L55.6055 27.2891C55.5839 28.3816 55.2702 29.3336 54.6752 30.1287C55.0754 29.9448 55.4919 29.7879 55.9138 29.6527L55.9463 29.6419C57.9097 29.0632 59.5215 29.2687 60.7006 30.2423C61.1766 30.6371 61.5714 31.151 61.8689 31.7784C61.8689 31.7405 61.8689 31.7027 61.8743 31.6648L61.9554 30.4911C61.9554 30.4911 62.0149 29.5013 62.0258 29.3715V29.3444C62.0258 28.5493 61.7337 28.1328 60.971 27.8245L60.8899 27.7921L61.2415 27.4676C61.4795 27.2458 61.7175 27.024 62.0582 26.7752C63.1237 25.9423 64.5679 24.9849 66.25 24.9849C66.7314 24.9849 67.2182 25.066 67.6942 25.2283L67.7915 25.2662C68.0025 25.3581 68.208 25.4988 68.4081 25.6881C69.4791 24.5198 70.6474 23.7625 71.9834 23.3785L72.0104 23.3677C72.481 23.2433 72.9299 23.1838 73.3464 23.1838C74.5742 23.1838 75.3585 23.7084 75.802 24.152C76.6674 25.0066 77.1271 26.4345 77.1704 28.3979C78.6578 25.899 80.8376 24.1844 83.3365 23.5516C84.0558 23.3569 84.7482 23.2595 85.3918 23.2595C86.9712 23.2595 88.0151 23.8545 88.61 24.3575C89.1563 24.8172 89.6053 25.4176 89.9352 26.1532L89.9622 25.7313C89.9622 25.7313 89.9947 24.9146 89.9947 24.8876C90.0163 23.8058 89.9568 23.0323 88.967 22.9458L88.5019 22.9133L88.583 22.8268C89.434 21.9325 89.8613 21.4854 89.8649 21.4854C91.0061 20.3983 92.9695 19.1326 94.7653 19.1326C95.106 19.1326 95.4305 19.1813 95.7226 19.2732C96.6746 19.5815 97.2966 20.3712 97.4426 21.4422L97.4751 22.1832C97.4643 22.6267 97.4264 23.173 97.3507 23.8112V23.8383C97.3507 23.8383 97.3128 24.179 97.2749 24.4765C100.169 21.1879 104.204 17.0772 105.783 16.0496C106.886 15.3356 108.033 14.9624 109.115 14.9624C110.31 14.9624 111.365 15.4438 111.933 16.2497C112.793 17.4721 112.76 19.6843 109.85 21.9127L108.92 22.605L108.893 22.5347C108.812 22.3184 108.666 22.2102 108.455 22.2102C108.282 22.2102 108.06 22.2859 107.817 22.4266C105.837 23.676 101.845 27.2728 100.347 28.9117C101.223 29.9232 102.673 31.3781 104.658 33.2279C105.978 34.4503 107.887 35.8079 109.174 36.1C109.445 36.1541 109.688 36.1757 109.915 36.1757C110.559 36.1757 111.035 35.9756 111.635 35.6889L111.879 35.5754L111.944 35.835C112.036 36.2028 112.122 36.7328 112.155 37.1547C112.338 38.6097 111.754 40.1783 110.591 41.3574C109.412 42.5473 107.79 43.2018 106.021 43.2018C105.74 43.2018 105.448 43.1855 105.161 43.1531L105.08 43.1423C102.348 42.6284 100.185 40.4162 98.4324 38.3176C97.3831 37.0844 96.5556 35.9648 95.8578 34.9966L95.7064 36.1811C95.6036 37.0033 95.582 37.1872 95.5712 37.2359C95.5225 37.582 95.49 37.9228 95.4846 38.2581C95.4738 38.8639 95.5279 39.4535 95.6631 40.0755L95.701 40.2486L95.2791 40.4433L94.2622 40.876C93.8674 41.0166 93.0777 41.2492 92.2285 41.2492C91.5308 41.2492 90.925 41.0923 90.4274 40.7894C89.8595 40.4379 89.1726 39.7347 89.1185 38.3825V37.8362C89.1239 37.4414 89.1509 36.8951 89.1888 36.1703C88.6966 37.2305 88.0908 38.1986 87.3876 39.0478L87.3552 39.0857C86.0084 40.5785 84.5372 41.4926 82.7144 41.974C82.1195 42.1146 81.5407 42.1849 80.9944 42.1849C79.2798 42.1849 78.1332 41.4818 77.4733 40.8868C76.5484 40.0593 75.8885 38.8044 75.5532 37.2521C74.3362 40.6759 72.7082 42.6663 70.4473 43.5209L70.3716 43.5479C69.6792 43.7589 69.0031 43.8508 68.3649 43.813C68.4406 44.8244 68.5975 45.441 68.8625 45.7547C69.1762 46.1171 69.4575 46.2902 70.0416 46.4687L70.2742 46.539L70.166 46.8094C70.0092 47.2043 69.8469 47.6154 69.6197 48.0102C68.3378 50.217 66.488 51.5313 64.6653 51.5313C64.4922 51.5313 64.3191 51.5205 64.146 51.4935C62.6153 51.2717 61.4741 50.1034 61.0846 48.3672C60.9061 47.6857 60.8466 46.9879 60.8737 45.8954C60.9278 44.5702 60.9332 44.3376 60.9386 44.2889C60.9386 44.2889 61.0089 43.3208 61.0738 42.4716C60.8466 42.9259 60.6303 43.3099 60.3977 43.6723L60.3382 43.7535C58.4884 46.1604 56.8441 46.8094 55.3134 47.2746L55.2053 47.3016C54.7725 47.3936 54.3453 47.4369 53.9234 47.4369C52.4738 47.4369 51.1649 46.8852 50.2508 45.8845C50.2237 45.8575 50.2021 45.8305 50.1805 45.8034C49.9695 46.0955 49.7261 46.4308 49.4232 46.7554C47.8655 48.4267 46.3564 49.2705 44.9285 49.2705C44.4417 49.2705 43.982 49.1731 43.5601 48.973C42.8083 48.6214 41.8726 47.7884 41.5264 45.8142C41.4831 46.2037 41.4453 46.5552 41.4074 46.8527V46.8744C41.1424 48.8702 40.6988 52.2128 39.5035 55.2147C38.0269 58.9198 35.766 61.2347 32.7912 62.1001C32.1151 62.3003 31.4552 62.3976 30.8332 62.3976C29.6919 62.3976 28.6751 62.0569 27.8962 61.4024C26.8307 60.5154 26.306 59.1415 26.4575 57.6379C26.517 57.0537 26.6684 56.502 26.9064 56.0044C26.4899 56.4479 26.0139 56.8049 25.4947 57.0591C24.9159 57.3404 24.3048 57.4864 23.6719 57.4864C22.747 57.4864 21.8221 57.1727 20.9892 56.5778C19.9777 55.8259 19.426 55.2472 18.8365 54.5116C16.9542 57.8596 14.5581 61.6674 12.8705 63.9986C11.037 66.6814 8.94375 68.2608 6.65582 68.6935H6.61255C6.36375 68.7422 6.10953 68.7584 5.86073 68.7584L5.88236 68.8016ZM2.25305 64.6477L2.18815 65.1291L2.1611 65.4861C2.14488 66.2974 2.45318 67.0546 3.03733 67.6225C3.72966 68.2986 4.76274 68.6827 5.88236 68.6827C6.12576 68.6827 6.37456 68.661 6.61796 68.6286H6.65582C8.9167 68.1905 10.9829 66.6273 12.8002 63.9716C14.504 61.6188 16.9163 57.7839 18.804 54.4196L18.8473 54.3439L18.9014 54.4088C19.5017 55.166 20.0534 55.7556 21.0811 56.5183C21.8924 57.1024 22.8011 57.4107 23.699 57.4107C24.3102 57.4107 24.9051 57.2701 25.4731 56.9942C26.1546 56.6589 26.7712 56.1342 27.258 55.4744C27.2958 55.4149 27.3391 55.3554 27.3824 55.2959C27.9557 54.4467 28.2965 53.4298 28.3343 52.4292V52.2453L28.4263 52.321C28.6426 52.4995 28.8103 52.6239 28.9726 52.7213C30.0759 53.3703 31.4065 53.4731 32.8885 53.0079L32.9318 52.9971C33.3699 52.8403 33.8242 52.6077 34.3219 52.2832L34.4084 52.3427C34.165 53.3974 33.8837 54.3223 33.5863 55.0146L33.5376 55.1336L33.4835 55.0146C33.0995 54.1762 32.2341 53.6408 31.1739 53.5813C31.1036 53.5813 31.0279 53.5759 30.9522 53.5759C29.6216 53.5759 28.2856 54.2574 27.4689 55.3554C27.431 55.4149 27.3878 55.4744 27.3445 55.5339C26.928 56.1613 26.6738 56.8806 26.5927 57.6757C26.4412 59.1415 26.9551 60.4829 27.9881 61.3429C28.7454 61.9757 29.7352 62.3111 30.8548 62.3111C31.466 62.3111 32.1151 62.2137 32.7803 62.019C35.7227 61.1644 37.9566 58.8657 39.4224 55.1985C40.6123 52.2128 41.0558 48.8756 41.3154 46.8852V46.8635C41.3695 46.4579 41.429 45.9549 41.4885 45.3815H41.6021C41.8671 47.6262 42.857 48.5349 43.6358 48.8972C44.0415 49.0866 44.485 49.1839 44.9556 49.1839C46.351 49.1839 47.8331 48.351 49.3692 46.7067C49.6829 46.3659 49.9425 46.0089 50.1588 45.7061L50.2021 45.6466L50.2508 45.7006C50.2508 45.7006 50.2778 45.7331 50.2941 45.7547C50.3157 45.7818 50.3373 45.8088 50.3644 45.8359C51.2622 46.8149 52.5387 47.3557 53.9558 47.3557C54.3669 47.3557 54.7888 47.3125 55.2107 47.2205L55.308 47.1935C56.8171 46.7337 58.4451 46.0901 60.2733 43.7102L60.3274 43.6399C60.6032 43.218 60.852 42.7583 61.1225 42.1903L61.2307 42.2174C61.1658 43.1206 61.0738 44.3268 61.0738 44.3268V44.343C61.0738 44.343 61.0305 45.3923 61.0089 45.9332C60.9873 47.015 61.0468 47.7019 61.2198 48.378C61.5931 50.071 62.7019 51.2068 64.1839 51.4232C64.3461 51.4448 64.5192 51.461 64.6869 51.461C66.4664 51.461 68.2783 50.1629 69.544 47.994C69.7712 47.6045 69.9226 47.2205 70.0849 46.8094L70.1498 46.6526L70.0362 46.6201C69.4304 46.4362 69.1329 46.2577 68.8084 45.8737C68.5163 45.533 68.3486 44.8947 68.2783 43.8022V43.7372H68.3378C68.9761 43.7805 69.663 43.694 70.3661 43.4776L70.4365 43.456C72.7082 42.6014 74.3308 40.5677 75.5424 37.0628H75.6505C75.9642 38.6908 76.6295 39.9944 77.5707 40.8435C78.2197 41.4223 79.3393 42.1092 81.0161 42.1092C81.5515 42.1092 82.1249 42.0389 82.709 41.8983C84.5048 41.4223 85.9651 40.5136 87.2957 39.0424L87.3281 39.0045C88.0854 38.0905 88.7236 37.0357 89.2375 35.8728L89.3456 35.8999C89.2915 36.7761 89.2645 37.4198 89.2537 37.8633V38.4042C89.3078 39.7077 89.9676 40.3838 90.5085 40.7191C90.9899 41.0166 91.5741 41.1627 92.2502 41.1627C93.0831 41.1627 93.8566 40.9355 94.246 40.7949L95.2629 40.3676L95.6036 40.2107L95.5874 40.1242C95.4522 39.4967 95.3927 38.8964 95.4089 38.2798C95.4143 37.939 95.4468 37.5928 95.4954 37.2413C95.5009 37.198 95.582 36.5381 95.6307 36.192L95.7983 34.8614L95.9011 34.8344C96.6151 35.8242 97.4697 36.9871 98.5514 38.2635C100.293 40.3459 102.44 42.5419 105.134 43.0503L105.21 43.0611C105.491 43.0936 105.778 43.1098 106.053 43.1098C107.79 43.1098 109.385 42.4662 110.543 41.2979C111.684 40.1458 112.257 38.6097 112.073 37.1872C112.041 36.7707 111.954 36.2515 111.862 35.8837L111.83 35.7539L111.711 35.8079C111.094 36.1 110.608 36.3055 109.942 36.3055C109.704 36.3055 109.456 36.2785 109.174 36.2244C107.86 35.9269 105.934 34.5531 104.604 33.3199C102.597 31.4376 101.131 29.9718 100.255 28.955L100.223 28.9171L100.255 28.8793C101.77 27.2188 105.74 23.6273 107.784 22.34C108.358 21.9993 108.796 22.0371 108.99 22.432L109.802 21.8262C112.647 19.6464 112.69 17.4991 111.857 16.3146C111.311 15.5357 110.289 15.0706 109.131 15.0706C108.076 15.0706 106.946 15.4384 105.864 16.1415C104.269 17.1746 100.152 21.3772 97.2587 24.682L97.1614 24.6388C97.1992 24.3305 97.2587 23.822 97.2587 23.822V23.795C97.3344 23.1622 97.3777 22.6213 97.3885 22.1832L97.3615 21.453C97.2263 20.4361 96.6259 19.6789 95.7172 19.3868C95.436 19.2949 95.1222 19.2516 94.7923 19.2516C93.0344 19.2516 91.0981 20.501 89.9731 21.572C89.9677 21.5774 89.059 22.5293 88.7777 22.8268L89.0049 22.843C90.0866 22.935 90.157 23.8274 90.1353 24.8984C90.1353 24.9254 90.1029 25.7476 90.1029 25.7476L90.0596 26.402L89.9514 26.4183C89.6161 25.6015 89.1509 24.9416 88.5668 24.4549C87.9826 23.9681 86.9658 23.3839 85.4188 23.3839C84.786 23.3839 84.1045 23.4813 83.396 23.6706C80.87 24.3088 78.6687 26.0721 77.1975 28.6359L77.0893 28.6088C77.0731 26.5751 76.6241 25.1039 75.7533 24.2439C75.326 23.8166 74.5634 23.3082 73.3734 23.3082C72.9678 23.3082 72.5243 23.3677 72.0699 23.4867L72.0429 23.4975C70.7123 23.8815 69.544 24.6442 68.4785 25.8179L68.4406 25.8611L68.3973 25.8179C68.1918 25.6123 67.9863 25.4663 67.7753 25.3744L67.6834 25.3419C67.2182 25.185 66.7476 25.1039 66.2771 25.1039C64.6274 25.1039 63.2103 26.0505 62.1556 26.8726C61.8202 27.1214 61.5822 27.3432 61.3551 27.5541L61.1279 27.765C61.8743 28.0896 62.1718 28.5439 62.1772 29.3552V29.3877C62.1664 29.5175 62.1069 30.5073 62.1069 30.5073L62.0258 31.681C62.0203 31.7892 62.0095 31.9028 62.0041 32.0164L61.8959 32.0326C61.5931 31.3294 61.182 30.7615 60.6681 30.3342C59.5161 29.3823 57.9367 29.1822 56.0166 29.7501L55.9841 29.7609C55.4919 29.9177 55.0051 30.1125 54.5454 30.3342L54.4751 30.2477C55.1512 29.4364 55.5027 28.4411 55.5244 27.2945L55.5027 26.6616C55.4108 25.304 55.07 24.7145 54.5616 23.9627L54.5021 23.8761L54.4156 23.9302C53.9612 24.2061 53.2743 24.6063 52.5387 24.9471C51.9492 25.2283 51.1919 25.5637 50.0615 25.9152C47.4112 26.7482 45.0042 27.2783 42.0024 27.6893C41.0991 27.8137 40.4609 27.857 40.0227 27.8408C39.6982 27.8245 39.4061 27.738 39.06 27.6244L38.9951 27.6028L38.4812 28.1058C37.221 29.4526 36.8153 30.9022 37.367 32.0867C37.9079 33.2496 39.2385 33.8824 40.9747 33.7905V33.8013C41.0829 33.7796 41.4398 33.7634 42.6893 33.6877H42.7596L42.7488 33.7526C42.7001 34.1042 42.2836 37.2521 42.2836 37.2521C42.2512 37.4576 42.2241 37.6686 42.1971 37.8741L42.1592 38.1445L42.0456 38.1337C42.0456 38.1337 42.0456 38.0959 42.0456 38.0796C42.0619 37.8525 42.0727 37.6415 42.0781 37.436C42.0889 36.8572 42.051 36.3272 41.9537 35.7106C41.8022 34.764 41.1586 34.1096 40.2283 33.9581C40.0985 33.9365 39.9578 33.9257 39.8172 33.9257C38.1134 33.9257 35.8309 35.4023 34.9276 36.7166C34.76 36.96 34.6193 37.2142 34.5004 37.4739L34.4625 37.5604L34.403 37.4793C34.2732 37.2954 34.1055 37.0844 33.9054 36.8897C33.186 36.2028 31.9312 35.4618 30.5736 35.4618C30.3518 35.4618 30.13 35.4834 29.9191 35.5213C28.9834 35.6944 27.7069 36.3326 26.9551 38.3825L26.9334 38.4474C26.4304 40.1242 26.1437 42.0876 26.1005 44.1267C26.068 45.6141 26.1816 47.1069 26.4142 48.4429C26.6305 49.4976 26.9767 50.4171 27.4581 51.1689L27.5068 51.2447L27.4202 51.2555C27.2526 51.2771 27.1498 51.2717 27.0578 51.2393C26.8307 51.1689 25.8841 50.6064 23.1635 46.4146L23.1473 46.3876L23.1635 46.3605C25.3378 41.8225 26.9497 37.3386 27.7339 34.6559C28.1071 33.374 28.3073 32.2489 28.3289 31.3186C28.3559 30.0205 28.0368 29.0415 27.377 28.4195C26.5115 27.6028 25.2242 27.4838 23.58 28.0679L22.7308 28.3708L22.8281 29.2687L22.8444 29.604C22.839 29.9502 22.7687 30.3667 22.628 31.0644C22.2981 32.7574 20.3563 37.2954 19.0798 39.9186L19.0366 40.0106L18.9825 39.924C17.3707 37.3332 14.6176 32.8764 13.6332 31.2537C12.0971 28.7008 10.3284 27.3756 8.37582 27.3161C8.33255 27.3161 8.28387 27.3161 8.2406 27.3161C6.00136 27.3161 3.75129 28.982 1.54991 32.2652V32.276C1.2362 32.7628 1.01444 33.1144 0.781859 33.5633L0.700727 33.7201H0.879218C1.82576 33.731 2.84802 34.0501 3.55117 34.5531C4.08123 34.9317 4.64375 35.5483 5.50915 36.5598C6.80727 38.1445 10.918 43.3099 14.2876 48.113L14.3093 48.14L14.2931 48.1725C12.3026 52.083 8.98702 57.0645 7.35897 59.1577L7.3211 59.2118C6.17985 60.8669 3.75129 63.5443 2.68035 64.3286L2.28551 64.6206L2.25305 64.6477ZM30.9522 53.4731C31.0279 53.4731 31.1036 53.4731 31.1793 53.4785C32.2395 53.538 33.1049 54.0518 33.5322 54.8632C33.7972 54.2195 34.0514 53.392 34.2678 52.4562C33.808 52.7483 33.3807 52.9593 32.9642 53.1107L32.921 53.1215C31.4065 53.5921 30.0435 53.4893 28.9131 52.824C28.767 52.7375 28.621 52.6293 28.4425 52.4887C28.4046 53.2838 28.1775 54.0897 27.7988 54.8091C28.6372 53.9707 29.7947 53.4731 30.9468 53.4731H30.9522ZM40.5258 33.9257C41.3479 34.1637 41.905 34.8127 42.051 35.7052C42.1322 36.192 42.17 36.6301 42.1809 37.079C42.262 36.457 42.5541 34.3097 42.619 33.8175C42.0997 33.8499 41.1964 33.8986 41.0071 33.9149H40.9693C40.8178 33.9203 40.6718 33.9257 40.5258 33.9203V33.9257ZM33.1644 47.4801L33.1427 47.3936C33.04 46.9933 32.9967 46.4092 33.0129 45.6466C33.0616 43.364 33.5971 39.9024 34.0839 38.7828C34.2029 38.5069 34.3435 38.2094 34.5382 37.9444L34.5869 37.8741L34.6302 37.9498C34.8249 38.2852 34.9222 38.6584 34.9493 39.1993V39.2642L34.9547 40.5244C34.9114 42.7366 34.6464 44.792 34.284 45.7601C33.9865 46.5498 33.6458 47.0961 33.2293 47.4261L33.159 47.4801H33.1644ZM34.5761 38.085C34.4138 38.323 34.2948 38.5827 34.1866 38.8315C33.7053 39.9403 33.1698 43.3857 33.1265 45.652C33.1157 46.3389 33.1481 46.896 33.2347 47.28C33.6025 46.9609 33.9108 46.4471 34.1812 45.7223C34.5382 44.7649 34.7978 42.7258 34.8411 40.5244C34.8411 40.5244 34.8411 39.275 34.8411 39.2696V39.2101C34.8141 38.7287 34.7329 38.3879 34.5761 38.0905V38.085ZM49.7586 45.3058C49.6125 45.1976 49.4178 45.0408 49.2664 44.8082C49.0608 44.5432 48.904 44.078 48.8012 43.4452L48.9094 43.4181C49.142 44.1105 49.4232 44.6784 49.7748 45.1544C49.7856 45.1652 49.791 45.176 49.8019 45.1868C49.8127 45.1976 49.8235 45.2138 49.8343 45.2301L49.7586 45.3112V45.3058ZM49.0771 44.1483C49.1582 44.4025 49.2502 44.5972 49.3583 44.7433C49.3854 44.7866 49.4178 44.8244 49.4449 44.8623C49.3097 44.6405 49.1853 44.4025 49.0717 44.1483H49.0771ZM55.2053 42.0172L55.1728 41.9578C54.8591 41.4331 54.6319 40.4108 54.6157 39.4697V39.1776C54.6536 37.5117 55.0754 35.7917 55.6109 35.1751L55.6704 35.1048L55.7083 35.1913C55.9949 35.8783 56.2654 37.4252 56.2654 38.3717C56.1951 40.1512 55.8164 41.4926 55.2593 41.9686L55.2107 42.0118L55.2053 42.0172ZM55.6325 35.332C55.1458 35.9864 54.7563 37.6091 54.7293 39.1884V39.4751C54.7401 40.3567 54.951 41.3195 55.2323 41.8442C55.7407 41.352 56.0815 40.0647 56.1464 38.3771C56.1464 37.4793 55.8976 36.0459 55.6325 35.332ZM68.3054 38.3014L68.1972 38.2744C68.3162 34.8235 68.7597 31.8271 69.0842 31.3024L69.1005 31.2754C69.1221 31.2321 69.1492 31.1942 69.1708 31.151C69.3655 30.7345 69.6089 30.4045 69.8956 30.1611L69.9713 30.0962L69.9875 30.1936C70.0362 30.4586 70.0524 30.7994 70.047 31.2159C70.0362 31.8054 69.9713 32.514 69.8577 33.3145C69.5116 35.386 68.9761 37.1115 68.3108 38.296L68.3054 38.3014ZM69.8902 30.318C69.6522 30.5398 69.4412 30.8372 69.2736 31.1996C69.2519 31.2483 69.2249 31.2862 69.1978 31.3294L69.1816 31.3565C68.9112 31.7946 68.4568 34.4071 68.3162 38.031C68.922 36.8627 69.4142 35.2346 69.7387 33.2983C69.8523 32.5032 69.9172 31.8 69.928 31.2159C69.9334 30.8589 69.9226 30.556 69.8902 30.318ZM48.7471 38.2311L48.6336 38.2203C48.6336 38.0688 48.6336 37.912 48.6336 37.7605C48.6336 37.5928 48.6336 37.4198 48.6336 37.2575C48.6606 35.8566 48.7363 34.3746 48.8607 32.8547V32.8115L48.904 32.8006C49.1149 32.752 50.505 32.4274 50.505 32.4274C50.8728 32.3247 51.3704 32.1894 51.9167 31.9785L51.9762 32.0705C50.4076 33.5471 49.3151 35.6186 48.7363 38.2257L48.7471 38.2311ZM48.9851 32.9088C48.8661 34.4071 48.7904 35.8728 48.758 37.2629C48.758 37.4144 48.758 37.5658 48.758 37.7227C49.3367 35.4239 50.3319 33.5687 51.7166 32.184C51.2676 32.3463 50.8674 32.4545 50.5591 32.541H50.5429C50.5429 32.541 49.288 32.8385 48.9797 32.9088H48.9851ZM82.536 36.7707L82.5089 36.7328C82.4061 36.5922 82.1627 36.0892 82.0978 34.4666C82.0816 34.0771 82.087 33.7526 82.1195 33.4281C82.2168 32.3679 82.417 30.7994 83.0552 29.4364C83.1309 29.2741 83.2283 29.1227 83.3473 28.9766L83.4068 28.9063L83.4446 28.9928C83.7962 29.8204 83.9639 30.9022 83.9693 32.2976C83.8503 34.3421 83.5636 35.5213 82.9903 36.3759C82.8226 36.6139 82.6766 36.7166 82.5792 36.7545L82.536 36.7707ZM83.3797 29.1227C83.2932 29.2362 83.2229 29.3552 83.1634 29.4796C82.5305 30.8264 82.3304 32.3788 82.2331 33.4335C82.2006 33.758 82.1952 34.0771 82.2114 34.4611C82.2709 35.9432 82.4819 36.4678 82.5738 36.6301C82.6549 36.5868 82.7685 36.4949 82.8983 36.311C83.4609 35.478 83.7367 34.3151 83.8557 32.2976C83.8557 30.9671 83.6988 29.9286 83.3797 29.1281V29.1227Z" fill="white"/>
<path fill-rule="evenodd" clip-rule="evenodd" d="M33.2612 37.9067C32.2768 39.2427 30.6704 49.7682 33.272 48.7459C34.0293 48.4052 34.6621 47.8156 35.1976 46.5283C35.9656 44.9922 36.1441 41.1628 36.09 39.2102C36.0522 38.5179 36.0468 38.188 35.7168 37.6092C36.5065 36.0947 40.4766 33.8663 40.8011 35.9108C40.9201 36.6518 40.9417 37.2576 40.8822 38.0473C40.7632 40.3731 40.4712 44.4081 40.1683 46.7176C39.887 48.8649 39.4543 51.9966 38.3455 54.7822C37.2259 57.5785 35.4085 60.0666 32.4445 60.9266C29.2966 61.8461 27.4846 60.0666 27.7172 57.8003C28.0634 54.3549 32.5797 53.8464 32.5527 56.0749C32.1308 56.5887 32.1092 57.6596 33.1531 57.2918C35.1273 56.5941 35.971 50.4984 36.0684 48.9569C34.7811 50.7256 33.6615 51.5261 32.5364 51.9209C29.6427 52.8188 28.0796 51.0285 27.5225 48.2537C27.0411 45.5115 27.1114 41.7902 28.0093 38.7883C29.2803 35.3159 32.2768 36.7871 33.2558 37.8959L33.2612 37.9067ZM19.0902 42.3203C17.9435 40.5029 13.8815 33.9366 12.6266 31.8651C10.0034 27.5002 6.61205 26.8457 2.44727 32.9252C3.69129 33.0874 4.66488 33.8717 6.34161 35.8351C7.35846 37.0791 11.9451 42.7963 15.6015 48.0644C13.7192 51.9263 10.1494 57.4054 8.22387 59.8827C7.0123 61.6405 4.48639 64.4152 3.31808 65.2752C3.10714 66.9033 4.83796 67.7417 6.43896 67.4929C7.9967 67.2008 9.88978 66.1893 11.8478 63.3227C13.7679 60.6724 16.667 56.0154 18.6683 52.2725C19.8744 53.7599 20.2152 54.4576 21.7513 55.5989C24.4178 57.5082 27.0736 54.9931 27.1817 52.3807C25.9918 52.689 23.7796 49.5573 21.8216 46.4905C24.2934 41.444 25.9269 36.7005 26.6138 34.3531C27.4251 31.5784 27.8903 27.7598 23.9419 29.1607C24.0068 29.7664 23.9256 30.2641 23.7309 31.2971C23.2658 33.677 20.0692 40.7625 19.0956 42.3203H19.0902ZM55.5671 33.8285C53.7336 34.391 53.4523 38.2961 53.4631 39.4807C53.4793 40.557 53.7552 42.0282 54.3177 42.7854C54.7396 43.283 55.0641 43.3155 55.4427 43.1965C57.1087 42.542 57.3466 39.6051 57.3953 38.3935C57.3953 37.4956 57.0167 33.3687 55.5617 33.823L55.5671 33.8285ZM56.3136 30.859C52.2191 32.1788 50.326 35.4511 49.677 39.313C49.4498 41.3196 49.6175 43.4399 51.1806 45.0571C52.2029 46.1768 53.6741 46.3715 54.9614 46.101C56.2919 45.6954 57.6928 45.1707 59.3533 43.018C60.3269 41.5144 60.9976 39.8484 61.268 36.9601C61.6196 33.2713 60.7704 29.5501 56.3136 30.8644V30.859ZM40.8985 32.6602C41.8396 32.6277 42.7753 32.552 44.0247 32.4546C43.8517 34.683 42.8889 40.5246 42.7429 42.6664C42.1208 48.5783 45.0416 49.5464 48.6493 45.7981C48.0164 45.5061 47.6595 44.2566 47.5837 42.9098C47.3998 39.4807 47.4485 35.4727 47.7947 31.8542C48.5141 31.7352 49.4498 31.5243 50.2178 31.3188C52.046 30.8212 54.5881 29.9449 54.3447 26.7483C54.2528 25.8451 54.1446 25.6287 54.0256 25.4448C53.0899 25.9641 52.1434 26.4563 50.3909 27.0079C47.5242 27.9058 45.0037 28.4359 42.1479 28.8253C40.5902 29.0417 39.8167 29.0254 39.3029 28.8902C37.307 31.0159 38.3455 32.7846 40.8985 32.6493V32.6602ZM69.6246 28.9389C69.0621 29.2796 68.5483 29.7773 68.1318 30.6589C67.5422 31.5297 67.0338 35.7594 67.0122 39.816C67.0122 40.3569 67.2934 40.6057 67.6775 40.557C68.3265 40.4813 68.9431 39.4807 69.2352 38.9722C70.2142 37.2847 70.7172 35.0238 70.9768 33.4985C71.1391 32.3464 71.7557 27.9978 69.6246 28.9389ZM62.842 27.776C63.5884 28.3223 63.226 30.1072 63.1611 31.5784C63.0259 33.5418 62.842 35.7378 62.6851 37.9391C62.5283 40.1351 62.3336 42.3581 62.2037 44.3973C62.1118 46.2579 62.0902 47.2315 62.3227 48.1023C63.0042 51.2394 66.5362 51.0934 68.6727 47.172C67.3421 46.5337 67.05 45.0788 67.0663 42.1742C67.7964 42.634 68.7592 42.753 70.0141 42.369C72.421 41.4603 73.9408 38.9181 75.0226 34.8237C75.7961 31.7623 77.5323 23.2488 72.3453 24.5956C70.4359 25.1527 69.1108 26.5212 67.9803 28.3764C68.0885 27.6516 67.9641 26.7105 67.3042 26.4292C65.7898 25.9154 64.3402 26.6131 62.842 27.7814V27.776ZM90.5892 22.5619C91.2003 22.7242 91.3518 23.6924 91.2328 25.8126C91.1192 27.7435 90.8866 30.4479 90.6973 32.8603C90.508 35.2726 90.3566 37.5713 90.3836 38.3502C90.4702 40.4326 92.7797 40.2217 94.3158 39.5239C94.1806 38.691 94.2131 37.9608 94.3429 37.0737C94.5268 35.6566 94.808 33.1956 95.0676 31.7731C96.2522 33.3308 97.5232 35.3159 99.4001 37.5281C101.044 39.4915 102.975 41.4927 105.323 41.9308C108.866 42.3473 111.208 39.6213 110.921 37.3388C110.256 37.5876 109.677 37.501 108.92 37.355C107.286 36.9872 105.16 35.424 103.808 34.1746C100.931 31.481 99.3785 29.8313 98.7348 28.9335C99.3785 27.7868 108.173 19.414 109.087 20.9285C113.431 17.6074 110.212 14.6975 106.464 17.1207C104.273 18.5378 97.004 26.3535 95.43 28.7604C95.76 27.154 95.9926 24.4225 96.1061 23.6761C96.1981 22.8918 96.263 22.0535 96.2035 21.6208C95.8952 19.3166 92.3957 20.6634 90.5837 22.5727L90.5892 22.5619ZM84.3312 28.1546C83.7146 26.8781 82.5138 27.8625 82.0108 28.9389C81.3239 30.4101 81.0588 32.0652 80.9236 33.823C80.9344 35.0022 80.9615 38.188 82.7139 37.9013C83.1574 37.8147 83.5848 37.4902 83.9201 37.0088C84.7314 35.8081 84.991 34.2233 85.0992 32.3086C85.0992 30.6805 84.8991 29.2526 84.3258 28.1492L84.3312 28.1546ZM83.6659 24.7795C79.4362 25.8451 77.0455 30.0856 76.6507 33.7581C76.1476 37.9013 77.9163 41.8389 82.4327 40.7734C83.8227 40.4056 85.1371 39.7024 86.4352 38.2637C88.2742 36.0461 89.1288 33.32 89.3505 30.7833C89.7129 26.651 88.0037 23.6112 83.6659 24.7795Z" fill="#111C4E"/>
</g>
<defs>
<clipPath id="clip0_753_1012">
<rect width="113.682" height="69.6925" fill="white" transform="translate(0.0136719 0.515625)"/>
</clipPath>
</defs>
</svg>
