<svg width="106" height="71" viewBox="0 0 106 71" fill="none" xmlns="http://www.w3.org/2000/svg">
<g clip-path="url(#clip0_753_1476)">
<path d="M54.2342 70.3712C73.42 70.3712 88.9732 54.7519 88.9732 35.4844C88.9732 16.217 73.42 0.597656 54.2342 0.597656C35.0483 0.597656 19.4951 16.217 19.4951 35.4844C19.4951 54.7519 35.0483 70.3712 54.2342 70.3712Z" fill="#C1250D"/>
<path d="M81.8065 54.0147C92.0458 38.7812 88.0495 18.0962 72.8805 7.81335C57.7116 -2.46948 37.1141 1.54378 26.8748 16.7772C16.6356 32.0107 20.6318 52.6958 35.8008 62.9786C50.9697 73.2614 71.5672 69.2481 81.8065 54.0147Z" fill="#B3110F"/>
<path d="M85.192 42.9648C89.3017 25.8002 78.7776 8.53981 61.6857 4.41262C44.5938 0.285426 27.4065 10.8543 23.2968 28.0189C19.187 45.1835 29.7112 62.4439 46.8031 66.5711C63.895 70.6983 81.0823 60.1294 85.192 42.9648Z" fill="#B3282D"/>
<path d="M102.559 24.3873C102.239 23.9048 101.959 23.4893 101.892 23.2481L101.759 22.7656L94.9256 23.4491L95.8464 24.3471C102.346 30.7133 101.705 38.728 100.744 40.926C99.7034 43.3117 98.2754 44.3839 97.1543 45.054C96.5805 45.389 95.326 45.6437 95.0991 45.6571C93.1639 45.6571 91.5091 44.4107 90.0677 41.8374C88.573 39.2105 87.8256 36.0207 87.8256 32.3752C87.8256 31.2762 87.9457 30.0566 88.1726 28.7565C88.3995 27.4297 88.7065 26.1698 89.0801 24.9904C89.4271 23.9048 90.2546 22.8326 91.5624 21.7738C92.8436 20.7418 94.1916 20.2191 95.5395 20.2191C96.6872 20.2191 97.7816 20.782 98.8626 21.9212L99.2363 22.3233L104.148 18.3963L103.707 17.9273C103.627 17.8334 103.534 17.7396 103.454 17.6324C103.293 17.4314 103.133 17.2303 102.933 17.0561C100.958 15.3138 98.8226 14.4292 96.5805 14.4292C91.4023 14.4292 87.5587 17.7262 85.1298 24.2265C83.6084 28.3008 82.8477 32.8175 82.8477 37.6424C82.8477 42.4673 83.8753 45.8983 85.9172 48.0159C87.5187 49.6913 89.6807 50.549 92.2698 50.549H92.2965C92.2965 50.549 92.6968 50.6026 93.4709 50.6026C93.8579 50.6026 94.3384 50.6026 94.9256 50.5624C96.754 50.4552 99.2763 49.182 101.198 47.386C103.053 45.6437 105.042 43.124 105.629 37.5888C106.416 30.1906 103.921 26.4245 102.573 24.4007L102.559 24.3873Z" fill="#520404"/>
<path d="M25.7272 12.392C20.5891 15.7292 16.0381 19.8974 12.1545 24.7893C12.5816 20.7284 12.6884 16.7478 12.4748 12.9147L12.4348 12.1105L3.8401 10.127L4.12036 11.7353C5.08126 17.2303 5.57505 22.3769 5.57505 27.0275C5.57505 33.7958 4.57412 40.8992 2.61229 48.1499L2.29199 49.3428L5.7352 49.7984L6.04216 49.0077C7.13651 46.1798 8.07071 43.5395 8.80473 41.1538C9.56544 38.728 10.166 36.4361 10.6064 34.3185L11.0602 32.0401L11.901 31.0483C12.1545 30.74 12.4481 30.4184 12.7684 30.0699C14.7836 36.7042 18.2402 42.8827 23.0447 48.4314L23.5785 49.0479L29.5708 46.1798L28.343 45.0942C22.5242 39.9744 18.3336 34.466 15.8913 28.7029L15.3575 27.443L15.7846 27.0275C19.7483 23.2346 24.6061 19.9644 30.2247 17.3107L31.7061 16.6138L26.4078 11.9363L25.7272 12.3786V12.392Z" fill="#520404"/>
<path d="M65.0438 23.4625L65.8312 23.2883L66.2183 17.9272L64.6701 18.4767C58.2909 20.7418 50.8573 21.3315 42.5962 20.2459L41.3284 20.0717L41.4485 23.0068L42.2359 23.1944C46.1062 24.1326 49.7762 24.6017 53.1394 24.6017H53.5931L53.6732 25.5131C53.7133 26.009 53.7533 26.5719 53.78 27.2152C53.8067 27.8719 53.82 28.6091 53.82 29.4132C53.82 35.4176 52.6589 41.7435 50.3768 48.2304L49.8296 49.7717L56.7161 49.316L56.8895 48.5118C57.7437 44.4777 58.1707 40.4167 58.1707 36.4227C58.1707 32.4288 57.7704 28.2204 56.9963 24.4543C58.4644 24.3471 59.839 24.213 61.1202 24.0656C62.6549 23.878 63.9361 23.6769 65.0305 23.4223L65.0438 23.4625Z" fill="#520404"/>
<path d="M63.1748 26.9469L61.907 26.7861L62.0271 29.5336L62.8278 29.7213C65.9107 30.445 68.8334 30.8069 71.5026 30.8069H71.6628L71.7028 31.276C71.7428 31.6512 71.7695 32.0801 71.7829 32.5626C71.7962 33.0585 71.8096 33.6214 71.8096 34.2379C71.8096 38.8082 70.902 43.6331 69.1004 48.5518L68.5265 50.1065L74.5054 49.7312L74.6789 48.9405C75.3595 45.8311 75.7065 42.6949 75.7065 39.6257C75.7065 36.5566 75.4129 33.5142 74.8257 30.6996C75.9067 30.6192 76.921 30.5254 77.8418 30.4182C79.0563 30.2842 80.0706 30.1233 80.9514 29.9223L81.7388 29.7481L82.0858 25.084L80.5377 25.6201C75.493 27.349 69.6475 27.8047 63.1481 26.9603L63.1748 26.9469Z" fill="#520404"/>
<path d="M40.3135 25.3389H34.001L34.3213 26.6791C35.5357 31.6649 36.1496 36.5836 36.1496 41.3147C36.1496 42.3467 36.1096 43.4725 36.0429 44.6787C35.9762 45.8849 35.8827 47.1716 35.7626 48.5252L35.6559 49.7449L38.7654 49.6377L38.9389 48.8201C40.1133 43.2849 40.7139 37.9238 40.7139 32.8979C40.7139 30.6865 40.6071 28.4751 40.3936 26.3307L40.3002 25.3523L40.3135 25.3389Z" fill="#520404"/>
<path d="M39.8737 22.752C39.8203 22.4303 39.7669 22.0953 39.7269 21.7602C39.6335 21.1303 39.5534 20.487 39.4199 19.8973L39.2464 19.1065L31.9062 18.624L32.4534 20.1653C32.6937 20.8622 32.9072 21.5592 33.1074 22.2695L33.6279 24.0118H40.0872L39.887 22.752H39.8737Z" fill="#520404"/>
<path d="M94.2442 22.2831C101.051 28.9441 100.29 37.2135 99.2756 39.5321C98.2613 41.8642 96.86 43.0972 95.4454 43.9282C94.7514 44.3436 93.3501 44.6117 93.0965 44.6117C90.9478 44.6117 89.0928 43.2446 87.5447 40.4971C85.9965 37.763 85.2225 34.4928 85.2225 30.7401C85.2225 29.6009 85.3426 28.3678 85.5828 27.0142C85.8231 25.6471 86.13 24.3739 86.517 23.181C86.9041 21.9748 87.7849 20.8088 89.1995 19.683C90.6008 18.5572 92.0555 17.9943 93.5503 17.9943C94.8848 17.9943 96.1393 18.651 97.3004 19.884L101.277 16.6942C101.024 16.4262 100.824 16.1179 100.557 15.8633C98.6884 14.2147 96.6999 13.3838 94.5912 13.3838C89.6666 13.3838 86.0366 16.52 83.7011 22.779C82.2063 26.8131 81.459 31.2092 81.459 35.9805C81.459 40.7518 82.4199 43.9148 84.355 45.9385C85.8497 47.4932 87.8516 48.284 90.374 48.284C90.374 48.284 91.1614 48.3778 92.8963 48.284C94.6313 48.1902 97.0602 46.8901 98.7952 45.255C100.437 43.7137 102.452 41.4085 103.039 35.833C104.027 26.6255 99.7694 23.2481 99.3423 21.7336L94.2709 22.2429L94.2442 22.2831Z" fill="white"/>
<path d="M91.4543 48.954C90.6802 48.954 90.3066 48.9138 90.2799 48.9004H90.2532C87.6641 48.9004 85.5021 48.0426 83.9006 46.3673C81.8587 44.2497 80.8311 40.7516 80.8311 35.9937C80.8311 31.2358 81.6051 26.6656 83.1132 22.5778C85.5288 16.0776 89.3857 12.7939 94.5639 12.7939C96.806 12.7939 98.9413 13.6785 100.916 15.4208C101.117 15.5951 101.277 15.7961 101.437 15.9971C101.517 16.091 101.597 16.1982 101.677 16.292L102.118 16.7611L97.2063 20.688L96.8326 20.286C95.7516 19.1333 94.6706 18.5838 93.5095 18.5838C92.1616 18.5838 90.8271 19.1065 89.5325 20.1385C88.2246 21.1973 87.3838 22.2695 87.0502 23.3551C86.6765 24.5212 86.3696 25.7944 86.1427 27.1213C85.9158 28.4213 85.7957 29.6275 85.7957 30.7399C85.7957 34.3854 86.5564 37.5618 88.0378 40.2021C89.4791 42.7754 91.134 44.0218 93.0691 44.0218C93.2827 44.0218 94.5505 43.7672 95.1244 43.4187C96.2454 42.7486 97.6601 41.6764 98.7144 39.2908C99.6753 37.0927 100.316 29.078 93.8165 22.7118L92.8956 21.8138L99.7287 21.1303L99.8621 21.6128C99.9289 21.8541 100.209 22.2695 100.529 22.752C101.877 24.7758 104.373 28.5419 103.586 35.9401C102.998 41.462 101.01 43.995 99.1548 45.7374C97.233 47.5333 94.7107 48.82 92.8823 48.9138C92.2951 48.9406 91.8146 48.954 91.4276 48.954H91.4543ZM94.5772 14.0002C89.8928 14.0002 86.5164 16.9487 84.2476 23.0067C82.7795 26.9604 82.0455 31.3296 82.0455 35.9937C82.0455 40.6578 82.9664 43.6466 84.7814 45.5363C86.156 46.9704 88.0378 47.7075 90.3733 47.7075C90.4534 47.7075 91.2141 47.8014 92.8556 47.7075C94.4037 47.6137 96.6725 46.4477 98.3808 44.8394C100.169 43.1641 101.891 40.9125 102.438 35.7927C103.185 28.8234 100.836 25.2985 99.5819 23.3953C99.3283 23.0067 99.1148 22.685 98.9546 22.3902L95.5381 22.7386C101.45 29.2523 101.01 37.0659 99.8221 39.7598C98.621 42.494 96.9261 43.7404 95.7516 44.4373C94.9375 44.9198 93.4295 45.2013 93.0958 45.2013C90.7203 45.2013 88.6784 43.7136 87.0235 40.7784C85.4353 37.9639 84.6213 34.5865 84.6213 30.7265C84.6213 29.5471 84.7414 28.2605 84.9816 26.9068C85.2218 25.5263 85.5421 24.2129 85.9291 22.9933C86.3429 21.6664 87.2904 20.4334 88.7985 19.2138C90.3066 18.0075 91.8947 17.391 93.5229 17.391C94.8575 17.391 96.1253 17.9539 97.3264 19.0797L100.409 16.6137C100.329 16.5064 100.236 16.4126 100.142 16.3188C98.3941 14.7775 96.5124 13.9868 94.5772 13.9868V14.0002Z" fill="#520404"/>
<path d="M24.046 11.266C18.374 14.9517 13.4094 19.656 9.29888 25.2449L9.32557 25.0706C9.93948 20.3529 10.1263 15.7291 9.88609 11.3062L9.8594 10.9444L2.57261 9.26904L2.69272 9.97938C3.66696 15.5146 4.16075 20.688 4.16075 25.3655C4.16075 32.1874 3.15982 39.3443 1.18465 46.6487L1.03784 47.1848L3.33332 47.4931L3.46677 47.1446C4.54778 44.3301 5.48199 41.7032 6.216 39.3309C6.96337 36.9319 7.57727 34.6534 8.00434 32.5626L8.48479 30.1368L9.41899 29.0244C9.8594 28.5017 10.3932 27.9254 11.0338 27.2686L11.0872 27.4563C13.0357 34.3184 16.5323 40.698 21.4836 46.4075L21.7238 46.6889L26.4882 44.4105L25.9411 43.928C20.0556 38.7546 15.8116 33.1658 13.3293 27.3223L12.6353 25.6871L13.3693 24.9902C17.3731 21.1571 22.2843 17.8467 27.9563 15.1662L28.6102 14.8579L24.3262 11.0784L24.0193 11.2794L24.046 11.266Z" fill="white"/>
<path d="M3.73325 48.1632L0.290039 47.7075L0.610338 46.5147C2.57217 39.2639 3.5731 32.1472 3.5731 25.3923C3.5731 20.755 3.07931 15.6084 2.11841 10.1L1.83815 8.4917L10.4328 10.4753L10.4729 11.2794C10.6864 15.1125 10.5796 19.0931 10.1526 23.1541C14.0362 18.2621 18.5871 14.1074 23.7252 10.7567L24.4059 10.3144L29.7041 14.9919L28.2228 15.6889C22.6042 18.3426 17.7597 21.6128 13.7826 25.4057L13.3556 25.8212L13.8894 27.081C16.3317 32.8441 20.5222 38.3525 26.341 43.4723L27.5688 44.5579L21.5766 47.4261L21.0427 46.8095C16.2382 41.2609 12.7817 35.0823 10.7665 28.4481C10.4328 28.7965 10.1526 29.1316 9.88565 29.4265L9.04487 30.4182L8.59111 32.6967C8.1507 34.8009 7.55014 37.1061 6.78943 39.532C6.04207 41.9176 5.12121 44.5579 4.02686 47.3858L3.7199 48.1766L3.73325 48.1632ZM1.79811 46.7023L2.95919 46.8632C4.02686 44.0888 4.93437 41.5021 5.66839 39.1701C6.41575 36.7844 7.01631 34.5194 7.44338 32.4554L7.95052 29.8821L8.97814 28.6491C9.41855 28.1264 9.97907 27.5233 10.6197 26.8666L11.3403 26.1294L11.674 27.2955C13.5958 34.0503 17.0256 40.3227 21.8835 45.9518L25.4201 44.2631C19.5347 39.0629 15.2907 33.4338 12.7817 27.5635L11.9142 25.5397L12.9418 24.5613C16.9589 20.7148 21.8702 17.391 27.5288 14.6971L24.2724 11.8155C18.6939 15.461 13.8093 20.0983 9.7522 25.6067L8.39093 27.4563L8.69788 25.0036C9.29844 20.3529 9.49863 15.7961 9.2584 11.4403L3.29284 10.0598C4.25374 15.5682 4.73418 20.7148 4.73418 25.3789C4.73418 32.2008 3.73325 39.3711 1.77142 46.6889L1.79811 46.7023Z" fill="#520404"/>
<path d="M62.9235 21.2504L63.2705 21.17L63.5641 17.1626L62.8701 17.4038C56.3974 19.7091 48.8704 20.2988 40.5293 19.1998L39.9688 19.1194L40.0488 20.8885L40.3958 20.9689C44.2261 21.8937 47.8428 22.3628 51.1659 22.3628H52.1668L52.3003 23.8103C52.3403 24.3061 52.3803 24.8959 52.407 25.5526C52.4337 26.2093 52.4471 26.9599 52.4471 27.7774C52.4471 33.8488 51.2726 40.2552 48.9772 46.7956L48.7369 47.4791L54.2754 47.1173L54.3555 46.7554C55.1963 42.7614 55.6367 38.7407 55.6367 34.8003C55.6367 30.5919 55.2363 26.5444 54.4356 22.7649L54.3422 22.2824C56.0237 22.1617 57.6252 22.0143 59.1199 21.8401C60.628 21.6658 61.8825 21.4514 62.9635 21.2102L62.9235 21.2504Z" fill="white"/>
<path d="M47.8421 48.1628L48.3893 46.6215C50.6714 40.1347 51.8325 33.8087 51.8325 27.8043C51.8325 27.0002 51.8325 26.263 51.7924 25.6063C51.7657 24.963 51.739 24.3867 51.6857 23.9042L51.6056 22.9928H51.1518C47.7887 22.9928 44.1186 22.5237 40.2483 21.5856L39.4609 21.3979L39.3408 18.4628L40.6087 18.637C48.8697 19.736 56.29 19.1329 62.6826 16.8679L64.2307 16.3184L63.8437 21.6794L63.0563 21.8536C61.9486 22.0949 60.6674 22.3093 59.146 22.4969C57.8514 22.6444 56.4635 22.7784 55.0221 22.8856C55.7962 26.6517 56.1965 30.6725 56.1965 34.8541C56.1965 39.0357 55.7695 42.909 54.9153 46.9431L54.7419 47.7473L47.8554 48.203L47.8421 48.1628ZM40.6087 20.4329C44.3588 21.3309 47.9088 21.7866 51.1518 21.7866H52.6999L52.8868 23.7836C52.9268 24.2929 52.9669 24.8826 52.9936 25.5661C53.0202 26.2362 53.0336 26.9868 53.0336 27.8043C53.0336 33.8891 51.8725 40.2955 49.577 46.8493L53.7543 46.5813C54.5817 42.6543 54.9954 38.714 54.9954 34.8273C54.9954 30.6591 54.595 26.6517 53.8076 22.9124L53.5674 21.7598L54.2481 21.7062C55.9296 21.5856 57.5311 21.4381 58.9992 21.2773C60.4405 21.1031 61.655 20.902 62.7093 20.6742L62.8961 18.0339C56.4101 20.2989 48.9097 20.902 40.582 19.8164L40.6087 20.4329Z" fill="#520404"/>
<path d="M78.7492 24.5477C73.6244 26.3034 67.6188 26.7591 61.0928 25.9147L60.5322 25.8477L60.599 27.4292L60.9459 27.5096C63.9888 28.22 66.8581 28.5818 69.4872 28.5818H70.1946L70.288 29.6004C70.328 29.9757 70.3547 30.418 70.3681 30.9273C70.3814 31.4366 70.3948 31.9995 70.3948 32.6294C70.3948 37.2667 69.4739 42.1586 67.6455 47.1577L67.392 47.8547L72.0096 47.5598L72.0897 47.2113C72.757 44.1422 73.104 41.0596 73.104 38.0172C73.104 34.7872 72.7837 31.6778 72.1431 28.7695L72.0897 28.5282C73.3976 28.4344 74.6387 28.3272 75.7598 28.1932C76.9475 28.0591 77.9485 27.8983 78.8159 27.7107L79.1629 27.6302L79.4032 24.3198L78.7225 24.5611L78.7492 24.5477Z" fill="white"/>
<path d="M66.5385 48.4847L67.1123 46.93C68.914 41.9978 69.8215 37.1863 69.8215 32.6161C69.8215 31.9995 69.8215 31.4366 69.7948 30.9407C69.7815 30.4583 69.7548 30.0294 69.7147 29.6541L69.6747 29.185H69.5146C66.8454 29.185 63.9227 28.8231 60.8398 28.0994L60.0391 27.9118L59.9189 25.1643L61.1868 25.3251C67.6728 26.1694 73.5316 25.7138 78.5763 23.9848L80.1245 23.4487L79.7775 28.1128L78.9901 28.287C78.1092 28.4747 77.0816 28.6355 75.8805 28.7829C74.973 28.8902 73.9587 28.984 72.8644 29.0644C73.4382 31.8789 73.7452 34.8811 73.7452 37.9905C73.7452 41.0999 73.3982 44.1959 72.7175 47.3052L72.5441 48.096L66.5651 48.4713L66.5385 48.4847ZM61.1734 26.9468C64.1362 27.6303 66.9388 27.9788 69.5012 27.9788H70.7424L70.8892 29.5335C70.9292 29.9222 70.9559 30.3778 70.9692 30.8871C70.9826 31.3964 70.9959 31.9727 70.9959 32.6027C70.9959 37.2667 70.0751 42.1587 68.2734 47.1578L71.5298 46.9568C72.1837 43.9546 72.504 40.939 72.504 37.9905C72.504 34.8007 72.1837 31.7315 71.5698 28.8768L71.3696 27.9654L72.0636 27.9118C73.3982 27.818 74.626 27.7107 75.707 27.5901C76.8414 27.4561 77.7889 27.3087 78.6164 27.1344L78.7632 25.1777C73.6251 26.9066 67.6995 27.3623 61.1468 26.5313V26.9468H61.1734Z" fill="#520404"/>
<path d="M37.7774 24.3069H32.7727L32.9195 24.8966C34.1473 29.9225 34.7746 34.8949 34.7746 39.6662C34.7746 40.7116 34.7345 41.8508 34.6678 43.057C34.6011 44.2766 34.5077 45.5633 34.3875 46.9303L34.3342 47.4664L36.296 47.3994L36.3761 47.0376C37.5505 41.5425 38.1377 36.2351 38.1377 31.236C38.1377 29.0514 38.0309 26.8533 37.8174 24.7223L37.7774 24.2935V24.3069Z" fill="white"/>
<path d="M33.6805 48.0964L33.7873 46.8768C33.9074 45.5232 34.0008 44.2365 34.0675 43.0303C34.1343 41.8375 34.1743 40.6982 34.1743 39.6662C34.1743 34.9352 33.5604 30.0164 32.3459 25.0307L32.0256 23.6904H38.3382L38.4316 24.6688C38.6451 26.8266 38.7519 29.038 38.7519 31.2361C38.7519 36.262 38.1513 41.623 36.9769 47.1583L36.8034 47.9758L33.6939 48.083L33.6805 48.0964ZM33.5337 24.8967C34.7482 29.9226 35.3621 34.8815 35.3621 39.6662C35.3621 40.725 35.322 41.8777 35.2553 43.0973C35.1886 44.2767 35.0952 45.5366 34.9884 46.85L35.8158 46.8232C36.9636 41.3952 37.5508 36.1548 37.5508 31.2495C37.5508 29.1185 37.444 26.9875 37.2438 24.9101H33.5337V24.8967Z" fill="#520404"/>
<path d="M37.2851 21.2247C37.2317 20.8897 37.1784 20.5546 37.1383 20.2196C37.0582 19.603 36.9648 18.9865 36.8314 18.4102L36.7513 18.0617L30.759 17.6597L30.9993 18.3432C31.2662 19.0937 31.4797 19.8443 31.6932 20.5814L32.0536 21.7742H37.3652L37.2718 21.2113L37.2851 21.2247Z" fill="white"/>
<path d="M38.0726 22.3773H31.6132L31.1328 20.7556C30.8925 19.9515 30.6923 19.2412 30.4388 18.5442L29.8916 17.0029L37.2318 17.4854L37.4053 18.2762C37.5387 18.8659 37.6322 19.5092 37.7122 20.1391C37.7523 20.4742 37.8056 20.7958 37.859 21.1309L38.0592 22.3907L38.0726 22.3773ZM32.494 21.1845H36.6579C36.6045 20.8897 36.5645 20.5948 36.5245 20.3C36.4444 19.737 36.3643 19.1607 36.2442 18.6246L31.5999 18.3164C31.8267 18.9865 32.0269 19.6432 32.2138 20.3134L32.4673 21.1845H32.494Z" fill="#520404"/>
<path d="M94.2433 22.2831C101.05 28.9441 100.289 37.2135 99.2746 39.5321C98.2603 41.8642 96.859 43.0972 95.4444 43.9282C94.7504 44.3436 93.3491 44.6117 93.0955 44.6117C90.9469 44.6117 89.0918 43.2446 87.5437 40.4971C85.9956 37.763 85.2215 34.4928 85.2215 30.7401C85.2215 29.6009 85.3416 28.3678 85.5819 27.0142C85.8221 25.6471 86.129 24.3739 86.5161 23.181C86.9031 21.9748 87.7839 20.8088 89.1986 19.683C90.5999 18.5572 92.0546 17.9943 93.5493 17.9943C94.8839 17.9943 96.1384 18.651 97.2995 19.884L101.276 16.6942C101.023 16.4262 100.823 16.1179 100.556 15.8633C98.6874 14.2147 96.6989 13.3838 94.5903 13.3838C89.6657 13.3838 86.0356 16.52 83.7001 22.779C82.2054 26.8131 81.458 31.2092 81.458 35.9805C81.458 40.7518 82.4189 43.9148 84.354 45.9385C85.8488 47.4932 87.8506 48.284 90.373 48.284C90.373 48.284 91.1604 48.3778 92.8953 48.284C94.6303 48.1902 97.0592 46.8901 98.7942 45.255C100.436 43.7137 102.451 41.4085 103.038 35.833C104.026 26.6255 99.7684 23.2481 99.3414 21.7336L94.27 22.2429L94.2433 22.2831Z" fill="white"/>
<path d="M24.0433 11.2665C18.3713 14.9522 13.4067 19.6565 9.29619 25.2453L9.32289 25.0711C9.93679 20.3534 10.1236 15.7296 9.88341 11.3067L9.85672 10.9448L2.56992 9.26953L2.69003 9.97987C3.66427 15.5151 4.15807 20.6885 4.15807 25.366C4.15807 32.1879 3.15714 39.3448 1.18196 46.6492L1.03516 47.1853L3.33063 47.4936L3.46409 47.1451C4.5451 44.3306 5.4793 41.7037 6.21332 39.3314C6.96068 36.9324 7.57459 34.6539 8.00165 32.5631L8.4821 30.1373L9.41631 29.0249C9.85672 28.5022 10.3905 27.9259 11.0311 27.2691L11.0845 27.4568C13.033 34.3189 16.5296 40.6985 21.4809 46.408L21.7211 46.6894L26.4856 44.411L25.9384 43.9285C20.0529 38.7551 15.8089 33.1662 13.3266 27.3227L12.6326 25.6876L13.3667 24.9907C17.3704 21.1576 22.2816 17.8472 27.9536 15.1666L28.6075 14.8584L24.3235 11.0789L24.0166 11.2799L24.0433 11.2665Z" fill="white"/>
<path d="M62.9196 21.2513L63.2666 21.1709L63.5602 17.1636L62.8662 17.4048C56.3935 19.7101 48.8665 20.2998 40.5254 19.2008L39.9648 19.1203L40.0449 20.8895L40.3919 20.9699C44.2221 21.8947 47.8389 22.3638 51.162 22.3638H52.1629L52.2963 23.8112C52.3364 24.3071 52.3764 24.8968 52.4031 25.5536C52.4298 26.2103 52.4432 26.9608 52.4432 27.7784C52.4432 33.8497 51.2687 40.2561 48.9732 46.7966L48.733 47.4801L54.2715 47.1182L54.3516 46.7564C55.1924 42.7624 55.6328 38.7417 55.6328 34.8013C55.6328 30.5929 55.2324 26.5453 54.4317 22.7658L54.3383 22.2833C56.0198 22.1627 57.6213 22.0153 59.116 21.8411C60.6241 21.6668 61.8786 21.4524 62.9596 21.2111L62.9196 21.2513Z" fill="white"/>
<path d="M78.7473 24.5482C73.6225 26.3039 67.6169 26.7596 61.0908 25.9152L60.5303 25.8482L60.597 27.4297L60.944 27.5101C63.9868 28.2204 66.8562 28.5823 69.4853 28.5823H70.1926L70.286 29.6009C70.3261 29.9762 70.3528 30.4185 70.3661 30.9278C70.3795 31.4371 70.3928 32 70.3928 32.6299C70.3928 37.2672 69.4719 42.1591 67.6436 47.1582L67.39 47.8552L72.0076 47.5603L72.0877 47.2118C72.755 44.1427 73.102 41.0601 73.102 38.0177C73.102 34.7877 72.7817 31.6783 72.1411 28.77L72.0877 28.5287C73.3956 28.4349 74.6368 28.3277 75.7578 28.1936C76.9456 28.0596 77.9465 27.8988 78.814 27.7112L79.161 27.6307L79.4012 24.3203L78.7206 24.5616L78.7473 24.5482Z" fill="white"/>
<path d="M37.7762 24.3073H32.7715L32.9183 24.8971C34.1461 29.923 34.7734 34.8953 34.7734 39.6666C34.7734 40.712 34.7333 41.8513 34.6666 43.0575C34.5999 44.2771 34.5064 45.5638 34.3863 46.9308L34.3329 47.4669L36.2948 47.3999L36.3748 47.038C37.5493 41.543 38.1365 36.2356 38.1365 31.2365C38.1365 29.0518 38.0297 26.8538 37.8162 24.7228L37.7762 24.2939V24.3073Z" fill="white"/>
<path d="M37.2819 21.2247C37.2286 20.8897 37.1752 20.5546 37.1351 20.2196C37.0551 19.603 36.9616 18.9865 36.8282 18.4102L36.7481 18.0617L30.7559 17.6597L30.9961 18.3432C31.263 19.0937 31.4765 19.8443 31.6901 20.5814L32.0504 21.7742H37.362L37.2686 21.2113L37.2819 21.2247Z" fill="white"/>
</g>
<defs>
<clipPath id="clip0_753_1476">
<rect width="105.472" height="69.7736" fill="white" transform="translate(0.290039 0.597656)"/>
</clipPath>
</defs>
</svg>
