<svg width="120" height="48" viewBox="0 0 120 48" fill="none" xmlns="http://www.w3.org/2000/svg">
<g clip-path="url(#clip0_753_1294)">
<path d="M77.5783 0.874336C60.6686 0.874336 43.2699 1.68074 29.8224 3.09686C22.7905 3.83443 17.0105 4.71951 12.6584 5.70292C7.06421 6.98137 4.0324 8.34832 2.52628 10.2758C-0.163234 13.7178 0.130166 19.5003 3.46516 28.4887C5.61677 34.3106 8.28672 39.3359 8.40408 39.5424V39.562C10.6437 43.7022 13.5875 47.9309 18.458 47.9309C19.2404 47.9309 20.0521 47.8228 20.9323 47.5867C42.7418 41.7944 75.0844 35.8841 99.6029 33.219C101.755 32.983 103.583 32.806 105.187 32.6486C109.09 32.2651 111.447 32.0291 113.129 31.5275C116.513 30.5146 117.383 28.1249 117.51 26.3056C117.579 25.332 117.872 23.5323 118.205 21.4573C118.694 18.4284 119.31 14.6619 119.652 10.8954C119.877 8.43683 119.359 6.44049 118.117 4.94569C116.024 2.45764 112.601 2.19212 109.852 1.97577C100.376 1.24804 89.2165 0.864502 77.5685 0.864502" fill="#FFDA00"/>
<path d="M109.588 5.48643C113.901 5.82079 116.571 6.283 116.17 10.5609C115.583 16.9138 114.204 23.365 114.019 26.0497C113.823 28.7345 111.388 28.4001 99.2215 29.7179C73.363 32.5305 40.8346 38.6572 20.0423 44.184C17.3528 44.9019 14.9273 44.243 11.4847 37.8803C11.4847 37.8803 0.912513 18.0349 5.28419 12.449C10.3307 5.97814 70.0769 2.45749 109.588 5.48643Z" fill="#FFDA00"/>
<path d="M18.4678 45.4919C15.5533 45.4919 13.2061 43.3382 10.5361 38.4014C9.42122 36.2969 -0.241458 17.7496 4.4334 11.7803C7.94443 7.29589 31.0058 5.19137 44.4435 4.32597C66.3508 2.92951 90.7422 2.95901 109.667 4.41447C112.591 4.64066 114.928 4.93568 116.258 6.51899C117.08 7.50241 117.403 8.85953 117.236 10.669C116.894 14.3568 116.288 18.0742 115.808 21.0638C115.466 23.1978 115.163 25.0368 115.085 26.1284C114.86 29.236 112.561 29.4622 104.943 30.2194C103.329 30.3767 101.49 30.5538 99.3291 30.7898C74.703 33.4647 42.2039 39.4045 20.3064 45.2264C19.6609 45.3935 19.0546 45.4821 18.4678 45.4821V45.4919ZM77.5001 5.4569C66.5562 5.4569 55.27 5.80109 44.5805 6.47965C28.4238 7.51224 8.65838 9.86261 6.11557 13.1079C4.59966 15.0551 5.17668 19.9427 7.73905 26.8758C9.78308 32.4026 12.3944 37.3197 12.4237 37.3689C15.7978 43.6037 17.8223 43.6529 19.7685 43.1415C41.7638 37.2902 74.39 31.3307 99.1139 28.6459C101.285 28.4099 103.124 28.2329 104.747 28.0657C112.102 27.338 112.874 27.1413 112.953 25.971C113.041 24.7811 113.334 22.9814 113.696 20.7097C114.175 17.7496 114.772 14.0716 115.104 10.4625C115.212 9.26273 115.055 8.42682 114.625 7.90561C113.833 6.96153 111.838 6.73534 109.51 6.55833C99.9061 5.82076 88.884 5.4569 77.5001 5.4569Z" fill="#79242F"/>
<path d="M39.5922 9.57781L39.2694 9.27295L39.3966 9.69582C39.7878 10.9939 39.6606 11.3676 39.3575 12.2724C39.3281 12.3707 39.289 12.4789 39.2499 12.5969C38.8587 13.8163 39.6313 14.5637 39.6704 14.6031L39.7487 14.6719L39.8269 14.6031C39.9834 14.4752 40.1594 14.3474 40.355 14.2294C41.0396 13.8458 41.7438 13.7082 41.7536 13.7082L41.8416 13.6885V13.6C42.1057 11.9478 39.6998 9.66632 39.602 9.56798L39.5922 9.57781ZM39.7389 10.0695C39.8074 10.1384 39.8856 10.217 39.9638 10.3154C40.3648 11.1316 41.1863 12.8821 41.157 13.6098C41.0983 13.6295 41.0299 13.6492 40.9516 13.6787C40.9418 13.5803 40.3942 11.5446 39.7878 10.276C39.7682 10.2072 39.7585 10.1384 39.7389 10.0695ZM40.1203 12.8231C40.091 12.5674 40.0225 12.233 40.0519 11.8987C40.0714 11.5742 40.0714 11.2595 40.0127 10.9644C40.3844 12.2429 40.5604 13.8262 40.5604 13.8458C40.5604 13.8458 40.5213 13.8655 40.5017 13.8754C40.4724 13.8458 40.2083 13.541 40.1203 12.8231ZM39.9638 14.1802C39.7976 13.9737 39.2694 13.5115 39.5531 12.6362C39.5922 12.5182 39.6411 12.3904 39.6704 12.292C39.8563 11.7413 39.9345 11.3775 39.8856 10.8563C39.9443 11.1513 39.9638 11.5151 39.9052 11.9282C39.8563 12.2724 39.778 12.6559 39.8171 12.9214C39.9052 13.6688 40.1203 14.0032 40.1692 14.072C40.0812 14.1212 40.091 14.0917 39.9736 14.19L39.9638 14.1802ZM41.3722 13.3738C41.3135 12.6461 40.5995 11.3381 40.1399 10.5416C40.7169 11.289 41.3722 12.4396 41.3722 13.3738Z" fill="#79242F"/>
<path d="M47.3692 15.0062L47.3398 15.0849L47.3985 15.1439C47.3985 15.1439 47.9364 15.6356 48.3178 16.324C48.4352 16.5207 48.5134 16.7272 48.5819 16.914L48.6113 17.0124L48.7188 16.9927C48.7188 16.9927 49.8142 16.7469 50.1076 15.4979C50.1369 15.3799 50.1663 15.2619 50.1858 15.1635C50.3912 14.2391 50.4792 13.8556 51.4866 12.941L51.8093 12.646L51.379 12.7345C51.2421 12.764 48.0049 13.4622 47.3692 15.0062ZM50.8509 13.2262C49.6773 13.9933 48.1614 15.4487 48.0929 15.5274C48.044 15.4684 47.9951 15.4094 47.956 15.3602C48.3081 14.721 49.912 13.6491 50.6748 13.1672C50.7922 13.1279 50.89 13.0984 50.9878 13.0689C50.9389 13.1279 50.89 13.1672 50.8411 13.2164L50.8509 13.2262ZM48.3765 15.9404C48.3765 15.9404 48.3472 15.9011 48.3472 15.8814C48.3472 15.8814 49.3252 14.603 50.3032 13.7081C50.1076 13.9343 49.9413 14.1998 49.7946 14.485C49.6479 14.7898 49.4132 15.0357 49.2567 15.2324C48.8069 15.8028 48.4254 15.9208 48.3863 15.9306L48.3765 15.9404ZM48.5721 16.2748C48.6406 16.2453 49.0025 16.0585 49.4621 15.4684C49.6284 15.2521 49.7555 14.8882 49.9022 14.5735C50.0685 14.19 50.2641 13.8949 50.4695 13.6786C50.1467 14.1015 50.0391 14.4457 49.912 15.016C49.8924 15.1242 49.8631 15.2521 49.8338 15.3799C49.6186 16.2846 48.934 16.3928 48.6895 16.4813C48.6308 16.3338 48.6308 16.3633 48.5819 16.2748H48.5721ZM50.401 13.2754C49.5893 13.7081 48.3178 14.4555 47.8875 15.0455C48.3667 14.249 49.5306 13.6097 50.401 13.2754Z" fill="#79242F"/>
<path d="M46.3027 9.83355L46.2538 9.44019L46.0973 9.80405C45.6279 10.9055 45.3345 11.0825 44.6303 11.525C44.5521 11.5742 44.464 11.6234 44.376 11.6824C43.4273 12.2823 43.5349 13.2263 43.5349 13.2755V13.364H43.6425C43.8185 13.364 44.0141 13.3739 44.2 13.4132C44.8846 13.541 45.4323 13.8459 45.442 13.8459L45.5105 13.8852L45.5692 13.8361C46.6743 12.8625 46.3222 9.95156 46.3125 9.83355H46.3027ZM46.1266 10.2564C46.1266 10.3449 46.1266 10.4433 46.1266 10.5514C45.9408 11.3284 45.5203 12.9707 45.09 13.4525C45.0411 13.4329 44.9824 13.4132 44.9139 13.3837C44.9628 13.305 45.7354 11.6234 46.0386 10.4236C46.0582 10.3744 46.0875 10.3154 46.1169 10.2564H46.1266ZM44.8357 12.3314C44.953 12.1446 45.0997 11.8791 45.3051 11.6627C45.5007 11.4562 45.6768 11.2398 45.8039 11.0137C45.3345 12.0856 44.5716 13.2559 44.5618 13.2657C44.5618 13.2657 44.5227 13.2657 44.5032 13.2559C44.5032 13.2165 44.4934 12.8723 44.8357 12.3216V12.3314ZM43.975 13.1575C43.975 12.9215 43.8772 12.3118 44.5618 11.8791C44.6499 11.8201 44.7574 11.7611 44.8357 11.7119C45.2758 11.4365 45.5301 11.2398 45.7843 10.8661C45.6572 11.1022 45.4714 11.348 45.1975 11.5939C44.9726 11.8004 44.7085 12.0167 44.5716 12.2134C44.2195 12.7641 44.1706 13.1182 44.1608 13.187C44.0728 13.1673 44.1022 13.1575 43.9653 13.1575H43.975ZM45.3736 13.4132C45.7452 12.8822 45.9995 11.5939 46.1266 10.8071C46.0875 11.6332 45.8919 12.7838 45.3736 13.4132Z" fill="#79242F"/>
<path d="M37.4809 17.5729C37.4809 17.5729 36.6691 17.3762 35.6716 17.6123C35.3488 17.6909 34.9674 17.8089 34.6153 17.927C34.0187 18.1138 33.2559 18.3302 32.9821 18.3007C32.9625 18.3007 32.9527 18.3007 32.9429 18.2908C32.6887 18.2121 32.5713 18.222 32.5713 18.222C32.5713 18.222 32.63 18.4088 33.1777 18.7334C33.4026 18.871 33.8623 19.1366 34.4002 19.4119C35.2706 19.8545 36.4735 20.356 37.2461 20.2478H37.3635V20.1101C37.3635 20.0905 37.3342 18.399 37.5787 17.7401L37.6276 17.6024L37.4809 17.5631V17.5729ZM37.0897 18.9104C36.8941 18.9104 36.5126 18.871 36.1508 18.812C35.5346 18.7039 34.7033 18.576 33.9894 18.4875C34.097 18.4777 34.2046 18.4678 34.3219 18.4482C34.7327 18.3793 35.1728 18.3597 35.5444 18.3892C36.2681 18.4383 36.8256 18.694 37.0994 18.8514C37.0994 18.8809 37.0994 18.9005 37.0994 18.93L37.0897 18.9104ZM33.608 18.4973C34.3708 18.6055 35.3879 18.8317 36.1214 18.9595C36.6985 19.0579 36.9625 19.1071 37.0799 19.1169C37.0799 19.1464 37.0799 19.1759 37.0799 19.2054C36.6398 19.2054 34.8011 19.1562 33.4319 18.4875C33.4906 18.4875 33.5493 18.4875 33.5982 18.4875L33.608 18.4973ZM34.5958 19.2054C34.2828 19.0481 33.8916 18.8317 33.5689 18.6448C34.9576 19.2742 36.6691 19.4316 37.0897 19.4611C37.0897 19.4808 37.0897 19.5004 37.0897 19.5201C36.542 19.5496 35.6813 19.7463 34.5958 19.2054ZM37.1288 18.4678C36.8745 18.3695 36.317 18.2023 35.5346 18.1531C35.1532 18.1236 34.7229 18.2023 34.2926 18.2712C34.0872 18.3105 33.8818 18.3302 33.6764 18.34C33.9307 18.3007 34.2241 18.2416 34.5371 18.1433C34.8989 18.0253 35.2901 17.9761 35.6129 17.8975C36.3073 17.7303 36.9625 18.0056 37.2266 18.045C37.1875 18.1925 37.1581 18.3302 37.1386 18.458L37.1288 18.4678Z" fill="#79242F"/>
<path d="M39.8375 24.1715L39.7103 24.0928C39.1138 23.729 38.1064 22.3718 38.0966 22.362L38.0282 22.2637L37.9304 22.3227C37.2555 22.716 36.6198 23.8568 36.2091 24.7419C35.9548 25.2926 35.7592 25.7941 35.6614 26.0302C35.4365 26.6301 35.5049 26.8169 35.5049 26.8169C35.5049 26.8169 35.5929 26.7481 35.7494 26.5317C35.7592 26.5219 35.769 26.5022 35.7788 26.5022C35.9744 26.3055 36.7079 26.0007 37.2947 25.7843C37.6467 25.6466 38.0184 25.509 38.3216 25.3713C39.2507 24.9386 39.7495 24.3092 39.769 24.2797L39.857 24.1617L39.8375 24.1715ZM38.6639 23.5323C38.5465 23.8175 38.2629 24.3682 37.725 24.8599C37.4511 25.1058 37.0991 25.3614 36.7274 25.568C36.6296 25.627 36.5318 25.6761 36.434 25.745C36.9426 25.2336 37.5196 24.614 37.9304 24.142C38.1846 23.8666 38.4585 23.611 38.6052 23.4831C38.6248 23.5028 38.6345 23.5224 38.6541 23.5421L38.6639 23.5323ZM35.9939 26.0597C36.6687 24.6829 38.0868 23.5126 38.4292 23.2373C38.4487 23.2569 38.4683 23.2864 38.4781 23.3061C38.39 23.3946 38.214 23.5815 37.8228 24.024C37.324 24.5845 36.659 25.3909 36.1211 25.9515C36.0722 25.9908 36.033 26.0203 35.9841 26.0597H35.9939ZM38.2433 22.9816C38.2433 22.9816 38.2629 23.0111 38.2727 23.0307C37.9597 23.3159 36.7079 24.5059 36.0037 25.8532C36.1406 25.509 36.3167 25.0959 36.4634 24.7714C36.9915 23.67 37.7837 23.2963 38.2335 22.9816H38.2433ZM39.2409 24.0633C39.0551 24.2502 38.7128 24.8796 38.0673 25.1746C37.7739 25.3123 37.4218 25.5188 37.0697 25.6466C36.7665 25.7646 36.4927 25.9023 36.2775 26.0203C36.434 25.9023 36.6198 25.7941 36.7959 25.6958C37.1773 25.4893 37.5587 25.2828 37.8521 25.0271C38.4389 24.5059 38.7715 24.0142 38.9084 23.788C39.0062 23.8765 39.1138 23.965 39.2409 24.0633Z" fill="#79242F"/>
<path d="M38.5364 15.5667C38.5364 15.5667 38.0278 15.1242 37.2259 14.9177C36.9618 14.8488 36.6488 14.7997 36.3457 14.7505C35.8469 14.662 35.221 14.5341 35.0351 14.4063C35.0351 14.4063 35.0156 14.3965 35.0058 14.3866C34.8493 14.2293 34.7711 14.1899 34.7711 14.1899C34.7711 14.1899 34.7515 14.3473 35.0156 14.7898C35.1329 14.9668 35.3481 15.3405 35.6415 15.7339C36.1012 16.383 36.7858 17.1894 37.3726 17.4057L37.4606 17.4352L37.5095 17.3467C37.5095 17.3467 38.1158 16.1076 38.5364 15.7241L38.6244 15.6454L38.5364 15.5667ZM37.7638 16.383C37.6268 16.3043 37.3628 16.1371 37.1281 15.9601C36.7271 15.6454 36.1794 15.2422 35.7002 14.9078C35.7784 14.9373 35.8664 14.9767 35.9545 14.9963C36.2772 15.0947 36.5999 15.252 36.8542 15.4094C37.353 15.7142 37.666 16.1076 37.8029 16.324C37.8029 16.3338 37.7833 16.3535 37.7735 16.3731L37.7638 16.383ZM35.4166 14.7898C35.9251 15.1537 36.5706 15.6946 37.0498 16.0683C37.4312 16.3535 37.5975 16.4813 37.6855 16.5403C37.6757 16.56 37.666 16.5796 37.6562 16.5993C37.3334 16.4321 36.0425 15.7044 35.2992 14.721C35.3383 14.7407 35.3774 14.7702 35.4166 14.7898ZM35.8664 15.6749C35.7002 15.4389 35.4948 15.134 35.3383 14.8882C36.1012 15.8618 37.2748 16.619 37.5682 16.796C37.5682 16.8058 37.5584 16.8255 37.5486 16.8353C37.1378 16.6485 36.4532 16.4715 35.8762 15.6749H35.8664ZM37.9594 16.0879C37.8127 15.9208 37.4704 15.5962 36.9325 15.2619C36.6684 15.0947 36.3261 14.9865 35.9936 14.8882C35.8273 14.839 35.6708 14.7702 35.5241 14.7013C35.7197 14.7702 35.9545 14.839 36.2087 14.8783C36.5021 14.9275 36.8151 15.0455 37.0694 15.1045C37.6268 15.2422 37.9985 15.6946 38.1745 15.8126C38.0865 15.9011 38.0181 15.9896 37.9594 16.0781V16.0879Z" fill="#79242F"/>
<path d="M37.1086 20.3267C37.1086 20.3267 36.4436 20.4251 35.7688 20.9168C35.5536 21.0741 35.3091 21.2806 35.0744 21.4773C34.6832 21.8019 34.1844 22.2051 33.9692 22.2641C33.9595 22.2641 33.9497 22.2641 33.9301 22.2641C33.715 22.2837 33.6367 22.3231 33.6367 22.3231C33.6367 22.3231 33.7443 22.4411 34.2431 22.5198C34.4485 22.5591 34.8788 22.6181 35.3678 22.6574C36.16 22.7164 37.2064 22.7263 37.7541 22.4116L37.8324 22.3624L37.7932 22.2739C37.7932 22.2739 37.2456 21.0053 37.226 20.4349V20.3169L37.1086 20.3366V20.3267ZM37.2162 21.4478C37.0695 21.5068 36.7761 21.5953 36.4827 21.6642C35.9839 21.7724 35.3189 21.9297 34.7614 22.087C34.8397 22.0477 34.9179 21.9985 34.9961 21.9494C35.2798 21.7724 35.6123 21.6248 35.8861 21.5363C36.4436 21.3495 36.9424 21.3692 37.1869 21.3987C37.1869 21.4183 37.1967 21.438 37.2064 21.4577L37.2162 21.4478ZM34.4876 22.2149C35.0939 22.0575 35.9252 21.9199 36.512 21.792C36.9815 21.6937 37.1869 21.6445 37.2847 21.615C37.2847 21.6347 37.3042 21.6543 37.314 21.6838C36.9815 21.8215 35.5927 22.3427 34.3604 22.2641C34.3996 22.2542 34.4485 22.2346 34.4876 22.2149ZM35.446 22.4411C35.1624 22.4214 34.8005 22.3722 34.5071 22.3329C35.7296 22.3821 37.0695 21.969 37.3923 21.8609C37.3923 21.8805 37.402 21.8904 37.4118 21.9002C37.0011 22.087 36.424 22.5001 35.446 22.4312V22.4411ZM37.1184 21.1036C36.9033 21.1036 36.4338 21.1528 35.8274 21.3593C35.534 21.4577 35.2309 21.6445 34.9375 21.8314C34.7908 21.9199 34.6441 21.9985 34.4974 22.0674C34.6734 21.9592 34.8788 21.8314 35.0842 21.6642C35.3189 21.4675 35.6025 21.3101 35.8177 21.1528C36.2871 20.8184 36.8641 20.8184 37.0695 20.7693C37.0891 20.8971 37.1086 21.0053 37.1282 21.1135L37.1184 21.1036Z" fill="#79242F"/>
<path d="M47.3396 15.0554C47.3396 15.0554 47.7993 14.5637 48.0242 13.7573C48.1025 13.4918 48.1611 13.1771 48.2198 12.8821C48.3176 12.3805 48.4741 11.761 48.6012 11.5741C48.6012 11.5741 48.6208 11.5544 48.6306 11.5446C48.7871 11.3971 48.8262 11.3184 48.8262 11.3184C48.8262 11.3184 48.6697 11.2889 48.2198 11.5446C48.034 11.6429 47.6624 11.8593 47.2614 12.1445C46.6061 12.587 45.7748 13.2459 45.5401 13.8261L45.501 13.9146L45.589 13.9638C45.589 13.9638 46.8017 14.6227 47.1636 15.0456L47.2418 15.1439L47.3298 15.0554H47.3396ZM46.5572 14.249C46.6452 14.1113 46.8115 13.8556 46.9973 13.6196C47.3201 13.2263 47.7406 12.6854 48.0829 12.2133C48.0438 12.292 48.0144 12.3805 47.9851 12.469C47.8677 12.7837 47.7015 13.1082 47.545 13.3541C47.2223 13.8458 46.8213 14.1408 46.6061 14.2785C46.5866 14.2687 46.5768 14.2588 46.5572 14.249ZM48.2198 11.938C47.8384 12.4395 47.2809 13.0689 46.8995 13.5409C46.5963 13.9146 46.4594 14.0818 46.4007 14.1605C46.3812 14.1605 46.3616 14.1408 46.3323 14.131C46.5083 13.8163 47.2712 12.5379 48.2785 11.8298C48.2589 11.8691 48.2296 11.9085 48.21 11.9478L48.2198 11.938ZM47.3298 12.3608C47.5646 12.2035 47.8677 12.0068 48.1318 11.8495C47.144 12.587 46.3518 13.7376 46.166 14.0228C46.1562 14.0228 46.1367 14.013 46.1269 14.0032C46.3323 13.6 46.5279 12.9116 47.3396 12.3608H47.3298ZM46.8408 14.4457C47.0071 14.2982 47.3494 13.9737 47.6917 13.4426C47.858 13.1771 47.9851 12.8427 48.1025 12.5182C48.1611 12.351 48.2296 12.2035 48.2981 12.056C48.2296 12.2527 48.1514 12.4789 48.0927 12.7444C48.034 13.0394 47.9069 13.3443 47.8384 13.6C47.6819 14.1605 47.2223 14.5145 47.0951 14.6817C47.0071 14.5932 46.9191 14.5244 46.8408 14.4555V14.4457Z" fill="#79242F"/>
<path d="M38.4698 15.6651L38.5382 15.5668C38.8512 15.0948 39.9661 14.3179 39.9759 14.2982L40.0541 14.249L40.0052 14.1605C39.702 13.6 38.8121 13.0591 38.1079 12.6854C37.6678 12.4592 37.2766 12.292 37.081 12.2035C36.6116 12.0068 36.4551 12.056 36.4551 12.056C36.4551 12.056 36.504 12.1347 36.68 12.2625C36.68 12.2625 36.6996 12.2724 36.7094 12.2822C36.8561 12.4395 37.081 13.0493 37.2375 13.5311C37.3353 13.8163 37.4331 14.1212 37.5407 14.3769C37.8536 15.1439 38.3524 15.5668 38.372 15.5865L38.46 15.6651H38.4698ZM39.0174 14.7309C38.7925 14.6227 38.3524 14.3867 37.9808 13.9245C37.7949 13.6983 37.5896 13.4033 37.4429 13.0984C37.4037 13.0198 37.3548 12.9312 37.3157 12.8624C37.7069 13.2853 38.1959 13.777 38.5578 14.131C38.7729 14.3375 38.9685 14.5834 39.0663 14.7014C39.0566 14.7112 39.037 14.7309 39.0174 14.7407V14.7309ZM37.0614 12.4887C38.147 13.0788 39.0468 14.2589 39.2619 14.5539C39.2424 14.5736 39.2228 14.5834 39.2033 14.5932C39.1348 14.5244 38.9881 14.367 38.6458 14.0327C38.2155 13.6098 37.5798 13.0493 37.1495 12.5969C37.1201 12.5575 37.0908 12.5182 37.0614 12.4887ZM39.4673 14.4064C39.4673 14.4064 39.438 14.426 39.4282 14.4359C39.213 14.1704 38.2937 13.1181 37.2179 12.5084C37.4918 12.6264 37.8145 12.7837 38.0688 12.9214C38.9392 13.3836 39.213 14.0425 39.4575 14.4162L39.4673 14.4064ZM38.5676 15.1833C38.4209 15.0358 37.9221 14.7309 37.7069 14.1999C37.6091 13.954 37.4526 13.6688 37.3548 13.3836C37.2766 13.1279 37.169 12.9116 37.0712 12.7247C37.1592 12.8624 37.2473 13.0099 37.3157 13.1673C37.4722 13.482 37.6287 13.7967 37.8243 14.0425C38.235 14.5342 38.6067 14.8194 38.7925 14.9473C38.7143 15.0161 38.6458 15.1046 38.5676 15.2029V15.1833Z" fill="#79242F"/>
<path d="M44.0145 13.1967C44.0145 13.1967 44.0536 12.5181 43.7211 11.7609C43.6135 11.515 43.4668 11.2298 43.3201 10.9545C43.0854 10.5021 42.8018 9.92188 42.792 9.70552C42.792 9.69569 42.792 9.67602 42.792 9.66619C42.8213 9.44984 42.792 9.36133 42.792 9.36133C42.792 9.36133 42.6551 9.44 42.4693 9.92188C42.391 10.1186 42.2443 10.5218 42.1074 11.0036C41.8825 11.7609 41.6673 12.8033 41.8629 13.4032L41.8922 13.4917L41.99 13.472C41.99 13.472 43.3397 13.1967 43.8971 13.295L44.0145 13.3147V13.1967ZM42.8996 13.0688C42.88 12.9115 42.8409 12.6066 42.8409 12.3018C42.8409 11.7904 42.8213 11.102 42.792 10.5218C42.8213 10.6103 42.8409 10.6889 42.88 10.7775C42.9974 11.102 43.0658 11.4462 43.105 11.7412C43.1734 12.3313 43.0463 12.8131 42.968 13.0491C42.9485 13.0491 42.9289 13.0491 42.9094 13.0491L42.8996 13.0688ZM42.7138 10.2267C42.7333 10.8561 42.7138 11.7019 42.7138 12.3116C42.7138 12.7935 42.7138 13 42.7235 13.1082C42.704 13.1082 42.6746 13.1082 42.6551 13.118C42.5964 12.764 42.3715 11.2888 42.6942 10.0891C42.6942 10.1382 42.704 10.1776 42.7138 10.2267ZM42.2932 11.1216C42.3715 10.8463 42.4888 10.5021 42.5866 10.2169C42.2932 11.4167 42.4106 12.8131 42.4497 13.1573C42.4399 13.1573 42.4204 13.1573 42.4106 13.1573C42.3128 12.7148 42.0292 12.0657 42.2932 11.1118V11.1216ZM43.2419 13.0393C43.281 12.823 43.3299 12.3509 43.2614 11.7215C43.2223 11.4068 43.105 11.0725 42.9876 10.7479C42.9289 10.5906 42.88 10.4234 42.8507 10.2661C42.9191 10.4628 42.9974 10.6889 43.1245 10.925C43.2614 11.1905 43.369 11.5052 43.4668 11.751C43.7015 12.2821 43.5744 12.8525 43.5842 13.059C43.457 13.0491 43.3495 13.0393 43.2419 13.0491V13.0393Z" fill="#79242F"/>
<path d="M40.2378 23.9158C39.514 23.4536 38.8881 22.8242 38.4382 22.0178C36.9712 19.4216 37.8906 16.1075 40.4823 14.6225C43.074 13.1375 46.3796 14.0423 47.8466 16.6385C48.0031 16.9139 48.1303 17.1991 48.2378 17.4941L48.4334 17.3367C48.3259 17.0614 48.1987 16.786 48.052 16.5303C47.3087 15.2126 46.1058 14.2783 44.6486 13.8751C43.1913 13.4817 41.6754 13.6686 40.3649 14.416C39.0544 15.1634 38.1057 16.3828 37.7047 17.8383C37.3038 19.2937 37.4896 20.8279 38.2329 22.1358C38.6827 22.9324 39.2989 23.5913 40.0422 24.0732L40.2378 23.9158Z" fill="#79242F"/>
<path d="M39.8969 24.2012C39.1536 23.7194 38.5082 23.0506 38.0485 22.2344C36.4837 19.471 37.5008 15.911 40.3077 14.308C43.1146 12.7051 46.6745 13.6492 48.2393 16.4224C48.386 16.6879 48.5131 16.9534 48.6109 17.219L48.8065 17.0616C48.7087 16.8059 48.5816 16.5502 48.4447 16.3044C47.6525 14.9079 46.3615 13.9048 44.7967 13.4918C43.2319 13.0788 41.5987 13.2951 40.1805 14.1015C38.7624 14.9079 37.7453 16.2159 37.2954 17.7795C36.8553 19.3333 37.0412 20.9658 37.8333 22.3623C38.293 23.1785 38.9287 23.857 39.6915 24.3684L39.8871 24.2111L39.8969 24.2012Z" fill="#79242F"/>
<path d="M40.0623 16.2651C40.1992 16.4028 40.1699 16.6388 40.0036 16.806C39.8471 16.9634 39.6026 16.9929 39.4657 16.8552C39.3288 16.7175 39.3581 16.4815 39.5146 16.3143C39.6809 16.157 39.9156 16.1275 40.0525 16.2553L40.0623 16.2651Z" fill="#79242F"/>
<path d="M39.2505 17.9171C39.3874 18.0548 39.3581 18.2908 39.2016 18.458C39.0451 18.6251 38.8006 18.6448 38.6637 18.517C38.5268 18.3793 38.5561 18.1433 38.7126 17.9761C38.8789 17.8089 39.1136 17.7892 39.2505 17.9171Z" fill="#79242F"/>
<path d="M38.9966 19.7071C39.1237 19.8448 39.1042 20.0808 38.9477 20.248C38.7814 20.4152 38.5467 20.4349 38.4098 20.307C38.2729 20.1693 38.3022 19.9333 38.4587 19.7661C38.6249 19.5989 38.8597 19.5793 38.9966 19.7071Z" fill="#79242F"/>
<path d="M39.6812 21.2903C39.8181 21.4182 39.7887 21.664 39.6323 21.8312C39.466 21.9984 39.2313 22.0181 39.0944 21.8902C38.9574 21.7526 38.9868 21.5165 39.1433 21.3493C39.3095 21.1822 39.5442 21.1625 39.6812 21.3002V21.2903Z" fill="#79242F"/>
<path d="M41.5686 15.0455C41.7055 15.1832 41.6762 15.4192 41.5099 15.5864C41.3535 15.7536 41.109 15.7732 40.972 15.6454C40.8351 15.5077 40.8645 15.2717 41.0209 15.1045C41.1872 14.9373 41.4219 14.9177 41.5588 15.0455H41.5686Z" fill="#79242F"/>
<path d="M43.6021 14.6522C43.739 14.7898 43.7096 15.0259 43.5532 15.193C43.3869 15.3602 43.1522 15.3799 43.0153 15.252C42.8881 15.1144 42.9077 14.8783 43.0739 14.7112C43.2402 14.544 43.4749 14.5243 43.6118 14.662L43.6021 14.6522Z" fill="#79242F"/>
<path d="M45.3442 15.1536C45.4812 15.2913 45.4518 15.5273 45.2953 15.6945C45.1291 15.8617 44.8944 15.8814 44.7574 15.7535C44.6205 15.6158 44.6499 15.3798 44.8063 15.2126C44.9726 15.0454 45.2073 15.0159 45.3442 15.1536Z" fill="#79242F"/>
<path d="M46.7524 16.1961C46.8894 16.3239 46.86 16.5698 46.7035 16.737C46.5373 16.9042 46.3026 16.9238 46.1656 16.796C46.0287 16.6583 46.0581 16.4223 46.2145 16.2551C46.3808 16.0879 46.6155 16.0683 46.7524 16.2059V16.1961Z" fill="#79242F"/>
<path d="M47.5845 17.3958C47.7214 17.5237 47.6921 17.7695 47.5258 17.9367C47.3596 18.1039 47.1248 18.1334 46.9879 17.9957C46.8608 17.8679 46.8803 17.622 47.0466 17.4548C47.2129 17.2876 47.4476 17.268 47.5845 17.4056V17.3958Z" fill="#79242F"/>
<path d="M40.6591 22.5687C40.7961 22.7064 40.7667 22.9424 40.6102 23.1096C40.444 23.2768 40.2093 23.2964 40.0723 23.1686C39.9354 23.0407 39.9648 22.7949 40.131 22.6277C40.2973 22.4605 40.532 22.4408 40.6689 22.5687H40.6591Z" fill="#79242F"/>
<path d="M41.4712 21.1624C41.6081 21.3001 41.5788 21.5361 41.4223 21.7033C41.256 21.8705 41.0213 21.8902 40.8844 21.7623C40.7475 21.6345 40.7768 21.3886 40.9333 21.2215C41.0996 21.0543 41.3343 21.0346 41.4712 21.1624Z" fill="#79242F"/>
<path d="M42.4487 21.9884C42.5857 22.1163 42.5563 22.3621 42.3901 22.5293C42.2336 22.6866 41.9891 22.7161 41.8522 22.5785C41.7152 22.4408 41.7446 22.2048 41.9011 22.0376C42.0673 21.8704 42.302 21.8507 42.439 21.9884H42.4487Z" fill="#79242F"/>
<path d="M40.688 19.943C40.8249 20.0807 40.7956 20.3167 40.6391 20.4839C40.4728 20.6511 40.2381 20.6708 40.1012 20.5331C39.9643 20.4052 39.9936 20.1594 40.1501 19.9922C40.3164 19.825 40.5511 19.8054 40.688 19.9332V19.943Z" fill="#79242F"/>
<path d="M40.5915 18.5858C40.7187 18.7235 40.6991 18.9595 40.5426 19.1267C40.3764 19.2938 40.1416 19.3135 40.0047 19.1857C39.8678 19.048 39.8971 18.812 40.0634 18.6448C40.2199 18.4776 40.4644 18.4579 40.6013 18.5858H40.5915Z" fill="#79242F"/>
<path d="M41.2165 17.0616C41.3534 17.1894 41.3241 17.4353 41.1676 17.6025C41.0013 17.7696 40.7666 17.7893 40.6297 17.6615C40.4928 17.5238 40.5221 17.2878 40.6884 17.1206C40.8546 16.9534 41.0894 16.9337 41.2263 17.0714L41.2165 17.0616Z" fill="#79242F"/>
<path d="M42.6743 16.1371C42.8112 16.2748 42.7819 16.5108 42.6254 16.678C42.4592 16.8452 42.2244 16.8649 42.0875 16.737C41.9506 16.5993 41.9799 16.3633 42.1364 16.1961C42.3027 16.0388 42.5374 16.0093 42.6743 16.1371Z" fill="#79242F"/>
<path d="M44.229 16.2848C44.3659 16.4225 44.3366 16.6585 44.1801 16.8257C44.0138 16.9831 43.7791 17.0126 43.6422 16.8749C43.5053 16.7372 43.5346 16.5012 43.6911 16.334C43.8574 16.1668 44.0921 16.1471 44.229 16.275V16.2848Z" fill="#79242F"/>
<path d="M45.4517 16.983C45.5886 17.1207 45.5592 17.3567 45.4028 17.5239C45.2365 17.6911 45.0018 17.7107 44.8649 17.5829C44.7279 17.4452 44.7573 17.2092 44.9138 17.042C45.08 16.8748 45.3147 16.8552 45.4517 16.983Z" fill="#79242F"/>
<path d="M46.2046 18.1925C46.3415 18.3302 46.3122 18.5662 46.1557 18.7334C45.9894 18.9006 45.7547 18.9203 45.6178 18.7826C45.4809 18.6449 45.5102 18.4089 45.6667 18.2417C45.833 18.0745 46.0677 18.0549 46.2046 18.1827V18.1925Z" fill="#79242F"/>
<path fill-rule="evenodd" clip-rule="evenodd" d="M23.7485 37.6539C20.5895 37.6539 18.1054 36.4345 16.3646 34.0251C14.9758 32.1173 14.2619 30.0226 14.2227 27.7902C14.1934 25.7644 14.9562 23.9647 16.5015 22.4404C17.9685 20.985 19.9245 19.9819 22.4771 19.3525L23.0541 19.2148C23.6214 19.0968 24.2179 18.9886 24.8243 18.9001C25.4991 18.8116 26.1935 18.7625 26.8781 18.7625C27.5627 18.7625 28.2669 18.8116 28.9613 18.9001C29.6361 18.9886 29.8317 19.0476 29.8806 19.0575L30.0957 19.1361L30.1251 20.9555C30.1446 22.3323 30.1642 23.9451 30.2033 24.9482V25.3219L28.7461 25.1842C28.5309 25.1842 28.2571 25.1645 27.9637 25.1645C26.6727 25.1645 25.8023 25.4005 25.3133 25.9021C25.284 25.9316 25.2546 25.9709 25.2155 26.0102C24.5602 26.9052 24.8732 28.0754 25.4991 28.695C26.0761 29.2457 26.7021 29.5211 27.4062 29.5211C27.8855 29.5211 28.4136 29.3932 28.9808 29.1474C29.196 29.0588 29.4111 28.9507 29.6361 28.8523L30.4576 28.4688V28.9802C30.4576 31.4092 30.9564 33.1597 32.0909 34.6447L32.3158 34.9495C32.3158 34.9495 31.5921 35.3626 31.4845 35.4216C29.0591 36.7394 26.9368 37.4376 24.795 37.6048C24.4331 37.6343 24.081 37.6441 23.7289 37.6441L23.7485 37.6539Z" fill="#79242F"/>
<path d="M26.8883 19.0968C27.5729 19.0968 28.2477 19.146 28.9323 19.2345C29.6462 19.3329 29.7832 19.382 29.7832 19.382C29.8125 20.8277 29.8321 23.5321 29.881 24.9777L28.7856 24.8695C28.5509 24.8597 28.2673 24.8498 27.9739 24.8498C26.9959 24.8498 25.7929 24.9777 25.0985 25.6857C25.0594 25.7251 25.0203 25.7743 24.9812 25.8136C24.9616 25.8431 24.9421 25.8628 24.9225 25.8824C24.2085 26.8659 24.5606 28.223 25.2941 28.931C25.9298 29.5408 26.634 29.8456 27.4262 29.8456C27.9543 29.8456 28.5118 29.7079 29.1279 29.4424C29.4604 29.3047 29.7832 29.1375 30.145 28.9704C30.145 31.0946 30.5069 33.0712 31.8565 34.8414C31.6903 34.9397 31.524 35.0381 31.3578 35.1266C29.3137 36.2378 27.1621 37.0836 24.7954 37.2704C24.4433 37.2999 24.101 37.3098 23.7587 37.3098C20.8442 37.3098 18.3992 36.2477 16.6388 33.8186C15.3185 31.9993 14.5948 29.9833 14.5654 27.7706C14.5361 25.7939 15.3283 24.0729 16.7464 22.6667C18.3405 21.0833 20.365 20.2081 22.5753 19.6672C22.5753 19.6672 22.5753 19.6771 22.5753 19.6869C23.3283 19.4804 24.101 19.3329 24.8932 19.2247C25.568 19.1362 26.233 19.087 26.8981 19.087M26.8981 18.4281C26.2037 18.4281 25.4995 18.4773 24.8051 18.5658C24.3748 18.6248 23.9543 18.6936 23.5435 18.7821V18.7526L22.4286 19.028C19.8075 19.6672 17.8026 20.6998 16.2965 22.1946C14.7121 23.7582 13.8906 25.6956 13.9199 27.7804C13.9591 30.0816 14.6926 32.2452 16.1205 34.212C17.9298 36.7099 20.5019 37.9687 23.7684 37.9687C24.1205 37.9687 24.4922 37.949 24.854 37.9195C27.035 37.7425 29.2061 37.0344 31.6707 35.697C31.7783 35.638 31.8859 35.5789 31.9935 35.5101L32.1793 35.4019L32.8345 35.0282L32.3749 34.4283C31.2893 33.0024 30.8003 31.3109 30.8003 28.9605V27.9279L29.8712 28.3607L29.5191 28.5278C29.2942 28.636 29.079 28.7343 28.8638 28.8229C28.3357 29.0589 27.8467 29.1671 27.4164 29.1671C26.8003 29.1671 26.2526 28.931 25.7342 28.4295C25.2061 27.9083 24.9323 26.9249 25.4311 26.2463C25.4506 26.2266 25.4702 26.207 25.4897 26.1775C25.4897 26.1775 25.5191 26.1381 25.5484 26.1086C25.969 25.6857 26.7514 25.4792 27.9543 25.4792C28.2477 25.4792 28.5118 25.4891 28.7465 25.4989L29.8125 25.5972L30.5558 25.6661L30.5362 24.9187C30.5069 23.9156 30.4776 22.3126 30.458 20.9063C30.458 20.3163 30.4384 19.7656 30.4384 19.3329V18.8805L30.0081 18.7231C29.8712 18.674 29.5387 18.615 29.0203 18.5461C28.3064 18.4478 27.5924 18.4084 26.8981 18.4084V18.4281Z" fill="#FFDA00"/>
<path fill-rule="evenodd" clip-rule="evenodd" d="M57.6947 24.9979C56.9416 24.9979 56.1886 24.9291 55.4551 24.7914L55.2595 24.7521L53.724 19.3728L48.8242 20.248L48.609 19.7366C48.5015 19.4809 48.3841 19.2253 48.2863 18.9597C47.1616 15.9898 47.9733 13.3149 50.6433 11.2104C52.4428 9.78443 54.6531 8.91902 57.4208 8.55516C58.0957 8.46665 58.7901 8.41748 59.4747 8.41748C60.1593 8.41748 60.8634 8.46665 61.5578 8.55516C62.2326 8.64367 62.4282 8.70267 62.4771 8.72234L62.6825 8.80101L62.7119 10.7088C62.7314 12.066 62.751 13.6296 62.7803 14.613V14.9867L61.3231 14.849C61.1275 14.849 60.9221 14.8294 60.7167 14.8294C59.7192 14.8294 58.9954 14.9966 58.3695 15.3604C57.9979 15.5866 57.7436 15.9406 57.6654 16.3635C57.5773 16.7864 57.6751 17.2191 57.9294 17.5633C58.4673 18.291 59.1617 18.645 60.0712 18.645C60.3255 18.645 60.5994 18.6155 60.883 18.5565C61.1764 18.4975 61.46 18.4189 61.7632 18.3402L62.6141 18.114L62.5749 18.5762C62.438 20.3562 62.927 21.8411 64.0908 23.1294L64.4136 23.4835L63.9735 23.6605C61.636 24.5751 59.6409 24.9979 57.7045 24.9979H57.6947Z" fill="#79242F"/>
<path d="M59.4558 8.74197C60.1404 8.74197 60.8153 8.79114 61.4999 8.87965C62.2138 8.97799 62.3507 9.02716 62.3507 9.02716C62.3801 10.4728 62.3996 13.1772 62.4485 14.6228L61.3532 14.5146C61.138 14.5048 60.9326 14.495 60.7174 14.495C59.847 14.495 58.9864 14.613 58.204 15.0654C57.2651 15.6259 57.0206 16.8847 57.6661 17.7501C58.292 18.6057 59.1135 18.9695 60.072 18.9695C60.3556 18.9695 60.649 18.94 60.9522 18.881C61.3825 18.7925 61.803 18.6647 62.2529 18.5467C62.116 20.3168 62.5757 21.9296 63.8568 23.3457C61.8422 24.1325 59.8079 24.6635 57.7052 24.6635C56.9913 24.6635 56.2578 24.6045 55.5243 24.4668C55.0059 22.6377 54.4876 20.8479 53.9594 18.999C52.3066 19.2941 50.7027 19.5792 49.0303 19.8743C48.8836 19.5399 48.7271 19.1859 48.5902 18.8318C47.4753 15.8816 48.4142 13.3739 50.8396 11.4562C52.7467 9.95157 55.0059 9.19434 57.4509 8.86981C58.1257 8.7813 58.7908 8.73213 59.4558 8.73213M59.4558 8.07324C58.7614 8.07324 58.0475 8.12241 57.3629 8.21092C54.5462 8.58462 52.2773 9.47953 50.4289 10.935C47.6415 13.1379 46.7907 15.9504 47.9741 19.0679C48.0816 19.3432 48.1892 19.6087 48.3066 19.8644L48.4239 20.13L48.6293 20.6118L49.1379 20.5233L51.5731 20.0906L53.49 19.7464L54.1061 21.9001L54.8885 24.6439L54.9961 25.0372L55.3971 25.1061C56.1502 25.2437 56.9228 25.3126 57.6954 25.3126C59.671 25.3126 61.6955 24.8799 64.0818 23.9555L64.9718 23.6113L64.3263 22.9032C63.2309 21.6838 62.7615 20.2775 62.8886 18.5958L62.9571 17.6714L62.0671 17.9074C61.9302 17.9468 61.7933 17.9763 61.6563 18.0156C61.3629 18.0943 61.0793 18.173 60.8055 18.232C60.5414 18.2811 60.2871 18.3106 60.0524 18.3106C59.2407 18.3106 58.6441 18.0058 58.1746 17.3567C57.979 17.0912 57.9008 16.747 57.9693 16.4126C58.0377 16.0783 58.2333 15.8029 58.5267 15.6259C59.0842 15.2915 59.759 15.144 60.6979 15.144C60.9033 15.144 61.0989 15.144 61.3043 15.1637L62.3703 15.262L63.1136 15.3309L63.094 14.5835C63.0647 13.6099 63.0451 12.0659 63.0255 10.7088C63.0255 10.0597 63.006 9.45986 62.9962 8.99766V8.54528L62.5659 8.38794C62.429 8.33877 62.0964 8.27976 61.5781 8.21092C60.8642 8.12241 60.1502 8.07324 59.446 8.07324H59.4558Z" fill="#FFDA00"/>
<path fill-rule="evenodd" clip-rule="evenodd" d="M35.1029 36.0316C33.7729 36.0316 32.6384 35.353 31.9244 34.1139C31.2594 32.983 30.8682 31.6849 30.7606 30.2688C30.7215 29.718 30.6726 29.0887 30.7802 28.4789C31.0736 26.8858 32.1494 25.8434 34.0858 25.2828C34.6628 25.1156 35.2105 25.0271 35.7582 25.0271C36.0809 25.0271 36.4135 25.0566 36.7362 25.1156V24.9288L36.9905 24.8698C37.6653 24.7124 38.3304 24.5354 38.9954 24.3584C40.0125 24.0929 41.059 23.8175 42.0957 23.611L42.3891 23.552C42.3891 23.552 42.9954 25.4992 43.103 25.863C43.68 27.8102 44.0321 29.5902 44.169 31.3308C44.2082 31.8521 44.2473 32.3733 44.2864 32.9142L44.3255 33.4059L38.5357 35.0088V34.3696C37.8511 35.1465 37.0981 35.6382 36.2179 35.8644C35.8364 35.9628 35.4648 36.0119 35.1127 36.0119L35.1029 36.0316ZM37.548 28.7346C36.9612 28.7346 36.7949 29.0001 36.7069 29.2657C36.5797 29.6492 36.5993 30.0032 36.7558 30.3573C36.8438 30.5638 37.059 30.8981 37.4208 30.8981C37.636 30.8981 37.8707 30.7801 38.1152 30.5638L37.724 28.7346C37.6555 28.7346 37.5969 28.7346 37.5382 28.7346H37.548Z" fill="#79242F"/>
<path d="M42.1545 23.955C42.3795 24.6925 42.5848 25.3416 42.7804 25.9808C43.3086 27.751 43.6802 29.5408 43.8269 31.3798C43.8758 31.9699 43.9149 32.5599 43.9638 33.1795C42.2621 33.6515 40.5897 34.1137 38.8489 34.5956V33.6417C38.8489 33.6417 38.7804 33.6122 38.7511 33.6023C38.663 33.7105 38.575 33.8088 38.4968 33.9072C37.8904 34.6841 37.1374 35.3036 36.13 35.5593C35.7779 35.6478 35.4356 35.697 35.1031 35.697C33.8806 35.697 32.8635 35.0873 32.2082 33.9465C31.5334 32.7959 31.1911 31.547 31.0933 30.239C31.0542 29.6687 31.0053 29.0884 31.1031 28.5377C31.3965 26.9052 32.6092 26.0595 34.174 25.6071C34.6924 25.4596 35.2205 25.3711 35.7584 25.3711C36.1887 25.3711 36.619 25.4301 37.0591 25.5481V25.2138C38.7804 24.8106 40.4724 24.2893 42.1545 23.9648M37.421 31.252C37.7437 31.252 38.1154 31.0848 38.4772 30.7012C38.3207 29.9637 38.1643 29.2163 38.0078 28.459C37.8415 28.4295 37.6948 28.4197 37.5481 28.4197C36.932 28.4197 36.5603 28.6754 36.3941 29.1769C36.2474 29.6293 36.2572 30.062 36.4625 30.5046C36.6777 30.9766 37.02 31.2421 37.4308 31.2421M42.6142 23.1978L42.0372 23.3158C41.0005 23.5223 39.9442 23.7976 38.9173 24.0632C38.2523 24.2402 37.5872 24.4074 36.9222 24.5647L36.4136 24.6827V24.7516C36.1985 24.7221 35.9833 24.7122 35.7682 24.7122C35.1911 24.7122 34.6141 24.8007 33.998 24.9777C31.9637 25.5678 30.7706 26.7282 30.4674 28.4295C30.35 29.0884 30.3989 29.7572 30.4478 30.3079C30.5554 31.7732 30.9662 33.1205 31.6508 34.3006C32.4332 35.638 33.6557 36.3756 35.1129 36.3756C35.4943 36.3756 35.8953 36.3264 36.3061 36.2182C37.0102 36.0412 37.6361 35.7068 38.2132 35.2053V35.4807L39.0445 35.2545L40.2376 34.9201C41.5579 34.5562 42.8489 34.1924 44.1594 33.8383L44.6778 33.6908L44.6386 33.15L44.6191 32.9041C44.58 32.3731 44.5408 31.8518 44.5017 31.3405C44.3648 29.59 44.0127 27.7805 43.4259 25.8136C43.3086 25.4301 43.1912 25.0564 43.0738 24.663L42.8 23.778L42.624 23.2076L42.6142 23.1978ZM37.4308 30.5832C37.2449 30.5832 37.1178 30.3669 37.0591 30.2292C36.932 29.9538 36.9222 29.6785 37.02 29.3736C37.0689 29.2163 37.1374 29.0884 37.4699 29.0688L37.7633 30.4456C37.597 30.5636 37.4797 30.5832 37.4308 30.5832Z" fill="#FFDA00"/>
<path fill-rule="evenodd" clip-rule="evenodd" d="M44.5899 32.059C44.4432 29.1972 43.8075 26.2371 42.6828 23.2672C42.5948 23.0115 42.4676 22.6968 42.3209 22.3526L42.0764 21.7724L43.6901 21.3791C44.6583 21.143 45.5092 20.9365 46.7611 20.6612L46.9762 20.612L47.1034 20.7988C47.2305 20.9857 47.2892 21.1725 47.3479 21.3496L47.3968 21.4774C47.5924 22.0183 47.7782 22.5788 47.9542 23.1394L48.0814 23.5229L48.9713 23.4049C48.7464 22.628 48.365 21.5561 48.052 20.8677L47.876 20.4841L53.6169 19.4319L53.7049 19.7072C54.8491 23.2672 55.7391 26.2371 55.9054 29.4628V29.7381L55.6511 29.7971C55.4457 29.8463 54.8883 29.9545 54.233 30.0823C52.9909 30.3282 51.299 30.6625 50.8882 30.7707L50.5264 30.869L50.4775 30.4953C50.3112 29.1677 50.1156 27.8598 49.92 26.8469L48.8735 27.1321L49.3821 31.3116L48.2281 31.5968C47.4359 31.7935 46.6828 31.9803 45.92 32.1573L45.6168 32.2163C45.431 32.2557 45.2451 32.2852 45.0104 32.3638L44.6094 32.4819L44.5899 32.0688V32.059Z" fill="#79242F"/>
<path d="M53.3916 19.8154C54.4283 23.0509 55.4063 26.1978 55.5726 29.4825C54.9564 29.6103 51.4258 30.2889 50.7901 30.456C50.6239 29.0989 50.3891 27.5845 50.1544 26.4339C49.5481 26.601 49.0199 26.7485 48.5016 26.8862C48.6679 28.2729 48.8439 29.6595 49.0102 31.0559C47.8855 31.3313 46.8586 31.587 45.8317 31.8328C45.5383 31.9017 45.2742 31.9312 44.9025 32.0492C44.7461 28.9809 44.0419 26.0012 42.9759 23.1591C42.8781 22.8542 42.702 22.4412 42.5162 22.0183C44.1201 21.6348 45.0688 21.3791 46.8194 20.9955C46.9466 21.1824 46.9955 21.3889 47.0737 21.6053C47.3476 22.3527 47.5823 23.1197 47.8463 23.8966C48.3549 23.8278 48.8439 23.7688 49.372 23.6999C49.1764 22.8935 48.6972 21.5463 48.3353 20.7497C50.0468 20.435 51.6997 20.1301 53.3818 19.8253M53.8317 19.0779L53.2645 19.1762L52.0224 19.4024C50.7608 19.6286 49.5089 19.8646 48.218 20.1006L47.3867 20.2482L47.7388 21.0152C48.0028 21.5856 48.3158 22.4313 48.5309 23.1394C48.4527 23.1492 48.3745 23.1591 48.2962 23.1689L48.2571 23.0509C48.0713 22.4805 47.8952 21.92 47.6899 21.3692L47.6507 21.2414C47.5823 21.0546 47.5138 20.8382 47.3671 20.612L47.1226 20.2383L46.6923 20.3367C45.4307 20.612 44.5896 20.8185 43.6116 21.0546C43.2302 21.1529 42.8292 21.2512 42.3695 21.3594L41.6165 21.5364L41.9099 22.2543L42.0077 22.4805C42.1446 22.8149 42.2815 23.1296 42.35 23.3558C43.4649 26.3257 44.1006 29.2464 44.2473 32.0787L44.2864 32.9146L45.0884 32.6786C45.3133 32.6097 45.4893 32.5802 45.6654 32.5409C45.7632 32.5212 45.8708 32.5016 45.9784 32.472C46.7608 32.2852 47.5432 32.0983 48.3647 31.8918L49.1666 31.6951L49.7339 31.5575L49.6654 30.9773C49.5187 29.7676 49.372 28.5679 49.2253 27.3779C49.3622 27.3386 49.5089 27.2993 49.6556 27.2599C49.8317 28.2138 49.9979 29.3743 50.1446 30.5445L50.2327 31.2919L50.9564 31.1051C51.3476 30.9969 53.0298 30.6724 54.262 30.4265C54.9369 30.2987 55.4943 30.1807 55.7095 30.1413L56.2572 30.0233L56.2278 29.4628C56.0616 26.1978 55.1716 23.2082 54.0175 19.6286L53.8415 19.0779H53.8317Z" fill="#FFDA00"/>
<path fill-rule="evenodd" clip-rule="evenodd" d="M75.2014 18.8315C74.859 16.5795 74.5265 14.3668 74.4776 14.1013L74.4189 13.7571L74.7612 13.7178C75.6121 13.6194 76.238 13.5407 76.864 13.4621C77.4899 13.3834 78.1158 13.3047 78.9569 13.2064L79.2992 13.167L79.4752 16.0386H80.1892L79.9838 13.2064L80.2478 13.1375C81.0987 12.9212 83.7198 12.7048 84.6391 12.7048C84.9227 12.7048 85.0107 12.7245 85.089 12.7638L85.2454 12.8523L85.9594 22.008L85.6366 22.0375C84.199 22.1752 82.7711 22.3128 81.2748 22.4604L80.952 22.4899L80.5608 19.2052C80.2772 19.2347 79.9936 19.2642 79.7002 19.2937L80.1011 22.5784L75.8077 23.0209L75.172 18.8512L75.2014 18.8315Z" fill="#79242F"/>
<path d="M84.6585 13.0193C84.8247 13.0193 84.9225 13.0193 84.9519 13.039C85.1866 15.9696 85.4017 18.8215 85.6267 21.6832C84.189 21.8209 82.7611 21.9586 81.2648 22.1061C81.1279 20.9752 81.0007 19.8934 80.8736 18.8215C80.365 18.8707 79.8858 18.9198 79.3577 18.9788C79.4946 20.0606 79.6217 21.1325 79.7587 22.2635C78.5166 22.3913 77.3234 22.5191 76.1107 22.6371C75.7293 20.1196 74.8784 14.4846 74.8002 14.0322C76.4921 13.8355 77.3039 13.7175 78.9958 13.5209C79.0545 14.5239 79.1132 15.4287 79.1719 16.3531H80.5411C80.4726 15.3697 80.4041 14.3961 80.3357 13.4422C81.1572 13.2357 83.7587 13.0193 84.6487 13.0193M84.6487 12.3604C83.6805 12.3604 81.0594 12.5866 80.1792 12.803L79.6413 12.9406L79.6804 13.4914L79.7587 14.5829L79.8369 15.6942H79.7782L79.7195 14.8091L79.6413 13.4815L79.6022 12.7931L78.9176 12.8718C78.0765 12.9701 77.4506 13.0488 76.8246 13.1275C76.1987 13.2062 75.5728 13.2848 74.7317 13.3832L74.0471 13.4618L74.1645 14.1502C74.2134 14.4256 74.5655 16.7563 74.9078 19.0182C75.1229 20.4048 75.3283 21.7914 75.475 22.7355L75.5728 23.355L76.1889 23.296C76.766 23.237 77.343 23.178 77.9298 23.119C78.5655 23.0502 79.2012 22.9912 79.8467 22.9223L80.5117 22.8535L80.4335 22.1848L80.1988 20.2278L80.1205 19.559C80.189 19.559 80.2574 19.5492 80.3259 19.5394C80.3748 19.9819 80.4335 20.4343 80.4824 20.8768L80.6389 22.1749L80.7171 22.8142L81.3528 22.7552C82.8491 22.6076 84.2673 22.47 85.7147 22.3323L86.3602 22.2733L86.3113 21.6242L86.0179 17.8381C85.8907 16.2351 85.7636 14.6125 85.6365 12.98L85.6071 12.6161L85.2844 12.4489C85.1279 12.3703 84.9616 12.3506 84.6878 12.3506L84.6487 12.3604Z" fill="#FFDA00"/>
<path fill-rule="evenodd" clip-rule="evenodd" d="M67.31 24.5747C66.3222 24.5747 65.3442 24.2305 64.6302 23.6208C63.6229 22.7751 63.0361 21.6442 62.772 20.0608C62.7329 19.815 62.7231 19.5593 62.7133 19.3036V19.1856C62.6253 17.4843 63.6816 16.2747 65.6865 15.7928C66.1364 15.6846 66.5667 15.6256 66.9872 15.6256C67.4958 15.6256 68.0239 15.7043 68.6107 15.8616L68.6792 15.6846L68.8748 15.665C69.5007 15.5961 70.1168 15.4978 70.7428 15.4093C71.6816 15.2716 72.6499 15.1339 73.5887 15.0651L73.8919 15.0454L75.2611 23.2668L70.019 24.0339C70.019 24.0339 69.9604 23.6012 69.9604 23.552C69.3051 24.2109 68.3564 24.5747 67.3295 24.5747H67.31ZM68.7867 19.0479C68.6009 19.0479 68.3466 19.0873 68.2293 19.3036C68.0043 19.7167 68.151 20.2477 68.5618 20.5526C68.6303 20.6017 68.7476 20.6312 68.8748 20.6312C69.0508 20.6312 69.2268 20.5722 69.3931 20.4837L69.1095 19.0873C68.9921 19.0676 68.8943 19.0479 68.7867 19.0479Z" fill="#79242F"/>
<path d="M73.5986 15.3897C74.0289 17.9565 74.4397 20.4445 74.8602 22.9817C73.3052 23.2079 71.8088 23.4341 70.2831 23.6603C70.2538 23.4243 70.2147 23.1981 70.1756 22.9031C70.0484 23.0014 69.9506 23.0604 69.8822 23.1391C69.2465 23.8963 68.2782 24.2503 67.31 24.2503C66.42 24.2503 65.5203 23.9553 64.8357 23.3751C63.7794 22.4802 63.31 21.3099 63.0948 20.0216C63.0459 19.7463 63.0459 19.4611 63.0264 19.1857C62.9383 17.4156 64.2293 16.4912 65.755 16.1273C66.1755 16.029 66.5765 15.97 66.9775 15.97C67.5545 15.97 68.1315 16.0781 68.7966 16.2748C68.8259 16.1961 68.8553 16.1175 68.9042 15.9995C70.4885 15.8126 72.0729 15.5176 73.5986 15.3996M68.865 20.9756C69.1584 20.9756 69.4812 20.8674 69.7453 20.6412C69.6279 20.0413 69.5007 19.4316 69.3736 18.8317C69.1584 18.7629 68.9531 18.7334 68.777 18.7334C68.3858 18.7334 68.0826 18.8809 67.9359 19.1661C67.6328 19.7168 67.8186 20.4347 68.3565 20.8379C68.4934 20.9362 68.6694 20.9854 68.8553 20.9854M74.1365 14.7112L73.5399 14.7604C72.5912 14.8292 71.6132 14.9767 70.6646 15.1144C70.0484 15.2029 69.4323 15.2914 68.8161 15.3701L68.4152 15.4192L68.376 15.5176C67.8773 15.3996 67.4176 15.3406 66.9579 15.3406C66.4983 15.3406 66.0484 15.3996 65.579 15.5078C63.4371 16.029 62.2635 17.3861 62.3515 19.2349V19.3431C62.3711 19.5988 62.3809 19.8643 62.42 20.1495C62.6938 21.8115 63.3198 23.0014 64.3858 23.9061C65.1584 24.5552 66.2147 24.9387 67.2807 24.9387C68.1707 24.9387 69.002 24.6831 69.667 24.2208L69.6963 24.4372L70.3516 24.3389C71.8773 24.1127 73.3736 23.8963 74.9287 23.6603L75.5937 23.562L75.4861 22.9031L74.8798 19.2349L74.2245 15.3111L74.1267 14.721L74.1365 14.7112ZM68.8553 20.3265C68.7868 20.3265 68.7477 20.3068 68.7379 20.3068C68.4641 20.1003 68.3565 19.7561 68.5032 19.4906C68.5423 19.4119 68.7183 19.4021 68.7672 19.4021C68.7868 19.4021 68.7966 19.4021 68.8161 19.4021L68.9824 20.1987L69.002 20.3167C68.9531 20.3265 68.9042 20.3363 68.8553 20.3363V20.3265Z" fill="#FFDA00"/>
<path fill-rule="evenodd" clip-rule="evenodd" d="M102.635 10.7675C102.478 12.2131 102.322 13.6489 102.165 15.1142C101.901 15.3994 101.549 15.4486 101.079 15.3502C100.894 14.6028 101.099 13.8652 101.177 13.1178C101.265 12.3606 101.373 11.6034 101.48 10.8068C100.248 10.9248 98.967 11.0428 97.676 11.1707C97.6467 11.4264 97.6173 11.6329 97.588 11.8591C97.4902 12.5573 97.4902 13.8456 97.4022 14.6716C97.2653 16.5401 97.6662 16.9237 98.2433 17.3367C99.5538 18.0251 100.796 18.0153 102.048 17.1794C101.999 18.4676 101.94 19.6871 101.891 20.9164H105.569C105.803 17.4449 106.038 14.0128 106.273 10.502C105.08 10.5905 103.886 10.6691 102.635 10.7675Z" fill="#79242F"/>
<path fill-rule="evenodd" clip-rule="evenodd" d="M91.9936 12.5279C91.5828 13.5211 90.9374 14.8979 90.2234 16.3435C90.2136 16.0387 90.2039 15.7338 90.1941 15.4486C90.1941 15.4486 90.1941 15.4486 90.1843 15.4486C90.155 14.5144 90.1354 13.6096 90.1061 12.6164C88.4141 12.7541 87.5926 12.8426 85.9006 12.9802C85.9593 13.4326 86.6146 19.0873 86.9178 21.6245C88.1305 21.5458 89.3334 21.4573 90.5853 21.3786C91.0645 20.1494 91.7002 18.5562 92.3848 17.0123L92.7467 21.2115C94.243 21.1131 95.0156 21.0935 96.4631 21.0148C96.3359 18.1432 96.2186 15.2814 96.0817 12.3509C95.8861 12.2427 92.9716 12.3312 91.9936 12.5475V12.5279Z" fill="#79242F"/>
<path d="M59.1823 29.777C59.3095 30.1605 59.5638 30.2785 59.9256 30.2097C60.307 30.1409 60.5027 29.8557 60.5027 29.8557L60.8841 30.131C60.8841 30.131 60.6591 30.5932 59.9745 30.7112C59.1432 30.8588 58.5564 30.5244 58.4097 29.7082C58.2728 28.9017 58.7422 28.4002 59.4562 28.2724C60.1799 28.1445 60.6298 28.4395 60.7472 29.0984C60.7863 29.3345 60.7178 29.5213 60.7178 29.5213L59.1726 29.7868L59.1823 29.777ZM59.1041 29.3443L60.0821 29.1771C60.0821 29.1771 60.0821 29.1181 60.0723 29.0788C60.0332 28.8329 59.8767 28.6854 59.5442 28.7444C59.2117 28.8034 59.0845 29.0001 59.1041 29.3541V29.3443Z" fill="#79242F"/>
<path d="M61.2851 30.3868L61.1677 29.9148L61.4416 29.8361L61.2264 28.5577L60.8939 28.5872L60.845 28.1053L61.8621 27.9381L62.0088 28.8429L62.3218 28.656L62.4587 28.302H62.3609L62.3218 27.8595L63.4562 27.6726L63.5345 28.1446L63.065 28.2922L62.7912 28.8134L63.4367 29.4919L63.9159 29.4231L63.9648 29.9345L63.1237 30.0722L62.8988 29.9148L62.2337 29.2067L62.087 29.2952L62.1653 29.7771H62.3707L62.4098 30.1902L61.2753 30.377L61.2851 30.3868Z" fill="#79242F"/>
<path d="M65.5982 28.243L65.5004 27.8693C65.4222 27.8201 65.295 27.7611 65.1288 27.7906C64.7963 27.8496 64.6398 28.0463 64.7278 28.5872C64.8158 29.1379 65.0994 29.3542 65.5004 29.2854C65.8623 29.2264 66.0677 28.9019 66.0677 28.9019L66.4295 29.1674C66.4295 29.1674 66.2437 29.6493 65.5004 29.7673C64.6007 29.9148 64.1019 29.4919 63.9747 28.715C63.8574 27.9774 64.229 27.4562 64.9527 27.3382C65.1581 27.3087 65.3635 27.3677 65.5102 27.4366L65.5689 27.2891L66.009 27.2202L66.1459 28.1545L65.608 28.243H65.5982Z" fill="#79242F"/>
<path d="M68.5816 29.1969L68.3078 27.4071L67.4178 27.5448L67.6232 28.8626L67.897 28.8429L67.9361 29.2953L66.7332 29.4821L66.6256 29.0101L66.8994 28.9412L66.7038 27.6628H66.4398L66.3909 27.1908L69.1782 26.7581L69.2564 27.2301L69.0413 27.2989L69.2466 28.6069L69.5205 28.5872L69.5596 29.0396L68.5914 29.1871L68.5816 29.1969Z" fill="#79242F"/>
<path d="M70.4493 27.9384C70.5666 28.3219 70.8209 28.4498 71.1925 28.3908C71.574 28.3318 71.7793 28.0466 71.7793 28.0466L72.1608 28.3219C72.1608 28.3219 71.926 28.7841 71.2317 28.8825C70.3906 29.0103 69.8135 28.6661 69.6864 27.8499C69.569 27.0336 70.0385 26.5518 70.7622 26.4338C71.4859 26.3256 71.9358 26.6304 72.0336 27.2795C72.0727 27.5155 71.9945 27.7024 71.9945 27.7024L70.4493 27.9384ZM70.3808 27.5057L71.3686 27.3582C71.3686 27.3582 71.3686 27.2992 71.3588 27.2598C71.3197 27.014 71.1632 26.8665 70.8405 26.9156C70.5079 26.9648 70.3808 27.1615 70.3808 27.5155V27.5057Z" fill="#79242F"/>
<path d="M72.6787 29.7477L72.5809 29.2757L72.8449 29.2069L72.4929 26.768H72.2288L72.1995 26.2959L73.0503 26.1681L73.1188 26.3254C73.1188 26.3254 73.3242 26.0501 73.8719 25.9616C74.5565 25.8632 75.0357 26.2369 75.1433 26.9352C75.2508 27.6826 74.9085 28.3316 74.1946 28.43C73.7056 28.4988 73.4611 28.371 73.4611 28.371H73.4415L73.5491 29.1282L73.8327 29.1085L73.8621 29.5609L72.6591 29.7379L72.6787 29.7477ZM73.2362 26.8172L73.3926 27.8891C73.3926 27.8891 73.5687 28.0366 73.8914 27.9874C74.3413 27.9186 74.488 27.5941 74.4098 27.063C74.3315 26.5418 74.1261 26.4336 73.7056 26.5025C73.3731 26.5516 73.2459 26.7877 73.2362 26.8172Z" fill="#79242F"/>
<path d="M77.4908 26.4925L77.4126 26.0794L76.992 26.1385L77.1779 27.4661L77.4517 27.4464L77.4811 27.8988L76.2781 28.066L76.1803 27.5939L76.4444 27.5251L76.2683 26.2368L75.8576 26.2958L75.8771 26.7187L75.3686 26.7875L75.261 25.8631V25.8336L75.7598 25.7943L77.4028 25.5681L77.9016 25.4697L78.019 26.4236L77.5104 26.4925H77.4908Z" fill="#79242F"/>
<path d="M79.7992 26.0012L79.7307 25.2144L80.1708 25.1554L80.2393 25.2734C80.3762 25.1653 80.562 25.0472 80.7674 25.0177C81.2662 24.9489 81.6965 25.1161 81.7454 25.5193C81.7747 25.7651 81.6476 25.952 81.4813 26.0897C81.7356 26.129 81.9801 26.247 82.0192 26.5617C82.0779 27.0534 81.6183 27.4271 80.9532 27.5058C80.0437 27.6238 79.7698 27.2501 79.7698 27.2501L79.985 26.8371C79.985 26.8371 80.2784 27.1026 80.8359 27.0338C81.0999 27.0043 81.3249 26.8567 81.2955 26.6699C81.276 26.5027 81.0412 26.4732 80.7674 26.5125L80.4447 26.5617L80.386 26.1388L80.7283 26.0897C80.8261 26.0798 81.0901 25.9717 81.0608 25.716C81.0412 25.5488 80.9141 25.48 80.6892 25.5095C80.5131 25.5291 80.3958 25.6078 80.3371 25.6668V25.9225L79.7992 25.9913V26.0012Z" fill="#79242F"/>
<path d="M83.9159 27.0433L83.8279 26.5713L84.1017 26.5123L83.955 25.224H83.691L83.6616 24.7421L84.6201 24.6241L84.7179 25.5092L85.6567 25.401L85.5981 24.929H85.4025L85.3536 24.5356L86.4978 24.3979L86.5565 24.8798L86.3316 24.9388L86.4881 26.2664H86.7717L86.7912 26.709L85.823 26.827L85.7154 25.8829L84.7765 25.9911L84.8352 26.532H85.0504L85.0602 26.9253L83.9159 27.063V27.0433Z" fill="#79242F"/>
<path d="M87.1935 25.1158L87.1348 24.2996L87.5651 24.2504L87.6434 24.3783C87.7803 24.2701 87.9857 24.1521 88.2595 24.1226C88.8072 24.0636 89.2179 24.2799 89.2864 24.9192L89.394 25.9419H89.6678L89.6776 26.3845L88.8463 26.473L88.7289 26.2566C88.7289 26.2566 88.6018 26.591 88.0248 26.65C87.4673 26.709 87.0957 26.473 87.0566 26.0501C86.9881 25.3715 87.9172 25.1945 88.5627 25.0568V25.0077C88.5236 24.6733 88.3964 24.575 88.1128 24.6045C87.9172 24.6241 87.7998 24.7028 87.7314 24.7716V25.047L87.1837 25.106L87.1935 25.1158ZM88.6507 25.8731L88.6116 25.4797C88.0932 25.5682 87.7803 25.6371 87.8096 25.9124C87.8292 26.1288 87.9759 26.2074 88.2204 26.1779C88.5529 26.1386 88.6507 25.9026 88.6605 25.8829L88.6507 25.8731Z" fill="#79242F"/>
<path d="M91.4565 24.8013L91.3783 24.4276C91.3098 24.3784 91.1827 24.3096 91.0066 24.3292C90.6741 24.3588 90.4981 24.5554 90.5568 25.0963C90.6154 25.6569 90.8795 25.8831 91.2805 25.8437C91.6423 25.8044 91.8771 25.4995 91.8771 25.4995L92.2194 25.7945C92.2194 25.7945 92.0042 26.2666 91.2511 26.3354C90.3514 26.4239 89.8722 25.9716 89.7939 25.1947C89.7255 24.4473 90.1264 23.9457 90.8502 23.8769C91.0555 23.8572 91.2609 23.9359 91.4076 24.0047L91.4761 23.8572L91.9162 23.8179L91.9944 24.762L91.4467 24.821L91.4565 24.8013Z" fill="#79242F"/>
<path d="M92.5025 26.1188L92.4242 25.6369L92.6981 25.5878L92.5807 24.2896H92.3167L92.3069 23.7979L93.2653 23.7094L93.4316 25.5484H93.7054L93.7152 26.0008L92.5025 26.109V26.1188ZM92.8741 23.4144C92.6101 23.4341 92.434 23.2964 92.4145 23.0899C92.3949 22.8932 92.5318 22.7162 92.8057 22.6867C93.0893 22.6572 93.2458 22.8145 93.2653 23.0112C93.2849 23.2276 93.1382 23.3849 92.8839 23.4144H92.8741Z" fill="#79242F"/>
<path d="M94.0581 25.9714L93.9896 25.4896L94.2635 25.4404L94.1657 24.1423H93.9016V23.6506L94.8601 23.5719L94.9285 24.457L95.8772 24.3783L95.8381 23.9063H95.6425L95.6131 23.5031L96.7574 23.4146L96.7965 23.8964L96.5716 23.9456L96.6791 25.2732H96.9628V25.7256L95.9945 25.8043L95.9163 24.8503L94.9774 24.929L95.0165 25.4699H95.2317V25.8633L94.0874 25.9518L94.0581 25.9714Z" fill="#79242F"/>
<path d="M97.3247 25.7157L97.2562 25.2339L97.53 25.1847L97.4518 23.8866H97.1877V23.3949L98.1462 23.3359L98.2049 24.2209L99.1535 24.1619L99.1242 23.6899L98.9286 23.6702L98.909 23.2768L100.053 23.208L100.083 23.6899L99.8577 23.7292L99.9359 25.0667H100.22V25.519L99.2513 25.578L99.1927 24.6241L98.244 24.6831L98.2733 25.224H98.4787L98.4689 25.6272L97.3149 25.6961L97.3247 25.7157Z" fill="#79242F"/>
<path d="M100.523 25.5092L100.464 25.0273L100.875 24.988L101.08 24.5749C100.777 24.4471 100.542 24.2209 100.533 23.9259C100.513 23.4342 100.885 23.1588 101.638 23.1293L102.978 23.0703L102.997 23.5522L102.772 23.5915L102.831 24.929H103.115L103.095 25.3912L102.117 25.4305L102.088 24.6831L101.706 24.7028L101.452 25.2732L101.286 25.4797L100.523 25.5092ZM101.677 24.2701L102.068 24.2504L102.039 23.562H101.726C101.383 23.5915 101.227 23.6702 101.237 23.9161C101.247 24.1619 101.442 24.2701 101.677 24.2603V24.2701Z" fill="#79242F"/>
</g>
<defs>
<clipPath id="clip0_753_1294">
<rect width="118.994" height="47.0566" fill="white" transform="translate(0.717041 0.874268)"/>
</clipPath>
</defs>
</svg>
