<svg width="124" height="45" viewBox="0 0 124 45" fill="none" xmlns="http://www.w3.org/2000/svg">
<g clip-path="url(#clip0_753_1083)">
<path d="M123.791 8.34814H0.470703V44.3085H123.791V8.34814Z" fill="#EC0928"/>
<path d="M18.6196 29.3944V32.5903C18.6196 34.5419 18.1467 36.0368 17.2009 37.0842C16.255 38.1316 14.8542 38.6508 12.9983 38.6508C11.1423 38.6508 9.74147 38.1316 8.79566 37.0842C7.84986 36.0368 7.37695 34.5419 7.37695 32.5903V20.0664C7.37695 18.1148 7.84986 16.6199 8.79566 15.5725C9.74147 14.5251 11.1423 14.0059 12.9983 14.0059C14.8542 14.0059 16.2461 14.5251 17.2009 15.5725C18.1467 16.6199 18.6196 18.1148 18.6196 20.0664V22.4029H15.0505V19.8247C15.0505 18.9563 14.872 18.3387 14.5151 17.9806C14.1582 17.6225 13.6853 17.4434 13.0964 17.4434C12.5075 17.4434 12.0257 17.6225 11.6777 17.9806C11.3208 18.3387 11.1423 18.9474 11.1423 19.8247V32.832C11.1423 33.7004 11.3208 34.3091 11.6777 34.6582C12.0346 34.9984 12.5075 35.1775 13.0964 35.1775C13.6853 35.1775 14.1671 35.0074 14.5151 34.6582C14.872 34.3181 15.0505 33.7093 15.0505 32.832V29.3944H18.6196Z" fill="white"/>
<path d="M12.9893 38.758C11.1155 38.758 9.67001 38.2209 8.70635 37.1556C7.7427 36.0993 7.25195 34.5595 7.25195 32.5901V20.0662C7.25195 18.0967 7.7427 16.557 8.70635 15.5006C9.67001 14.4353 11.1155 13.8982 12.9893 13.8982C14.863 13.8982 16.3085 14.4353 17.2722 15.5006C18.2358 16.5659 18.7266 18.0967 18.7266 20.0662V22.519H14.9255V19.8244C14.9255 18.9919 14.756 18.4011 14.4258 18.0698C14.0957 17.7386 13.6406 17.5685 13.0874 17.5685C12.5342 17.5685 12.0791 17.7386 11.749 18.0698C11.4189 18.4011 11.2493 18.9919 11.2493 19.8244V32.8318C11.2493 33.6643 11.4189 34.2551 11.749 34.5685C12.0791 34.8907 12.5342 35.0519 13.0874 35.0519C13.6406 35.0519 14.0957 34.8907 14.4258 34.5685C14.756 34.2462 14.9255 33.6643 14.9255 32.8318V29.2778H18.7266V32.5901C18.7266 34.5595 18.2358 36.0993 17.2722 37.1556C16.3085 38.2209 14.863 38.758 12.9893 38.758ZM12.9893 14.122C11.1779 14.122 9.79492 14.6323 8.87589 15.6528C7.94792 16.6733 7.48394 18.1504 7.48394 20.0662V32.5901C7.48394 34.4969 7.95685 35.9829 8.87589 37.0034C9.79492 38.015 11.1779 38.5342 12.9893 38.5342C14.8006 38.5342 16.1836 38.024 17.1026 37.0034C18.0306 35.9829 18.4946 34.5058 18.4946 32.5901V29.5106H15.1575V32.8318C15.1575 33.7359 14.9701 34.3715 14.5864 34.7386C14.2117 35.1056 13.7031 35.2846 13.0785 35.2846C12.4539 35.2846 11.9453 35.0966 11.5705 34.7386C11.1869 34.3715 10.9995 33.7449 10.9995 32.8318V19.8244C10.9995 18.9292 11.1869 18.2757 11.5616 17.8998C11.9364 17.5238 12.445 17.3358 13.0696 17.3358C13.6941 17.3358 14.2027 17.5238 14.5775 17.8998C14.9523 18.2757 15.1396 18.9203 15.1396 19.8244V22.2863H18.4767V20.0662C18.4767 18.1594 18.0038 16.6733 17.0848 15.6528C16.1657 14.6412 14.7827 14.122 12.9714 14.122H12.9893Z" fill="white"/>
<path d="M24.9091 38.3732H21.1348V14.2832H24.9091V24.6049H29.192V14.2832H33.0287V38.3642H29.192V28.0425H24.9091V38.3642V38.3732Z" fill="white"/>
<path d="M33.1533 38.4897H29.0845V28.168H25.0336V38.4897H21.0273V14.167H25.0336V24.4887H29.0845V14.167H33.1533V38.4808V38.4897ZM29.3165 38.257H32.9213V14.3997H29.3165V24.7215H24.8016V14.3997H21.2593V38.248H24.8016V27.9263H29.3165V38.248V38.257Z" fill="white"/>
<path d="M35.8672 14.2832H39.6415V38.3642H35.8672V14.2832Z" fill="white"/>
<path d="M39.7485 38.4895H35.7422V14.1667H39.7485V38.4805V38.4895ZM35.9742 38.2567H39.5165V14.3995H35.9742V38.2478V38.2567Z" fill="white"/>
<path d="M48.0003 14.2832C49.9008 14.2832 51.3106 14.7845 52.2385 15.7961C53.1665 16.8077 53.6305 18.2848 53.6305 20.2363V23.3695C53.6305 25.3211 53.1665 26.7982 52.2385 27.8097C51.3106 28.8213 49.9008 29.3226 48.0003 29.3226H46.2157V38.3732H42.4414V14.2832H48.0003ZM46.2157 17.7208V25.8761H48.0003C48.5981 25.8761 49.0531 25.715 49.3744 25.3927C49.6956 25.0704 49.8562 24.4796 49.8562 23.6023V19.9857C49.8562 19.1173 49.6956 18.5175 49.3744 18.1952C49.0531 17.873 48.5981 17.7118 48.0003 17.7118H46.2157V17.7208Z" fill="white"/>
<path d="M46.3325 38.4897H42.3262V14.167H48.001C49.9194 14.167 51.3738 14.6862 52.3196 15.7157C53.2654 16.7452 53.7383 18.2581 53.7383 20.2365V23.3697C53.7383 25.3391 53.2565 26.861 52.3196 27.8905C51.3738 28.92 49.9194 29.4392 48.001 29.4392H46.3325V38.4897ZM42.5582 38.257H46.1005V29.2064H48.001C49.8569 29.2064 51.2489 28.7141 52.1501 27.7293C53.0513 26.7446 53.5063 25.2765 53.5063 23.3697V20.2365C53.5063 18.3297 53.0513 16.8616 52.1501 15.8768C51.2489 14.9011 49.8569 14.3997 48.001 14.3997H42.5582V38.248V38.257ZM48.001 26.0016H46.1005V17.6135H48.001C48.6256 17.6135 49.1164 17.7836 49.4554 18.1327C49.8034 18.4819 49.9729 19.0906 49.9729 20.0037V23.6204C49.9729 24.5335 49.8034 25.1422 49.4554 25.4913C49.1074 25.8405 48.6256 26.0106 48.001 26.0106V26.0016ZM46.3325 25.7688H48.001C48.5631 25.7688 48.9914 25.6167 49.2948 25.3212C49.5893 25.0258 49.7409 24.4529 49.7409 23.6114V19.9948C49.7409 19.1622 49.5893 18.5893 49.2948 18.2849C49.0004 17.9895 48.5631 17.8373 48.001 17.8373H46.3325V25.7599V25.7688Z" fill="white"/>
<path d="M54.9977 20.0662C54.9977 18.1146 55.4617 16.6196 56.3896 15.5722C57.3176 14.5248 58.7006 14.0056 60.5565 14.0056C62.4125 14.0056 63.7955 14.5248 64.7235 15.5722C65.6514 16.6196 66.1154 18.1146 66.1154 20.0662V20.9972H62.5463V19.8244C62.5463 18.9561 62.3768 18.3384 62.0466 17.9803C61.7165 17.6222 61.2525 17.4432 60.6547 17.4432C60.0569 17.4432 59.5929 17.6222 59.2628 17.9803C58.9326 18.3384 58.7631 18.9471 58.7631 19.8244C58.7631 20.648 58.9415 21.3821 59.3074 22.0087C59.6732 22.6443 60.1283 23.2352 60.6815 23.7992C61.2257 24.3631 61.8146 24.9271 62.4482 25.4821C63.0727 26.0461 63.6616 26.6549 64.2149 27.3263C64.7591 27.9887 65.2231 28.7496 65.589 29.6001C65.9548 30.4505 66.1332 31.4442 66.1332 32.5901C66.1332 34.5416 65.6603 36.0366 64.7145 37.084C63.7687 38.1314 62.3679 38.6506 60.5119 38.6506C58.656 38.6506 57.2551 38.1314 56.3093 37.084C55.3635 36.0366 54.8906 34.5416 54.8906 32.5901V30.9429H58.4597V32.8318C58.4597 33.7001 58.6382 34.3089 58.9951 34.658C59.352 34.9982 59.8249 35.1772 60.4138 35.1772C61.0027 35.1772 61.4845 35.0071 61.8325 34.658C62.1894 34.3178 62.3679 33.7091 62.3679 32.8318C62.3679 32.0082 62.1805 31.2741 61.8236 30.6475C61.4577 30.0208 61.0027 29.421 60.4495 28.8571C59.9052 28.2931 59.3163 27.7291 58.6828 27.1741C58.0493 26.6101 57.4693 26.0014 56.9161 25.33C56.3718 24.6675 55.9078 23.9066 55.542 23.0561C55.1762 22.2057 54.9977 21.212 54.9977 20.0662Z" fill="white"/>
<path d="M60.5205 38.758C58.6467 38.758 57.2013 38.2209 56.2376 37.1556C55.274 36.0993 54.7832 34.5595 54.7832 32.5901V30.8265H58.5843V32.8318C58.5843 33.6643 58.7538 34.2551 59.084 34.5685C59.4141 34.8907 59.8691 35.0519 60.4224 35.0519C60.9756 35.0519 61.4306 34.8907 61.7608 34.5685C62.0909 34.2462 62.2604 33.6643 62.2604 32.8318C62.2604 31.9992 62.082 31.3189 61.7251 30.7101C61.3682 30.0924 60.9131 29.4927 60.3688 28.9466C59.8245 28.3916 59.2356 27.8276 58.611 27.2636C57.9775 26.6996 57.3797 26.073 56.8354 25.4105C56.2822 24.7391 55.8182 23.9692 55.4435 23.1099C55.0687 22.2505 54.8814 21.2299 54.8814 20.0662C54.8814 18.0967 55.3543 16.557 56.3001 15.5006C57.2459 14.4353 58.6735 13.8982 60.5562 13.8982C62.4389 13.8982 63.8665 14.4353 64.8123 15.5006C65.7492 16.5659 66.231 18.0967 66.231 20.0662V21.1135H62.43V19.8244C62.43 18.9919 62.2694 18.3921 61.966 18.0609C61.6626 17.7297 61.2165 17.5685 60.6633 17.5685C60.1101 17.5685 59.6639 17.7386 59.3606 18.0609C59.0483 18.3921 58.8966 18.983 58.8966 19.8244C58.8966 20.6659 59.075 21.3373 59.4319 21.9461C59.7888 22.5638 60.2439 23.1546 60.7882 23.7096C61.3325 24.2647 61.9214 24.8376 62.546 25.3926C63.1795 25.9566 63.7773 26.5832 64.3216 27.2457C64.8748 27.9171 65.3388 28.687 65.7135 29.5464C66.0883 30.4058 66.2757 31.4263 66.2757 32.5901C66.2757 34.5595 65.7849 36.0993 64.8213 37.1556C63.8576 38.2209 62.4121 38.758 60.5384 38.758H60.5205ZM55.0152 31.0503V32.5811C55.0152 34.4879 55.4881 35.9739 56.4071 36.9945C57.3262 38.0061 58.7092 38.5253 60.5205 38.5253C62.3318 38.5253 63.7148 38.015 64.6339 36.9945C65.5618 35.9739 66.0258 34.4969 66.0258 32.5811C66.0258 31.4532 65.8474 30.4684 65.4905 29.6359C65.1335 28.8034 64.6785 28.0514 64.1342 27.3889C63.5899 26.7354 63.001 26.1177 62.3764 25.5627C61.7518 24.9987 61.154 24.4348 60.6008 23.8708C60.0476 23.3068 59.5836 22.6891 59.2089 22.0625C58.8341 21.4179 58.6467 20.6659 58.6467 19.8155C58.6467 18.9024 58.8163 18.2757 59.1732 17.8998C59.5212 17.5238 60.0208 17.3268 60.6454 17.3268C61.27 17.3268 61.7697 17.5148 62.1177 17.8998C62.4657 18.2757 62.6441 18.9203 62.6441 19.8244V20.8808H65.9812V20.0662C65.9812 18.1594 65.5261 16.6733 64.625 15.6528C63.7238 14.6412 62.3497 14.1309 60.5473 14.1309C58.7449 14.1309 57.3708 14.6412 56.4696 15.6617C55.5684 16.6823 55.1133 18.1594 55.1133 20.0751C55.1133 21.2031 55.2918 22.1967 55.6487 23.0203C56.0056 23.8529 56.4607 24.6048 57.005 25.2673C57.5492 25.9297 58.1381 26.5385 58.7627 27.0935C59.3962 27.6575 59.9851 28.2304 60.5384 28.7854C61.0916 29.3494 61.5555 29.9582 61.9303 30.5938C62.305 31.2383 62.4924 31.9992 62.4924 32.8407C62.4924 33.7449 62.305 34.3805 61.9214 34.7475C61.5466 35.1145 61.038 35.2936 60.4134 35.2936C59.7888 35.2936 59.2802 35.1056 58.9055 34.7475C58.5218 34.3805 58.3344 33.7538 58.3344 32.8407V31.0682H54.9973L55.0152 31.0503Z" fill="white"/>
<path d="M66.6602 14.2832H78.3221V17.7208H74.3783V38.3642H70.604V17.7208H66.6602V14.2832Z" fill="white"/>
<path d="M74.4931 38.4895H70.4868V17.8461H66.543V14.1758H78.4369V17.8461H74.4931V38.4895ZM70.7188 38.2568H74.2611V17.6134H78.2049V14.4085H66.775V17.6134H70.7188V38.2568Z" fill="white"/>
<path d="M83.6669 24.4348H88.8421V27.8724H83.6669V34.9266H90.1805V38.3642H79.8926V14.2832H90.1805V17.7208H83.6669V24.4259V24.4348Z" fill="white"/>
<path d="M90.2972 38.4897H79.7773V14.167H90.2972V17.8373H83.7836V24.3097H88.9588V27.98H83.7836V34.8015H90.2972V38.4718V38.4897ZM80.0093 38.257H90.0652V35.0521H83.5517V27.7652H88.7268V24.5603H83.5517V17.6225H90.0652V14.4176H80.0093V38.2659V38.257Z" fill="white"/>
<path d="M100.574 38.3732C100.529 38.212 100.485 38.0598 100.44 37.9256C100.396 37.7913 100.351 37.6122 100.324 37.4063C100.289 37.2004 100.271 36.9408 100.253 36.6186C100.244 36.2963 100.235 35.8934 100.235 35.41V31.6233C100.235 30.4954 100.039 29.7076 99.655 29.251C99.2624 28.7945 98.6378 28.5617 97.7723 28.5617H96.4696V38.3642H92.6953V14.2832H98.388C100.351 14.2832 101.779 14.7398 102.653 15.6618C103.536 16.5749 103.974 17.9625 103.974 19.8245V21.7134C103.974 24.1931 103.153 25.8224 101.502 26.6012C102.466 26.9951 103.117 27.6307 103.474 28.508C103.831 29.3943 104.009 30.4596 104.009 31.7218V35.4369C104.009 36.0367 104.036 36.5559 104.081 37.0035C104.125 37.4511 104.241 37.9077 104.42 38.3642H100.583L100.574 38.3732ZM96.4607 17.7297V25.1241H97.9329C98.6378 25.1241 99.2 24.9451 99.5926 24.5781C99.9941 24.211 100.19 23.5486 100.19 22.5818V20.2095C100.19 19.3411 100.039 18.7055 99.7264 18.3206C99.4141 17.9267 98.9323 17.7387 98.272 17.7387H96.4518L96.4607 17.7297Z" fill="white"/>
<path d="M104.581 38.4897H100.477L100.45 38.4091C100.406 38.248 100.361 38.1048 100.316 37.9705C100.272 37.8273 100.227 37.6572 100.191 37.4334C100.156 37.2185 100.129 36.95 100.12 36.6277C100.111 36.3144 100.102 35.9115 100.102 35.4192V31.6324C100.102 30.5403 99.9148 29.7704 99.549 29.3318C99.1832 28.9021 98.5764 28.6872 97.7555 28.6872H96.5688V38.4897H92.5625V14.167H98.3712C100.361 14.167 101.824 14.6415 102.725 15.5814C103.627 16.5214 104.082 17.9448 104.082 19.8247V21.7136C104.082 24.1127 103.305 25.7509 101.771 26.5924C102.636 26.9953 103.243 27.6309 103.582 28.4634C103.939 29.3586 104.126 30.4508 104.126 31.722V35.4371C104.126 36.0279 104.153 36.5561 104.198 36.9947C104.242 37.4334 104.358 37.881 104.537 38.3196L104.599 38.4808L104.581 38.4897ZM100.655 38.257H104.242C104.091 37.8452 103.992 37.4334 103.957 37.0305C103.912 36.5829 103.885 36.0547 103.885 35.455V31.7399C103.885 30.5045 103.707 29.4302 103.359 28.5708C103.02 27.7204 102.377 27.1027 101.45 26.7267L101.2 26.6282L101.441 26.5119C103.038 25.7599 103.841 24.1485 103.841 21.7315V19.8426C103.841 18.0253 103.404 16.6557 102.556 15.7605C101.699 14.8742 100.29 14.4176 98.3712 14.4176H92.7945V38.2659H96.3368V28.4634H97.7555C98.6567 28.4634 99.317 28.7051 99.7274 29.1885C100.129 29.663 100.334 30.4955 100.334 31.6414V35.4281C100.334 35.9205 100.334 36.3144 100.352 36.6277C100.361 36.941 100.388 37.2006 100.423 37.4065C100.459 37.6035 100.495 37.7735 100.539 37.9078C100.575 38.0242 100.62 38.1495 100.655 38.2749V38.257ZM97.925 25.2407H96.3368V17.6135H98.273C98.969 17.6135 99.4865 17.8284 99.8256 18.2402C100.147 18.652 100.316 19.3144 100.316 20.2007V22.573C100.316 23.5666 100.102 24.2649 99.6828 24.6588C99.2635 25.0437 98.6746 25.2407 97.9429 25.2407H97.925ZM96.5688 25.0079H97.925C98.6032 25.0079 99.1296 24.8289 99.5133 24.4887C99.888 24.1485 100.075 23.504 100.075 22.5819V20.2096C100.075 19.3681 99.9237 18.7594 99.6382 18.3924C99.3527 18.0343 98.8976 17.8552 98.273 17.8552H96.5688V25.0169V25.0079Z" fill="white"/>
<path d="M105.75 20.0662C105.75 18.1146 106.214 16.6196 107.142 15.5722C108.07 14.5248 109.453 14.0056 111.308 14.0056C113.164 14.0056 114.547 14.5248 115.475 15.5722C116.403 16.6196 116.867 18.1146 116.867 20.0662V20.9972H113.298V19.8244C113.298 18.9561 113.129 18.3384 112.799 17.9803C112.468 17.6222 112.004 17.4432 111.407 17.4432C110.809 17.4432 110.345 17.6222 110.015 17.9803C109.685 18.3384 109.515 18.9471 109.515 19.8244C109.515 20.648 109.693 21.3821 110.059 22.0087C110.425 22.6443 110.88 23.2352 111.433 23.7992C111.978 24.3631 112.567 24.9271 113.2 25.4821C113.825 26.0461 114.414 26.6549 114.967 27.3263C115.511 27.9887 115.975 28.7496 116.341 29.6001C116.707 30.4505 116.885 31.4442 116.885 32.5901C116.885 34.5416 116.412 36.0366 115.466 37.084C114.521 38.1314 113.12 38.6506 111.264 38.6506C109.408 38.6506 108.007 38.1314 107.061 37.084C106.115 36.0366 105.643 34.5416 105.643 32.5901V30.9429H109.212V32.8318C109.212 33.7001 109.39 34.3089 109.747 34.658C110.104 34.9982 110.577 35.1772 111.166 35.1772C111.755 35.1772 112.236 35.0071 112.584 34.658C112.941 34.3178 113.12 33.7091 113.12 32.8318C113.12 32.0082 112.932 31.2741 112.576 30.6475C112.21 30.0208 111.755 29.421 111.201 28.8571C110.657 28.2931 110.068 27.7291 109.435 27.1741C108.801 26.6101 108.221 26.0014 107.668 25.33C107.124 24.6675 106.66 23.9066 106.294 23.0561C105.928 22.2057 105.75 21.212 105.75 20.0662Z" fill="white"/>
<path d="M111.272 38.758C109.399 38.758 107.953 38.2209 106.99 37.1556C106.026 36.0993 105.535 34.5595 105.535 32.5901V30.8265H109.336V32.8318C109.336 33.6643 109.506 34.2551 109.836 34.5685C110.166 34.8907 110.621 35.0519 111.174 35.0519C111.728 35.0519 112.183 34.8907 112.513 34.5685C112.843 34.2462 113.012 33.6643 113.012 32.8318C113.012 31.9992 112.834 31.3189 112.477 30.7101C112.12 30.0924 111.665 29.4927 111.121 28.9466C110.585 28.3916 109.988 27.8276 109.363 27.2636C108.729 26.6996 108.132 26.073 107.587 25.4105C107.034 24.7391 106.57 23.9692 106.195 23.1099C105.821 22.2505 105.633 21.2299 105.633 20.0662C105.633 18.0967 106.106 16.557 107.052 15.5006C107.998 14.4353 109.425 13.8982 111.308 13.8982C113.191 13.8982 114.618 14.4353 115.564 15.5006C116.501 16.5659 116.983 18.0967 116.983 20.0662V21.1135H113.182V19.8244C113.182 18.9919 113.021 18.3921 112.718 18.0609C112.415 17.7297 111.968 17.5685 111.415 17.5685C110.862 17.5685 110.416 17.7386 110.113 18.0609C109.8 18.3921 109.649 18.983 109.649 19.8244C109.649 20.6659 109.827 21.3373 110.184 21.955C110.541 22.5727 110.996 23.1636 111.54 23.7186C112.084 24.2826 112.682 24.8465 113.298 25.4016C113.931 25.9656 114.529 26.5922 115.074 27.2546C115.627 27.9261 116.091 28.6959 116.465 29.5553C116.84 30.4147 117.028 31.4353 117.028 32.599C117.028 34.5685 116.537 36.1082 115.573 37.1646C114.61 38.2299 113.164 38.767 111.29 38.767L111.272 38.758ZM105.767 31.0503V32.5811C105.767 34.4879 106.24 35.9739 107.159 36.9945C108.078 38.0061 109.461 38.5253 111.272 38.5253C113.084 38.5253 114.467 38.015 115.386 36.9945C116.314 35.9739 116.778 34.4969 116.778 32.5811C116.778 31.4532 116.599 30.4684 116.242 29.6359C115.885 28.8034 115.43 28.0424 114.886 27.3889C114.342 26.7354 113.753 26.1177 113.128 25.5627C112.504 25.0077 111.906 24.4348 111.353 23.8708C110.8 23.3068 110.327 22.6891 109.961 22.0625C109.586 21.4179 109.399 20.6659 109.399 19.8155C109.399 18.9024 109.568 18.2757 109.925 17.8998C110.282 17.5238 110.773 17.3268 111.397 17.3268C112.022 17.3268 112.522 17.5148 112.87 17.8998C113.218 18.2757 113.396 18.9203 113.396 19.8244V20.8808H116.733V20.0662C116.733 18.1594 116.278 16.6733 115.377 15.6528C114.476 14.6412 113.102 14.122 111.299 14.122C109.497 14.122 108.114 14.6323 107.222 15.6528C106.32 16.6733 105.865 18.1504 105.865 20.0662C105.865 21.1941 106.044 22.1878 106.401 23.0114C106.758 23.8439 107.213 24.5959 107.757 25.2583C108.301 25.9118 108.89 26.5295 109.515 27.0846C110.148 27.6485 110.746 28.2215 111.29 28.7765C111.844 29.3405 112.307 29.9492 112.682 30.5848C113.057 31.2294 113.244 31.9903 113.244 32.8318C113.244 33.7359 113.057 34.3715 112.673 34.7386C112.299 35.1056 111.79 35.2846 111.165 35.2846C110.541 35.2846 110.032 35.0966 109.657 34.7386C109.274 34.3715 109.086 33.7449 109.086 32.8318V31.0593H105.749L105.767 31.0503Z" fill="white"/>
<path d="M105.149 16.5932H104.186V14.2925H105.97L105.149 16.5932Z" fill="white"/>
<path d="M105.23 16.7094H104.07V14.167H106.131L105.23 16.7094ZM104.302 16.4766H105.061L105.801 14.3997H104.302V16.4766Z" fill="white"/>
<path d="M33.3515 8.36604C34.217 12.4124 37.563 12.4571 38.7676 12.4034C40.4986 12.3228 42.5597 10.9532 42.6846 8.35709L33.6638 5.30444C33.2712 6.46821 33.1552 7.47084 33.3515 8.36604Z" fill="#F4D332"/>
<path d="M37.464 0.667238C37.7941 1.02532 38.1243 1.37445 38.4455 1.73253L40.3103 3.73779L41.2918 4.79413C41.2918 4.79413 41.4435 4.77623 41.4881 4.15854C41.5328 3.60351 41.5238 3.06639 41.3275 2.42184C41.1758 1.90262 40.81 1.41026 40.3728 1.10589C39.543 0.524005 38.3473 0.300204 37.4551 0.658286L37.464 0.667238Z" fill="#F4D332"/>
<path d="M34.6266 0.703125C33.7254 1.11492 33.0829 1.93851 32.7617 2.5741L40.5602 6.35187L40.6672 6.00274L34.6266 0.703125Z" fill="#F4D332"/>
</g>
<defs>
<clipPath id="clip0_753_1083">
<rect width="123.321" height="43.8113" fill="white" transform="translate(0.470703 0.49707)"/>
</clipPath>
</defs>
</svg>
