<svg width="100" height="61" viewBox="0 0 100 61" fill="none" xmlns="http://www.w3.org/2000/svg">
<g clip-path="url(#clip0_753_877)">
<path d="M67.7289 55.6502C67.8099 55.4529 67.9571 55.1314 68.1779 54.6856C68.3986 54.2398 68.6489 53.7355 68.9285 53.1655C69.2082 52.5955 69.5099 52.0035 69.819 51.3823C70.1281 50.7612 70.4078 50.1765 70.658 49.6357C70.9082 49.0949 71.1069 48.6272 71.2615 48.2399C71.416 47.8453 71.4749 47.5968 71.4528 47.4799C71.519 47.436 71.6221 47.3849 71.7619 47.3337C71.9017 47.2752 72.0416 47.2387 72.1887 47.2095C72.3359 47.1802 72.4758 47.1802 72.6009 47.2022C72.7333 47.2241 72.829 47.2898 72.8953 47.3995C72.9909 47.5676 72.9983 47.8087 72.9247 48.1303C72.8511 48.4518 72.726 48.8245 72.5494 49.263C72.3654 49.6942 72.1446 50.1692 71.8796 50.6808C71.6147 51.1923 71.3424 51.7185 71.0554 52.2447C71.3424 51.8866 71.6368 51.5577 71.9238 51.2508C72.2182 50.9439 72.4978 50.6808 72.7775 50.4615C73.0572 50.2423 73.3221 50.0815 73.565 49.9865C73.8078 49.8842 74.036 49.855 74.242 49.8988C74.4849 49.9573 74.6468 50.0888 74.713 50.2934C74.7793 50.5054 74.794 50.7612 74.7498 51.0681C74.6983 51.375 74.61 51.7185 74.4702 52.0985C74.3303 52.4785 74.1758 52.8659 73.9992 53.2605C73.8225 53.6551 73.6459 54.0425 73.4693 54.4298C73.2927 54.8098 73.1381 55.1606 73.0056 55.4748C72.8732 55.7891 72.7849 56.0595 72.7407 56.2714C72.6965 56.4906 72.7113 56.6368 72.7922 56.7099C72.6524 56.8853 72.4831 57.0168 72.2697 57.1118C72.0636 57.1995 71.8649 57.2361 71.6662 57.2287C71.4749 57.2214 71.2983 57.163 71.1511 57.0534C71.0039 56.9437 70.9229 56.7757 70.9008 56.5491C70.8861 56.3518 70.9303 56.0887 71.048 55.7745C71.1658 55.4529 71.313 55.1094 71.4896 54.7367C71.6662 54.364 71.8576 53.9913 72.0636 53.6186C72.2697 53.2459 72.4537 52.8951 72.6156 52.5808C72.7775 52.2593 72.8953 51.9962 72.9688 51.7843C73.0424 51.5723 73.0351 51.4408 72.9468 51.4116C72.8364 51.3677 72.6377 51.4773 72.3433 51.7258C72.0489 51.9743 71.7177 52.3251 71.3351 52.7709C70.9524 53.2166 70.5623 53.7282 70.1649 54.3055C69.7601 54.8829 69.3848 55.4748 69.0463 56.0887C68.8623 56.4979 68.7372 56.8341 68.6709 57.0972C68.6047 57.3603 68.6194 57.543 68.7151 57.6307C68.2294 57.7184 67.8835 57.7257 67.6774 57.638C67.4713 57.5576 67.3462 57.4188 67.3094 57.2214C67.2726 57.0241 67.3021 56.7903 67.3904 56.5199C67.4787 56.2495 67.5891 55.9645 67.7142 55.6795L67.7289 55.6502Z" fill="#262262"/>
<path d="M79.9605 48.9711C80.093 49.0734 80.1739 49.183 80.2107 49.2926C80.2402 49.4023 80.2475 49.5046 80.2181 49.6069C80.4757 49.585 80.6891 49.6507 80.8584 49.8042C81.0276 49.9577 81.138 50.1696 81.1822 50.4619C81.2263 50.7542 81.1896 51.105 81.0865 51.5216C80.9761 51.9381 80.7627 52.3986 80.4462 52.9174C80.1151 53.4363 79.7545 53.8967 79.3718 54.2986C78.9817 54.7006 78.5843 55.0294 78.1795 55.2779C77.7748 55.5264 77.3774 55.6872 76.9873 55.7602C76.5973 55.826 76.2514 55.7822 75.9349 55.6287C75.6185 55.4752 75.3903 55.2487 75.2505 54.9637C75.1107 54.6787 75.0444 54.3498 75.0591 53.9698C75.0739 53.5971 75.1622 53.1805 75.3314 52.742C75.5007 52.2962 75.7436 51.8358 76.0674 51.3608C76.3838 50.8931 76.7371 50.4838 77.1198 50.1258C77.5025 49.7677 77.8704 49.4827 78.2311 49.2707C78.5917 49.0588 78.9228 48.9272 79.2319 48.8688C79.541 48.8103 79.7839 48.8469 79.9605 48.9784V48.9711ZM79.2835 50.7177C79.2761 50.6592 79.2687 50.6008 79.2687 50.5423C79.2687 50.4327 79.2982 50.3085 79.3571 50.1623C79.151 50.2208 78.9155 50.3669 78.6579 50.5862C78.4003 50.8127 78.1354 51.0758 77.8704 51.3827C77.6055 51.6897 77.3553 52.0185 77.1198 52.3693C76.8843 52.7201 76.7003 53.0563 76.5531 53.3632C76.4133 53.6775 76.325 53.9552 76.2882 54.189C76.2587 54.4302 76.3176 54.591 76.4648 54.6713C76.6046 54.759 76.796 54.7444 77.0315 54.6275C77.267 54.5179 77.5172 54.3425 77.7674 54.1159C78.025 53.8894 78.2752 53.619 78.5328 53.312C78.7904 53.0051 79.0112 52.7055 79.2025 52.3985C79.3939 52.0989 79.541 51.8139 79.6367 51.5508C79.7324 51.2877 79.7471 51.0904 79.6956 50.9516C79.6661 50.8712 79.6293 50.8054 79.5778 50.7689C79.5337 50.7323 79.4822 50.7104 79.438 50.6958C79.3865 50.6812 79.335 50.6812 79.2835 50.6958V50.7177Z" fill="#262262"/>
<path d="M81.3513 53.0778C81.4764 52.8001 81.6604 52.4274 81.9106 51.9743C82.1608 51.5212 82.411 51.0535 82.6613 50.5858C82.9115 50.1181 83.1249 49.6796 83.2942 49.2777C83.4708 48.8757 83.5444 48.5907 83.515 48.4226C83.5812 48.3861 83.6842 48.3349 83.8167 48.2911C83.9565 48.2399 84.0964 48.2034 84.2435 48.1815C84.3907 48.1595 84.5306 48.1595 84.6557 48.1815C84.7808 48.2034 84.8765 48.2765 84.9353 48.3934C85.0016 48.5176 85.031 48.6711 85.0236 48.8392C85.0163 49.0146 84.9795 49.1973 84.9132 49.4019C85.3916 48.8611 85.87 48.4299 86.3336 48.1084C86.7973 47.7868 87.202 47.6699 87.5406 47.7503C87.8129 47.8234 87.9674 47.9988 88.0042 48.2618C88.041 48.5322 88.0042 48.8538 87.8865 49.2265C88.1293 48.9196 88.3795 48.6346 88.6298 48.3788C88.88 48.123 89.1228 47.9038 89.3657 47.7211C89.6086 47.5384 89.8367 47.4068 90.0575 47.3264C90.2783 47.246 90.477 47.2314 90.6683 47.2753C90.9038 47.3337 91.0584 47.4726 91.1173 47.6772C91.1761 47.8818 91.1835 48.1303 91.1246 48.4226C91.0657 48.7149 90.9701 49.0438 90.8229 49.4092C90.6757 49.7673 90.5138 50.14 90.3298 50.52C90.1458 50.9 89.9618 51.2654 89.7778 51.6308C89.5938 51.9962 89.4319 52.3251 89.2995 52.632C89.1596 52.9317 89.0713 53.1875 89.0198 53.3994C88.9683 53.604 88.983 53.7502 89.0566 53.8232C88.9021 53.9913 88.7254 54.1156 88.5267 54.196C88.3207 54.2763 88.1293 54.3056 87.938 54.291C87.7466 54.2763 87.5847 54.2106 87.4449 54.101C87.3051 53.9913 87.2315 53.8232 87.2094 53.604C87.1873 53.414 87.2462 53.1655 87.3713 52.8586C87.4964 52.5517 87.651 52.2228 87.8349 51.872C88.0189 51.5212 88.2176 51.1631 88.4311 50.805C88.6445 50.4469 88.8285 50.1181 88.9977 49.8185C89.1596 49.5188 89.2848 49.263 89.3583 49.0584C89.4319 48.8538 89.4319 48.7296 89.3583 48.693C89.27 48.6492 89.1302 48.7076 88.9389 48.8757C88.7475 49.0365 88.5267 49.2777 88.2765 49.5846C88.0263 49.8988 87.754 50.2569 87.4596 50.6808C87.1652 51.0974 86.8709 51.5505 86.5838 52.0328C86.4293 52.3178 86.2895 52.5882 86.157 52.8367C86.0245 53.0924 85.9141 53.319 85.8332 53.5163C85.7449 53.7209 85.6934 53.889 85.6713 54.0279C85.6492 54.1667 85.6713 54.269 85.7375 54.3275C85.5903 54.4956 85.4063 54.6198 85.2076 54.7002C85.0016 54.7806 84.8102 54.8098 84.6189 54.7952C84.4275 54.7806 84.2656 54.7148 84.1258 54.6052C83.986 54.4956 83.9124 54.3275 83.8903 54.1083C83.8829 53.9183 83.9418 53.6698 84.0743 53.3628C84.2067 53.0559 84.376 52.727 84.5747 52.369C84.7808 52.0109 84.9942 51.6528 85.215 51.2947C85.4431 50.9366 85.6418 50.6004 85.8258 50.3008C86.0024 49.9938 86.1349 49.7381 86.2232 49.5334C86.3042 49.3288 86.3115 49.2046 86.2379 49.168C86.1423 49.1242 85.9804 49.1973 85.7449 49.3873C85.5167 49.5773 85.2518 49.8477 84.95 50.1985C84.6483 50.5493 84.3319 50.9658 83.986 51.4408C83.6401 51.9159 83.3089 52.4128 82.9851 52.939C82.6907 53.4286 82.4699 53.8598 82.3154 54.2252C82.1608 54.5906 82.1608 54.8464 82.3154 54.9925C81.8517 55.0656 81.5205 55.0583 81.3145 54.9706C81.1084 54.8829 80.9907 54.7441 80.9612 54.5541C80.9318 54.364 80.9612 54.1375 81.0495 53.8817C81.1452 53.6186 81.2483 53.3555 81.3734 53.0851L81.3513 53.0778Z" fill="#262262"/>
<path d="M96.4088 46.9027C96.2984 46.6981 96.0997 46.5665 95.8274 46.5154C95.4595 46.435 95.062 46.4861 94.6499 46.6688C94.2378 46.8442 93.833 47.1 93.4503 47.4289C93.0676 47.7577 92.707 48.145 92.3758 48.5835C92.0447 49.022 91.7871 49.4751 91.5884 49.9209C91.375 50.3959 91.2351 50.849 91.1689 51.2729C91.1027 51.6967 91.0953 52.0694 91.1542 52.3983C91.2131 52.7272 91.3308 52.9976 91.5148 53.2095C91.6988 53.4214 91.9416 53.5603 92.236 53.6188C92.501 53.6772 92.788 53.6699 93.0897 53.5968C93.3914 53.5237 93.6858 53.4068 93.9581 53.246C94.2304 53.0853 94.4806 52.8806 94.6941 52.6395C94.9075 52.3983 95.0768 52.1279 95.1798 51.8429C95.0694 51.726 94.9369 51.6383 94.7456 51.6383C94.3408 51.6383 93.9066 51.8283 93.6049 52.0914C93.5681 52.1425 93.5386 52.2083 93.4945 52.2595C93.3767 52.4056 93.2516 52.5152 93.1265 52.6029C93.0014 52.6833 92.8763 52.7126 92.7585 52.676C92.5451 52.6176 92.4494 52.4275 92.4715 52.1133C92.4862 51.7991 92.5746 51.4263 92.7291 51.0025C92.9057 51.1121 93.1191 51.1559 93.3546 51.1486C93.5902 51.1413 93.7889 51.1048 93.9434 51.039C94.2893 50.9075 94.6131 50.7102 94.9149 50.4471C95.2166 50.184 95.4815 49.899 95.717 49.5774C95.9452 49.2632 96.1365 48.9343 96.2764 48.5981C96.4162 48.262 96.5045 47.9477 96.5339 47.6554C96.5634 47.3631 96.5192 47.1146 96.4015 46.91L96.4088 46.9027ZM95.4153 48.0281C95.3049 48.262 95.1283 48.5251 94.8854 48.8174C94.6425 49.1097 94.3482 49.402 94.0096 49.6943C93.6785 49.9867 93.3399 50.2132 93.0014 50.374C93.1707 50.0159 93.362 49.6651 93.5828 49.307C93.8036 48.9489 94.0244 48.642 94.2451 48.3716C94.4659 48.1012 94.6793 47.8966 94.8781 47.7504C95.0768 47.6043 95.2534 47.5604 95.4006 47.6116C95.5183 47.6554 95.5257 47.7943 95.4153 48.0281Z" fill="#262262"/>
<path d="M27.804 23.7367C28.8932 22.7501 29.8499 22.0412 30.6889 21.61C31.5279 21.1789 32.227 20.8865 32.7937 20.7477C33.456 20.5796 34.0374 20.5504 34.5305 20.6381C34.3171 21.8585 34.0448 22.9766 33.7136 23.9997C33.3824 25.0156 32.985 25.9656 32.5287 26.8499C32.0651 27.7268 31.5352 28.5526 30.9317 29.3273C30.3283 30.1019 29.6365 30.84 28.8637 31.5416C25.7213 34.3771 21.9238 35.7949 17.4566 35.7949C15.9185 35.7949 14.4098 35.583 12.9232 35.1591C11.4145 34.7645 10.0089 34.1652 8.70625 33.3686C5.99061 31.7243 3.85638 29.5319 2.29618 26.7914C0.758057 24.0728 -0.00732422 21.1058 -0.00732422 17.8902C-0.00732422 16.6917 0.103067 15.5371 0.33121 14.4116C0.551993 13.2862 0.883167 12.1827 1.30266 11.1084C2.17843 8.97447 3.45161 7.04515 5.12956 5.30585C6.80751 3.61769 8.69153 2.32418 10.7963 1.43991C12.9968 0.548328 15.2414 0.102539 17.5302 0.102539C21.0259 0.102539 24.1537 1.01604 26.9135 2.84304C29.6733 4.69197 31.9105 7.3594 33.6032 10.8234L10.9803 23.2836C10.7448 22.2531 10.7522 21.2227 11.0171 20.1923C11.2305 19.3007 11.6942 18.3507 12.4154 17.3421C13.1366 16.3336 14.3141 15.3982 15.9406 14.5286C16.0583 14.4555 16.2791 14.3312 16.5956 14.1412C16.912 13.9512 17.3021 13.732 17.7657 13.4762C18.2294 13.2204 18.7298 12.9354 19.2744 12.6358C19.819 12.3288 20.3562 12.0292 20.9008 11.7223C22.1961 10.9988 23.6165 10.2022 25.1472 9.33256C24.1316 8.20713 22.9762 7.35209 21.6736 6.76745C20.4225 6.18281 19.0168 5.89049 17.4566 5.89049C14.3657 5.89049 11.7531 7.03784 9.63354 9.33987C7.50666 11.6346 6.4469 14.4774 6.4469 17.8537C6.4469 21.23 7.50666 24.0582 9.63354 26.331C11.7604 28.655 14.3657 29.8096 17.4566 29.8096C20.5476 29.8096 22.8658 28.8523 24.8234 26.923C25.4858 26.3602 26.0083 25.8121 26.3983 25.286C26.7884 24.7598 27.252 24.2482 27.7966 23.7586L27.804 23.7367Z" fill="#262262"/>
<path d="M65.8962 0.423895C65.9698 0.423895 66.0287 0.445819 66.0728 0.496975C66.1685 0.591979 66.1685 0.745448 66.0728 0.95738C65.9551 1.28624 65.7564 1.7978 65.4694 2.50668C65.1823 3.20825 64.7923 4.21675 64.2992 5.5322L55.7623 29.2029C55.0042 31.5268 54.1947 33.1565 53.3189 34.0919C52.399 35.0493 51.2509 35.5316 49.8821 35.5316C48.5132 35.5316 47.3799 35.0639 46.482 34.1211C46.0331 33.6534 45.6725 33.0103 45.4002 32.2064C45.1279 31.3953 44.8041 30.4087 44.4287 29.2321L44.3919 29.2686L35.5091 5.80259C35.016 4.49446 34.6186 3.48595 34.3242 2.799C34.0299 2.10474 33.8238 1.60049 33.706 1.27162C33.5883 1.05969 33.5736 0.906224 33.6692 0.81122C33.7208 0.767372 33.7723 0.73814 33.8459 0.73814C34.9792 0.694292 36.0905 0.891608 37.1723 1.3374C37.6213 1.52741 38.0923 1.77588 38.5927 2.09012C39.0858 2.40437 39.5642 2.81362 40.0278 3.30325C40.4841 3.79289 40.933 4.38484 41.3525 5.06448C41.7793 5.74413 42.1547 6.5407 42.4858 7.45421L49.9925 26.7985L57.1826 7.31535C57.4917 6.40185 57.8523 5.59797 58.2645 4.90371C58.6766 4.20945 59.1182 3.6175 59.5892 3.12786C60.0602 2.63822 60.5459 2.22897 61.039 1.90011C61.5321 1.57125 62.0178 1.30086 62.4888 1.08892C63.6001 0.621211 64.7334 0.394663 65.8889 0.423895H65.8962Z" fill="#262262"/>
<path d="M65.0796 17.7219C65.0796 15.3761 65.5285 13.1179 66.4264 10.9328C67.3021 8.79885 68.5974 6.86223 70.3195 5.13023C71.9754 3.44208 73.8373 2.16317 75.9127 1.30083C77.966 0.431173 80.1738 0 82.5362 0C84.8985 0 87.1726 0.431173 89.2333 1.30083C91.3822 2.1924 93.2589 3.47131 94.8632 5.13023C96.5412 6.8403 97.8144 8.76231 98.6901 10.8963C99.5659 13.0083 100 15.2811 100 17.7219C100 20.1628 99.5659 22.4575 98.6901 24.6134C97.7923 26.8204 96.5191 28.7424 94.8632 30.3794C93.2589 32.0456 91.3822 33.3246 89.2333 34.2088C87.1064 35.1004 84.8765 35.5462 82.5362 35.5462C80.1959 35.5462 78.0396 35.1004 75.9127 34.2088C73.8373 33.3392 71.968 32.0603 70.3195 30.3794C68.5974 28.6693 67.2948 26.7327 66.4264 24.5769C65.5285 22.3991 65.0796 20.1117 65.0796 17.7219ZM71.5265 17.6489C71.5265 20.9521 72.6009 23.7657 74.7499 26.0896C76.9209 28.4355 79.5188 29.6048 82.5435 29.6048C85.5683 29.6048 88.1882 28.4355 90.3372 26.0896C92.5082 23.7949 93.5974 20.9813 93.5974 17.6489C93.5974 14.3164 92.5229 11.554 90.374 9.2081C88.2029 6.91338 85.5903 5.75872 82.5509 5.75872C79.5114 5.75872 76.9283 6.90607 74.7572 9.2081C72.6083 11.554 71.5338 14.3676 71.5338 17.6489H71.5265Z" fill="#262262"/>
<path d="M10.2002 60.9998C28.9962 50.9659 68.7151 42.3059 96.9312 41.0124C97.1078 41.0051 98.1749 36.9126 98.2632 36.9053C70.0472 38.1915 41.0436 40.7201 13.8064 50.4836C13.1882 50.7028 10.1929 60.9925 10.1929 60.9925L10.2002 60.9998Z" fill="#ED1C24"/>
</g>
<defs>
<clipPath id="clip0_753_877">
<rect width="100" height="61" fill="white"/>
</clipPath>
</defs>
</svg>
