<svg width="116" height="88" viewBox="0 0 116 88" fill="none" xmlns="http://www.w3.org/2000/svg">
<g clip-path="url(#clip0_753_971)">
<path fill-rule="evenodd" clip-rule="evenodd" d="M74.3556 71.0952C72.6356 73.1127 70.7101 74.5677 68.222 75.1572C66.4479 75.5737 64.9984 74.757 64.3872 73.1181C63.7273 71.3332 64.3764 70.0297 66.2748 69.6889C69.0712 69.1805 71.7269 69.6781 74.3556 71.1006V71.0952Z" fill="#009579"/>
<path fill-rule="evenodd" clip-rule="evenodd" d="M83.8176 77.0394C81.005 77.8723 78.3115 78.3375 75.5421 77.4234C73.9465 76.8987 73.1136 75.3302 73.6058 73.767C74.0764 72.2634 75.2825 71.6955 77.0728 72.1336C79.3499 72.6907 82.0868 74.6433 83.8176 77.0394Z" fill="#009579"/>
<path d="M56.5894 67.3794C58.2932 65.5674 62.101 64.7885 64.5836 65.1996L65.0163 65.2699L64.9568 65.6972C64.5836 68.3475 63.5668 70.3975 61.8576 71.9606C60.8569 72.8747 59.4939 73.2046 58.212 72.8423C56.9896 72.4907 56.0647 71.555 55.724 70.3272C55.5239 69.5807 55.8105 68.5963 56.1783 67.9473C56.3027 67.7309 56.4379 67.5416 56.584 67.3848L56.5894 67.3794ZM63.994 66.0163C61.5655 65.7729 58.5149 66.6384 57.2493 67.9851C57.1519 68.0879 57.0545 68.2285 56.9626 68.3854C56.6381 68.9587 56.4812 69.6781 56.5948 70.1C56.8544 71.0357 57.5305 71.728 58.4608 71.9931C59.4344 72.2743 60.4729 72.0147 61.241 71.3116C61.8846 70.7274 62.4255 70.0513 62.8528 69.3049C63.3991 68.3475 63.7777 67.2712 63.994 66.0272V66.0163Z" fill="#009579"/>
<path fill-rule="evenodd" clip-rule="evenodd" d="M56.4913 63.0739C56.1993 65.6214 55.5069 67.9743 53.4732 69.7105C52.121 70.868 50.0062 70.4461 48.773 68.8613C47.7507 67.5524 48.0212 66.2651 49.5735 65.0643C51.2448 63.7716 54.1872 62.9008 56.4859 63.0685L56.4913 63.0739Z" fill="#009579"/>
<path fill-rule="evenodd" clip-rule="evenodd" d="M88.0837 85.6987C85.2387 85.5743 82.6425 85.2335 80.3275 83.8002C78.786 82.8428 78.4669 81.3067 79.4242 79.8518C80.2788 78.5591 81.6689 78.2994 83.1887 79.1432C85.3523 80.344 87.2075 82.7887 88.0783 85.6987H88.0837Z" fill="#009579"/>
<path fill-rule="evenodd" clip-rule="evenodd" d="M78.5923 87.4674C76.1259 86.3262 74.0002 85.1308 72.5452 83.0484C71.4743 81.5231 71.6582 80.344 73.0428 79.338C74.3409 78.3968 76.1637 78.5104 77.0994 79.7274C78.8465 81.9991 79.0196 84.5899 78.5923 87.4674Z" fill="#009579"/>
<path d="M64.8978 76.7203C66.3311 75.5304 68.3757 75.6385 69.5548 76.9691C71.6372 79.3273 71.7886 82.2319 71.6642 84.7578L71.6318 85.3311L71.0746 85.158C68.1755 84.2494 66.0877 82.9566 64.5029 81.096C63.5889 80.0251 63.4212 78.7919 64.0378 77.7155C64.2433 77.3531 64.53 77.0178 64.8978 76.7149V76.7203ZM68.8733 77.5532C68.0241 76.5959 66.5312 76.5256 65.4765 77.4072C65.1953 77.6398 64.9735 77.894 64.8275 78.159C64.3948 78.9163 64.5192 79.733 65.1953 80.5281C66.5583 82.1291 68.3486 83.2866 70.788 84.125C70.8637 81.0906 70.2958 79.1597 68.8733 77.5532Z" fill="#009579"/>
<path fill-rule="evenodd" clip-rule="evenodd" d="M60.8847 82.9838C59.8083 81.0258 58.5535 79.1381 57.7043 77.0882C57.0066 75.4007 57.9044 74.1675 59.6352 73.7997C61.5554 73.3886 63.151 74.3027 63.4106 76.0605C63.773 78.5432 62.9617 80.7337 61.6257 82.7566C61.3823 82.8324 61.1281 82.9081 60.8847 82.9838Z" fill="#009579"/>
<path fill-rule="evenodd" clip-rule="evenodd" d="M54.804 80.263C52.7703 78.5755 51.0666 76.7149 50.3905 74.1457C50.0173 72.734 50.953 71.5386 52.5269 71.1817C54.3551 70.7652 55.8047 71.5765 56.2698 73.2749C56.762 75.0706 56.232 77.7101 54.804 80.263Z" fill="#009579"/>
<path fill-rule="evenodd" clip-rule="evenodd" d="M48.0753 71.2629C41.4819 73.0695 35.0887 74.346 28.3656 78.0023C3.99891 91.4107 20.3065 77.84 31.93 74.4055C37.0792 72.2906 42.5529 71.5821 48.0753 71.2629Z" fill="#009579"/>
<path d="M66.4922 28.0625L66.8978 26.6994C68.1256 23.2865 69.1858 20.885 70.0782 19.4841C70.5055 18.8242 71.1005 18.2401 71.8631 17.7262C73.2964 16.823 74.6432 16.374 75.9089 16.374C76.6553 16.374 77.2232 16.5417 77.6127 16.8716C78.0021 17.2016 78.1968 17.683 78.1968 18.3104C78.1968 18.7323 77.9156 19.5923 77.3639 20.885C76.4173 23.0755 75.7142 24.8929 75.2544 26.7968C75.5681 26.8347 76.9149 26.429 77.7209 26.5426C78.6133 26.667 78.9054 28.3329 78.9054 28.8846C78.9054 29.8528 78.6512 30.7398 78.1536 31.5565C77.6505 32.3787 77.1151 32.8925 76.2983 33.2711C75.6871 33.547 74.3836 33.812 73.0152 33.904C72.7718 34.6233 72.0308 39.4913 71.8252 41.4384C71.7117 42.1524 71.6576 42.8231 71.6576 43.4505C71.6576 46.3496 73.0801 47.7992 75.9251 47.7992H76.1739C76.5039 47.7992 76.6769 47.8533 76.6769 47.9669C76.6769 48.2589 76.3632 48.7511 75.725 49.4489C75.0922 50.1412 74.3944 50.7578 73.6318 51.2933C72.8151 51.8396 71.9226 52.2831 70.9544 52.613C69.9863 52.943 69.11 53.1052 68.3258 53.1052C66.3732 53.1052 64.783 52.4562 63.5606 51.1526C62.3436 49.8491 61.7324 48.1291 61.7324 45.9818C61.7324 45.0623 61.8947 43.8616 62.2192 42.3741C62.5437 40.8867 64.0149 35.2616 64.0366 35.1642C63.2956 35.148 62.7655 34.9911 62.4464 34.6991C62.1273 34.407 61.9704 33.9256 61.9704 33.2657C61.9704 32.1082 62.4248 31.0103 63.3226 29.9826C64.2259 28.9495 65.2806 28.3113 66.4868 28.0516L66.4922 28.0625Z" fill="#002F87"/>
<path d="M50.4056 30.6479L50.8113 29.2848C52.0391 25.8719 53.1046 23.4704 53.9971 22.0749C54.4244 21.415 55.0193 20.8255 55.782 20.3116C57.2153 19.4138 58.5621 18.9648 59.8278 18.9648C60.5742 18.9648 61.1421 19.1325 61.5315 19.4625C61.921 19.7924 62.1157 20.2738 62.1157 20.9012C62.1157 21.3231 61.8398 22.1831 61.2881 23.4812C60.3416 25.6664 59.6385 27.4837 59.1733 29.393C59.4924 29.4309 60.8338 29.0252 61.6451 29.1334C62.5322 29.2578 62.8297 30.9291 62.8297 31.4754C62.8297 32.4436 62.5809 33.3306 62.0778 34.1528C61.5802 34.9749 61.0393 35.4833 60.2226 35.8674C59.6114 36.1432 58.3079 36.4082 56.9395 36.5002C56.6961 37.2196 55.9551 42.0821 55.7495 44.0401C55.6359 44.754 55.5819 45.4247 55.5819 46.0467C55.5819 48.9459 57.0044 50.3954 59.8494 50.3954H60.0982C60.4336 50.3954 60.6012 50.4549 60.6012 50.5631C60.6012 50.8552 60.2821 51.3528 59.6547 52.0505C59.0219 52.7428 58.3241 53.3594 57.5615 53.8895C56.7393 54.4358 55.8523 54.8793 54.8841 55.2092C53.9159 55.5392 53.0397 55.7014 52.2554 55.7014C50.2975 55.7014 48.7127 55.0524 47.4903 53.7489C46.2679 52.4453 45.6621 50.7253 45.6621 48.5781C45.6621 47.664 45.8244 46.4578 46.1489 44.9704C46.4788 43.483 47.9446 37.8578 47.9663 37.7604C47.2253 37.7442 46.6952 37.5874 46.3761 37.2953C46.0624 37.0032 45.9055 36.5218 45.9055 35.8619C45.9055 34.7045 46.3544 33.6065 47.2577 32.5788C48.1556 31.5457 49.2103 30.9021 50.4164 30.6479H50.4056Z" fill="#002F87"/>
<path d="M96.7526 22.6645C99.0243 22.7997 100.138 23.1892 100.101 23.8328C100.057 24.5684 99.5219 24.9308 98.4996 24.9254C97.261 24.9416 96.0873 25.2986 94.9785 25.9855C93.8697 26.6724 92.8582 27.646 91.9496 28.8955C91.0409 30.1503 90.3053 31.5836 89.7428 33.1846C89.1748 34.7965 88.8395 36.5056 88.7259 38.3176C88.6015 40.3189 88.8936 41.9577 89.5913 43.2234C90.2945 44.489 91.2681 45.1597 92.5175 45.2355C93.675 45.3058 94.7351 44.6459 95.687 43.2667C96.6444 41.882 97.1799 40.2377 97.2989 38.3338C97.3962 36.7707 97.2177 35.2887 96.7526 33.8878C96.2982 32.4869 95.5735 31.2862 94.5945 30.2855C94.178 29.8366 93.9779 29.5229 93.9833 29.339C93.9995 29.0794 94.3348 28.7062 94.9947 28.214C95.7303 27.6839 96.547 27.2566 97.4449 26.9212C98.3374 26.5859 99.0838 26.4399 99.6787 26.4777C100.366 26.521 101.009 26.7752 101.599 27.2404C102.194 27.7109 102.702 28.36 103.124 29.1875C103.546 30.0097 103.854 30.9562 104.044 32.0055C104.233 33.0548 104.292 34.1745 104.217 35.3482C104.098 37.2953 103.676 39.2046 102.946 41.0707C102.215 42.9367 101.323 44.4241 100.263 45.5438C98.8836 46.9555 97.2664 48.0805 95.4004 48.9189C93.5343 49.7572 91.7819 50.125 90.1484 50.0277C88.5582 49.9303 87.0059 49.5084 85.4806 48.7512C83.9553 47.994 82.7708 47.0528 81.9216 45.9116C80.7912 44.3701 80.3098 42.2498 80.4721 39.5508C80.6019 37.4251 81.1698 35.3157 82.1704 33.2387C83.1711 31.1617 84.4692 29.2957 86.0594 27.6514C87.6496 26.0072 89.3804 24.7361 91.2302 23.8436C93.0854 22.9512 94.9244 22.5563 96.758 22.6699L96.7526 22.6645Z" fill="#002F87"/>
<path d="M42.1888 39.2155C41.9833 39.9674 41.7074 40.6975 41.3558 41.9416C41.0367 43.045 40.5553 44.5757 40.0686 46.5282C39.8576 47.2476 39.7062 47.9129 39.6142 48.5403C39.2031 51.4394 40.4201 52.889 43.2652 52.889H43.5194C43.8547 52.889 44.017 52.9431 43.9953 53.0512C43.9521 53.3487 43.568 53.8409 42.8379 54.5333C42.1077 55.231 41.3234 55.8422 40.485 56.3723C39.5872 56.924 38.6352 57.3621 37.6184 57.692C36.6015 58.0219 35.7036 58.1842 34.9248 58.1842C32.9722 58.1842 31.474 57.5351 30.4409 56.237C29.4078 54.9335 29.04 53.2081 29.3429 51.0662C29.4727 50.1521 29.808 48.946 30.3435 47.4585C30.879 45.9711 31.6687 43.9807 32.7072 41.4818C32.8802 41.0437 33.0696 40.5785 33.2697 40.0918C33.4698 39.605 34.7247 36.4084 38.116 36.1541C41.4153 35.9107 42.7243 37.3008 42.1942 39.2155H42.1888Z" fill="#002F87"/>
<path d="M45.8945 29.7173C44.6017 32.8112 41.7351 34.7205 39.4958 33.9795C37.2512 33.2385 36.4885 30.1284 37.7812 27.0292C39.0794 23.9353 41.9406 22.026 44.1799 22.7616C46.4191 23.5026 47.1872 26.6127 45.8945 29.7119V29.7173Z" fill="#002F87"/>
<path d="M40.7292 9.41825C35.764 10.6406 28.9867 12.0956 24.9572 15.2598C20.4408 18.8079 17.612 23.9625 15.3619 29.1333C13.1497 34.2284 12.0788 39.5615 10.4291 44.8459C5.58824 60.3584 -3.28761 62.722 1.43427 63.0952C12.5872 63.966 17.4714 50.7145 19.9594 41.725C20.2028 41.725 26.185 40.8867 28.8623 40.3025C32.6106 39.4858 36.4292 27.9813 30.8582 29.1928C28.4134 29.7283 25.8929 29.9284 23.4319 30.4044C24.0755 28.917 24.8328 27.4728 25.7793 26.1044C28.4567 22.2425 34.5145 21.1716 38.8253 20.106C42.552 19.192 46.2138 8.06605 40.7238 9.41825H40.7292Z" fill="#002F87"/>
<path d="M103.374 20.1763H102.471V19.96H104.504V20.1763H103.623V22.7076H103.374V20.1763Z" fill="#263C92"/>
<path d="M104.936 19.96H105.33L106.391 22.3561L107.445 19.96H107.824V22.7076H107.575V20.1817L106.493 22.7076H106.288L105.184 20.1871V22.7076H104.941V19.96H104.936Z" fill="#263C92"/>
<path d="M89.5811 1.59711C89.4026 1.46189 89.1592 1.4024 88.8563 1.41862C88.0125 1.4673 87.2174 1.74315 86.4872 2.23535C85.7571 2.72755 85.2 3.39825 84.8322 4.23661C84.5996 4.78831 84.3291 5.86466 84.0371 7.43862L83.2257 11.8089C82.9174 13.4803 82.7768 14.5891 82.8093 15.1191C82.8255 15.4058 82.912 15.6276 83.0635 15.779C83.2041 15.9304 83.3826 16.0062 83.5881 16.0062C83.6044 16.0062 83.6206 16.0062 83.6368 16.0062C84.1074 15.9737 84.6861 15.6979 85.373 15.1786C86.0491 14.6648 86.6387 14.0915 87.1255 13.4803L87.1633 13.4316L86.709 13.0097L86.6603 13.0638C86.1519 13.6209 85.6272 14.086 85.1026 14.4538C84.7835 14.6756 84.6104 14.7297 84.5022 14.7351C84.4589 14.7351 84.3562 14.7351 84.3399 14.4971C84.3399 14.4322 84.4265 13.8156 84.8808 11.241L85.6218 7.07082C85.8815 5.5834 86.0708 4.56655 86.1952 4.06353C86.3142 3.56592 86.4656 3.23598 86.6333 3.07913C86.7523 2.97095 86.9416 2.90604 87.1958 2.89523C87.4662 2.879 87.7583 2.88441 88.0666 2.91686C88.4344 2.96013 88.7265 2.97636 88.9266 2.96554C89.2457 2.94932 89.4891 2.85737 89.646 2.70592C89.8083 2.54906 89.8894 2.34894 89.8732 2.12177C89.8623 1.91082 89.7596 1.73233 89.5703 1.59711H89.5811Z" fill="#5866AB"/>
<path d="M91.3177 13.0798C90.2576 14.1886 89.9168 14.3671 89.8087 14.3725C89.7762 14.3725 89.7438 14.3509 89.7113 14.3131C89.668 14.2644 89.6464 14.2049 89.6464 14.1237C89.6194 13.6586 89.8844 12.2307 90.4415 9.87783C90.7931 8.41745 90.9499 7.60613 90.9391 7.40601C90.9283 7.22752 90.8526 7.0923 90.7174 6.98953C90.5821 6.89758 90.4091 6.85431 90.1765 6.87053C89.7816 6.89217 89.3111 7.07607 88.7756 7.42223C88.2455 7.75758 87.6614 8.32009 87.0448 9.07733L86.9961 9.13142L87.564 9.51544L87.6073 9.47217C88.1536 8.8772 88.5052 8.52563 88.662 8.41204C88.8135 8.30928 88.9487 8.24978 89.0839 8.23896C89.1326 8.23896 89.1813 8.24978 89.1867 8.36336C89.1975 8.47154 89.1813 8.60135 89.1434 8.74739C88.3483 11.9764 87.9697 14.0318 88.0184 14.8539C88.0346 15.1244 88.1265 15.3353 88.278 15.4868C88.424 15.622 88.6079 15.6923 88.8243 15.6923C88.8459 15.6923 88.8675 15.6923 88.8892 15.6923C89.165 15.6761 89.5166 15.53 89.9277 15.265C90.3387 15 90.9553 14.432 91.8316 13.518L91.8802 13.4639L91.3664 13.0258L91.3177 13.0744V13.0798Z" fill="#5866AB"/>
<path d="M90.8529 4.59351C90.8529 4.59351 90.8854 4.59351 90.907 4.59351C91.1774 4.57728 91.4154 4.44206 91.621 4.19867C91.8157 3.95527 91.9076 3.67942 91.8914 3.37653C91.8752 3.14936 91.794 2.96546 91.6372 2.82483C91.4857 2.6842 91.291 2.6247 91.0693 2.63552C90.788 2.65175 90.5446 2.77615 90.3553 3.01414C90.166 3.24131 90.0794 3.51716 90.0957 3.82546C90.1119 4.06885 90.1984 4.25816 90.3499 4.4042C90.4905 4.53401 90.6636 4.59892 90.8583 4.59892L90.8529 4.59351Z" fill="#5866AB"/>
<path d="M98.603 6.36778L98.5273 6.65444C98.2839 6.65444 98.0675 6.65985 97.889 6.67608C96.9317 6.73017 96.1366 6.96815 95.52 7.37922C94.5301 8.0391 93.6972 8.99646 93.0427 10.2351C92.3829 11.4683 92.0908 12.7123 92.1611 13.9239C92.1827 14.3079 92.3017 14.6216 92.5181 14.8488C92.7344 15.076 92.9778 15.1787 93.2483 15.1679C93.351 15.1679 93.4646 15.1409 93.5944 15.103C93.3997 15.2274 93.1996 15.3518 92.9995 15.4708C92.0421 16.0279 91.4363 16.4822 91.1442 16.8554C90.7494 17.3477 90.5709 17.8777 90.6034 18.4186C90.6358 18.9757 90.9333 19.4571 91.485 19.8465C91.9718 20.1927 92.5992 20.3658 93.3618 20.3658C93.4646 20.3658 93.5728 20.3658 93.681 20.3549C94.7357 20.2955 95.639 19.9871 96.3691 19.4517C97.1047 18.9108 97.6023 18.2077 97.8295 17.3801C97.9972 16.7851 98.0567 16.0063 98.0134 15.0651C97.9864 14.508 97.9864 14.0429 98.0296 13.6751C98.0946 12.9449 98.2406 12.0146 98.4678 10.9004C98.7707 9.36966 99.1168 7.79029 99.5117 6.22174L99.5387 6.10815L98.5976 6.37319L98.603 6.36778ZM92.4207 19.2245C92.08 18.9541 91.9015 18.6512 91.8798 18.2942C91.8582 17.9318 91.961 17.5748 92.1881 17.2341C92.4207 16.8933 93.086 16.3092 94.1678 15.487C95.2928 14.6162 96.0879 13.9617 96.5422 13.5344C96.526 14.1619 96.5206 14.5243 96.526 14.6919C96.5693 15.5411 96.5476 16.2443 96.4611 16.7689C96.3745 17.2827 96.1852 17.7641 95.904 18.1914C95.6173 18.6187 95.2711 18.9487 94.8709 19.1921C94.4706 19.4246 94.0488 19.5653 93.6052 19.5869C93.1455 19.6139 92.7452 19.4949 92.4045 19.2299L92.4207 19.2245ZM95.4929 13.5507C95.1305 13.8157 94.8222 13.9563 94.568 13.9726H94.5356C94.3517 13.9726 94.1786 13.886 94.0163 13.7129C93.8378 13.5236 93.7405 13.2856 93.7242 12.999C93.6756 12.2634 93.8432 11.3331 94.2164 10.2297C94.4815 9.4562 94.8276 8.88287 95.2441 8.54212C95.6606 8.20136 96.1798 8.01205 96.791 7.97419C96.8559 7.97419 96.9262 7.96878 96.9911 7.96878C97.1642 7.96878 97.3535 7.9796 97.5537 8.00124L97.002 10.5812C96.8018 11.517 96.5909 12.1822 96.3691 12.5717C96.1528 12.9557 95.8553 13.2856 95.4875 13.5561L95.4929 13.5507Z" fill="#5866AB"/>
<path d="M108.473 12.0037L108.419 12.0524C108.084 12.3553 107.803 12.6149 107.57 12.8313C107.073 13.3127 106.851 13.4208 106.743 13.4263C106.699 13.4263 106.667 13.41 106.645 13.383C106.618 13.3451 106.597 13.2748 106.591 13.1883C106.57 12.9232 106.591 12.6203 106.645 12.285C106.705 11.9442 106.905 11.0464 107.246 9.63468C107.511 8.58537 107.668 7.88223 107.732 7.4982C107.776 7.26562 107.787 7.03304 107.776 6.81128C107.754 6.52462 107.662 6.30285 107.494 6.15141C107.327 5.99455 107.105 5.92965 106.824 5.94046C106.478 5.9621 106.045 6.15141 105.504 6.53002C104.676 7.10336 103.903 7.79028 103.205 8.57455L103.979 3.90135C104.13 3.00348 104.292 2.42474 104.466 2.17594C104.628 1.94336 104.855 1.81355 105.136 1.79732C105.347 1.7865 105.753 1.80273 106.321 1.85141C106.575 1.87304 106.786 1.87845 106.948 1.86763C107.24 1.85141 107.473 1.76487 107.641 1.60801C107.808 1.44575 107.889 1.26726 107.879 1.06713C107.868 0.834553 107.76 0.645245 107.57 0.504616C107.381 0.363987 107.138 0.30449 106.835 0.320716C106.148 0.363987 105.45 0.596565 104.768 1.01304C104.087 1.43493 103.535 1.98122 103.135 2.64109C102.735 3.30097 102.437 4.23128 102.243 5.4104L101.166 11.7928C101.036 12.5284 100.847 13.4857 100.598 14.6378L100.582 14.7244L102.21 14.627L102.794 11.1005C102.919 10.3649 103.113 9.80235 103.368 9.41833C103.779 8.81254 104.265 8.2987 104.817 7.89304C105.207 7.60638 105.542 7.44952 105.802 7.43329C105.98 7.42248 106.077 7.49279 106.088 7.66587C106.094 7.75782 106.05 8.07694 105.839 9.08839C105.423 10.7922 105.185 11.8631 105.104 12.3715C105.023 12.88 104.99 13.2694 105.006 13.5344C105.033 13.9347 105.131 14.2322 105.293 14.4161C105.461 14.6054 105.666 14.6973 105.926 14.6811C106.229 14.6649 106.586 14.508 107.019 14.1997C107.641 13.767 108.246 13.1883 108.814 12.4851L108.847 12.4418L108.484 11.9983L108.473 12.0037Z" fill="#5866AB"/>
<path d="M114.58 11.2032L114.531 11.2465C114.055 11.6792 113.547 12.074 113.017 12.4202C112.622 12.6798 112.324 12.815 112.13 12.8259C112.022 12.8313 111.93 12.8096 111.859 12.7447C111.794 12.6852 111.751 12.5716 111.74 12.4148C111.719 12.0362 111.816 11.3384 112.027 10.3486L112.681 7.06007L114.742 6.94107L114.883 6.0973L112.827 6.21629L113.385 3.38208L111.686 4.14472L111.264 6.30824L109.653 6.4056L109.49 7.24938L111.102 7.15202L110.345 11.0301C110.15 12.0145 110.069 12.7555 110.096 13.2315C110.118 13.6534 110.215 13.9455 110.377 14.124C110.534 14.2916 110.729 14.3782 110.967 14.3782C110.988 14.3782 111.01 14.3782 111.032 14.3782C111.34 14.362 111.729 14.2159 112.222 13.9401C112.703 13.6696 113.644 12.9394 115.023 11.7765L115.078 11.7333L114.575 11.2032H114.58Z" fill="#5866AB"/>
<path d="M107.008 49.2378C107.008 49.2378 103.514 57.0157 90.9437 56.5397C71.3098 55.7987 40.8149 56.9021 24.291 70.5972C24.291 70.5972 37.1099 63.8307 51.6488 61.5266C60.8816 60.0608 75.9884 59.958 84.5126 60.4394C101.961 61.4238 103.838 57.1292 107.008 49.2378Z" fill="#002F87"/>
</g>
<defs>
<clipPath id="clip0_753_971">
<rect width="114.991" height="87.1467" fill="white" transform="translate(0.09375 0.320801)"/>
</clipPath>
</defs>
</svg>
