<svg width="113" height="48" viewBox="0 0 113 48" fill="none" xmlns="http://www.w3.org/2000/svg">
<g clip-path="url(#clip0_753_1036)">
<path d="M109.579 17.969C109.117 16.5949 107.524 15.6517 93.3775 11.7981C92.2068 11.479 91.2808 11.2275 90.9231 11.1149C90.7951 11.0755 77.2899 7.53627 75.4863 8.35561C74.7311 8.69817 74.1553 9.4274 73.8707 10.4072C73.808 10.6184 73.6932 11.0942 73.6847 11.6536C72.0965 11.4668 70.5188 11.4237 69.7446 11.8103C69.0027 12.1782 68.4562 12.9272 68.2048 13.9173C68.0986 14.3359 67.8111 15.7859 68.5701 16.8455C68.5919 16.8765 68.6194 16.9009 68.6412 16.9291C67.3083 16.7432 65.8425 16.5743 64.2581 16.4363C64.1661 13.8835 64.1433 11.693 64.2382 10.5874C64.5731 10.5771 65.0076 10.5949 65.3112 10.6062C66.6166 10.6578 67.9686 10.7122 68.9363 9.8901C69.7162 9.2275 70.2683 8.07686 70.3461 6.95908C70.4182 5.9342 70.108 5.00224 69.4515 4.2655C68.1204 2.77042 65.3966 3.25189 62.5134 3.76151C61.7696 3.8929 61.0666 4.01679 60.5865 4.0609C59.579 4.15194 53.8126 4.97127 52.5128 6.37906C51.954 6.98348 51.7149 7.87602 51.8392 8.88681C51.8923 9.31572 52.1504 10.7714 53.2452 11.4969C54.0469 12.0281 55.0222 11.8957 56.3713 11.7127C56.6123 11.6799 56.9339 11.6367 57.229 11.6057C57.3826 12.5912 57.5686 14.2477 57.7536 16.1942C55.9624 16.243 53.8344 16.3716 51.548 16.5705C52.2234 15.3317 52.509 13.7099 52.2557 11.9718C51.7462 8.47198 49.2757 6.01867 46.6307 6.38845C43.9866 6.75729 42.3149 9.78874 42.8253 13.2894C43.0663 14.9394 43.7456 16.3519 44.6706 17.3505C41.8842 17.7766 41.3273 18.1182 41.0284 18.4279C38.612 17.2782 35.5011 18.5809 34.5808 19.1459C33.9016 19.5635 33.375 20.2712 32.931 21.2369C32.6141 20.6128 32.2147 20.0459 31.7204 19.5673C30.6199 18.502 28.9255 17.8807 27.1532 17.5241C27.176 17.4809 27.2016 17.4415 27.2215 17.3936C27.5982 16.4823 27.1333 15.6752 26.8553 15.1937C25.9673 13.6564 23.735 13.5504 16.128 13.4255C7.2166 13.281 5.75365 14.7554 5.2736 15.2416C4.47382 16.0487 4.20912 17.2228 4.56584 18.381C4.9349 19.5813 5.85137 20.5002 6.90067 20.7235C6.92059 20.7273 6.94052 20.7245 6.96044 20.7282C4.50702 22.8596 5.50129 25.847 6.39025 28.4927C8.57044 34.9817 13.2078 34.5922 15.4374 34.4035L15.7552 34.3782C16.6052 34.3125 17.239 34.2374 17.702 34.183C18.0483 34.1426 18.3936 34.1032 18.5463 34.1051C18.7408 34.4908 18.9799 35.2426 19.1165 35.8535C18.3196 36.0506 17.128 36.2843 16.2419 36.4589C12.6765 37.16 11.7838 37.3918 11.2003 38.0675C10.615 38.7433 10.4802 39.6649 10.8313 40.5941C11.1937 41.5551 12.1936 42.686 13.5295 42.8963C14.3397 43.0239 15.241 42.7057 17.036 42.0751C18.7892 41.4575 21.1905 40.6109 23.6961 40.1971C26.5792 39.7203 28.8913 39.8132 30.4207 39.8742C31.4111 39.9136 32.0088 39.938 32.5259 39.8019C33.4443 39.5635 34.0913 38.916 34.2573 38.0732C34.355 37.5739 34.2668 37.0558 34.0325 36.5903L36.2288 36.4073L37.1253 36.3331L37.798 36.3228L46.2066 36.1736L46.4808 36.1698H46.5092L52.0811 36.1501C52.0603 36.1501 54.8448 36.1867 56.3428 36.2074V36.2768L57.9965 36.3069L63.5684 36.4063C63.539 36.4063 68.757 36.5847 68.757 36.5847L70.0643 36.6297L70.0672 36.6241L71.1336 36.6898L76.695 37.0361C76.6722 37.0342 79.8325 37.2829 81.2233 37.3937L81.2119 37.526L82.857 37.6865L88.4024 38.2261C88.3739 38.2233 93.5616 38.8146 93.5616 38.8146L94.8613 38.9629L95.3252 37.7635C95.6061 37.037 96.1658 35.2088 95.3139 33.8948C94.6516 32.8728 93.3984 32.7489 91.9459 32.6044C91.5626 32.5668 90.999 32.5096 90.6101 32.4335C90.4734 29.9192 91.1973 21.4331 91.8908 18.6053C93.4088 18.9873 96.4049 20.0347 98.5225 20.777C104.74 22.9535 105.91 23.2585 106.877 22.9516C107.855 22.6409 108.822 21.7944 109.338 20.7949C109.81 19.8789 109.894 18.9009 109.581 17.9699L109.579 17.969ZM16.2229 28.1182C15.3615 28.1867 14.0475 28.045 14.0475 28.045C13.4811 27.1468 13.1727 25.7174 13.1547 25.5307C13.1367 25.3448 12.9944 24.8277 13.0617 24.6635C13.2287 24.2505 15.0768 23.5635 15.3909 23.6499C15.7049 23.7371 16.9269 26.2852 17.2675 27.9662C17.2675 27.9662 16.8102 28.0713 16.2238 28.1191L16.2229 28.1182ZM26.7291 26.5077C26.6058 26.747 24.5376 27.3655 24.2292 27.2604C23.9209 27.1553 23.2027 23.7099 23.0348 22.5386C23.0348 22.5386 25.1808 22.2974 25.9882 23.0802C26.4018 23.4828 26.7064 25.3674 26.714 25.5541C26.7206 25.7409 26.8515 26.2674 26.7291 26.5077ZM38.2335 30.6081C37.8587 30.6522 37.3454 30.7104 36.8066 31.0549C36.7373 31.099 36.6804 31.1543 36.6168 31.2031C36.5912 31.1938 36.5646 31.1834 36.54 31.174C36.4366 29.7174 36.8663 26.5968 37.6794 25.9061C37.7174 25.8742 37.7809 25.8395 37.8492 25.8057C38.2932 26.9751 38.7685 29.4631 38.6841 30.5321C38.5333 30.5724 38.3957 30.5903 38.2344 30.6072L38.2335 30.6081ZM46.569 30.442C46.4979 30.4655 46.4258 30.4964 46.3536 30.5312C46.1155 30.4439 45.8489 30.3819 45.5396 30.3669C45.3755 30.3575 45.2209 30.3594 45.07 30.3603C45.0463 30.3603 45.0159 30.3603 44.9884 30.3603C44.8537 29.754 44.682 28.8746 44.533 28.1126C44.2143 26.4758 43.9325 25.1036 43.6687 23.9549C44.0435 23.9202 44.4495 23.8592 44.9002 23.7878C45.1848 23.7437 45.5785 23.6818 45.9096 23.6452C46.3603 25.1778 46.9675 28.6438 47.088 30.3256C46.9238 30.3472 46.7493 30.38 46.5671 30.442H46.569ZM58.1843 30.5809C58.1084 30.6053 58.0306 30.6363 57.9528 30.671C57.1939 30.2055 56.1711 30.1989 55.0203 30.1999C54.6038 30.1999 53.9729 30.1999 53.5801 30.1557C53.1361 28.6907 52.5887 24.4683 52.6646 22.6888C53.6911 22.6128 55.674 22.6025 58.3001 22.7414C58.5344 25.9652 58.7014 28.9685 58.7033 30.4777C58.5401 30.4955 58.3674 30.5246 58.1853 30.5809H58.1843ZM72.1952 30.8915C72.0073 30.8981 71.8005 30.9216 71.5833 30.9788C71.1402 31.0943 70.6393 31.3955 70.2816 31.8413C70.2228 31.739 70.1715 31.6339 70.0985 31.5391C69.3547 30.5724 68.0948 30.548 66.6356 30.5199C66.2457 30.5124 65.6717 30.5011 65.277 30.4551C65.0683 29.2294 64.8198 26.4335 64.611 23.282C68.3158 23.7221 70.8518 24.2552 72.514 24.6438C72.4561 27.113 72.3451 29.5964 72.1952 30.8906V30.8915ZM84.1131 31.9286C83.9291 31.9305 83.727 31.9455 83.5126 31.9934C83.3931 32.0215 83.2659 32.0656 83.1397 32.1191C82.4111 31.4443 81.2964 31.373 80.0298 31.2914C79.6418 31.266 79.0687 31.2294 78.6779 31.1656C78.471 29.0258 78.823 22.3003 79.341 19.9051C79.6237 20.0103 79.9397 20.1416 80.1712 20.2402C81.3732 20.747 82.6161 21.2707 83.82 20.8418C84.2232 20.6973 84.6188 20.457 84.9803 20.1557C84.8057 24.1876 84.431 29.7437 84.1131 31.9277V31.9286Z" fill="white" stroke="white" stroke-width="5.4088"/>
<path d="M109.104 17.9164C108.612 16.4523 107.08 15.5316 92.789 11.6386L92.7065 11.616C91.5765 11.3091 90.6866 11.0661 90.3403 10.9572C90.2104 10.9178 76.6445 7.35793 74.7812 8.20542C73.9804 8.56863 73.3742 9.33541 73.0753 10.3622C73.0203 10.5517 72.8894 11.0567 72.8828 11.6517L73.0715 11.4893C71.0906 11.2566 69.732 11.3148 69.0347 11.6639C68.2491 12.0543 67.6714 12.8417 67.4086 13.8779C67.2966 14.3134 66.9987 15.8225 67.7994 16.9412C67.8175 16.9656 67.8355 16.9872 67.8516 17.0041C67.8621 17.0144 67.8678 17.0238 67.8754 17.0323L68.0319 16.7667C66.6202 16.5696 65.1421 16.4035 63.6393 16.2721L63.792 16.4316C63.6924 13.6367 63.6848 11.6198 63.7711 10.6015L63.6089 10.7535C63.9353 10.7432 64.3546 10.7592 64.6591 10.7714C66.0092 10.8249 67.3934 10.8802 68.4104 10.0168C69.2225 9.32602 69.7984 8.13127 69.88 6.97125C69.954 5.90039 69.6314 4.92714 68.9427 4.15661C67.5499 2.59208 64.7806 3.08105 61.85 3.59912C61.109 3.72958 60.4107 3.85252 59.9364 3.89664C59.87 3.90321 53.244 4.65403 51.7526 6.26923C51.1606 6.91025 50.9073 7.84596 51.0382 8.90838C51.0932 9.35512 51.3627 10.8708 52.5163 11.6357C53.3712 12.2007 54.373 12.0656 55.7591 11.8779L55.7847 11.8751C56.0276 11.8422 56.3293 11.8009 56.6101 11.7718L56.4261 11.632C56.5731 12.5649 56.7543 14.1472 56.9488 16.2101L57.112 16.029C55.3113 16.0797 53.1624 16.2101 50.8959 16.4063L51.0591 16.6494C51.7773 15.3335 52.0344 13.6639 51.7849 11.9501C51.4851 9.89008 50.5098 8.11626 49.1095 7.08388C48.1427 6.3706 47.0573 6.07402 45.9701 6.22606C43.2321 6.60804 41.4978 9.72302 42.0215 13.3138C42.2568 14.929 42.9275 16.4035 43.9095 17.4631L44.0072 17.189C41.1392 17.6282 40.5889 17.9858 40.2692 18.3152L40.4646 18.2805C37.9676 17.0933 34.776 18.441 33.8548 19.0069C33.1793 19.4227 32.6186 20.1304 32.1423 21.1712L32.4459 21.1656C32.1063 20.4973 31.6879 19.9211 31.2022 19.4509C30.205 18.487 28.6406 17.784 26.5505 17.3636L26.6672 17.6001C26.6739 17.5879 26.6805 17.5747 26.689 17.5607C26.7061 17.5316 26.7251 17.4978 26.7422 17.4574C27.1492 16.472 26.6596 15.6217 26.3674 15.1149C25.4329 13.4959 23.1768 13.387 15.4959 13.2613C6.51048 13.1149 5.01054 14.6296 4.51815 15.1271C3.67567 15.9783 3.3958 17.2134 3.77055 18.4297C4.15668 19.6874 5.12249 20.6522 6.2306 20.8868C6.25717 20.8915 6.27899 20.8924 6.29227 20.8934C6.30081 20.8934 6.29986 20.8934 6.29702 20.8934L6.21353 20.6062C3.67093 22.8164 4.69271 25.8601 5.59495 28.5452C7.81688 35.1599 12.5444 34.7611 14.8166 34.5706L15.1335 34.5433C15.9855 34.4776 16.6202 34.4026 17.0841 34.3491C17.3706 34.3153 17.7596 34.2702 17.9095 34.2712L17.7605 34.1801C17.9408 34.5386 18.1751 35.2576 18.3174 35.8892L18.4398 35.694C17.64 35.892 16.4446 36.1266 15.5728 36.2984C11.9609 37.0089 11.054 37.2454 10.4354 37.9615C9.80922 38.6832 9.66406 39.6649 10.0369 40.6522C10.4164 41.6574 11.4629 42.8399 12.866 43.0595C13.718 43.1928 14.6307 42.8728 16.4484 42.2327C18.2017 41.6142 20.5915 40.7723 23.0867 40.3603C25.95 39.8864 28.2507 39.9784 29.7724 40.0394C30.7838 40.0788 31.3909 40.1041 31.9327 39.9624C32.9146 39.7062 33.6072 39.0126 33.7855 38.105C33.889 37.5823 33.8055 37.0332 33.5465 36.518L33.4098 36.7545L35.6062 36.5724L36.5027 36.4983C36.4913 36.4983 37.1649 36.488 37.1649 36.488L45.5726 36.3387L45.8468 36.335H45.8705L51.4433 36.3162V35.9849L51.2773 35.983L51.2754 36.1492C51.2735 36.3134 51.4215 36.3153 51.5638 36.3172L51.8987 36.3218L53.0135 36.3369L55.7041 36.3725L55.538 36.2073V36.2768V36.4382L55.7031 36.442L57.3568 36.4701L62.9268 36.5696L62.9344 36.2402L62.7683 36.2355L62.7626 36.4007C62.7595 36.5102 63.0839 36.5759 63.736 36.5978L65.5196 36.6597L68.1144 36.7489L69.4227 36.7949L69.5518 36.7986L69.5888 36.6775L69.4189 36.7883L70.4853 36.8549L76.0468 37.2012L76.0695 36.8709L75.9026 36.8587L75.8902 37.0229C75.882 37.133 76.1846 37.2122 76.7982 37.2604L78.4812 37.3918L80.5732 37.556L80.4195 37.3786L80.4081 37.5119L80.3958 37.6733L80.5589 37.6902L82.204 37.8498L87.7484 38.3904L87.7816 38.0609L87.6165 38.0459L87.5976 38.2073C87.5862 38.3162 87.9043 38.4079 88.552 38.4823L90.3261 38.6851L92.9048 38.9788L94.2036 39.1262L94.3336 39.1402L94.381 39.021L94.8459 37.8197C95.1362 37.0708 95.7121 35.1806 94.8184 33.8028C94.1116 32.7132 92.8213 32.5856 91.327 32.4382C91.0026 32.4063 90.403 32.3472 90.0064 32.2702L90.1411 32.4232C90.0064 29.9455 90.7341 21.4302 91.4172 18.6419L91.2122 18.7629C92.7302 19.1449 95.7993 20.2205 97.8296 20.93C104.092 23.1224 105.279 23.4274 106.29 23.1055C107.311 22.7826 108.316 21.9042 108.851 20.8671C109.344 19.9098 109.432 18.8887 109.103 17.9154L109.104 17.9164ZM108.551 20.7188C108.056 21.6799 107.127 22.4945 106.189 22.793C105.279 23.0811 104.046 22.7554 97.9425 20.6193C95.9056 19.907 92.8298 18.8296 91.2957 18.4438L91.1306 18.4016L91.0908 18.564C90.3859 21.4387 89.6658 29.8835 89.8053 32.4401L89.8119 32.5696L89.9409 32.594C90.3536 32.6757 90.9646 32.7348 91.2919 32.7667C92.7008 32.9056 93.9161 33.0267 94.5337 33.9812C95.3468 35.2322 94.8032 37.0004 94.5318 37.7024L94.067 38.9028L94.2434 38.7977L92.9437 38.6494L87.7864 38.0609L87.9325 38.2439L87.7494 38.3904L87.7826 38.0609L82.2372 37.5213L80.5921 37.3608L80.7439 37.5382L80.7553 37.4058L80.7686 37.2397L80.5997 37.2275L78.5087 37.0623L76.0724 36.8699L76.2261 37.0483L76.0468 37.1994L76.0695 36.8699L70.509 36.5236L69.4417 36.457L69.3089 36.4495L69.27 36.5743L69.4351 36.4626L68.1277 36.4185L62.9391 36.2402L63.1004 36.411L62.9287 36.5696L62.9353 36.2402L57.3644 36.1407L55.7107 36.1116L55.8758 36.2768V36.044L55.7098 36.0412L51.449 35.984L51.6141 36.152L51.4452 36.3153V35.984L45.8752 36.0037H45.8477C45.8449 36.0037 45.5697 36.0084 45.5697 36.0084L37.1621 36.1557L36.4885 36.1679C36.4771 36.1679 35.5805 36.243 35.5805 36.243L33.3842 36.4251L33.1385 36.4457L33.2476 36.6625C33.4744 37.113 33.5474 37.5898 33.4592 38.0403C33.3064 38.8211 32.704 39.4199 31.8501 39.6424C31.3577 39.7709 30.7686 39.7475 29.7942 39.709C28.2535 39.6471 25.9319 39.5541 23.0345 40.0337C20.51 40.4514 18.103 41.2989 16.3469 41.9183C14.5756 42.5415 13.6905 42.8531 12.923 42.732C11.6526 42.534 10.702 41.4556 10.3557 40.5368C10.0265 39.6639 10.1508 38.8033 10.6953 38.1745C11.2446 37.5382 12.1232 37.312 15.6411 36.6212C16.5177 36.4495 17.7169 36.213 18.5252 36.0131L18.6836 35.9737L18.6485 35.8179C18.5015 35.1628 18.2558 34.411 18.0641 34.0318L18.0186 33.9408L17.9161 33.9389C17.7567 33.937 17.4427 33.9727 17.0499 34.0187C16.586 34.0731 15.9551 34.1473 15.1098 34.213L14.792 34.2383C12.6051 34.4232 8.05691 34.8071 5.91847 28.4401C5.04849 25.8516 4.0637 22.9178 6.44027 20.8521L6.70307 20.624L6.35679 20.5658C6.33591 20.563 6.31789 20.5621 6.30555 20.5611C6.29702 20.5611 6.29986 20.5611 6.30271 20.5611C5.31413 20.3509 4.44699 19.4762 4.09501 18.3331C3.75631 17.2322 4.00583 16.1191 4.76292 15.3561C5.23064 14.883 6.65374 13.4471 15.494 13.5898C23.026 13.7136 25.2356 13.8141 26.0781 15.2735C26.3589 15.7596 26.7811 16.4926 26.4348 17.3298C26.4262 17.3514 26.4139 17.373 26.4006 17.3964C26.3921 17.4133 26.3826 17.4293 26.3731 17.448L26.2735 17.6404L26.4898 17.6846C28.5144 18.0909 30.0229 18.7648 30.9726 19.6836C31.4317 20.1275 31.8283 20.6747 32.1509 21.3101L32.3093 21.6198L32.4535 21.3035C32.9032 20.3246 33.4212 19.6639 34.0389 19.2838C34.9193 18.7442 37.9638 17.4527 40.3232 18.5752L40.4343 18.6278L40.5187 18.5405C40.7862 18.2655 41.3023 17.9351 44.066 17.5119L44.3743 17.4649L44.1637 17.2378C43.2273 16.227 42.5869 14.8155 42.3611 13.265C41.864 9.85723 43.474 6.90743 46.0242 6.55079C47.0213 6.41095 48.0194 6.68594 48.915 7.34666C50.2441 8.32743 51.171 10.0205 51.4585 11.9943C51.6985 13.6404 51.4538 15.2369 50.7688 16.4926L50.6217 16.7629L50.932 16.7357C53.1918 16.5395 55.3341 16.4082 57.1281 16.3594L57.3074 16.3537L57.2913 16.1792C57.094 14.1097 56.9128 12.5198 56.7648 11.5813L56.7401 11.4246L56.5807 11.4415C56.2932 11.4715 55.9887 11.5119 55.7439 11.5456L55.7183 11.5503C54.4062 11.7277 53.4575 11.8554 52.7089 11.3598C51.6748 10.6737 51.4272 9.27816 51.3769 8.86708C51.2583 7.90227 51.4822 7.0576 52.0078 6.48885C53.188 5.21151 58.5588 4.3537 59.9734 4.22418C60.4639 4.17913 61.1678 4.05525 61.9145 3.92291C64.7512 3.42174 67.4294 2.94966 68.696 4.37247C69.3241 5.07637 69.6191 5.96609 69.5508 6.94685C69.4759 8.02334 68.9446 9.12799 68.1979 9.76525C67.2805 10.5452 65.9627 10.4926 64.6895 10.4401C64.3669 10.4288 63.941 10.411 63.6032 10.4213L63.4543 10.4269L63.441 10.5733C63.3309 11.8769 63.3907 14.4842 63.4609 16.441L63.4666 16.5874L63.6146 16.6006C65.1126 16.731 66.5841 16.8971 67.9892 17.0933L68.4009 17.1505L68.1457 16.8277C68.1315 16.8108 68.1182 16.7967 68.1078 16.7845C68.0955 16.7704 68.086 16.7601 68.0784 16.7498C67.3602 15.7465 67.6363 14.3584 67.7397 13.9567C67.9769 13.0144 68.4939 12.3049 69.1922 11.9577C69.8203 11.6451 71.1504 11.5954 73.0355 11.8178L73.2224 11.8394L73.2243 11.6554C73.23 11.1017 73.3505 10.6306 73.4017 10.4523C73.674 9.5203 74.2157 8.8286 74.9263 8.50481C76.5733 7.7568 89.3527 11.0126 90.2426 11.2735C90.5946 11.3833 91.4874 11.6264 92.6201 11.9342L92.7027 11.9567C106.706 15.7709 108.357 16.7338 108.788 18.0196C109.089 18.9093 109.008 19.8422 108.555 20.7198L108.551 20.7188Z" fill="#133D8D"/>
<path d="M16.2092 27.9531C15.3734 28.0207 14.0784 27.8827 14.0651 27.8818L14.1894 27.9587C13.6211 27.0568 13.3336 25.6377 13.3213 25.5138C13.3156 25.4519 13.2985 25.3646 13.2795 25.2642C13.2501 25.114 13.1894 24.8015 13.2169 24.7245C13.3393 24.4223 15.0394 23.7428 15.3449 23.8085C15.3335 23.8067 15.3288 23.8029 15.3288 23.8029C15.5916 23.9615 16.7538 26.2872 17.101 27.9981L17.2272 27.8048C17.2272 27.8048 16.7737 27.909 16.2092 27.9531ZM17.4312 27.9324C17.1105 26.3538 15.8791 23.6133 15.4351 23.4904C15.0423 23.3825 13.1078 24.1004 12.9048 24.6025C12.8441 24.7508 12.8849 24.9967 12.9494 25.3271C12.9665 25.4153 12.9826 25.4988 12.9873 25.5458C13.011 25.7841 13.3279 27.2173 13.9048 28.1323L13.9474 28.2009L14.029 28.2102C14.0831 28.2159 15.3686 28.352 16.2367 28.2834C16.8278 28.2365 17.286 28.1305 17.306 28.1248L17.4634 28.0882L17.4312 27.9324Z" fill="#133D8D"/>
<path d="M26.5802 26.4331C26.5849 26.4237 26.5887 26.4209 26.5887 26.4209C26.4037 26.6236 24.5518 27.1745 24.2842 27.1041C24.306 27.1116 24.3165 27.1219 24.3165 27.1219C24.0679 26.8789 23.4066 23.9366 23.2036 22.5156L23.0566 22.7033C23.0774 22.7015 25.1314 22.4809 25.8715 23.1979C26.2234 23.5396 26.5384 25.3472 26.5469 25.5602C26.5498 25.6175 26.5602 25.6926 26.5726 25.7798C26.6001 25.9751 26.6475 26.3017 26.5792 26.434L26.5802 26.4331ZM26.8837 25.5471C26.879 25.427 26.5925 23.4326 26.1077 22.9624C25.2529 22.1346 23.1078 22.3645 23.0177 22.3749L22.8459 22.3946L22.8697 22.5616C22.8763 22.6086 23.6419 27.2364 24.1761 27.4166C24.5176 27.533 26.7016 26.9295 26.8809 26.5813C26.9947 26.358 26.9435 25.9976 26.9065 25.7329C26.8951 25.6578 26.8856 25.5874 26.8837 25.5461V25.5471Z" fill="#133D8D"/>
<path d="M38.2142 30.4433C37.8233 30.4893 37.2872 30.5503 36.7152 30.9144C36.663 30.9492 36.6193 30.9839 36.5776 31.0205C36.5558 31.0383 36.5349 31.0552 36.514 31.0721L36.6734 31.0468C36.6658 31.044 36.6563 31.0402 36.6459 31.0355C36.6298 31.0299 36.6118 31.0224 36.5928 31.0167L36.7066 31.1622C36.6013 29.6662 37.0624 26.6479 37.7882 26.0303C37.8015 26.0181 37.8394 25.9937 37.9248 25.9524L37.6914 25.8633C38.1231 26.9998 38.6003 29.4616 38.5159 30.5184L38.6401 30.372C38.4978 30.4105 38.3631 30.4273 38.2142 30.4433ZM38.8517 30.5447C38.9418 29.4212 38.4542 26.9248 38.0073 25.7478L37.9419 25.5742L37.7739 25.6577C37.68 25.7047 37.6165 25.7422 37.5719 25.7788C36.6943 26.5259 36.2693 29.7319 36.3727 31.1857L36.3803 31.2955L36.4865 31.3311C36.497 31.334 36.5093 31.3387 36.5216 31.3434C36.534 31.348 36.5472 31.3527 36.5605 31.3574L36.6478 31.3884L36.7209 31.3321C36.7484 31.3124 36.7721 31.2908 36.7958 31.272C36.8309 31.2411 36.8651 31.2138 36.8992 31.1922C37.4049 30.8685 37.8954 30.8131 38.254 30.7708C38.4153 30.753 38.5633 30.7352 38.7284 30.6911L38.8422 30.661L38.8517 30.5447Z" fill="#133D8D"/>
<path d="M46.515 30.2846C46.4325 30.3109 46.3499 30.3475 46.2816 30.3804L46.4126 30.3747C46.1336 30.2734 45.8509 30.2152 45.5483 30.2002C45.3832 30.1908 45.2276 30.1927 45.0767 30.1927C45.0682 30.1927 45.0397 30.1927 45.0397 30.1927C45.0227 30.1927 45.0037 30.1927 44.9857 30.1945L45.1545 30.3231C45.0227 29.7328 44.8576 28.8909 44.7001 28.0791C44.3529 26.2996 44.0777 24.9763 43.8348 23.9167L43.6868 24.1176C44.0663 24.0828 44.4743 24.0209 44.9297 23.9496L44.9506 23.9458C45.2295 23.9026 45.6118 23.8426 45.9315 23.8069L45.7513 23.6877C46.1887 25.1809 46.8025 28.6591 46.9239 30.3353L47.0691 30.1589C46.8613 30.187 46.6858 30.2255 46.516 30.2828L46.515 30.2846ZM47.2579 30.3137C47.1336 28.5887 46.5245 25.1368 46.0729 23.5986L46.034 23.4644L45.8926 23.4803C45.5653 23.5169 45.1792 23.5779 44.8965 23.622L44.8766 23.6258C44.4269 23.6952 44.0246 23.7572 43.6555 23.7919L43.4648 23.8088L43.5075 23.9918C43.7485 25.0486 44.0236 26.3672 44.3709 28.1439C44.5284 28.9576 44.6944 29.8013 44.8263 30.3963L44.8557 30.5296L44.9942 30.5268C45.0094 30.5268 45.0265 30.5268 45.0426 30.5268H45.0739C45.2266 30.5249 45.3765 30.5221 45.5312 30.5305C45.7997 30.5446 46.0492 30.5953 46.2959 30.6863L46.3623 30.7098L46.4268 30.6807C46.4866 30.6525 46.5577 30.6206 46.6232 30.6C46.7731 30.5502 46.9287 30.5146 47.1137 30.4911L47.2702 30.4705L47.2598 30.3165L47.2579 30.3137Z" fill="#133D8D"/>
<path d="M58.1339 30.4227C58.0589 30.4452 57.9773 30.4781 57.8844 30.5194L58.0428 30.5306C57.2307 30.0323 56.1577 30.0341 55.0201 30.0351C54.634 30.0351 53.9889 30.037 53.5989 29.991L53.7412 30.1083C53.3172 28.7108 52.7565 24.4903 52.8324 22.6958L52.6768 22.8535C53.8864 22.7643 55.9859 22.784 58.2904 22.906L58.132 22.7521C58.3862 26.2528 58.5323 29.0684 58.5342 30.4781L58.6832 30.3129C58.4764 30.3363 58.3008 30.3711 58.1329 30.4227H58.1339ZM58.871 30.4762C58.8691 29.0599 58.7221 26.2359 58.4669 22.7296L58.4564 22.5841L58.3084 22.5757C55.9897 22.4527 53.875 22.4339 52.6511 22.524L52.5022 22.5344L52.4956 22.6817C52.4178 24.54 52.9794 28.7502 53.4187 30.2021L53.4509 30.3063L53.561 30.3194C53.9699 30.3673 54.6283 30.3664 55.022 30.3654C56.1083 30.3636 57.1358 30.3626 57.8644 30.8103L57.9413 30.8582L58.0229 30.8206C58.1045 30.785 58.1737 30.7577 58.2363 30.738C58.3824 30.6911 58.5371 30.6611 58.7221 30.6414L58.872 30.6245V30.4762H58.871Z" fill="#133D8D"/>
<path d="M72.1885 30.7268C71.957 30.7343 71.7445 30.7653 71.5414 30.8188C71.0225 30.9549 70.5035 31.2993 70.1496 31.7386L70.4286 31.7602L70.3916 31.6945C70.346 31.61 70.2986 31.5236 70.2331 31.4392C69.439 30.4087 68.1421 30.3843 66.6393 30.3542C66.3092 30.3477 65.6991 30.3383 65.2978 30.2914L65.4449 30.4274C65.2504 29.2834 65.0009 26.6086 64.7808 23.2721L64.5929 23.4467C68.3641 23.8944 70.8991 24.4359 72.4778 24.8047L72.3469 24.6405C72.2843 27.3725 72.1647 29.702 72.03 30.8723L72.1904 30.7268H72.1885ZM72.5528 24.4828C70.9665 24.113 68.4201 23.5677 64.6318 23.1182L64.4316 23.0947L64.443 23.2928C64.665 26.6395 64.9136 29.3275 65.1128 30.4828L65.1328 30.6048L65.2589 30.6198C65.6764 30.6677 66.2987 30.679 66.6317 30.6855C68.0473 30.7118 69.2692 30.7353 69.9637 31.6391C70.013 31.702 70.0529 31.7742 70.0965 31.8521L70.1345 31.9206L70.2559 32.1403L70.4143 31.9432C70.7227 31.5574 71.1771 31.2571 71.6268 31.1389C71.8061 31.091 71.9949 31.0647 72.2027 31.0563L72.3469 31.0497L72.364 30.9098C72.4997 29.7292 72.6182 27.3885 72.6837 24.648L72.6866 24.5138L72.5537 24.4819L72.5528 24.4828Z" fill="#133D8D"/>
<path d="M84.1121 31.7615C83.8834 31.7643 83.6747 31.7878 83.4755 31.8319C83.3559 31.8601 83.226 31.9042 83.0742 31.9661L83.2563 31.998C82.4803 31.281 81.2953 31.205 80.0411 31.1261C79.6606 31.1017 79.0876 31.0642 78.7053 31.0022L78.8457 31.1496C78.6445 29.0576 78.987 22.3453 79.506 19.9389L79.2821 20.0599C79.5771 20.1688 79.9215 20.3133 80.1056 20.3912C81.337 20.9112 82.6102 21.4471 83.8768 20.9957C84.2876 20.8492 84.6955 20.609 85.0893 20.2805L84.8113 20.1472C84.6348 24.2176 84.2629 29.7287 83.947 31.9032L84.1111 31.7606L84.1121 31.7615ZM84.872 20.0299C84.5134 20.3284 84.131 20.5545 83.7629 20.6859C82.6216 21.0933 81.4101 20.5827 80.2394 20.0881C80.0534 20.0093 79.7033 19.8629 79.3997 19.7502L79.2166 19.6836L79.1758 19.8713C78.6531 22.2974 78.3068 29.0708 78.5098 31.1806L78.5231 31.3082L78.6502 31.3289C79.0496 31.3936 79.6322 31.4312 80.0183 31.4565C81.264 31.5353 82.3398 31.6038 83.0258 32.2392L83.1064 32.3124L83.207 32.2702C83.3398 32.2139 83.4527 32.1773 83.5523 32.1529C83.7269 32.1135 83.9119 32.0947 84.1159 32.0919L84.2601 32.09L84.28 31.9502C84.5969 29.7653 84.9707 24.2401 85.1481 20.1622L85.1642 19.785L84.8711 20.029L84.872 20.0299Z" fill="#133D8D"/>
<path d="M49.2648 11.8887C49.6358 14.434 48.5704 16.6855 46.8854 16.922C45.2005 17.1576 43.5336 15.2853 43.1636 12.7418C42.7926 10.1984 43.858 7.94503 45.5439 7.70946C47.2289 7.47389 48.8948 9.34625 49.2658 11.8897L49.2648 11.8887Z" fill="#133D8D"/>
<path d="M24.6533 35.2889C24.6533 35.2889 23.6477 34.0031 24.3004 32.7511C24.9531 31.5001 29.0421 32.4555 30.1664 32.066C31.2906 31.6774 31.9206 21.6005 34.1473 20.2321C34.9129 19.7628 37.4754 18.7905 39.0788 19.6465C40.5123 20.4104 41.9098 31.1979 42.349 31.4447C42.9543 31.7854 43.6431 31.6746 44.1289 31.7C44.4543 31.7169 44.6886 31.7948 44.7446 32.112C44.8442 32.6704 44.848 34.2068 44.848 34.2068L36.4403 34.3551C36.4403 34.3551 35.3313 32.8056 36.3986 32.1242C36.8853 31.8135 37.4412 32.0885 38.5788 31.5085C39.7173 30.9266 38.4877 25.0815 37.6357 24.0153C37.1196 23.3724 35.7905 23.8839 35.2516 24.3428C33.3959 25.9196 33.2649 31.6071 33.8143 32.1054C34.2213 32.4752 34.6804 32.2903 34.9053 32.5681C35.1301 32.8469 34.7582 34.448 34.7582 34.448L24.6524 35.2898L24.6533 35.2889Z" fill="#133D8D"/>
<path d="M45.7492 21.8039C46.3839 22.3463 47.863 30.5941 47.363 31.2755C46.9921 31.7823 46.2682 31.527 45.7872 31.6885C45.6212 31.7448 45.3384 31.9794 45.2995 32.2046C45.1515 33.0775 45.1752 34.2 45.1752 34.2L50.7471 34.1802L55.968 34.2506C55.968 34.2506 56.4291 32.5566 55.8618 31.8546C55.2954 31.1516 51.5811 31.9907 50.9227 31.0061C50.2642 30.0207 49.1343 21.9897 49.9379 20.9996C50.3183 20.5293 55.6663 20.5556 61.2543 21.0878C70.4618 21.9662 73.7482 23.5139 74.3592 23.2379C75.5214 22.7133 76.5858 20.6561 75.268 20.0179C74.3981 19.5974 68.5093 17.9963 59.4887 17.5401C54.1702 17.2708 41.423 18.6814 40.8728 19.3046C40.3215 19.9278 40.7636 21.5608 41.3557 21.9343C41.9467 22.3069 45.1126 21.2633 45.7483 21.8048L45.7492 21.8039Z" fill="#133D8D"/>
<path d="M57.2528 9.77586C57.8762 10.3315 59.4643 30.7904 58.9482 31.4606C58.5668 31.958 57.8496 31.6905 57.3638 31.8397C57.1969 31.8932 56.9084 32.1213 56.8658 32.3475C56.6988 33.2165 56.6978 34.3381 56.6978 34.3381L62.2688 34.4366L67.4868 34.6159C67.4868 34.6159 67.9858 32.934 67.4327 32.2189C66.8825 31.5047 63.1502 32.2668 62.5136 31.2672C61.8779 30.2667 60.6341 10.034 61.4595 9.05882C62.284 8.08557 65.5419 9.14705 66.5106 8.3249C67.1699 7.76366 67.8302 6.12217 66.8635 5.03723C65.8967 3.95229 61.4567 5.20335 59.4197 5.38918C56.9881 5.61161 52.9997 6.5614 52.4342 7.17332C51.8697 7.78524 52.2767 9.42579 52.8593 9.81152C53.4418 10.1973 56.6314 9.22213 57.2528 9.7768V9.77586Z" fill="#133D8D"/>
<path d="M72.7393 17.0869C73.1207 17.8227 72.8361 31.3027 72.2906 31.9513C71.8874 32.4309 71.1825 32.1315 70.691 32.26C70.5222 32.3042 70.2233 32.5191 70.1692 32.7434C69.9633 33.6031 69.9102 34.7246 69.9102 34.7246L75.4717 35.0709L80.6755 35.4811C80.6755 35.4811 81.2495 33.8227 80.7314 33.0831C80.2153 32.3454 76.4508 32.9395 75.8597 31.9137C75.2705 30.887 75.8047 18.5125 76.9289 17.8912C78.0541 17.2699 80.7153 19.4031 81.9174 18.9742C82.7371 18.6824 83.9495 17.3806 83.4401 16.0273C82.9306 14.6758 78.3264 14.2891 76.355 13.7485C74.003 13.1056 69.9301 12.596 69.1797 12.9695C68.4293 13.3412 68.2148 15.0174 68.619 15.5815C69.0251 16.1464 72.3579 16.352 72.7384 17.0878L72.7393 17.0869Z" fill="#133D8D"/>
<path d="M85.3522 15.0225C85.7071 15.7724 84.7412 32.4088 84.1711 33.0376C83.7517 33.504 83.0572 33.1784 82.563 33.2901C82.3922 33.3285 82.0857 33.5341 82.025 33.7556C81.7869 34.6077 81.6939 35.7274 81.6939 35.7274L87.2393 36.268L92.426 36.8593C92.426 36.8593 93.0597 35.2215 92.5692 34.4651C92.0787 33.7086 88.2961 34.1732 87.743 33.1258C87.1899 32.0784 88.3682 17.1173 89.5143 16.5354C90.6613 15.9536 103.812 21.4496 105.03 21.0638C105.861 20.8001 107.12 19.5415 106.657 18.1722C106.198 16.8029 91.0399 12.9841 89.0893 12.3759C86.763 11.6495 75.6315 9.19427 74.8668 9.54059C74.105 9.88785 73.8299 11.5537 74.2122 12.1328C74.5984 12.7109 85.0012 14.2755 85.3532 15.0244L85.3522 15.0225Z" fill="#133D8D"/>
<path d="M30.8864 36.6328C30.4604 36.3213 24.6418 36.8975 23.8876 36.3719C23.1324 35.8464 21.9778 33.3855 22.0755 32.0453C22.1742 30.6929 26.2613 30.8712 28.4386 29.5507C30.616 28.2302 31.8892 23.0148 29.2156 20.4282C26.5412 17.8407 18.5671 18.4892 18.5671 18.4892L18.3394 17.1499C18.3394 17.1499 23.1267 16.9228 23.787 16.7351C24.4473 16.5483 24.5185 16.4733 24.0659 15.6905C23.6143 14.9069 19.9883 14.8468 14.7741 14.7604C9.56079 14.676 6.06092 15.1603 5.15203 16.0772C4.24315 16.996 5.10744 18.6178 5.92715 18.7924C6.74685 18.966 9.63479 17.1894 14.5976 17.0917C15.0852 17.0824 15.1687 18.8346 15.1687 18.8346C15.1687 18.8346 9.41373 19.53 6.88062 21.5272C5.09132 22.9388 5.78579 25.0589 6.65862 27.6586C8.50864 33.1669 12.0313 32.5897 14.2912 32.4142C17.0966 32.1955 17.3394 31.8961 18.2777 32.4451C18.9248 32.8243 19.8299 36.1645 19.5158 36.631C19.0747 37.2861 11.6954 38.1917 11.1528 38.8187C10.6101 39.4456 11.5522 40.8027 12.463 40.9463C13.3747 41.0909 17.4827 39.0111 22.0859 38.2499C26.6892 37.4878 29.9585 38.0979 30.764 37.8877C31.5704 37.6774 31.3095 36.9426 30.8845 36.63L30.8864 36.6328ZM17.5643 28.7924C16.6469 29.8032 13.7067 29.6765 12.2874 29.4925C10.8681 29.3086 10.0655 26.4367 9.87482 24.4348C9.68317 22.4339 13.8339 20.9904 15.0445 21.7393C16.2541 22.4883 18.4817 27.7806 17.5652 28.7914L17.5643 28.7924ZM20.0433 21.0317C20.6496 19.9862 25.4663 20.1382 26.322 21.9646C27.1768 23.7919 27.8096 26.6816 26.6749 27.5376C25.5393 28.3935 22.6334 29.2626 21.7216 28.4264C20.8089 27.5901 19.4371 22.0753 20.0443 21.0317H20.0433Z" fill="#133D8D"/>
<path d="M108.32 8.90039C107.274 8.90039 106.426 9.73943 106.426 10.7756C106.426 11.8117 107.275 12.6507 108.32 12.6507C109.366 12.6507 110.216 11.8117 110.216 10.7756C110.216 9.73943 109.368 8.90039 108.32 8.90039ZM108.32 12.3701C107.43 12.3701 106.709 11.6559 106.709 10.7756C106.709 9.89523 107.43 9.18101 108.32 9.18101C109.21 9.18101 109.933 9.89523 109.933 10.7756C109.933 11.6559 109.211 12.3701 108.32 12.3701Z" fill="#133D8D"/>
<path d="M107.477 9.59842C107.652 9.56651 107.91 9.54492 108.204 9.54492C108.563 9.54492 108.814 9.59842 108.986 9.73638C109.133 9.84994 109.212 10.017 109.212 10.2366C109.212 10.5379 108.993 10.7472 108.785 10.8223V10.8326C108.954 10.9002 109.047 11.056 109.107 11.2765C109.182 11.5496 109.254 11.8621 109.301 11.9541H108.741C108.705 11.8828 108.645 11.6913 108.577 11.3976C108.509 11.0963 108.404 11.0184 108.179 11.0147H108.017V11.9551H107.477V9.59936V9.59842ZM108.017 10.6233H108.233C108.505 10.6233 108.666 10.4891 108.666 10.2789C108.666 10.0686 108.515 9.94943 108.265 9.94943C108.132 9.94943 108.057 9.95694 108.017 9.96726V10.6233Z" fill="#133D8D"/>
<path d="M52.26 43.267L51.4516 44.4974C51.1433 44.5894 50.8245 44.6542 50.4944 44.6917C50.1642 44.7292 49.8141 44.7433 49.446 44.7339C48.5561 44.703 47.9157 44.5153 47.5248 44.1708C47.134 43.8264 46.948 43.3599 46.966 42.7724C46.9926 41.9249 47.3617 41.1882 48.0761 40.5631C48.7895 39.9381 49.7563 39.6415 50.9754 39.6743C51.537 39.6893 51.9668 39.7851 52.2666 39.9596C52.5664 40.1351 52.7125 40.3463 52.7049 40.5931C52.6983 40.8071 52.5901 40.9873 52.3814 41.1356C52.1717 41.2839 51.9032 41.3534 51.574 41.344C51.4298 41.3402 51.2979 41.3233 51.1784 41.2933C51.0589 41.2633 50.9517 41.2173 50.8577 41.1544C50.9308 41.1168 50.9934 41.0634 51.0427 40.9939C51.093 40.9254 51.1196 40.8606 51.1215 40.8006C51.1234 40.7339 51.093 40.6795 51.0304 40.6382C50.9668 40.5969 50.8833 40.5744 50.7799 40.5716C50.3872 40.5612 50.0285 40.7837 49.706 41.2389C49.3825 41.694 49.2126 42.2093 49.1946 42.7837C49.1842 43.1309 49.2781 43.3937 49.4773 43.573C49.6766 43.7522 49.9526 43.8461 50.3056 43.8555C50.6338 43.8639 50.9744 43.8132 51.3274 43.7025C51.6803 43.5917 51.9915 43.4463 52.2619 43.267H52.26Z" fill="#133D8D"/>
<path d="M53.5331 39.8844L55.2778 39.9314C55.4296 39.9351 55.589 39.9229 55.7541 39.8938C55.9191 39.8647 56.0757 39.8187 56.2218 39.7559L55.3793 42.4889C55.3347 42.6212 55.3006 42.7423 55.2778 42.8521C55.2541 42.9619 55.2455 43.0463 55.2522 43.1064C55.2493 43.2134 55.2825 43.296 55.3527 43.3551C55.423 43.4133 55.5302 43.4452 55.6744 43.449C55.9552 43.4565 56.1734 43.3992 56.3299 43.2763C56.4865 43.1533 56.6354 42.8671 56.7777 42.4166L57.1259 41.2735C57.1715 41.1008 57.2094 40.9515 57.2417 40.8258C57.2739 40.7 57.291 40.5968 57.2938 40.517C57.2891 40.4232 57.2597 40.3302 57.2056 40.2392C57.1525 40.1472 57.0794 40.0599 56.9855 39.9774L58.7302 40.0243C58.882 40.0346 59.0414 40.0243 59.2065 39.9924C59.3716 39.9605 59.5281 39.9126 59.6742 39.8497L58.3697 44.2936C58.2094 44.8108 58.0528 45.2134 57.8991 45.5034C57.7454 45.7934 57.5661 46.0393 57.3593 46.2402C57.0699 46.5058 56.717 46.7057 56.2996 46.838C55.8821 46.9703 55.4173 47.0295 54.904 47.0154C54.1583 46.9957 53.5606 46.8605 53.1109 46.6109C52.6612 46.3612 52.4411 46.0665 52.4515 45.7258C52.4591 45.4856 52.5635 45.2941 52.7646 45.1533C52.9657 45.0116 53.2228 44.945 53.535 44.9534C53.7114 44.9581 53.8708 44.9844 54.0141 45.0323C54.1573 45.0801 54.2911 45.1524 54.4164 45.25C54.311 45.281 54.2313 45.3288 54.1773 45.3955C54.1232 45.4612 54.0947 45.5419 54.0919 45.6357C54.0881 45.7643 54.1526 45.8666 54.2864 45.9445C54.4201 46.0224 54.5957 46.0637 54.812 46.0703C55.0529 46.0768 55.2655 46.0252 55.4486 45.9164C55.6326 45.8075 55.7882 45.6273 55.9172 45.3758C55.9609 45.2697 56.0225 45.0998 56.1013 44.868C56.181 44.6353 56.2427 44.4485 56.2872 44.3087L56.3831 43.9492C56.1354 44.1763 55.8527 44.3443 55.5368 44.4523C55.2199 44.5602 54.8698 44.6099 54.4847 44.5996C53.979 44.5921 53.6052 44.4907 53.3623 44.2936C53.1194 44.0966 53.0027 43.8347 53.0132 43.5081C53.0151 43.4612 53.0179 43.4114 53.0236 43.3579C53.0293 43.3044 53.0853 43.1092 53.1925 42.7714L53.6754 41.1815C53.7285 41.0088 53.7674 40.8596 53.7911 40.7338C53.8149 40.608 53.8319 40.5048 53.8424 40.425C53.8452 40.3312 53.8186 40.2392 53.7608 40.1472C53.7038 40.0552 53.6279 39.968 53.534 39.8854L53.5331 39.8844Z" fill="#133D8D"/>
<path d="M64.0643 42.304L64.7019 43.5034C65.0273 44.1332 65.2588 44.5208 65.3944 44.6644C65.5301 44.808 65.6885 44.9365 65.8697 45.0482C65.6354 45.082 65.4181 45.1074 65.217 45.1261C65.0159 45.144 64.791 45.1496 64.5425 45.143C63.9486 45.1271 63.5226 45.0351 63.2626 44.868C63.0027 44.701 62.7636 44.3931 62.5444 43.9464L62.2503 43.3476L61.3082 44.2139C60.9193 44.5705 60.646 44.7854 60.4876 44.8577C60.3282 44.93 60.1612 44.9638 59.9848 44.9591C59.8481 44.9553 59.7163 44.9384 59.5891 44.9084C59.462 44.8784 59.3434 44.8314 59.2324 44.7685L59.2419 43.677C59.3368 43.7334 59.4336 43.7775 59.5332 43.8103C59.6318 43.8432 59.7419 43.8572 59.8624 43.8544C60.1034 43.8676 60.332 43.8 60.5483 43.6526C60.7656 43.5043 61.0891 43.2228 61.5198 42.807L61.7807 42.5536L61.054 41.1411C60.8187 40.6935 60.665 40.4279 60.591 40.3424C60.517 40.257 60.4259 40.166 60.3168 40.0693L63.1554 40.1463C63.1355 40.2589 63.1383 40.3678 63.163 40.472C63.1877 40.5761 63.2569 40.747 63.3698 40.9835L63.6184 41.5109L63.8423 41.2866C64.3726 40.7535 64.7635 40.426 65.0159 40.3058C65.2682 40.1857 65.5149 40.1256 65.7559 40.1256C65.8593 40.135 65.9599 40.1566 66.0547 40.1885C66.1506 40.2214 66.2492 40.2692 66.3517 40.3321L66.3185 41.4133C66.2075 41.357 66.1031 41.3119 66.0035 41.28C65.9039 41.2472 65.7986 41.2294 65.6857 41.2265C65.4931 41.2284 65.3337 41.2688 65.2066 41.3486C65.0795 41.4293 64.8347 41.6273 64.4723 41.9455L64.0634 42.3049L64.0643 42.304Z" fill="#133D8D"/>
<path d="M70.0217 44.2888L69.3803 45.1832C69.2589 45.2067 69.1403 45.2245 69.0236 45.2386C68.9069 45.2517 68.7845 45.2574 68.6565 45.2536C67.999 45.2358 67.4924 45.0612 67.1375 44.7318C66.7827 44.4014 66.6138 43.9631 66.63 43.415C66.6451 42.9279 66.777 42.4671 67.0275 42.0335C67.2779 41.599 67.6166 41.2311 68.0426 40.9289C68.4117 40.6717 68.8054 40.4831 69.2219 40.3648C69.6384 40.2456 70.164 40.1949 70.7977 40.2118C70.9505 40.2156 71.09 40.225 71.218 40.2381C71.3461 40.2512 71.4941 40.2672 71.662 40.285C71.9818 40.3338 72.1791 40.3611 72.255 40.3667C72.3309 40.3723 72.4134 40.3761 72.5017 40.378C72.7094 40.3902 72.903 40.3817 73.0804 40.3535C73.2578 40.3254 73.4362 40.2728 73.6155 40.1978L72.607 43.5971C72.5529 43.7829 72.5235 43.8918 72.5187 43.9256C72.513 43.9594 72.5111 43.9894 72.5102 44.0157C72.5074 44.1227 72.5387 44.2015 72.6051 44.2541C72.6715 44.3057 72.773 44.3338 72.9096 44.3376C72.9978 44.3404 73.0899 44.3357 73.1866 44.3254C73.2834 44.3151 73.3764 44.2944 73.4656 44.2625L72.5832 45.1607C72.421 45.2161 72.255 45.2583 72.0861 45.2874C71.9163 45.3165 71.7351 45.3315 71.5434 45.3324C71.126 45.3212 70.8082 45.2311 70.5881 45.0612C70.3689 44.8913 70.2646 44.6304 70.275 44.2766C70.2759 44.2428 70.2788 44.2081 70.2845 44.1715C70.2902 44.1349 70.3509 43.9247 70.4666 43.5399L71.1497 41.2836C71.0387 41.2339 70.9334 41.1945 70.8347 41.1644C70.7351 41.1353 70.645 41.1156 70.5653 41.1072C70.1403 41.0959 69.7532 41.3353 69.4059 41.827C69.0578 42.3188 68.8747 42.8416 68.8576 43.3953C68.8415 43.6684 68.9183 43.8862 69.09 44.0476C69.2617 44.209 69.5122 44.2944 69.8405 44.3029C69.8727 44.3029 69.9031 44.3048 69.9306 44.3057C69.9591 44.3057 69.9894 44.301 70.0217 44.2879V44.2888Z" fill="#133D8D"/>
<path d="M76.6603 45.31L76.5218 44.334C76.593 44.3893 76.6755 44.4297 76.7713 44.456C76.8672 44.4822 76.9744 44.4963 77.0949 44.5001C77.295 44.5057 77.4772 44.455 77.6413 44.3499C77.8045 44.2439 77.9468 44.0796 78.0654 43.8553C78.1593 43.677 78.2466 43.4461 78.3282 43.1608C78.4088 42.8755 78.4534 42.6099 78.461 42.363C78.4686 42.1162 78.4145 41.9248 78.2988 41.7877C78.1821 41.6507 78.0161 41.5794 77.7998 41.5737C77.5351 41.5737 77.3254 41.6676 77.1717 41.8572C77.0171 42.0468 76.8463 42.4597 76.6575 43.096L75.8236 45.9295C75.7429 46.2007 75.686 46.4137 75.6537 46.5658C75.6205 46.7188 75.6034 46.8379 75.6006 46.9252C75.5978 47.0257 75.611 47.1195 75.6404 47.2068C75.6699 47.2941 75.7192 47.3823 75.7884 47.4715L72.8047 47.3907C72.9935 47.2622 73.151 47.0998 73.2772 46.9027C73.4033 46.7056 73.539 46.3621 73.6823 45.8713L74.9289 41.7568C74.982 41.585 75.0209 41.4348 75.0446 41.3091C75.0684 41.1833 75.0854 41.0801 75.0959 41.0003C75.0987 40.9064 75.0712 40.8145 75.0143 40.7225C74.9574 40.6305 74.8815 40.5432 74.7875 40.4606L76.5322 40.5076C76.6926 40.5123 76.852 40.5001 77.0085 40.47C77.166 40.4409 77.3254 40.395 77.4886 40.333L77.2599 41.1082C77.4762 40.867 77.7239 40.6915 78.0047 40.5827C78.2846 40.4738 78.6014 40.4231 78.9544 40.4334C79.572 40.4503 80.0198 40.624 80.2987 40.9562C80.5776 41.2875 80.7086 41.7277 80.6915 42.2748C80.6801 42.6418 80.6061 43.0191 80.4695 43.4057C80.3329 43.7924 80.1526 44.134 79.9259 44.4278C79.6251 44.8135 79.2798 45.0913 78.8889 45.2612C78.499 45.4311 78.0701 45.5099 77.6053 45.4968C77.389 45.4912 77.2068 45.4724 77.0588 45.4424C76.9108 45.4114 76.778 45.3682 76.6594 45.311L76.6603 45.31Z" fill="#133D8D"/>
<path d="M82.0179 40.656L83.7142 40.702C83.8992 40.7067 84.07 40.6964 84.2265 40.671C84.384 40.6447 84.5481 40.5978 84.7189 40.5293L83.8072 43.541C83.7446 43.74 83.7047 43.8742 83.6867 43.9437C83.6687 44.0131 83.663 44.0788 83.6687 44.1389C83.6649 44.2524 83.699 44.335 83.7692 44.3876C83.8394 44.4392 83.9514 44.4674 84.1032 44.4721C84.2635 44.4767 84.4106 44.4542 84.5443 44.4035C84.6781 44.3538 84.7825 44.2834 84.8584 44.1914C84.9086 44.1257 84.9589 44.0385 85.0111 43.9296C85.0623 43.8207 85.1193 43.664 85.1819 43.4584L85.6107 42.0469C85.6828 41.7954 85.7284 41.6227 85.7464 41.5298C85.7654 41.4369 85.7796 41.3571 85.79 41.2904C85.7929 41.1975 85.7653 41.1046 85.7084 41.0126C85.6506 40.9207 85.5756 40.8334 85.4817 40.7508L87.178 40.7968C87.3621 40.808 87.5328 40.7996 87.6903 40.7705C87.8478 40.7414 88.0119 40.6926 88.1827 40.6231L87.1913 43.893C87.1562 43.9925 87.1287 44.0948 87.1097 44.2018C87.0898 44.3078 87.0803 44.3848 87.0784 44.4317C87.0755 44.5387 87.105 44.6147 87.1676 44.6598C87.2302 44.7048 87.3298 44.7292 87.4664 44.733C87.5224 44.7339 87.5926 44.7302 87.677 44.7189C87.7615 44.7076 87.8772 44.6842 88.0224 44.6485L87.1401 45.5561C86.9532 45.6114 86.7776 45.6546 86.6126 45.6874C86.4465 45.7194 86.2682 45.7334 86.0756 45.7278C85.6828 45.71 85.3859 45.6321 85.1857 45.4932C84.9855 45.3543 84.8726 45.1609 84.8479 44.9132C84.5918 45.1534 84.2986 45.3374 83.9703 45.466C83.6411 45.5936 83.3043 45.6537 82.96 45.6443C82.4951 45.6321 82.127 45.4997 81.8585 45.2482C81.589 44.9976 81.46 44.6879 81.4714 44.321C81.4733 44.274 81.4828 44.2046 81.5018 44.1117C81.5207 44.0187 81.5482 43.9193 81.5833 43.8132L82.1459 41.9549C82.218 41.6959 82.2655 41.5241 82.2883 41.4378C82.311 41.3514 82.3234 41.2717 82.3253 41.1985C82.3281 41.1046 82.3006 41.0126 82.2437 40.9207C82.1858 40.8287 82.1108 40.7414 82.0169 40.6588L82.0179 40.656Z" fill="#133D8D"/>
<path d="M95.6114 41.0229L92.953 42.9047L93.2367 43.4537C93.6684 44.3002 94.0014 44.8756 94.2376 45.1797C94.4729 45.4828 94.7215 45.6987 94.9824 45.8263C94.7404 45.8601 94.47 45.8854 94.1731 45.9042C93.8752 45.923 93.6266 45.9295 93.4264 45.9239C93.1779 45.9173 92.954 45.8873 92.7547 45.8357C92.5555 45.7831 92.3857 45.7052 92.2443 45.601C92.0944 45.5034 91.9607 45.3664 91.8421 45.189C91.7225 45.0126 91.5451 44.6137 91.307 43.9924L91.084 43.4152L90.8677 44.1707C90.7785 44.4758 90.7169 44.6972 90.6846 44.8371C90.6524 44.976 90.6391 45.0867 90.6448 45.1665C90.6419 45.2735 90.6542 45.3711 90.6837 45.4584C90.7131 45.5457 90.7624 45.6311 90.8317 45.7127L87.8479 45.632C88.0367 45.51 88.1894 45.3523 88.308 45.159C88.4266 44.9647 88.5651 44.6165 88.7255 44.1135L89.3279 42.1454C89.4 41.9004 89.4465 41.7296 89.4702 41.633C89.493 41.5363 89.5053 41.4556 89.5082 41.388C89.511 41.2951 89.4835 41.2022 89.4266 41.1102C89.3687 41.0182 89.2938 40.9309 89.1998 40.8483L90.8962 40.8943C91.0802 40.9056 91.251 40.8971 91.4085 40.8681C91.566 40.839 91.7301 40.7902 91.8999 40.7207L91.1779 43.0661L92.7671 41.8864C92.8572 41.8216 92.9331 41.7559 92.9957 41.6874C93.0583 41.6189 93.0982 41.5551 93.1162 41.495C93.1162 41.4753 93.1181 41.4499 93.119 41.4199C93.119 41.3899 93.1209 41.3551 93.1219 41.3148C93.1086 41.2406 93.0783 41.1787 93.0318 41.1271C92.9853 41.0755 92.9189 41.0154 92.8325 40.9459L95.6114 41.021V41.0229Z" fill="#133D8D"/>
<path d="M96.0335 41.0349L97.7298 41.0809C97.9139 41.0856 98.0856 41.0753 98.2421 41.0499C98.3996 41.0236 98.5638 40.9767 98.7345 40.9082L97.8228 43.9199C97.7602 44.1189 97.7203 44.2531 97.7023 44.3226C97.6843 44.392 97.6776 44.4577 97.6843 44.5178C97.6805 44.6313 97.7146 44.7139 97.7848 44.7665C97.856 44.8181 97.967 44.8463 98.1197 44.851C98.2801 44.8547 98.4271 44.8331 98.5609 44.7824C98.6947 44.7327 98.8 44.6623 98.8749 44.5703C98.9252 44.5046 98.9755 44.4174 99.0277 44.3085C99.0789 44.1996 99.1368 44.0429 99.1994 43.8373L99.6282 42.4258C99.7003 42.1743 99.7459 42.0016 99.7649 41.9087C99.7838 41.8158 99.7981 41.736 99.8085 41.6693C99.8113 41.5764 99.7848 41.4835 99.7269 41.3915C99.669 41.2996 99.5941 41.2123 99.5002 41.1297L101.196 41.1757C101.381 41.1869 101.551 41.1785 101.709 41.1494C101.866 41.1203 102.03 41.0715 102.201 41.0021L101.209 44.2719C101.174 44.3714 101.146 44.4737 101.127 44.5807C101.107 44.6867 101.098 44.7637 101.096 44.8106C101.093 44.9176 101.122 44.9936 101.185 45.0387C101.248 45.0837 101.347 45.1081 101.484 45.1119C101.54 45.1128 101.611 45.1081 101.695 45.0978C101.779 45.0865 101.895 45.0631 102.04 45.0274L101.157 45.935C100.97 45.9903 100.794 46.0335 100.629 46.0664C100.464 46.0983 100.285 46.1123 100.092 46.1067C99.6994 46.0889 99.4024 46.011 99.2023 45.8721C99.0021 45.7332 98.8892 45.5398 98.8645 45.2921C98.6083 45.5323 98.3161 45.7163 97.9869 45.8449C97.6577 45.9725 97.3209 46.0326 96.9756 46.0232C96.5107 46.01 96.1435 45.8786 95.8741 45.6271C95.6047 45.3765 95.4756 45.0668 95.487 44.6999C95.4889 44.6529 95.4984 44.5835 95.5174 44.4906C95.5364 44.3976 95.5629 44.2982 95.599 44.1921L96.1616 42.3338C96.2337 42.0757 96.2811 41.903 96.3039 41.8167C96.3266 41.7304 96.339 41.6506 96.3409 41.5774C96.3437 41.4835 96.3162 41.3915 96.2593 41.2996C96.2024 41.2076 96.1265 41.1203 96.0325 41.0377L96.0335 41.0349Z" fill="#133D8D"/>
<path d="M52.0253 42.914L51.217 44.1444C50.9087 44.2364 50.5899 44.3011 50.2598 44.3387C49.9296 44.3762 49.5795 44.3903 49.2114 44.38C48.3215 44.349 47.6811 44.1613 47.2902 43.8169C46.8993 43.4724 46.7134 43.0069 46.7314 42.4194C46.758 41.5719 47.128 40.8352 47.8414 40.2101C48.5549 39.585 49.5207 39.2885 50.7398 39.3213C51.3015 39.3363 51.7322 39.4321 52.031 39.6066C52.3308 39.7821 52.4769 39.9933 52.4693 40.2401C52.4627 40.4541 52.3545 40.6343 52.1458 40.7826C51.9362 40.9309 51.6677 41.0003 51.3385 40.9909C51.1943 40.9872 51.0624 40.9703 50.9428 40.9403C50.8233 40.9102 50.717 40.8642 50.6222 40.8014C50.6952 40.7638 50.7578 40.7094 50.8081 40.6409C50.8584 40.5724 50.885 40.5076 50.8859 40.4475C50.8878 40.3809 50.8575 40.3265 50.7948 40.2852C50.7313 40.2429 50.6478 40.2214 50.5444 40.2185C50.1516 40.2082 49.793 40.4306 49.4704 40.8858C49.1469 41.341 48.9771 41.8563 48.959 42.4306C48.9486 42.7779 49.0425 43.0407 49.2418 43.22C49.441 43.3992 49.7171 43.4931 50.07 43.5034C50.3983 43.5118 50.7398 43.4612 51.0918 43.3504C51.4447 43.2397 51.7559 43.0942 52.0263 42.9149L52.0253 42.914Z" fill="white" stroke="#133D8D" stroke-width="0.308302"/>
<path d="M53.2965 39.5314L55.0412 39.5783C55.193 39.5821 55.3524 39.5699 55.5184 39.5408C55.6835 39.5117 55.84 39.4657 55.9861 39.4028L55.1436 42.1358C55.099 42.2682 55.0649 42.3892 55.0421 42.499C55.0184 42.6088 55.0099 42.6933 55.0165 42.7534C55.0137 42.8604 55.0469 42.943 55.1171 43.0011C55.1873 43.0593 55.2954 43.0912 55.4387 43.095C55.7195 43.1025 55.9377 43.0453 56.0943 42.9223C56.2508 42.7994 56.3998 42.5131 56.5421 42.0626L56.8902 40.9195C56.9358 40.7468 56.9747 40.5976 57.0069 40.4718C57.0392 40.3461 57.0563 40.2428 57.0582 40.163C57.0534 40.0692 57.024 39.9772 56.9699 39.8852C56.9168 39.7933 56.8428 39.7069 56.7498 39.6234L58.4936 39.6703C58.6454 39.6816 58.8048 39.6703 58.9699 39.6384C59.1359 39.6065 59.2915 39.5586 59.4376 39.4957L58.1331 43.9397C57.9727 44.4568 57.8162 44.8594 57.6625 45.1494C57.5088 45.4394 57.3295 45.6853 57.1217 45.8862C56.8324 46.1527 56.4794 46.3517 56.062 46.484C55.6446 46.6164 55.1787 46.6755 54.6655 46.6614C53.9198 46.6417 53.3221 46.5066 52.8724 46.2569C52.4227 46.0073 52.2026 45.7126 52.213 45.3728C52.2206 45.1325 52.3249 44.942 52.5261 44.8003C52.7272 44.6586 52.9843 44.592 53.2965 44.6013C53.4729 44.606 53.6333 44.6323 53.7756 44.6802C53.9188 44.728 54.0526 44.8003 54.1778 44.8979C54.0725 44.9289 53.9928 44.9768 53.9387 45.0434C53.8847 45.1091 53.8562 45.1898 53.8534 45.2837C53.8496 45.4113 53.9141 45.5145 54.0488 45.5924C54.1826 45.6703 54.3581 45.7116 54.5744 45.7182C54.8154 45.7248 55.0279 45.6731 55.2119 45.5643C55.396 45.4554 55.5516 45.2743 55.6797 45.0227C55.7233 44.9167 55.784 44.7468 55.8637 44.515C55.9434 44.2822 56.0051 44.0955 56.0497 43.9556L56.1445 43.5962C55.8969 43.8233 55.6142 43.9913 55.2983 44.0992C54.9814 44.2081 54.6313 44.2569 54.2461 44.2466C53.7405 44.24 53.3667 44.1377 53.1238 43.9406C52.8809 43.7435 52.7642 43.4817 52.7746 43.1541C52.7756 43.1072 52.7794 43.0575 52.7851 43.004C52.7908 42.9505 52.8468 42.7553 52.954 42.4174L53.4369 40.8275C53.49 40.6558 53.5289 40.5065 53.5526 40.3798C53.5763 40.2541 53.5934 40.1508 53.6038 40.0711C53.6067 39.9772 53.5792 39.8852 53.5222 39.7933C53.4653 39.7013 53.3894 39.614 53.2955 39.5314H53.2965Z" fill="white" stroke="#133D8D" stroke-width="0.308302"/>
<path d="M63.8287 41.95L64.4663 43.1494C64.7917 43.7792 65.0232 44.1668 65.1589 44.3104C65.2945 44.454 65.453 44.5826 65.6351 44.6943C65.4008 44.7281 65.1835 44.7534 64.9824 44.7722C64.7813 44.79 64.5564 44.7956 64.3078 44.7891C63.7139 44.7731 63.288 44.6811 63.028 44.5141C62.7681 44.347 62.529 44.0401 62.3098 43.5924L62.0157 42.9937L61.0736 43.8599C60.6856 44.2166 60.4114 44.4315 60.253 44.5047C60.0936 44.5769 59.9266 44.6107 59.7501 44.606C59.6135 44.6023 59.4817 44.5854 59.3545 44.5554C59.2274 44.5253 59.1079 44.4784 58.9978 44.4155L59.0073 43.324C59.1022 43.3803 59.1989 43.4244 59.2985 43.4573C59.3982 43.4901 59.5073 43.5042 59.6278 43.5014C59.8678 43.5145 60.0974 43.4479 60.3146 43.2996C60.5319 43.1523 60.8554 42.8698 61.2861 42.454L61.547 42.2006L60.8203 40.7881C60.585 40.3414 60.4313 40.0748 60.3573 39.9894C60.2833 39.904 60.1923 39.813 60.0832 39.7163L62.9227 39.7933C62.9028 39.9068 62.9056 40.0148 62.9303 40.1189C62.955 40.2231 63.0242 40.3939 63.1371 40.6304L63.3857 41.1579L63.6096 40.9336C64.1399 40.4005 64.5308 40.0739 64.7832 39.9538C65.0355 39.8336 65.2822 39.7736 65.5232 39.7736C65.6266 39.7829 65.7272 39.8045 65.822 39.8364C65.9169 39.8693 66.0165 39.9172 66.118 39.98L66.0848 41.0612C65.9738 41.0049 65.8695 40.9599 65.7698 40.927C65.6702 40.8942 65.564 40.8763 65.452 40.8735C65.2594 40.8745 65.0991 40.9157 64.9729 40.9955C64.8458 41.0753 64.601 41.2743 64.2376 41.5915L63.8287 41.9509V41.95Z" fill="white" stroke="#133D8D" stroke-width="0.308302"/>
<path d="M69.7872 43.9352L69.1458 44.8297C69.0244 44.8531 68.9058 44.8719 68.7891 44.885C68.6724 44.8982 68.55 44.9038 68.422 44.9001C67.7645 44.8822 67.2579 44.7086 66.903 44.3782C66.5482 44.0479 66.3784 43.6096 66.3955 43.0615C66.4106 42.5744 66.5435 42.1136 66.793 41.679C67.0434 41.2445 67.3821 40.8766 67.8081 40.5744C68.1772 40.3172 68.5699 40.1295 68.9874 40.0103C69.4039 39.8911 69.9295 39.8404 70.5632 39.8573C70.715 39.8611 70.8554 39.8705 70.9835 39.8836C71.1116 39.8968 71.2596 39.9127 71.4275 39.9305C71.7473 39.9793 71.9446 40.0066 72.0214 40.0122C72.0973 40.0178 72.1799 40.0216 72.2681 40.0235C72.4768 40.0357 72.6694 40.0272 72.8468 39.9991C73.0242 39.97 73.2026 39.9183 73.381 39.8433L72.3734 43.2426C72.3193 43.4284 72.2899 43.5373 72.2852 43.5711C72.2804 43.6049 72.2776 43.6349 72.2766 43.6612C72.2738 43.7682 72.3051 43.847 72.3715 43.8996C72.4379 43.9512 72.5394 43.9794 72.6761 43.9831C72.7643 43.985 72.8573 43.9812 72.954 43.9709C73.0508 43.9606 73.1438 43.939 73.233 43.908L72.3506 44.8062C72.1884 44.8616 72.0224 44.9038 71.8535 44.9329C71.6837 44.962 71.5034 44.977 71.3099 44.9779C70.8924 44.9667 70.5746 44.8766 70.3545 44.7067C70.1354 44.5378 70.031 44.2759 70.0414 43.9221C70.0414 43.8893 70.0452 43.8536 70.0509 43.817C70.0557 43.7804 70.1164 43.5702 70.2331 43.1854L70.9171 40.9291C70.8061 40.8794 70.7008 40.84 70.6012 40.8109C70.5016 40.7818 70.4114 40.7621 70.3317 40.7536C69.9067 40.7424 69.5196 40.9826 69.1724 41.4735C68.8242 41.9653 68.6411 42.488 68.624 43.0418C68.6079 43.3158 68.6847 43.5326 68.8565 43.694C69.0282 43.8555 69.2787 43.9409 69.6069 43.9493C69.6392 43.9493 69.6686 43.9512 69.697 43.9521C69.7255 43.9521 69.7549 43.9474 69.7881 43.9343L69.7872 43.9352Z" fill="white" stroke="#133D8D" stroke-width="0.308302"/>
<path d="M76.4266 44.9575L76.2881 43.9814C76.3583 44.0368 76.4418 44.0771 76.5376 44.1034C76.6325 44.1297 76.7406 44.1438 76.8611 44.1475C77.0613 44.1532 77.2435 44.1025 77.4076 43.9974C77.5708 43.8913 77.7121 43.7271 77.8317 43.5028C77.9256 43.3244 78.0129 43.0936 78.0935 42.8083C78.1742 42.5229 78.2188 42.2573 78.2263 42.0105C78.2339 41.7637 78.1799 41.5713 78.0632 41.4352C77.9474 41.2982 77.7804 41.2268 77.5641 41.2212C77.2994 41.2212 77.0898 41.3151 76.9351 41.5046C76.7805 41.6942 76.6097 42.1072 76.4209 42.7435L75.587 45.5769C75.5063 45.8481 75.4494 46.0612 75.4172 46.2132C75.3849 46.3662 75.3669 46.4854 75.364 46.5727C75.3612 46.6731 75.3745 46.767 75.4039 46.8543C75.4333 46.9415 75.4826 47.0298 75.5519 47.1189L72.5681 47.0382C72.7569 46.9096 72.9144 46.7473 73.0406 46.5502C73.1668 46.3531 73.3024 46.0096 73.4457 45.5187L74.6923 41.4042C74.7455 41.2325 74.7844 41.0832 74.809 40.9565C74.8327 40.8308 74.8498 40.7275 74.8603 40.6478C74.8631 40.5539 74.8356 40.4619 74.7787 40.37C74.7217 40.278 74.6458 40.1907 74.5519 40.1081L76.2966 40.155C76.457 40.1597 76.6164 40.1475 76.7729 40.1175C76.9304 40.0884 77.0898 40.0424 77.2529 39.9805L77.0243 40.7557C77.2406 40.5145 77.4882 40.339 77.7691 40.2301C78.0489 40.1212 78.3658 40.0706 78.7187 40.0809C79.3364 40.0978 79.7842 40.2714 80.0631 40.6037C80.342 40.935 80.4729 41.3751 80.4559 41.9223C80.4445 42.2892 80.3705 42.6665 80.2348 43.0532C80.0982 43.4399 79.917 43.7806 79.6912 44.0753C79.3904 44.461 79.0451 44.7388 78.6542 44.9087C78.2643 45.0786 77.8364 45.1574 77.3706 45.1443C77.1543 45.1386 76.9721 45.1199 76.8251 45.0889C76.6771 45.0579 76.5443 45.0147 76.4257 44.9575H76.4266Z" fill="white" stroke="#133D8D" stroke-width="0.308302"/>
<path d="M81.7832 40.302L83.4795 40.348C83.6636 40.3527 83.8353 40.3423 83.9918 40.317C84.1493 40.2917 84.3135 40.2438 84.4833 40.1753L83.5715 43.1861C83.5089 43.3851 83.4691 43.5193 83.4501 43.5887C83.4321 43.6582 83.4264 43.7229 83.4321 43.7839C83.4283 43.8975 83.4624 43.9801 83.5326 44.0317C83.6038 44.0833 83.7148 44.1115 83.8666 44.1162C84.0269 44.1199 84.174 44.0974 84.3078 44.0477C84.4415 43.9979 84.5468 43.9275 84.6218 43.8356C84.6721 43.7708 84.7224 43.6826 84.7736 43.5746C84.8248 43.4658 84.8817 43.309 84.9453 43.1035L85.3741 41.692C85.4462 41.4404 85.4918 41.2677 85.5108 41.1748C85.5297 41.0819 85.544 41.0021 85.5544 40.9355C85.5572 40.8426 85.5297 40.7497 85.4728 40.6577C85.4159 40.5657 85.34 40.4784 85.2461 40.3958L86.9424 40.4418C87.1264 40.454 87.2972 40.4447 87.4547 40.4156C87.6122 40.3865 87.7763 40.3377 87.9471 40.2682L86.9547 43.538C86.9196 43.6375 86.8921 43.7398 86.8731 43.8468C86.8542 43.9538 86.8437 44.0298 86.8418 44.0768C86.838 44.1837 86.8684 44.2598 86.931 44.3048C86.9936 44.3499 87.0932 44.3743 87.2299 44.378C87.2858 44.3799 87.357 44.3752 87.4414 44.3639C87.5259 44.3527 87.6416 44.3292 87.7868 44.2936L86.9035 45.2011C86.7166 45.2565 86.5411 45.2997 86.376 45.3325C86.21 45.3644 86.0316 45.3785 85.839 45.3729C85.4462 45.356 85.1493 45.2771 84.9491 45.1382C84.7489 44.9993 84.636 44.806 84.6114 44.5582C84.3552 44.7985 84.062 44.9824 83.7338 45.1101C83.4046 45.2387 83.0678 45.2978 82.7234 45.2884C82.2585 45.2762 81.8913 45.1439 81.6219 44.8933C81.3525 44.6427 81.2234 44.333 81.2348 43.966C81.2367 43.9191 81.2462 43.8496 81.2652 43.7567C81.2842 43.6638 81.3117 43.5643 81.3468 43.4583L81.9094 41.6C81.9815 41.3419 82.0289 41.1692 82.0517 41.0828C82.0744 40.9965 82.0868 40.9167 82.0887 40.8435C82.0915 40.7497 82.064 40.6577 82.0071 40.5657C81.9492 40.4737 81.8743 40.3865 81.7803 40.3039L81.7832 40.302Z" fill="white" stroke="#133D8D" stroke-width="0.308302"/>
<path d="M95.3765 40.6698L92.7182 42.5516L93.0018 43.1006C93.4335 43.9472 93.7665 44.5225 94.0027 44.8266C94.238 45.1307 94.4866 45.3456 94.7475 45.4732C94.5056 45.507 94.2361 45.5324 93.9382 45.5511C93.6403 45.5699 93.3918 45.5765 93.1916 45.5708C92.943 45.5643 92.7191 45.5342 92.5199 45.4826C92.3206 45.431 92.1508 45.3522 92.0095 45.248C91.8596 45.1504 91.7258 45.0134 91.6072 44.836C91.4886 44.6595 91.3102 44.2597 91.0721 43.6393L90.8492 43.0622L90.6328 43.8177C90.5427 44.1227 90.482 44.3442 90.4497 44.484C90.4175 44.6239 90.4033 44.7337 90.409 44.8134C90.4052 44.9204 90.4184 45.018 90.4478 45.1053C90.4773 45.1926 90.5266 45.278 90.5968 45.3597L87.613 45.279C87.8018 45.1569 87.9546 44.9993 88.0732 44.805C88.1918 44.6117 88.3303 44.2625 88.4906 43.7595L89.0931 41.7914C89.1652 41.5464 89.2117 41.3756 89.2354 41.2789C89.2581 41.1832 89.2705 41.1016 89.2724 41.034C89.2752 40.9411 89.2477 40.8482 89.1908 40.7562C89.1339 40.6642 89.058 40.5769 88.964 40.4943L90.6604 40.5403C90.8444 40.5516 91.0152 40.5431 91.1727 40.514C91.3302 40.485 91.4943 40.4362 91.6651 40.3667L90.9431 42.7121L92.5332 41.5324C92.6233 41.4676 92.7001 41.4019 92.7618 41.3334C92.8244 41.2649 92.8643 41.2011 92.8823 41.141C92.8823 41.1213 92.8842 41.0959 92.8851 41.0659C92.8851 41.0359 92.887 41.0011 92.888 40.9608C92.8738 40.8866 92.8443 40.8247 92.7979 40.7731C92.7514 40.7215 92.685 40.6614 92.5986 40.5929L95.3775 40.668L95.3765 40.6698Z" fill="white" stroke="#133D8D" stroke-width="0.308302"/>
<path d="M95.7979 40.6814L97.4942 40.7274C97.6783 40.7321 97.85 40.7217 98.0065 40.6964C98.164 40.6701 98.3281 40.6232 98.4989 40.5547L97.5872 43.5664C97.5246 43.7654 97.4847 43.8996 97.4657 43.9691C97.4477 44.0385 97.442 44.1033 97.4477 44.1643C97.4439 44.2778 97.4781 44.3604 97.5483 44.412C97.6194 44.4637 97.7304 44.4918 97.8822 44.4965C98.0426 44.5003 98.1896 44.4777 98.3243 44.428C98.4581 44.3783 98.5625 44.3079 98.6374 44.2159C98.6877 44.1502 98.738 44.0629 98.7902 43.954C98.8414 43.8452 98.8983 43.6884 98.9609 43.4829L99.3898 42.0713C99.4619 41.8198 99.5074 41.6471 99.5264 41.5542C99.5454 41.4613 99.5596 41.3815 99.57 41.3149C99.5729 41.222 99.5454 41.1291 99.4884 41.0371C99.4315 40.9451 99.3556 40.8578 99.2617 40.7752L100.958 40.8212C101.142 40.8334 101.313 40.824 101.47 40.795C101.628 40.7659 101.792 40.7171 101.963 40.6476L100.971 43.9174C100.936 44.0169 100.909 44.1192 100.889 44.2262C100.869 44.3323 100.859 44.4092 100.857 44.4561C100.854 44.5631 100.884 44.6392 100.947 44.6842C101.009 44.7293 101.109 44.7537 101.245 44.7574C101.301 44.7593 101.372 44.7546 101.456 44.7433C101.541 44.7321 101.656 44.7086 101.801 44.6729L100.918 45.5805C100.731 45.6359 100.556 45.6791 100.391 45.7119C100.225 45.7438 100.046 45.7579 99.8537 45.7523C99.4609 45.7344 99.164 45.6565 98.9638 45.5176C98.7636 45.3787 98.6507 45.1854 98.627 44.9376C98.3708 45.1779 98.0777 45.3618 97.7494 45.4895C97.4202 45.618 97.0834 45.6772 96.739 45.6678C96.2741 45.6556 95.907 45.5233 95.6375 45.2717C95.3681 45.0211 95.2391 44.7114 95.2504 44.3445C95.2514 44.2975 95.2618 44.2281 95.2808 44.1352C95.2998 44.0423 95.3273 43.9428 95.3624 43.8367L95.925 41.9784C95.9971 41.7203 96.0445 41.5477 96.0673 41.4613C96.0901 41.375 96.1024 41.2952 96.1043 41.222C96.1072 41.1281 96.0796 41.0362 96.0227 40.9442C95.9648 40.8522 95.8899 40.7649 95.796 40.6823L95.7979 40.6814Z" fill="white" stroke="#133D8D" stroke-width="0.308302"/>
<path d="M46.8868 16.9442C48.5717 16.7077 49.6371 14.4562 49.2662 11.9109C48.8952 9.3675 47.2293 7.49514 45.5443 7.73071C43.8594 7.96628 42.7939 10.2197 43.1639 12.7631C43.534 15.3065 45.2009 17.1798 46.8858 16.9433L46.8868 16.9442ZM106.658 18.1934C106.199 16.8241 91.0407 13.0052 89.0901 12.3971C86.7638 11.6706 75.6324 9.21546 74.8677 9.56177C74.1059 9.90903 73.8307 11.5749 74.2131 12.154C74.5992 12.7321 85.002 14.2966 85.354 15.0456C85.5694 15.5017 85.2971 21.8321 84.9223 26.8654C85.872 26.9855 86.8264 27.1123 87.7837 27.2465C88.1072 22.6139 88.8178 16.9133 89.5161 16.5585C90.6631 15.9757 103.813 21.4726 105.032 21.0869C105.863 20.8232 107.122 19.5646 106.659 18.1953L106.658 18.1934ZM18.569 18.5116L18.3413 17.1723C18.3413 17.1723 23.1286 16.9452 23.789 16.7575C24.4493 16.5707 24.5204 16.4956 24.0679 15.7129C23.6163 14.9292 19.9902 14.8692 14.776 14.7828C9.56274 14.6983 6.06287 15.1826 5.15399 16.0996C4.2451 17.0184 5.1094 18.6402 5.9291 18.8147C6.7488 18.9884 9.63674 17.2117 14.5996 17.1141C15.0872 17.1047 15.1707 18.857 15.1707 18.857C15.1707 18.857 9.41569 19.5524 6.88258 21.5496C5.09327 22.9611 5.78774 25.0813 6.66057 27.681C6.93665 28.5032 7.24973 29.1883 7.59128 29.7608C8.63773 29.5412 9.91662 29.284 11.4099 29.0062C10.5333 28.0592 10.0219 25.9992 9.87392 24.4562C9.68228 22.4553 13.833 21.0118 15.0436 21.7608C16.0397 22.3774 17.7256 26.0761 17.7769 27.926C18.8404 27.7617 19.958 27.5975 21.1287 27.4342C20.3327 25.5543 19.5595 21.8846 20.0434 21.0522C20.6496 20.0067 25.4663 20.1587 26.3221 21.9851C26.9776 23.3872 27.5023 25.4145 27.1987 26.6683C28.2622 26.5473 29.3561 26.4299 30.4794 26.3183C30.987 24.3239 30.764 21.9466 29.2157 20.4487C26.5412 17.8612 18.5671 18.5097 18.5671 18.5097L18.569 18.5116ZM39.0787 19.6669C37.4754 18.811 34.9128 19.7833 34.1472 20.2525C33.0808 20.9076 32.3807 23.5599 31.8171 26.1887C32.6122 26.1137 33.4205 26.0405 34.2421 25.971C34.4982 25.2953 34.8303 24.7218 35.2534 24.3624C35.7923 23.9034 37.1215 23.3919 37.6376 24.0348C37.8586 24.3117 38.1053 24.9114 38.3292 25.6566C39.2163 25.5956 40.1176 25.5383 41.0303 25.4848C40.4582 22.7518 39.7732 20.0357 39.0797 19.666L39.0787 19.6669ZM76.3562 13.7692C74.0043 13.1263 69.9314 12.6167 69.181 12.9902C68.4305 13.3619 68.2161 15.0381 68.6203 15.6021C69.0264 16.1671 72.3592 16.3727 72.7397 17.1085C72.8279 17.2784 72.8801 18.1258 72.9019 19.3365C70.5206 18.7659 66.5198 18.0386 61.3179 17.6716C61.132 13.3103 61.113 9.49045 61.4602 9.08031C62.2847 8.10706 65.5426 9.16853 66.5113 8.34638C67.1706 7.78514 67.8309 6.14365 66.8642 5.05872C65.8974 3.97378 61.4574 5.22484 59.4205 5.41066C56.9889 5.6331 53.0004 6.58289 52.4349 7.19481C51.8705 7.80673 52.2775 9.44727 52.86 9.83301C53.4425 10.2187 56.6321 9.24361 57.2535 9.79828C57.504 10.0217 57.9101 13.4557 58.2734 17.5289C52.4501 17.4858 41.387 18.7462 40.8747 19.3253C40.3234 19.9485 40.7656 21.5815 41.3576 21.955C41.9486 22.3276 45.1145 21.284 45.7502 21.8255C46.0054 22.0433 46.3963 23.5036 46.7407 25.2174C47.7444 25.1817 48.7605 25.1517 49.788 25.1273C49.6058 23.2005 49.5906 21.4492 49.9388 21.0193C50.2567 20.6261 54.0506 20.5801 58.5524 20.887C58.6634 22.3239 58.762 23.7542 58.8427 25.0785C59.8085 25.0907 60.7819 25.1085 61.7638 25.1338C61.667 23.8762 61.575 22.5135 61.4953 21.131C67.664 21.7345 71.1297 22.6336 72.8972 23.0559C72.8829 23.9147 72.8611 24.8016 72.8327 25.6679C73.7823 25.7364 74.7368 25.8105 75.6959 25.8912C75.8639 22.246 76.3069 18.2563 76.9331 17.9109C78.0583 17.2896 80.7195 19.4229 81.9215 18.994C82.7412 18.7021 83.9537 17.4004 83.4442 16.047C82.9347 14.6955 78.3306 14.3089 76.3591 13.7683L76.3562 13.7692Z" fill="url(#paint0_linear_753_1036)"/>
<path d="M12.3314 19.6794C12.3314 19.6794 7.94925 20.892 6.98249 22.1196C6.03187 23.3265 5.97969 24.037 6.50339 25.7798C7.02708 27.5236 7.75761 29.3744 7.75761 29.3744C7.75761 29.3744 9.36381 30.4781 10.84 28.1534C9.83438 26.068 9.56779 23.9835 10.2063 23.3209C12.6104 20.7193 16.3047 20.983 16.3047 20.983C16.3047 20.983 16.2004 18.7502 12.3305 19.6794H12.3314Z" fill="url(#paint1_radial_753_1036)"/>
<path d="M41.3849 21.5657C41.3849 21.5657 40.7464 21.0129 40.7957 20.2902C40.845 19.5676 40.9494 19.3433 41.6771 19.2147C42.4047 19.0861 46.8306 18.4479 47.6142 18.3653C48.3979 18.2827 51.1663 18.1504 51.1663 18.1504C51.1663 18.1504 50.0648 20.5924 49.451 20.7004C42.9541 21.851 41.9 22.1551 41.3858 21.5648L41.3849 21.5657Z" fill="url(#paint2_radial_753_1036)"/>
</g>
<defs>
<linearGradient id="paint0_linear_753_1036" x1="53.1778" y1="28.3642" x2="59.5407" y2="2.16528" gradientUnits="userSpaceOnUse">
<stop offset="0.12" stop-color="#0054A4"/>
<stop offset="0.47" stop-color="#084A9A"/>
<stop offset="0.78" stop-color="#133D8D"/>
</linearGradient>
<radialGradient id="paint1_radial_753_1036" cx="0" cy="0" r="1" gradientUnits="userSpaceOnUse" gradientTransform="translate(4.96454 21.4185) scale(21.6927 21.4595)">
<stop stop-color="white"/>
<stop offset="0.41" stop-color="#0054A4"/>
</radialGradient>
<radialGradient id="paint2_radial_753_1036" cx="0" cy="0" r="1" gradientUnits="userSpaceOnUse" gradientTransform="translate(43.9891 17.5197) scale(13.2889 13.146)">
<stop stop-color="white"/>
<stop offset="0.41" stop-color="#0054A4"/>
</radialGradient>
<clipPath id="clip0_753_1036">
<rect width="112.503" height="46.5157" fill="white" transform="translate(0.208984 0.956055)"/>
</clipPath>
</defs>
</svg>
