<svg width="121" height="35" viewBox="0 0 121 35" fill="none" xmlns="http://www.w3.org/2000/svg">
<g clip-path="url(#clip0_753_1174)">
<path d="M46.9022 12.5063L46.1458 17.2087C45.5761 16.8373 45.1596 16.4901 44.3122 16.4901C43.0292 16.4901 41.8755 16.8132 40.8462 17.8116C40.3818 18.2649 39.951 18.8099 39.5632 19.4224C39.5249 19.4803 39.5057 19.5478 39.5057 19.6202V28.3304C39.5057 29.8834 39.5775 31.147 39.7259 32.0826C39.8361 32.8061 40.018 33.4716 40.2669 34.0793H34.0721C34.0194 34.2288 33.9668 34.3783 33.9045 34.523H40.7026C40.4584 33.9153 40.2765 33.2449 40.1616 32.5263C40.0132 31.5907 39.9414 30.3271 39.9414 28.7741V20.0639C39.9414 19.9964 39.9605 19.924 39.9988 19.8661C40.3866 19.2488 40.7313 18.6797 41.1957 18.2263C42.2249 17.228 43.3691 16.8422 44.6521 16.8422C45.4995 16.8422 46.0117 17.281 46.5814 17.6524L47.3809 12.6655C47.2421 12.6076 47.0745 12.5546 46.8974 12.5063H46.9022Z" fill="#BB7C17"/>
<path d="M39.9365 14.5077L39.9461 12.8486H39.5008L39.4817 15.0816C39.6014 14.9225 39.8024 14.6331 39.9317 14.5077H39.9365Z" fill="#BB7C17"/>
<path d="M26.4934 7.53848C25.0907 6.69447 23.9322 5.99997 22.8024 5.64307C21.5002 5.23312 20.1646 4.87623 18.4842 4.87623C15.2911 4.87623 12.591 6.06267 10.4606 8.40179C8.33985 10.7313 7.2627 13.6974 7.2627 17.2181C7.2627 20.7388 8.31112 23.84 10.1016 26.2466C10.4941 26.7771 10.9154 27.245 11.3559 27.6646C11.0734 27.3655 10.8053 27.0424 10.5468 26.6903C8.75635 24.2789 7.70792 21.2935 7.70792 17.6618C7.70792 14.0301 8.78507 11.1798 10.9059 8.8455C13.0362 6.50638 15.6214 5.26688 18.8193 5.26688C20.4997 5.26688 21.9838 5.68648 23.2859 6.09643C24.4157 6.4485 25.536 7.13818 26.9387 7.98701V2.43582C26.7903 2.38759 26.6418 2.34419 26.4982 2.30078V7.53848H26.4934Z" fill="#BB7C17"/>
<path d="M28.6431 30.2689C28.4659 28.9956 28.375 27.2256 28.375 25.0023V23.6518C28.375 22.1519 28.4659 20.8835 28.6431 19.89C28.7867 19.0893 29.0165 18.3177 29.3181 17.5942H28.7053C28.4851 18.1875 28.3175 18.8096 28.2026 19.4462C28.0255 20.4398 27.9345 21.7082 27.9345 23.2081V24.5585C27.9345 26.7819 28.0255 28.5519 28.2026 29.8252C28.3558 30.9393 28.6096 31.9087 28.9542 32.7238C25.6893 33.9343 21.9312 34.5517 17.7854 34.5517C12.8688 34.5517 8.31603 33.3893 5.05585 30.2834C4.99361 30.2207 4.93138 30.158 4.86914 30.0953C5.07021 30.3075 5.28085 30.5197 5.49628 30.7271C9.48892 34.5324 13.2661 34.9954 18.2258 34.9954C22.3717 34.9954 26.1297 34.378 29.3947 33.1675C29.05 32.3524 28.8011 31.383 28.6431 30.2689Z" fill="#BB7C17"/>
<path d="M119.966 5.45947C120.143 5.85013 120.244 6.28419 120.263 6.76166C120.301 7.74072 120 8.56062 119.334 9.25994C118.669 9.96409 117.855 10.3258 116.85 10.3692C115.849 10.4078 115.011 10.1136 114.288 9.46733C114.059 9.26476 113.872 9.04291 113.714 8.80659C113.901 9.21654 114.173 9.5879 114.542 9.91586C115.265 10.567 116.103 10.8612 117.103 10.8177C118.109 10.7792 118.922 10.4126 119.588 9.70847C120.253 9.00915 120.555 8.18925 120.517 7.2102C120.488 6.53981 120.306 5.96588 119.966 5.45947Z" fill="#BB7C17"/>
<path d="M56.7343 15.3466C56.7343 15.3466 56.7247 15.3466 56.7199 15.3466C56.7151 15.3466 56.7055 15.3466 56.7008 15.3466C55.6954 15.3659 54.8528 15.935 54.1874 17.0491C53.6943 17.8979 53.3353 19.8368 53.2156 21.0377C53.2156 21.0763 53.2156 21.1148 53.2251 21.1534C53.364 21.1438 53.5028 21.1341 53.6321 21.139C53.6321 21.139 53.6369 21.139 53.6416 21.139C53.7901 19.9332 54.13 18.2307 54.58 17.4446C55.2454 16.3353 56.0928 15.7614 57.0933 15.7421H57.1125C57.1125 15.7421 57.122 15.7421 57.1268 15.7421C57.912 15.7421 58.5726 15.9784 59.1136 16.4318C58.5199 15.718 57.7205 15.3466 56.7343 15.3418V15.3466Z" fill="#BB7C17"/>
<path d="M64.9443 29.3719L64.906 32.0534C64.5374 32.608 62.8044 33.8524 61.0522 34.2912C60.4873 34.4311 59.8458 34.5517 59.1038 34.5517C56.0399 34.5517 53.2967 33.5919 51.2334 31.6483C51.3579 31.7833 51.4871 31.9184 51.6212 32.0438C53.6989 34.0163 56.4564 34.9954 59.5442 34.9954C60.2863 34.9954 60.9278 34.8796 61.4927 34.7349C63.2448 34.2961 64.9826 33.0517 65.3465 32.4971L65.3991 28.7642C65.3896 28.9523 65.1981 29.1645 64.9443 29.367V29.3719Z" fill="#BB7C17"/>
<path d="M63.6041 14.4062C63.4127 14.1795 63.2068 13.9673 62.9914 13.7695C63.0488 13.8322 63.1063 13.8949 63.1637 13.9624C64.5903 15.6408 65.2558 19.504 65.2558 22.5135C65.2414 23.3816 65.1983 24.2208 65.1265 25.0166H53.6848C53.5795 25.0166 53.4789 25.0697 53.4119 25.1516C53.3449 25.2385 53.3401 25.3494 53.3401 25.4603C53.3544 26.2561 54.1587 27.8959 54.872 28.6145C54.9678 28.711 55.0683 28.8074 55.1689 28.8991C54.5178 28.0743 53.7901 26.4635 53.7757 25.904C53.7757 25.7931 53.7805 25.6822 53.8475 25.5954C53.9146 25.5085 54.0151 25.4603 54.1204 25.4603H65.5622C65.634 24.6645 65.6771 23.8253 65.6914 22.9572C65.6914 19.9525 65.0308 16.0845 63.6041 14.411V14.4062Z" fill="#BB7C17"/>
<path d="M120.162 28.7735V21.052C120.162 19.0312 120.234 17.3384 120.382 16.0169C120.511 14.8979 120.717 13.8321 121 12.853H120.439C120.219 13.7115 120.047 14.6182 119.937 15.5732C119.793 16.8946 119.721 18.5875 119.721 20.6083V28.3298C119.721 29.8731 119.793 31.1368 119.942 32.082C120.056 32.8103 120.238 33.4807 120.482 34.0787H114.288C114.235 34.2283 114.182 34.3778 114.12 34.5225H120.918C120.674 33.9196 120.492 33.254 120.377 32.5258C120.229 31.5756 120.157 30.3169 120.157 28.7687L120.162 28.7735Z" fill="#BB7C17"/>
<path d="M98.5225 18.9784V11.3871C98.5225 9.34215 98.5943 7.6493 98.7379 6.35193C98.8576 5.26677 99.0586 4.23467 99.3267 3.2749L98.7475 3.37136C98.5464 4.17679 98.3932 5.02563 98.2975 5.90822C98.1538 7.20559 98.082 8.89844 98.082 10.9434V19.533C98.2304 19.3497 98.3788 19.1616 98.5225 18.9784Z" fill="#BB7C17"/>
<path d="M98.5232 28.7738V25.7932C98.3748 25.5762 98.2263 25.3591 98.0827 25.1421V28.3252C98.0827 29.883 98.1545 31.1466 98.3029 32.0775C98.4178 32.8009 98.595 33.4713 98.8439 34.0742H92.6491C92.5964 34.2237 92.5438 34.3732 92.4863 34.5179H99.2843C99.0402 33.915 98.8583 33.2446 98.7434 32.5212C98.5998 31.5903 98.5232 30.3267 98.5232 28.7689V28.7738Z" fill="#BB7C17"/>
<path d="M109.935 33.3848C109.332 32.4588 108.447 30.9685 107.307 28.9573L103.257 21.559C103.185 21.4287 103.2 21.2648 103.295 21.149L105.603 18.371C107.422 16.2296 108.734 14.7442 109.605 13.823C110.002 13.4034 110.323 13.0899 110.577 12.8584H109.672C109.519 13.0127 109.351 13.1815 109.16 13.3793C108.289 14.3005 106.977 15.7859 105.158 17.9273L102.85 20.7053C102.754 20.8211 102.74 20.985 102.812 21.1153L106.862 28.5136C108.001 30.5296 108.887 32.0199 109.49 32.9459C109.797 33.4185 110.065 33.7947 110.299 34.0841H104.459L104.732 34.5278H110.74C110.505 34.2384 110.237 33.8574 109.931 33.3896L109.935 33.3848Z" fill="#BB7C17"/>
<path d="M80.8776 17.2714C80.3127 16.5479 79.5372 16.2778 78.6084 16.2778C77.4738 16.2778 76.9377 16.654 76.0951 17.3341C75.827 17.5414 75.5685 17.7922 75.3052 18.1009C75.2477 18.1684 75.2142 18.2504 75.2142 18.342V28.3303C75.2142 29.9219 75.286 31.1517 75.4344 32.0826C75.5493 32.8108 75.7313 33.4812 75.9706 34.0793H69.7806C69.7279 34.2288 69.6753 34.3783 69.613 34.523H76.4111C76.1669 33.9249 75.9898 33.2545 75.8749 32.5263C75.7265 31.5955 75.6547 30.3656 75.6547 28.774V18.7858C75.6547 18.6989 75.6882 18.6121 75.7456 18.5446C76.0089 18.2359 76.2674 17.9851 76.5355 17.7778C77.3781 17.0977 77.7419 16.7842 78.8765 16.7601C79.925 16.736 80.576 17.1122 81.0835 17.5125C81.0213 17.4305 80.9399 17.3582 80.8776 17.2714Z" fill="#BB7C17"/>
<path d="M75.3487 14.7055C75.4493 14.5608 75.5498 14.4161 75.6599 14.2714V12.8486H75.2195V14.855C75.2626 14.8019 75.3057 14.7537 75.3487 14.7055Z" fill="#BB7C17"/>
<path d="M88.0206 32.526C87.877 31.5999 87.8004 30.3363 87.8004 28.7737V18.1681C87.8004 16.3402 87.4892 14.7969 86.4887 13.7889C86.4169 13.7165 86.3355 13.649 86.2541 13.5767C87.1158 14.5702 87.36 16.0315 87.36 17.7244V28.33C87.36 29.8926 87.4318 31.1562 87.5802 32.0822C87.6903 32.8057 87.8722 33.4761 88.1164 34.0789H81.9216C81.8689 34.2284 81.8162 34.378 81.7588 34.5226H88.5568C88.3127 33.9198 88.1307 33.2494 88.0206 32.526Z" fill="#BB7C17"/>
<path d="M27.6565 19.1133C27.8001 18.3127 28.0299 17.541 28.3315 16.8176H20.2887C20.5903 17.5458 20.8154 18.3175 20.959 19.1133C21.1361 20.102 21.2271 21.3656 21.2271 22.8752V28.5276C21.2271 28.6964 21.1265 28.8411 20.9733 28.8942C19.4893 29.415 17.9094 29.6755 16.277 29.6755C13.529 29.6755 11.2263 28.436 9.41191 25.9956C7.62144 23.5841 6.71185 20.5216 6.71185 16.8899C6.71185 13.2582 7.789 10.4079 9.90979 8.07358C12.0402 5.73446 14.7402 4.54802 17.9334 4.54802C19.6137 4.54802 21.1265 4.75541 22.4287 5.16536C23.5585 5.51743 24.8415 6.12512 26.2442 6.96913V1.41794C24.5255 0.882596 23.0606 0.506408 21.8877 0.303845C20.6909 0.101282 19.2499 0 17.5935 0C12.5668 0 8.33476 1.70732 5.01234 5.08337C1.68514 8.44977 0 12.7374 0 17.8159C0 22.4893 1.65163 26.4345 4.90702 29.5356C8.17199 32.6464 12.3178 34.2235 17.2344 34.2235C21.3803 34.2235 25.1383 33.6062 28.4033 32.3956C28.0586 31.5805 27.8097 30.6063 27.6517 29.497C27.4745 28.2238 27.3836 26.4538 27.3836 24.2304V22.88C27.3836 21.38 27.4745 20.1116 27.6517 19.1181L27.6565 19.1133Z" fill="#26231E"/>
<path d="M42.7989 11.9125C40.5154 13.2484 38.9212 16.4653 38.9212 16.311L38.9547 12.0716H32.9131C33.1572 12.6793 33.3392 13.3497 33.4541 14.078C33.6025 15.0184 33.6743 16.2772 33.6743 17.8206V27.9921C33.6743 29.5451 33.6025 30.8039 33.4636 31.7347C33.3439 32.4678 33.1572 33.143 32.9131 33.7411H39.7111C39.467 33.1334 39.285 32.4678 39.1749 31.7444C39.0265 30.8087 38.9547 29.5451 38.9547 27.9921V19.2819C38.9547 19.2144 38.9739 19.1469 39.0122 19.0842C39.3999 18.4668 39.8308 17.9267 40.2952 17.4733C41.3244 16.475 42.4973 15.9686 43.7803 15.9686C44.6277 15.9686 45.341 16.1566 45.9107 16.528L46.6288 11.9173C45.6857 11.5266 43.7708 11.3434 42.8037 11.9076L42.7989 11.9125Z" fill="#26231E"/>
<path d="M56.6537 11.5991C54.0638 11.5991 52.0005 12.7035 50.3057 14.9799C48.611 17.2467 48.0078 20.1115 48.0078 23.5551C48.0078 26.5935 49.1951 29.3089 51.0238 31.0451C53.1015 33.0177 55.4617 34.2234 58.5543 34.2234C59.2964 34.2234 59.9379 34.1077 60.5028 33.963C62.2549 33.5241 63.9927 32.2798 64.3566 31.7251L64.4092 27.9922C64.3805 28.4938 63.1358 29.1352 62.6236 29.3957C61.8528 29.796 60.7852 30.2734 59.9762 30.341C57.6782 30.5339 55.6388 29.9792 54.1212 28.4456C53.4031 27.7221 52.7999 25.711 52.7856 25.1177C52.7856 25.0068 52.7904 24.8959 52.8574 24.8091C52.9244 24.7223 53.0249 24.674 53.1303 24.674H64.572C64.6438 23.8782 64.6869 23.0391 64.7013 22.1709C64.7013 19.1662 64.031 15.7805 62.6044 14.107C61.1921 12.4383 59.1862 11.5942 56.6537 11.5942V11.5991ZM60.2155 21.4764C60.1485 21.5439 60.0575 21.5873 59.9666 21.5873H52.8765C52.776 21.5873 52.6803 21.5439 52.6132 21.4668C52.5462 21.3896 52.5127 21.2883 52.5271 21.1822C52.6659 19.8318 53.068 17.6615 53.6186 16.7114C54.3654 15.4671 55.3133 14.8256 56.4383 14.8015C56.4431 14.8015 56.4527 14.8015 56.4623 14.8015C56.467 14.8015 56.4718 14.8015 56.4814 14.8015C57.707 14.8063 58.674 15.3079 59.3586 16.2918C60.0192 17.2419 60.3065 19.5665 60.3208 21.216C60.3208 21.3124 60.2826 21.4089 60.2203 21.4764H60.2155Z" fill="#26231E"/>
<path d="M86.8082 27.9971V17.3915C86.8082 15.5636 86.3007 14.1263 85.3002 13.1183C84.2996 12.1104 82.873 11.5991 81.0586 11.5991C80.3309 11.5991 79.1149 11.7679 78.5644 12.1152C76.1085 13.6633 74.6579 15.9494 74.6627 15.9446V12.0718H68.6211C68.8652 12.6698 69.0424 13.345 69.1573 14.0781C69.3057 15.0186 69.3775 16.2436 69.3775 17.8255V27.9971C69.3775 29.5549 69.3057 30.8137 69.1716 31.7397C69.052 32.4776 68.8652 33.148 68.6211 33.7508H75.4191C75.175 33.1528 74.993 32.4824 74.8829 31.7541C74.7345 30.8233 74.6627 29.5935 74.6627 28.0019V18.0136C74.6627 17.9268 74.6962 17.84 74.7537 17.7725C75.017 17.4638 75.2755 17.213 75.5436 17.0056C76.3862 16.3256 77.3915 15.9832 78.5261 15.9832C79.4501 15.9832 80.1921 16.2532 80.7235 16.7886C81.2549 17.3239 81.5278 18.0715 81.5278 19.0023V28.0019C81.5278 29.5549 81.4559 30.8185 81.3075 31.7541C81.1926 32.4776 81.0155 33.148 80.7666 33.7508H87.5646C87.3204 33.148 87.1385 32.4776 87.0236 31.7541C86.88 30.8281 86.8034 29.5645 86.8034 28.0019L86.8082 27.9971Z" fill="#26231E"/>
<path d="M109.588 12.0716H103.589C103.417 12.6938 103.129 13.3401 102.737 14.0056C102.287 14.7628 101.588 15.7178 100.659 16.8415L96.8532 21.5101C96.7575 21.6307 97.5283 20.7818 97.5283 20.6275V10.6151C97.5283 8.57018 97.6001 6.87733 97.7437 5.57996C97.8634 4.4948 98.0644 3.46269 98.3325 2.50293L91.4531 3.6315C91.7164 4.25365 91.9079 4.95298 92.0276 5.71982C92.176 6.66029 92.2478 7.91908 92.2478 9.46242V28.0018C92.2478 29.5596 92.176 30.8232 92.0276 31.754C91.9127 32.4774 91.7356 33.1478 91.4914 33.7507H98.2894C98.0453 33.1478 97.8634 32.4774 97.7485 31.754C97.6049 30.8232 97.5283 29.5596 97.5283 28.0018V23.3862C97.5283 23.0534 96.8149 22.4554 96.9825 22.7399L103.737 33.7507H109.746C109.511 33.4613 109.243 33.0803 108.936 32.6125C108.333 31.6865 107.448 30.1962 106.308 28.185L102.258 20.7867C102.186 20.6564 102.201 20.4925 102.296 20.3767L104.604 17.5987C106.423 15.4573 107.735 13.9719 108.606 13.0507C109.004 12.6311 109.319 12.3176 109.578 12.0861L109.588 12.0716Z" fill="#26231E"/>
<path d="M116.552 10.0991C117.495 10.0991 118.271 9.78077 118.927 9.12003C119.578 8.46893 119.894 7.68762 119.894 6.73268C119.894 5.77774 119.578 5.00124 118.927 4.34533C118.276 3.68941 117.5 3.37109 116.552 3.37109C115.604 3.37109 114.834 3.68941 114.183 4.34533C113.532 4.99642 113.216 5.77774 113.216 6.73268C113.216 7.68762 113.532 8.46411 114.183 9.12003C114.834 9.77594 115.609 10.0991 116.552 10.0991Z" fill="#26231E"/>
<path d="M119.176 27.9972V20.2756C119.176 18.2548 119.248 16.562 119.392 15.2405C119.521 14.1216 119.727 13.0557 120.009 12.0767H113.135C113.379 12.6795 113.561 13.3547 113.671 14.083C113.819 15.0235 113.891 16.2485 113.891 17.8256V27.9972C113.891 29.5598 113.819 30.8186 113.685 31.7397C113.566 32.4728 113.379 33.148 113.135 33.7461H119.933C119.689 33.1432 119.507 32.4777 119.392 31.7494C119.243 30.8041 119.172 29.5405 119.172 27.9972H119.176Z" fill="#26231E"/>
</g>
<defs>
<clipPath id="clip0_753_1174">
<rect width="121" height="35" fill="white"/>
</clipPath>
</defs>
</svg>
