<svg width="132" height="77" viewBox="0 0 132 77" fill="none" xmlns="http://www.w3.org/2000/svg">
<g clip-path="url(#clip0_753_894)">
<path d="M131.216 43.3376C122.682 39.399 115.357 41.7441 115.357 41.7441L112.923 47.4607C112.923 47.4607 95.7023 40.2688 66.431 39.9766H66.3227C37.0444 40.2723 20.2675 47.4224 20.2675 47.4224L17.8015 41.6362C17.8015 41.6362 8.64284 40.3663 1.53809 44.0822L4.14037 53.9323L2.52311 64.4992C10.6583 60.6371 18.0006 63.7338 18.0006 63.7338C19.1183 68.076 20.2815 68.5666 20.3723 68.6466C22.1049 68.9633 23.9771 68.0517 23.9771 68.0517C41.6447 61.406 57.681 60.6093 64.5902 60.6232L68.174 60.6615C75.0796 60.6441 91.116 61.4443 108.784 68.0899C108.784 68.0899 110.656 68.998 112.388 68.6814C112.476 68.5979 113.642 68.1073 114.76 63.7685C114.76 63.7685 122.102 60.6684 130.241 64.5305L128.62 53.9637L131.223 43.3272L131.216 43.3376Z" fill="#C01B1B"/>
<path d="M111.61 69.3602C110.115 69.3602 108.76 68.7548 108.543 68.6539C91.4591 62.2344 76.034 61.2741 68.3564 61.2741H68.1678L64.3884 61.2359C56.7143 61.2359 41.2962 62.1962 24.2084 68.6156C23.9919 68.7165 22.6331 69.3254 21.1416 69.3254C20.8377 69.3254 20.5408 69.2976 20.2614 69.2489C20.167 69.2315 20.0762 69.1932 19.9994 69.1341C19.0388 68.4869 18.197 66.8272 17.4914 64.1968C16.7125 63.9185 14.3268 63.1704 11.1691 63.1704C8.23147 63.1704 5.40913 63.8036 2.7789 65.0527C2.57631 65.1502 2.33529 65.1258 2.15715 64.9936C1.97551 64.8614 1.8847 64.6387 1.91963 64.4195L3.51942 53.9779L0.952066 44.2391C0.882206 43.9677 1.00446 43.6824 1.25596 43.5502C5.56282 41.299 10.5753 40.8258 14.0229 40.8258C16.3073 40.8258 17.8232 41.0311 17.8861 41.0416C18.0957 41.0694 18.2773 41.2086 18.3612 41.4034L20.5967 46.6468C23.7718 45.4256 40.1959 39.6394 66.32 39.3784H66.4073C92.5978 39.6359 109.385 45.4743 112.599 46.6886L114.799 41.5113C114.869 41.3512 115.005 41.226 115.17 41.1738C115.26 41.1459 117.464 40.4501 120.867 40.4501C124.534 40.4501 128.101 41.2364 131.468 42.7917C131.73 42.9135 131.87 43.2023 131.8 43.4806L129.225 53.9988L130.829 64.4473C130.864 64.6665 130.773 64.8892 130.588 65.0214C130.41 65.1536 130.172 65.178 129.969 65.0806C127.339 63.8315 124.517 63.2017 121.579 63.2017C118.408 63.2017 116.032 63.9498 115.257 64.2281C114.548 66.869 113.706 68.5286 112.749 69.1654C112.759 69.1584 112.773 69.1445 112.784 69.1341C112.7 69.2106 112.595 69.2628 112.483 69.2837C112.204 69.3359 111.907 69.3602 111.603 69.3602H111.61ZM68.3564 60.0668C76.1179 60.0668 91.7176 61.0375 108.994 67.5335C109.011 67.5405 109.029 67.5475 109.046 67.5544C109.057 67.5579 110.304 68.1529 111.61 68.1529C111.795 68.1529 111.973 68.139 112.141 68.1181C112.463 67.8641 113.318 66.9142 114.164 63.6262C114.209 63.4453 114.338 63.2957 114.513 63.2226C114.632 63.1739 117.461 61.9978 121.579 61.9978C124.321 61.9978 126.969 62.5163 129.463 63.5427L128.013 54.0649C127.999 53.9883 128.003 53.9083 128.024 53.8317L130.507 43.6824C127.433 42.3359 124.195 41.6539 120.867 41.6539C118.313 41.6539 116.455 42.0749 115.795 42.2454L113.475 47.6976C113.343 48.0038 112.99 48.1464 112.686 48.0177C112.515 47.9446 95.2176 40.8676 66.4178 40.5788H66.341C37.4993 40.8711 20.663 47.9064 20.4989 47.976C20.3522 48.0386 20.1845 48.0421 20.0343 47.9794C19.8841 47.9203 19.7653 47.8055 19.7025 47.6559L17.3726 42.1898C16.8138 42.1306 15.5982 42.0262 14.0124 42.0262C10.8163 42.0262 6.22998 42.4437 2.23749 44.3957L4.71402 53.7761C4.73498 53.8561 4.73847 53.9396 4.728 54.0196L3.2784 63.4975C5.77589 62.471 8.42359 61.9526 11.1621 61.9526C15.2803 61.9526 18.1097 63.1252 18.2284 63.1774C18.4031 63.2504 18.5323 63.4 18.5777 63.5844C19.423 66.869 20.2788 67.8223 20.6002 68.0763C20.7678 68.1007 20.9495 68.1111 21.1346 68.1111C22.4445 68.1111 23.688 67.5161 23.702 67.5127C23.7194 67.5057 23.7369 67.4987 23.7544 67.4918C41.0307 60.9958 56.6269 60.025 64.3849 60.025H64.5805L68.1713 60.0633H68.3529L68.3564 60.0668Z" fill="#8C734B"/>
<path d="M66.5606 41.2573C39.5388 41.2921 18.2979 50.0567 18.2979 50.0567L20.6242 65.2615C21.6162 67.6554 23.8797 66.5176 23.8797 66.5176C42.7453 59.4475 60.2732 59.1448 65.6978 59.2457V59.3049C65.6978 59.3049 65.9947 59.2875 66.5571 59.2666C67.116 59.284 67.4164 59.3049 67.4164 59.3049V59.2457C72.8445 59.1413 90.3689 59.444 109.235 66.5176C109.235 66.5176 112.616 67.4083 113.199 64.2908L114.757 49.8479C114.757 49.8479 94.0575 41.2956 66.5571 41.2643L66.5606 41.2573Z" fill="#E1251B"/>
<path d="M115.05 56.1697C115.05 56.1697 115.061 56.1697 115.064 56.1697L116.221 43.6022C116.221 43.6022 123.091 41.9843 129.012 45.2758L126.633 53.6541L127.112 56.6777L128.023 62.4361C128.023 62.4361 123.458 59.4334 114.76 60.8182L115.05 56.1697Z" fill="#E1251B"/>
<path fill-rule="evenodd" clip-rule="evenodd" d="M63.121 33.4949C68.5247 33.4949 72.9084 33.7455 72.9084 34.0586C72.9084 34.3717 68.5282 34.6223 63.121 34.6223C57.7138 34.6223 53.3336 34.3717 53.3336 34.0586C53.3336 33.7455 57.7138 33.4949 63.121 33.4949ZM70.9977 35.0502C75.2173 35.0502 78.6369 35.2486 78.6369 35.4886C78.6369 35.7287 75.2173 35.927 70.9977 35.927C66.7782 35.927 63.3585 35.7322 63.3585 35.4886C63.3585 35.2451 66.7782 35.0502 70.9977 35.0502ZM82.3604 26.1221C82.9647 25.214 83.2337 24.2816 83.342 23.3491C83.6563 20.6352 83.2896 18.391 83.7611 17.3437C84.2327 16.2999 84.4947 16.2477 84.4947 16.2477L84.2327 13.6381C84.2327 13.6381 82.8704 14.6298 82.4513 16.1955C82.0321 17.7612 82.9228 20.4751 79.5695 22.3053C79.2202 22.4932 78.7906 22.6393 78.2981 22.7471L82.3604 26.1221ZM85.4482 30.1234C83.0416 30.026 80.2262 29.9529 77.1454 29.9077C79.3111 28.9752 80.7397 27.994 81.6758 26.985L85.4482 30.1199V30.1234ZM82.8844 19.4209C82.8844 19.4209 82.9438 21.7381 82.5525 22.7924C82.1578 23.8466 81.4627 24.4799 81.4627 24.4799C81.4627 24.4799 82.5525 21.5885 82.8844 19.4209ZM57.9968 14.6054C57.9968 14.6054 57.658 19.8906 59.2962 23.6587C60.9344 27.4269 62.4573 28.4951 62.4573 28.4951C62.4573 28.4951 56.135 24.7269 57.9968 14.6054ZM64.2527 8.69046L64.2807 10.0926L64.9164 9.51159L64.7557 8.77048C64.7557 8.77048 64.3051 8.6661 64.2527 8.69046ZM60.0577 6.83943L60.2428 8.26598L58.8875 7.31263C58.8875 7.31263 60.0297 6.8116 60.0542 6.83595L60.0577 6.83943ZM56.1909 23.3978C56.907 26.3448 58.8735 28.5542 61.4409 29.9669C53.5572 30.1443 48.0802 30.5375 48.0802 30.9933C48.0802 31.1986 49.2084 31.3934 51.175 31.5604C46.8925 31.6926 44.1436 31.8944 44.1436 32.1206C44.1436 32.5103 52.1146 32.8234 62.0347 32.8339C63.7393 33.1122 68.3361 33.3105 73.7397 33.3105C80.5965 33.3105 86.1538 32.9904 86.1538 32.5973C86.1538 32.3537 84.0371 32.138 80.8095 32.0092C88.4906 31.8283 93.793 31.4386 93.793 30.9898C93.793 30.6627 90.9951 30.3705 86.5241 30.1652L64.4239 11.801C64.4309 11.5401 64.4344 11.3835 64.4344 11.3835L65.9224 10.1135L65.87 8.29033L66.1634 8.2625V7.86585L65.8455 7.49703C65.8455 7.49703 65.7408 5.93827 65.4194 5.4616C65.1015 4.98492 63.6659 4.45606 63.6659 4.45606L63.4284 4.42822L63.4773 4.21598C63.4773 4.21598 64.0012 4.14639 64.0816 4.08724C64.1619 4.03157 64.1619 3.57577 64.1619 3.57577L64.4239 3.55142L64.2842 2.96688C65.0002 2.96688 65.4858 2.88338 65.4997 2.74072C65.5137 2.60851 65.112 2.45194 64.4903 2.3232V1.02191C63.6974 0.86186 62.866 0.837504 61.9823 1.02191V2.06224C61.1719 2.05181 60.6061 2.13183 60.5921 2.28493C60.5781 2.43106 61.0671 2.60503 61.8041 2.7442H61.7867C61.7867 2.7442 61.9928 3.37397 62.129 3.60013C62.2198 3.75322 62.1534 4.08028 62.0976 4.27513H62.0731C62.0731 4.35168 60.5851 4.24729 59.9494 4.51173C59.3136 4.77616 57.6649 6.15051 57.3226 6.52281C56.9768 6.89162 56.8965 7.05167 57.1096 7.39613C57.3226 7.74059 57.8012 7.95283 58.5976 8.26945C59.394 8.58608 60.3231 9.24716 60.3231 9.24716C60.3231 9.24716 59.8446 11.3104 60.0856 13.6347C60.3231 15.9624 63.0581 19.4 63.0581 19.4C63.0581 19.4 63.2957 19.0033 63.8266 17.3889C64.1759 16.3242 64.3296 14.0487 64.396 12.6256L76.824 22.9524C72.2901 23.3178 65.2098 21.8564 65.2098 21.8564C65.2098 21.8564 68.7447 25.2662 72.3076 25.7881C75.6609 26.2787 79.5032 25.6246 79.9433 25.5446H79.9468C79.4927 25.6907 74.9169 27.0581 71.3365 26.2161C67.5641 25.3288 63.5262 22.1974 60.9064 17.7577C58.2867 13.3215 59.7538 9.66468 59.7538 9.66468L58.7583 9.29935C56.7149 14.3862 54.6924 17.2393 56.1909 23.3943V23.3978Z" fill="#494949"/>
<path d="M34.8407 59.0472C35.0119 59.743 35.0992 60.0875 35.2704 60.7834C32.4445 61.4793 31.0369 61.8655 28.2459 62.7214C26.9221 58.4348 25.5983 54.1447 24.2744 49.8581C25.5703 49.4615 26.2165 49.2701 27.5194 48.9048C28.5778 52.6486 29.6397 56.3924 30.698 60.1397C32.3502 59.6769 33.1781 59.4577 34.8407 59.0472Z" fill="white"/>
<path d="M41.3982 57.4746C40.5319 57.6416 40.0988 57.7286 39.2325 57.9095C39.2535 58.6924 39.2674 59.0821 39.2954 59.8615C38.1741 60.0981 37.6152 60.2233 36.501 60.4878C36.5848 57.0223 36.742 53.5499 36.976 50.0914C38.3558 49.7956 39.0509 49.6565 40.4376 49.3955C41.992 52.4956 43.48 55.6375 44.8946 58.8003C43.7769 58.9882 43.218 59.0856 42.1037 59.2978C41.8243 58.5671 41.6846 58.2018 41.4017 57.4746H41.3982ZM40.8113 55.9228C40.1302 54.2075 39.7844 53.3481 39.0788 51.6397C39.1068 53.4873 39.1242 54.4093 39.1731 56.2534C39.8263 56.1177 40.1547 56.0516 40.8113 55.9228Z" fill="white"/>
<path d="M46.8779 43.606C46.6264 45.1612 46.5076 45.9371 46.2841 47.4959C45.5855 47.5968 45.2396 47.649 44.5445 47.7569C44.4572 46.2433 44.4153 45.4883 44.335 43.9748C45.3514 43.8182 45.8614 43.7451 46.8814 43.606H46.8779Z" fill="white"/>
<path d="M65.6004 48.164C65.3803 51.0693 62.4986 52.5689 58.8799 53.1743C58.9707 54.7957 59.0161 55.6064 59.1069 57.2243C57.8948 57.2904 57.2905 57.3322 56.082 57.4261C55.7257 52.9551 55.3729 48.4806 55.0166 44.0096C56.3509 43.9053 57.0216 43.86 58.3594 43.787C61.3075 43.4912 65.9043 44.201 65.6039 48.164H65.6004ZM58.4432 45.3423C58.583 47.8683 58.6563 49.1313 58.796 51.6573C60.7451 51.1632 62.0236 50.1786 62.2227 48.4702C62.4462 46.567 61.4193 45.4432 58.4432 45.3388V45.3423Z" fill="white"/>
<path d="M72.7086 54.7781C71.4477 54.7154 70.8154 54.6945 69.5545 54.6632C69.3449 55.6201 69.2401 56.0967 69.0375 57.057C67.78 57.0292 67.1513 57.0257 65.8938 57.0292C67.1303 52.5199 68.4961 48.0489 69.9806 43.6162C71.2276 43.6475 71.8529 43.6719 73.0999 43.731C74.256 48.2612 75.2865 52.8226 76.1877 57.4085C74.9407 57.3145 74.3189 57.2728 73.0719 57.2067C72.9322 56.2359 72.8588 55.7523 72.7121 54.7815L72.7086 54.7781ZM72.4432 52.9757C72.0589 50.5019 71.8529 49.2667 71.4232 46.7929C70.8224 49.225 70.5325 50.4427 69.9736 52.8818C70.9621 52.9096 71.4547 52.927 72.4432 52.9723V52.9757Z" fill="white"/>
<path d="M77.7303 55.4288C78.2054 55.8567 81.1604 57.085 81.4224 55.1817C81.7612 52.7114 78.1914 50.0531 78.5023 47.1931C78.7328 45.0776 80.0811 43.2684 85.6 44.9698C85.5057 45.6482 85.4603 45.9857 85.366 46.6642C83.0921 46.2537 82.1559 46.8278 82.0686 47.8577C81.859 50.3906 84.7582 51.5841 84.6779 54.6076C84.5417 59.7919 78.0831 57.6382 77.5557 57.3807C77.6255 56.5979 77.657 56.2082 77.7268 55.4253L77.7303 55.4288Z" fill="white"/>
<path d="M96.6707 46.6572C96.482 47.4226 96.3877 47.8054 96.1991 48.5708C95.1547 48.3447 94.6307 48.2368 93.5828 48.0315C92.8284 51.8414 92.0739 55.6514 91.3194 59.4647C90.1248 59.2316 89.5275 59.1203 88.3259 58.9115C88.9896 55.0842 89.6532 51.2569 90.3204 47.4296C88.3433 47.0886 87.3548 46.9355 85.3708 46.6676C84.4626 45.7595 84.0016 45.3106 83.0654 44.4199C87.6343 44.9488 92.1752 45.6969 96.6707 46.6606V46.6572Z" fill="white"/>
<path d="M101.468 59.3884C100.239 59.0509 99.6241 58.8874 98.3911 58.5777C97.9755 59.465 97.7694 59.9103 97.3572 60.7976C96.1277 60.4949 95.5094 60.3488 94.2764 60.0774C96.4839 55.9508 98.8068 51.8869 101.245 47.8926C102.464 48.1988 103.072 48.3588 104.287 48.6928C104.427 53.3656 104.438 58.0454 104.315 62.7217C103.107 62.3529 102.502 62.1754 101.29 61.8344C101.367 60.8567 101.402 60.3661 101.468 59.3884ZM101.605 57.5722C101.772 55.074 101.842 53.8214 101.964 51.3163C100.836 53.557 100.284 54.6808 99.198 56.939C100.162 57.1825 100.644 57.3113 101.608 57.5722H101.605Z" fill="white"/>
<path d="M37.6495 70.5573C38.6031 69.9554 39.637 69.4892 40.6744 69.0577C42.7842 68.1914 44.9429 67.4642 47.1714 66.9666C48.6 66.6465 50.0392 66.4169 51.5062 66.396C51.9882 66.396 52.4598 66.4273 52.9139 66.6117C53.1235 66.6917 53.3226 66.8031 53.4798 66.9597C53.7627 67.2345 53.8291 67.5685 53.6824 67.9374C53.5636 68.2262 53.3785 68.4627 53.1619 68.6854C52.6414 69.2213 52.0581 69.6666 51.4399 70.0807C50.0776 70.9992 48.6245 71.7438 47.1644 72.4849C46.5392 72.7981 45.9139 73.1008 45.2887 73.4069C45.2223 73.4348 45.1699 73.4661 45.1385 73.5252C44.7368 74.2211 44.3351 74.8996 43.9893 75.6233C43.9369 75.7207 43.902 75.8077 44.0417 75.8738C44.1255 75.9191 44.122 75.9852 44.0207 76.0304C43.8181 76.1209 43.626 76.0756 43.4479 75.9573C43.2767 75.846 43.2627 75.6755 43.2977 75.4911C43.371 75.1432 43.5212 74.823 43.6714 74.5029C43.7762 74.2663 43.888 74.0367 44.0068 73.8036C44.0382 73.7375 44.0382 73.6992 43.9753 73.647C43.8426 73.5357 43.8356 73.4696 43.9963 73.3965C44.2722 73.2643 44.4224 73.0312 44.5761 72.7807C45.4249 71.3263 46.3331 69.9032 47.3461 68.5602C47.4788 68.3827 47.622 68.2192 47.7687 68.0557C47.9329 67.8713 48.3031 67.9165 48.4324 68.1218C48.4918 68.2088 48.4533 68.2783 48.4044 68.3444C48.2403 68.6193 48.0691 68.8872 47.898 69.1551C47.2727 70.1363 46.6405 71.121 46.0117 72.1022C45.9733 72.1613 45.9384 72.2205 45.9069 72.2796C45.9139 72.2935 45.9279 72.3005 45.9349 72.3109C46.0536 72.2448 46.1724 72.1787 46.2982 72.1161C47.5032 71.4689 48.7258 70.8461 49.889 70.112C50.6923 69.6075 51.4748 69.0716 52.1699 68.414C52.3865 68.1983 52.596 67.9756 52.7427 67.7077C52.8336 67.5512 52.8929 67.3876 52.8615 67.2032C52.8301 67.0327 52.7358 66.9214 52.5506 66.8901C52.1699 66.81 51.7822 66.824 51.4014 66.8448C49.4733 66.9492 47.6115 67.3807 45.7777 67.9339C43.647 68.5706 41.5756 69.3674 39.6091 70.4112C39.0642 70.7 38.5297 71.0062 38.0512 71.3924C37.88 71.535 37.7159 71.6881 37.5831 71.8691C37.5552 71.9073 37.5028 71.9526 37.5237 72.0013C37.5447 72.0604 37.6076 72.0326 37.6635 72.0326C38.4389 72.0639 39.2144 72.0013 39.9933 71.9143C40.7687 71.8343 41.5442 71.7368 42.3336 71.7055C42.6445 71.6916 42.9658 71.6847 43.2662 71.7856C43.3571 71.8169 43.4444 71.8586 43.5177 71.9352C43.5492 71.9665 43.5701 72.0152 43.5457 72.0743C43.5177 72.1335 43.4653 72.1265 43.4199 72.1265C43.3885 72.1196 43.3466 72.1196 43.3361 72.0987C43.1719 71.9491 42.9868 72.0152 42.8156 72.0395C41.8621 72.1787 40.9154 72.3353 39.9619 72.471C39.1794 72.5823 38.39 72.6658 37.5936 72.5754C37.3037 72.5441 37.0277 72.464 36.7728 72.3075C36.3501 72.0535 36.3047 71.7647 36.633 71.3889C36.923 71.0549 37.2827 70.8009 37.66 70.5573H37.6495Z" fill="black"/>
<path d="M52.216 72.6796C52.0728 72.9997 51.94 73.3233 51.954 73.6747C51.961 73.8521 51.9854 73.8695 52.1496 73.8174C52.6177 73.6747 53.0438 73.4381 53.4769 73.2085C54.2454 72.8014 55.0104 72.3908 55.7718 71.9837C55.8976 71.9176 56.0233 71.8654 56.1526 71.8341C56.3028 71.7958 56.4355 71.8063 56.5543 71.9141C56.6206 71.9663 56.6416 72.0116 56.5543 72.0638C55.4959 72.7457 54.4899 73.4903 53.3722 74.0748C53.0892 74.2244 52.7923 74.3567 52.471 74.381C52.0832 74.4123 51.7479 74.2906 51.451 74.047C51.1751 73.8104 51.1017 73.5042 51.182 73.1632C51.3392 72.4882 51.6955 71.9002 52.0832 71.3366C52.2614 71.0756 52.471 70.846 52.7225 70.6407C53.0857 70.3449 53.4839 70.338 53.8682 70.6094C54.1197 70.7868 54.2105 71.0304 54.1441 71.3157C54.0323 71.7889 53.8227 72.2273 53.5119 72.5996C53.222 72.9475 52.8657 73.1632 52.216 72.6796ZM52.6247 72.3978C52.677 72.4569 52.7294 72.3699 52.7679 72.3317C53.1346 71.9768 53.3722 71.5523 53.5189 71.0686C53.5328 71.0165 53.5503 70.9573 53.5258 70.8982C53.5119 70.9051 53.4944 70.9051 53.4874 70.9121C53.0648 71.2461 52.7644 71.6775 52.5059 72.1438C52.4535 72.2412 52.5653 72.3351 52.6247 72.3978Z" fill="black"/>
<path d="M58.7847 71.7579C58.7917 71.8414 58.6869 71.8484 58.6275 71.8762C58.4424 71.9562 58.2537 71.9215 58.0826 71.8379C57.887 71.7336 57.7193 71.7788 57.5516 71.8832C57.1954 72.0989 56.9124 72.3947 56.6295 72.6939C56.2557 73.087 55.9309 73.5115 55.6375 73.9638C55.5467 74.0961 55.4454 74.1065 55.3161 74.0613C54.9598 73.9291 54.8481 73.7064 54.9808 73.3584C55.2428 72.6591 55.6515 72.0363 56.0776 71.4204C56.1964 71.2569 56.3221 71.0934 56.4653 70.9542C56.6085 70.8115 56.7622 70.822 56.9788 70.9855C57.1569 71.1177 57.1814 71.2151 57.0836 71.3995C57.0382 71.4865 56.9928 71.577 56.9194 71.7023C57.0382 71.6292 57.115 71.577 57.1954 71.5318C57.4329 71.3822 57.6739 71.3682 57.9184 71.5039C58.1035 71.6014 58.2922 71.6535 58.5052 71.6014C58.5332 71.5944 58.5646 71.5944 58.596 71.6014C58.6799 71.6222 58.7742 71.6675 58.7882 71.751L58.7847 71.7579Z" fill="black"/>
<path d="M62.8327 70.5573C63.7863 69.9554 64.8202 69.4892 65.8576 69.0577C67.9674 68.1914 70.1261 67.4642 72.3546 66.9666C73.7832 66.6465 75.2223 66.4169 76.6894 66.396C77.1679 66.396 77.643 66.4273 78.0971 66.6117C78.3067 66.6917 78.5058 66.8031 78.6629 66.9597C78.9459 67.2345 79.0122 67.5685 78.8655 67.9374C78.7468 68.2262 78.5616 68.4627 78.3451 68.6854C77.8246 69.2213 77.2413 69.6666 76.623 70.0807C75.2608 70.9992 73.8077 71.7438 72.3476 72.4849C71.7224 72.7981 71.0971 73.1008 70.4719 73.4069C70.4055 73.4348 70.3531 73.4661 70.3217 73.5252C69.92 74.2211 69.5183 74.8996 69.169 75.6233C69.1166 75.7207 69.0851 75.8077 69.2214 75.8738C69.3052 75.9191 69.3017 75.9852 69.2004 76.0304C68.9978 76.1209 68.8057 76.0756 68.6276 75.9573C68.4564 75.846 68.4424 75.6755 68.4774 75.4911C68.5507 75.1432 68.7009 74.823 68.8511 74.5029C68.9559 74.2663 69.0677 74.0367 69.1864 73.8036C69.2179 73.7375 69.2179 73.6992 69.155 73.647C69.0223 73.5357 69.0153 73.4696 69.176 73.3965C69.4519 73.2643 69.6021 73.0312 69.7558 72.7807C70.6046 71.3263 71.5128 69.9032 72.5257 68.5602C72.6585 68.3827 72.8017 68.2192 72.9484 68.0557C73.1126 67.8713 73.4828 67.9165 73.6121 68.1218C73.6714 68.2088 73.633 68.2783 73.5841 68.3444C73.42 68.6193 73.2488 68.8872 73.0776 69.1551C72.4524 70.1363 71.8202 71.121 71.1914 72.1022C71.153 72.1613 71.1181 72.2205 71.0866 72.2796C71.0936 72.2935 71.1076 72.3005 71.1146 72.3109C71.2333 72.2448 71.3521 72.1787 71.4778 72.1161C72.6829 71.4689 73.9055 70.8461 75.0686 70.112C75.872 69.6075 76.6545 69.0716 77.3496 68.414C77.5661 68.1983 77.7757 67.9756 77.9224 67.7077C78.0132 67.5512 78.0726 67.3876 78.0412 67.2032C78.0097 67.0327 77.9154 66.9214 77.7303 66.8901C77.3496 66.81 76.9619 66.824 76.5811 66.8448C74.653 66.9492 72.7912 67.3807 70.9574 67.9339C68.8267 68.5706 66.7553 69.3674 64.7888 70.4112C64.2439 70.7 63.7094 71.0062 63.2309 71.3924C63.0597 71.535 62.8956 71.6881 62.7628 71.8691C62.7349 71.9073 62.6825 71.9526 62.7034 72.0013C62.7244 72.0604 62.7873 72.0326 62.8432 72.0326C63.6186 72.0639 64.394 72.0013 65.173 71.9143C65.9484 71.8343 66.7239 71.7368 67.5133 71.7055C67.8242 71.6916 68.1455 71.6847 68.4459 71.7856C68.5367 71.8169 68.6241 71.8586 68.6974 71.9352C68.7289 71.9665 68.7498 72.0152 68.7254 72.0743C68.6974 72.1335 68.645 72.1265 68.5996 72.1265C68.5682 72.1196 68.5263 72.1196 68.5158 72.0987C68.3516 71.9491 68.1665 72.0152 67.9953 72.0395C67.0417 72.1787 66.0951 72.3353 65.1415 72.471C64.3591 72.5823 63.5697 72.6658 62.7733 72.5754C62.4834 72.5441 62.2074 72.464 61.9524 72.3075C61.5298 72.0535 61.4844 71.7647 61.8127 71.3889C62.1026 71.0549 62.4624 70.8009 62.8397 70.5573H62.8327Z" fill="black"/>
<path d="M80.0857 71.7579C80.0927 71.8414 79.9879 71.8484 79.9285 71.8762C79.7434 71.9562 79.5548 71.9215 79.3836 71.8379C79.188 71.7336 79.0203 71.7788 78.8527 71.8832C78.4964 72.0989 78.2135 72.3947 77.9305 72.6939C77.5568 73.087 77.2319 73.5115 76.9385 73.9638C76.8477 74.0961 76.7464 74.1065 76.6172 74.0613C76.2609 73.9291 76.1491 73.7064 76.2818 73.3584C76.5438 72.6591 76.9525 72.0363 77.3786 71.4204C77.4974 71.2569 77.6231 71.0934 77.7663 70.9542C77.9096 70.8115 78.0633 70.822 78.2798 70.9855C78.458 71.1177 78.4824 71.2151 78.3846 71.3995C78.3392 71.4865 78.2938 71.577 78.2204 71.7023C78.3392 71.6292 78.416 71.577 78.4964 71.5318C78.7339 71.3822 78.9749 71.3682 79.2194 71.5039C79.4046 71.6014 79.5932 71.6535 79.8063 71.6014C79.8342 71.5944 79.8656 71.5944 79.8971 71.6014C79.9809 71.6222 80.0752 71.6675 80.0892 71.751L80.0857 71.7579Z" fill="black"/>
<path d="M80.072 73.1392C80.1523 72.485 80.3759 71.8761 80.7566 71.3229C80.8964 71.1211 80.9942 71.1002 81.2177 71.2185C81.5076 71.3751 81.56 71.4864 81.4622 71.8031C81.3365 72.1962 81.2107 72.5894 81.0885 72.9756C81.0675 73.0348 81.0605 73.0939 81.0361 73.1844C81.1269 73.1392 81.1933 73.1044 81.2596 73.0661C81.9233 72.7112 82.58 72.3459 83.2402 71.991C83.4323 71.8935 83.6209 71.7996 83.8305 71.7474C83.9108 71.7335 83.9807 71.7265 84.054 71.7613C84.1274 71.7996 84.2112 71.8413 84.2182 71.9318C84.2252 72.0118 84.1379 72.0292 84.0855 72.064C83.3415 72.5477 82.6463 73.087 81.9233 73.5915C81.6928 73.748 81.4622 73.8942 81.2072 73.9986C80.6553 74.2143 79.9987 73.7237 80.0755 73.1392H80.072ZM82.8943 69.9625C82.9467 70.0286 82.9467 70.0808 82.8489 70.1017C82.4542 70.1886 82.0979 70.3696 81.7452 70.5679C81.553 70.6723 81.2072 70.5296 81.1409 70.3243C81.1024 70.206 81.1933 70.1538 81.2666 70.1156C81.581 69.9381 81.9163 69.8337 82.2796 69.7955C82.332 69.7885 82.3914 69.7885 82.4438 69.7816C82.6289 69.7537 82.7861 69.8129 82.8978 69.966L82.8943 69.9625Z" fill="black"/>
<path d="M87.0048 73.2817C87.0362 72.9094 87.1899 72.5754 87.3541 72.2448C87.3226 72.2239 87.3086 72.2518 87.2877 72.2657L87.2493 72.304C86.8825 72.6589 86.5402 73.0381 86.2049 73.4104C86.1664 73.4487 86.1315 73.4835 86.1001 73.5218C85.9953 73.6331 85.8905 73.7375 85.7193 73.6644C85.5342 73.5809 85.398 73.4696 85.377 73.2504C85.3456 72.9616 85.4085 72.6867 85.5097 72.4188C85.5167 72.391 85.5412 72.3666 85.5237 72.3214C85.2687 72.558 85.0312 72.805 84.8077 73.0625C84.4933 73.4243 84.1894 73.7897 83.875 74.1515C83.6515 74.4055 83.5083 74.4194 83.2114 74.242C82.89 74.0471 82.8236 73.8801 82.9214 73.5148C83.0018 73.2121 83.124 72.9268 83.2638 72.6449C83.5083 72.1718 83.7772 71.7229 84.0846 71.2949C84.2104 71.1175 84.2942 71.1001 84.4863 71.1975C84.7832 71.3402 84.8356 71.4724 84.7099 71.7751C84.5981 72.0291 84.4863 72.2796 84.3745 72.5336C84.3815 72.5406 84.3885 72.5406 84.3955 72.5475C84.6575 72.304 84.9159 72.0708 85.1779 71.8273C85.4294 71.6046 85.6844 71.375 85.9673 71.1836C86.1979 71.0201 86.5926 71.1627 86.6764 71.4341C86.7078 71.5315 86.6624 71.6255 86.624 71.709C86.4913 72.0047 86.362 72.2935 86.2293 72.5788C86.2083 72.6171 86.1979 72.6658 86.2014 72.718C86.4529 72.4745 86.7009 72.2413 86.9593 71.9978C87.2213 71.7542 87.4728 71.4933 87.7697 71.2845C87.9548 71.1523 88.0457 71.1523 88.2238 71.2775C88.381 71.3889 88.4194 71.4863 88.3496 71.702C88.2238 72.0639 88.0876 72.4153 87.9618 72.7702C87.8885 72.972 87.8186 73.1703 87.7837 73.4C87.8675 73.3791 87.9234 73.3269 87.9758 73.2886C88.5556 72.9163 89.125 72.5232 89.7328 72.1822C89.8515 72.1161 89.9843 72.0639 90.1135 71.9978C90.2183 71.9456 90.3091 71.9699 90.3965 72.0291C90.5467 72.1265 90.5536 72.1926 90.4174 72.304C89.6874 72.8989 88.9294 73.4696 88.1749 74.0402C87.8326 74.2942 87.5357 74.2698 87.1829 73.901C87.0117 73.7305 86.9978 73.5009 87.0187 73.2782L87.0048 73.2817Z" fill="black"/>
<path d="M89.6697 73.1392C89.75 72.485 89.9736 71.8761 90.3543 71.3229C90.494 71.1211 90.5918 71.1002 90.8154 71.2185C91.1053 71.3751 91.1577 71.4864 91.0599 71.8031C90.9341 72.1962 90.8084 72.5894 90.6861 72.9756C90.6652 73.0348 90.6582 73.0939 90.6337 73.1844C90.7245 73.1392 90.7909 73.1044 90.8573 73.0661C91.521 72.7112 92.1776 72.3459 92.8378 71.991C93.0299 71.8935 93.2185 71.7996 93.4281 71.7474C93.5085 71.7335 93.5783 71.7265 93.6517 71.7613C93.725 71.7996 93.8089 71.8413 93.8159 71.9318C93.8228 72.0118 93.7355 72.0292 93.6831 72.064C92.9391 72.5477 92.244 73.087 91.521 73.5915C91.2904 73.748 91.0599 73.8942 90.8049 73.9986C90.253 74.2143 89.5963 73.7237 89.6732 73.1392H89.6697ZM92.492 69.9625C92.5444 70.0286 92.5444 70.0808 92.4466 70.1017C92.0519 70.1886 91.6956 70.3696 91.3428 70.5679C91.1507 70.6723 90.8049 70.5296 90.7385 70.3243C90.7001 70.206 90.7909 70.1538 90.8643 70.1156C91.1786 69.9381 91.514 69.8337 91.8772 69.7955C91.9296 69.7885 91.989 69.7885 92.0414 69.7816C92.2265 69.7537 92.3837 69.8129 92.4955 69.966L92.492 69.9625Z" fill="black"/>
</g>
<defs>
<clipPath id="clip0_753_894">
<rect width="130.893" height="75.1824" fill="white" transform="translate(0.930664 0.893066)"/>
</clipPath>
</defs>
</svg>
