<svg width="145" height="61" viewBox="0 0 145 61" fill="none" xmlns="http://www.w3.org/2000/svg">
<path d="M39.7956 30.755C37.1814 27.3294 31.7365 20.2619 30.8711 19.3965L44.6635 10.472C51.4246 9.30009 65.1629 7.01036 66.0283 7.22672C67.1101 7.49716 89.8271 9.66068 90.9088 10.472C91.7742 11.1211 104.791 14.7089 111.192 16.4217C111.823 19.5768 113.031 25.9953 112.814 26.428C112.598 26.8607 106.775 29.493 103.89 30.755C97.3994 28.6816 84.3101 24.5349 83.8774 24.5349H60.0786L39.7956 30.755Z" fill="black"/>
<mask id="path-2-outside-1_753_1376" maskUnits="userSpaceOnUse" x="3.50586" y="1.59814" width="138" height="59" fill="black">
<rect fill="white" x="3.50586" y="1.59814" width="138" height="59"/>
<path d="M39.0629 38.8475C39.0629 38.8475 37.5648 40.854 36.6529 41.4851C35.741 42.1162 34.7733 43.5858 32.7076 41.4192C30.6419 39.2526 21.9232 29.9174 21.9232 29.9174C21.9232 29.9174 19.7923 31.8391 13.6138 33.9303C8.14253 35.8049 5.22077 43.2466 5.52783 45.611C5.52783 45.611 17.5405 39.1207 19.7365 43.906C21.095 46.8827 20.332 49.1623 20.9554 51.8093C21.6533 54.7672 22.2209 55.8222 22.5931 56.849C22.7699 56.444 23.2445 52.2992 27.1619 50.971C31.0792 49.6428 33.8986 49.4449 37.0716 47.2972C40.2446 45.14 40.7192 42.1162 40.2725 40.5714C39.7515 38.7627 39.0629 38.8569 39.0629 38.8569V38.8475ZM60.1107 15.6462L59.6175 14.7796C59.4314 14.5535 59.1988 14.384 58.9569 14.2709C58.715 14.1673 58.4265 14.1485 58.1194 14.2238C57.7938 14.2992 57.5332 14.4311 57.3378 14.6289C57.1331 14.8361 56.9935 15.0905 56.9098 15.4013L56.7981 16.3716L56.9191 17.4172L57.282 18.6041L57.8217 19.4896C58.0264 19.7251 58.2497 19.8946 58.5009 19.9982C58.7429 20.1019 59.022 20.1113 59.3384 20.0453C59.8595 19.9323 60.2131 19.6026 60.4271 19.0374C60.6411 18.4345 60.6504 17.6527 60.455 16.6918L60.1293 15.6368L60.1107 15.6462ZM131.294 34.2412C125.906 32.1029 123.105 29.9268 123.105 29.9268C123.105 29.9268 114.386 39.2526 112.321 41.4286C110.255 43.6046 109.297 42.1351 108.385 41.4945C107.473 40.8634 105.975 38.8569 105.975 38.8569C105.975 38.8569 104.858 38.6026 104.105 40.3359C103.025 42.8133 104.477 45.7147 107.64 47.8624C110.813 50.0196 114.303 50.208 118.229 51.5362C122.147 52.8644 122.258 56.444 122.435 56.8584C122.807 55.8317 123.375 54.7766 124.073 51.8188C124.696 49.1623 123.933 46.8827 125.292 43.9154C127.479 39.1301 139.501 45.6205 139.501 45.6205C139.808 43.2561 136.672 36.3889 131.294 34.2506V34.2412ZM107.845 39.441C109.371 41.2308 109.781 41.8148 110.674 41.0989C110.944 40.8916 111.046 40.8069 111.158 40.6938C115.773 36.1252 120.332 31.1043 124.948 26.4226C125.394 25.9705 125.776 25.6219 125.72 24.9908C125.655 24.3126 125.236 24.0206 124.706 23.5307C112.721 12.5282 97.5817 4.67202 75.8919 3.61698C75.8919 3.61698 73.333 3.59814 72.3188 3.59814C71.3046 3.59814 68.8667 3.61698 68.8667 3.61698C47.1675 4.67202 32.0376 12.5282 20.0529 23.5401C19.5225 24.03 19.1038 24.322 19.0386 25.0002C18.9735 25.6314 19.3643 25.9799 19.8016 26.4321C24.4169 31.1138 28.9763 36.1346 33.5916 40.7032C33.7032 40.8163 33.8056 40.9011 34.0754 41.1083C34.9594 41.8242 35.3781 41.2402 36.9041 39.4504C42.4592 32.9224 50.4801 28.5421 60.7713 26.8936C64.27 26.3284 70.2345 26.1024 72.3095 26.1118C74.8311 26.1118 80.4792 26.3284 83.9872 26.8936C94.2785 28.5515 102.299 32.9318 107.854 39.4504L107.845 39.441ZM48.7121 24.3408L48.3865 23.5872L48.3027 23.38L49.0285 22.9467C49.0285 22.9467 49.3914 22.6829 49.4007 22.6829L49.5775 22.3909L49.5124 22.0424C49.5124 22.0424 47.67 17.8222 46.9628 16.1926C47.0186 18.1331 47.2047 24.8307 47.2047 24.8307L46.1905 25.2828L46.023 25.3393L45.2321 24.4916L44.3853 23.6249C44.3853 23.6249 41.3426 20.5258 40.0678 19.2258C40.8029 20.9026 42.0219 23.7003 42.0219 23.7003L42.6453 24.8495C42.8035 25.0567 42.9803 25.1886 43.1478 25.2263H43.7619L44.3853 25.1038L44.6086 25.0567L45.0181 25.9987L40.4028 28.0617L40.0771 27.3081L40.0027 27.1103L40.6913 26.6581L41.1565 26.206C41.203 26.1212 41.2402 26.027 41.2402 25.9234C41.2402 25.8292 41.2402 25.7256 41.2123 25.6031L40.7843 24.3597L38.7558 19.7062L38.3929 19.1316L37.9928 18.8961H37.4252L36.6157 19.1222L36.197 18.1614L41.0635 15.9854C41.0635 15.9854 45.0739 20.0642 45.8183 20.8178C45.7718 19.3106 45.6694 15.4955 45.6694 15.5049L45.5764 14.7796L45.474 14.2803L45.4182 14.0448L49.8846 12.0478L50.1079 11.9442L50.4335 12.6978L50.508 12.905L49.9032 13.263L49.531 13.5456L49.3821 13.7905L49.4565 14.139L52.3597 20.7989L52.5458 21.0627L52.8714 21.1286L53.3181 21.0439L54.0439 20.8366L54.4626 21.7974L48.7214 24.3597L48.7121 24.3408ZM62.5021 17.8317C62.4369 18.3686 62.2788 18.8584 62.0368 19.2823C61.7577 19.7627 61.3948 20.1584 60.9668 20.4598C60.5387 20.7518 60.027 20.9685 59.4407 21.091C58.9476 21.1946 58.4637 21.204 57.9799 21.1192C57.496 21.0344 57.0401 20.8555 56.6306 20.5917C56.2212 20.3279 55.8583 19.97 55.5606 19.5272C55.2628 19.0845 55.0488 18.5664 54.9185 17.9635C54.6766 16.8143 54.8348 15.7781 55.3745 14.8926C55.9235 14.0072 56.7702 13.4326 57.8961 13.1876C58.9662 12.9616 59.9432 13.1217 60.79 13.668C61.6367 14.2238 62.195 15.0905 62.4369 16.2397C62.5486 16.7484 62.5672 17.2853 62.5021 17.8222V17.8317ZM72.3746 17.3136C72.2071 17.8222 71.9559 18.265 71.6395 18.6418C71.3139 19.0186 70.9324 19.3294 70.5043 19.5461C70.0856 19.7627 69.6204 19.8946 69.1272 19.9323L67.9455 19.8569C67.9455 19.8569 67.7221 19.7627 67.5081 19.678C67.5454 20.2808 67.6291 21.4207 67.6291 21.4207C67.6291 21.4207 67.7128 21.7127 67.7128 21.7221L67.9082 21.854L68.3828 21.9387L69.1272 21.9764L69.1923 22.9373L64.605 23.2575L64.5585 22.5228V22.2873L65.2005 22.1931L65.5262 22.1083L65.6844 21.9764L65.7309 21.6562L65.2191 14.0731L65.1168 13.7811C65.1168 13.7811 64.8934 13.5644 64.8934 13.555L64.605 13.4797L63.9443 13.4326L63.8792 12.4906L66.7079 12.1232L66.9964 12.3304C66.9964 12.3304 67.015 12.6413 67.0336 12.8297C67.229 12.6413 67.4058 12.434 67.6663 12.2833C68.0664 12.0478 68.4852 11.9065 68.8946 11.8783C69.3877 11.8406 69.853 11.9159 70.281 12.0949C70.6997 12.2645 71.0812 12.5188 71.3976 12.8391C71.7326 13.1782 72.0117 13.5833 72.2164 14.0448C72.4212 14.5064 72.5421 15.0434 72.5886 15.6462C72.6259 16.2397 72.5607 16.8049 72.3839 17.3136H72.3746ZM80.991 18.1048C80.6095 18.6889 80.1256 19.1504 79.5394 19.4801C78.9532 19.8098 78.3391 19.9606 77.7157 19.9323C76.5805 19.8758 75.6872 19.4613 75.0638 18.6983C74.4496 17.9353 74.1705 16.9368 74.217 15.7216C74.2356 15.1941 74.3473 14.6948 74.5427 14.2332C74.7381 13.7811 75.0079 13.3572 75.3522 12.9992C75.6872 12.6413 76.0966 12.3681 76.5805 12.1609C77.0643 11.9536 77.5947 11.8688 78.1623 11.8971C78.9346 11.9348 79.5767 12.1514 80.0512 12.5377C80.5537 12.9427 80.7956 13.4891 80.7677 14.1579C80.7584 14.4499 80.6653 14.7137 80.5165 14.9303C80.3955 15.0999 80.1536 15.3071 79.6976 15.2883C79.344 15.2694 79.0556 15.1658 78.8602 14.968C78.6462 14.7608 78.5531 14.5347 78.5624 14.2803L78.6927 13.5456C78.6927 13.5456 78.7485 13.3195 78.7857 13.1971C78.7206 13.1405 78.5903 13.0463 78.5903 13.0463L78.0879 12.9521L77.5017 13.0558C77.3156 13.1311 77.1295 13.2818 76.9434 13.5079C76.7666 13.7151 76.6177 14.0166 76.4967 14.384C76.3758 14.7702 76.292 15.2412 76.2734 15.7781C76.2362 16.6165 76.3944 17.323 76.748 17.8599C77.0922 18.378 77.5482 18.6418 78.1344 18.67C78.5624 18.6889 78.9253 18.6041 79.2231 18.4251C79.5301 18.2367 79.8186 17.9259 80.0977 17.5208L80.2373 17.3136L81.112 17.9164L80.9817 18.1237L80.991 18.1048ZM90.5193 19.9982C90.4448 20.3185 90.3332 20.5917 90.1936 20.8084C90.054 21.025 89.8866 21.204 89.7005 21.3359C89.5144 21.4678 89.3096 21.5714 89.0863 21.6279C88.863 21.6938 88.6397 21.7315 88.3978 21.7409C88.1558 21.7503 87.9232 21.7409 87.6813 21.7032C87.4393 21.6656 87.2067 21.6279 86.9834 21.5714L82.4891 20.4787L82.6566 19.7722L83.5033 19.8946L83.7732 19.7251L85.1224 14.0543L84.9549 13.7811L84.1454 13.4985L84.3129 12.792L88.4071 13.7905L88.2396 14.497L87.3184 14.3557L87.0485 14.5253L86.5461 16.6259C86.7601 16.6542 86.9555 16.6918 87.1323 16.7201C87.3091 16.7484 87.5045 16.7955 87.7185 16.8426C87.9418 16.8991 88.1744 16.965 88.4257 17.0404C88.6676 17.1157 88.9095 17.2194 89.1515 17.3324C89.3841 17.4454 89.6074 17.5867 89.8121 17.7469C90.0168 17.907 90.1843 18.0954 90.3146 18.3121C90.4448 18.5287 90.5286 18.7737 90.5751 19.0562C90.6216 19.3294 90.603 19.6497 90.5193 19.9982ZM99.6195 19.9982C99.3497 19.8946 99.1636 19.7345 99.0519 19.5272C99.0519 19.5272 98.9682 19.3106 98.8751 19.1033C98.8007 19.1693 98.7356 19.2352 98.7356 19.2352L98.2424 19.8004L97.4422 20.5163C97.4422 20.5163 97.1909 20.62 96.9583 20.7047C97.2189 20.9214 97.498 21.1381 97.6283 21.3924C97.8051 21.7315 97.926 22.1177 97.9726 22.551L98.0377 23.2575L98.0749 23.7945C98.0749 23.7945 98.1959 24.1901 98.1959 24.1995C98.1959 24.1995 98.4378 24.4256 98.4471 24.4256L98.7356 24.6046L99.2101 24.8589L98.8658 25.7538L96.3163 24.7459L96.1488 24.6799L96.2046 23.4271L96.1488 22.3815C96.1023 21.9105 95.9813 21.5431 95.8138 21.2794C95.6649 21.0439 95.4044 20.8743 95.0787 20.733C94.8833 21.2323 94.4553 22.3438 94.4553 22.3438L94.4181 22.617C94.4181 22.617 94.5576 22.8336 94.5669 22.8431C94.5669 22.8431 94.8089 23.0409 94.7996 23.0315L95.3206 23.3235L94.9764 24.2184L91.1148 22.6923L91.4591 21.788L92.0174 21.9576L92.2779 22.0141L92.4826 21.967L92.6501 21.7221L94.3064 17.4078L94.3436 17.1346L94.204 16.9085C94.204 16.9085 93.9342 16.6918 93.9342 16.7013L93.4317 16.4281L93.683 15.7687L93.776 15.5332L97.6469 17.0592L97.3863 17.7469L97.2933 17.9541L96.735 17.794C96.735 17.794 96.4838 17.7469 96.4745 17.7375L96.2884 17.7846L96.1209 18.0389C96.1209 18.0389 95.6091 19.3765 95.4695 19.7439C95.5719 19.7816 95.6649 19.8193 95.6649 19.8193L96.065 19.8946L96.4279 19.8193L96.9118 19.4707L97.3957 18.9715L97.9074 18.4345C97.9074 18.4345 98.4471 18.0106 98.4471 18.0012L99.2752 17.7657L100.066 17.9164C100.485 18.0766 100.764 18.3027 100.904 18.5664C101.043 18.849 101.062 19.1316 100.95 19.433C100.848 19.6874 100.671 19.8758 100.429 19.9888C100.178 20.1113 99.908 20.1113 99.6288 19.9982H99.6195ZM104.449 28.8059L100.206 26.3661L100.634 25.5748L101.62 26.0364L101.927 25.9611L106.012 18.4157L105.91 18.1237L104.998 17.502L105.426 16.7107L109.669 19.1504L109.241 19.9417L108.245 19.4613L107.957 19.5272L103.872 27.0726L103.965 27.3835L104.877 28.0146L104.449 28.8059ZM87.9604 17.9447C87.7929 17.8128 87.5789 17.7092 87.2998 17.6433C87.0858 17.5867 86.8997 17.5585 86.7322 17.5396C86.5647 17.5208 86.4344 17.5114 86.3414 17.5114L85.69 20.2526C85.9971 20.3939 86.2948 20.4975 86.574 20.5634C86.7136 20.6011 86.8717 20.6294 87.0578 20.6388C87.2346 20.6482 87.4114 20.62 87.5882 20.554C87.765 20.4881 87.9232 20.3656 88.0721 20.1866C88.221 20.0077 88.3326 19.7533 88.4164 19.4236C88.4536 19.2635 88.4722 19.0845 88.4629 18.9055C88.4629 18.7266 88.4164 18.5476 88.3326 18.3874C88.2582 18.2179 88.1279 18.0672 87.9697 17.9353L87.9604 17.9447ZM69.9367 13.9318C69.7692 13.6963 69.5645 13.5079 69.3133 13.376C69.0714 13.2442 68.7736 13.1876 68.4386 13.2159C68.113 13.2347 67.8524 13.3195 67.6384 13.4702C67.6384 13.4702 67.2104 13.8753 67.1173 13.9695C67.1545 14.5347 67.3779 17.907 67.3779 17.9918L67.5826 18.3215L67.8989 18.6135L68.3549 18.8396L68.9225 18.8961C69.1644 18.8773 69.3877 18.8019 69.6017 18.6606C69.8158 18.5193 69.9926 18.3403 70.1321 18.0954C70.2996 17.8128 70.4113 17.4737 70.4764 17.1063L70.5229 15.8346L70.3368 14.7984L69.9367 13.9318Z"/>
</mask>
<path d="M39.0629 38.8475C39.0629 38.8475 37.5648 40.854 36.6529 41.4851C35.741 42.1162 34.7733 43.5858 32.7076 41.4192C30.6419 39.2526 21.9232 29.9174 21.9232 29.9174C21.9232 29.9174 19.7923 31.8391 13.6138 33.9303C8.14253 35.8049 5.22077 43.2466 5.52783 45.611C5.52783 45.611 17.5405 39.1207 19.7365 43.906C21.095 46.8827 20.332 49.1623 20.9554 51.8093C21.6533 54.7672 22.2209 55.8222 22.5931 56.849C22.7699 56.444 23.2445 52.2992 27.1619 50.971C31.0792 49.6428 33.8986 49.4449 37.0716 47.2972C40.2446 45.14 40.7192 42.1162 40.2725 40.5714C39.7515 38.7627 39.0629 38.8569 39.0629 38.8569V38.8475ZM60.1107 15.6462L59.6175 14.7796C59.4314 14.5535 59.1988 14.384 58.9569 14.2709C58.715 14.1673 58.4265 14.1485 58.1194 14.2238C57.7938 14.2992 57.5332 14.4311 57.3378 14.6289C57.1331 14.8361 56.9935 15.0905 56.9098 15.4013L56.7981 16.3716L56.9191 17.4172L57.282 18.6041L57.8217 19.4896C58.0264 19.7251 58.2497 19.8946 58.5009 19.9982C58.7429 20.1019 59.022 20.1113 59.3384 20.0453C59.8595 19.9323 60.2131 19.6026 60.4271 19.0374C60.6411 18.4345 60.6504 17.6527 60.455 16.6918L60.1293 15.6368L60.1107 15.6462ZM131.294 34.2412C125.906 32.1029 123.105 29.9268 123.105 29.9268C123.105 29.9268 114.386 39.2526 112.321 41.4286C110.255 43.6046 109.297 42.1351 108.385 41.4945C107.473 40.8634 105.975 38.8569 105.975 38.8569C105.975 38.8569 104.858 38.6026 104.105 40.3359C103.025 42.8133 104.477 45.7147 107.64 47.8624C110.813 50.0196 114.303 50.208 118.229 51.5362C122.147 52.8644 122.258 56.444 122.435 56.8584C122.807 55.8317 123.375 54.7766 124.073 51.8188C124.696 49.1623 123.933 46.8827 125.292 43.9154C127.479 39.1301 139.501 45.6205 139.501 45.6205C139.808 43.2561 136.672 36.3889 131.294 34.2506V34.2412ZM107.845 39.441C109.371 41.2308 109.781 41.8148 110.674 41.0989C110.944 40.8916 111.046 40.8069 111.158 40.6938C115.773 36.1252 120.332 31.1043 124.948 26.4226C125.394 25.9705 125.776 25.6219 125.72 24.9908C125.655 24.3126 125.236 24.0206 124.706 23.5307C112.721 12.5282 97.5817 4.67202 75.8919 3.61698C75.8919 3.61698 73.333 3.59814 72.3188 3.59814C71.3046 3.59814 68.8667 3.61698 68.8667 3.61698C47.1675 4.67202 32.0376 12.5282 20.0529 23.5401C19.5225 24.03 19.1038 24.322 19.0386 25.0002C18.9735 25.6314 19.3643 25.9799 19.8016 26.4321C24.4169 31.1138 28.9763 36.1346 33.5916 40.7032C33.7032 40.8163 33.8056 40.9011 34.0754 41.1083C34.9594 41.8242 35.3781 41.2402 36.9041 39.4504C42.4592 32.9224 50.4801 28.5421 60.7713 26.8936C64.27 26.3284 70.2345 26.1024 72.3095 26.1118C74.8311 26.1118 80.4792 26.3284 83.9872 26.8936C94.2785 28.5515 102.299 32.9318 107.854 39.4504L107.845 39.441ZM48.7121 24.3408L48.3865 23.5872L48.3027 23.38L49.0285 22.9467C49.0285 22.9467 49.3914 22.6829 49.4007 22.6829L49.5775 22.3909L49.5124 22.0424C49.5124 22.0424 47.67 17.8222 46.9628 16.1926C47.0186 18.1331 47.2047 24.8307 47.2047 24.8307L46.1905 25.2828L46.023 25.3393L45.2321 24.4916L44.3853 23.6249C44.3853 23.6249 41.3426 20.5258 40.0678 19.2258C40.8029 20.9026 42.0219 23.7003 42.0219 23.7003L42.6453 24.8495C42.8035 25.0567 42.9803 25.1886 43.1478 25.2263H43.7619L44.3853 25.1038L44.6086 25.0567L45.0181 25.9987L40.4028 28.0617L40.0771 27.3081L40.0027 27.1103L40.6913 26.6581L41.1565 26.206C41.203 26.1212 41.2402 26.027 41.2402 25.9234C41.2402 25.8292 41.2402 25.7256 41.2123 25.6031L40.7843 24.3597L38.7558 19.7062L38.3929 19.1316L37.9928 18.8961H37.4252L36.6157 19.1222L36.197 18.1614L41.0635 15.9854C41.0635 15.9854 45.0739 20.0642 45.8183 20.8178C45.7718 19.3106 45.6694 15.4955 45.6694 15.5049L45.5764 14.7796L45.474 14.2803L45.4182 14.0448L49.8846 12.0478L50.1079 11.9442L50.4335 12.6978L50.508 12.905L49.9032 13.263L49.531 13.5456L49.3821 13.7905L49.4565 14.139L52.3597 20.7989L52.5458 21.0627L52.8714 21.1286L53.3181 21.0439L54.0439 20.8366L54.4626 21.7974L48.7214 24.3597L48.7121 24.3408ZM62.5021 17.8317C62.4369 18.3686 62.2788 18.8584 62.0368 19.2823C61.7577 19.7627 61.3948 20.1584 60.9668 20.4598C60.5387 20.7518 60.027 20.9685 59.4407 21.091C58.9476 21.1946 58.4637 21.204 57.9799 21.1192C57.496 21.0344 57.0401 20.8555 56.6306 20.5917C56.2212 20.3279 55.8583 19.97 55.5606 19.5272C55.2628 19.0845 55.0488 18.5664 54.9185 17.9635C54.6766 16.8143 54.8348 15.7781 55.3745 14.8926C55.9235 14.0072 56.7702 13.4326 57.8961 13.1876C58.9662 12.9616 59.9432 13.1217 60.79 13.668C61.6367 14.2238 62.195 15.0905 62.4369 16.2397C62.5486 16.7484 62.5672 17.2853 62.5021 17.8222V17.8317ZM72.3746 17.3136C72.2071 17.8222 71.9559 18.265 71.6395 18.6418C71.3139 19.0186 70.9324 19.3294 70.5043 19.5461C70.0856 19.7627 69.6204 19.8946 69.1272 19.9323L67.9455 19.8569C67.9455 19.8569 67.7221 19.7627 67.5081 19.678C67.5454 20.2808 67.6291 21.4207 67.6291 21.4207C67.6291 21.4207 67.7128 21.7127 67.7128 21.7221L67.9082 21.854L68.3828 21.9387L69.1272 21.9764L69.1923 22.9373L64.605 23.2575L64.5585 22.5228V22.2873L65.2005 22.1931L65.5262 22.1083L65.6844 21.9764L65.7309 21.6562L65.2191 14.0731L65.1168 13.7811C65.1168 13.7811 64.8934 13.5644 64.8934 13.555L64.605 13.4797L63.9443 13.4326L63.8792 12.4906L66.7079 12.1232L66.9964 12.3304C66.9964 12.3304 67.015 12.6413 67.0336 12.8297C67.229 12.6413 67.4058 12.434 67.6663 12.2833C68.0664 12.0478 68.4852 11.9065 68.8946 11.8783C69.3877 11.8406 69.853 11.9159 70.281 12.0949C70.6997 12.2645 71.0812 12.5188 71.3976 12.8391C71.7326 13.1782 72.0117 13.5833 72.2164 14.0448C72.4212 14.5064 72.5421 15.0434 72.5886 15.6462C72.6259 16.2397 72.5607 16.8049 72.3839 17.3136H72.3746ZM80.991 18.1048C80.6095 18.6889 80.1256 19.1504 79.5394 19.4801C78.9532 19.8098 78.3391 19.9606 77.7157 19.9323C76.5805 19.8758 75.6872 19.4613 75.0638 18.6983C74.4496 17.9353 74.1705 16.9368 74.217 15.7216C74.2356 15.1941 74.3473 14.6948 74.5427 14.2332C74.7381 13.7811 75.0079 13.3572 75.3522 12.9992C75.6872 12.6413 76.0966 12.3681 76.5805 12.1609C77.0643 11.9536 77.5947 11.8688 78.1623 11.8971C78.9346 11.9348 79.5767 12.1514 80.0512 12.5377C80.5537 12.9427 80.7956 13.4891 80.7677 14.1579C80.7584 14.4499 80.6653 14.7137 80.5165 14.9303C80.3955 15.0999 80.1536 15.3071 79.6976 15.2883C79.344 15.2694 79.0556 15.1658 78.8602 14.968C78.6462 14.7608 78.5531 14.5347 78.5624 14.2803L78.6927 13.5456C78.6927 13.5456 78.7485 13.3195 78.7857 13.1971C78.7206 13.1405 78.5903 13.0463 78.5903 13.0463L78.0879 12.9521L77.5017 13.0558C77.3156 13.1311 77.1295 13.2818 76.9434 13.5079C76.7666 13.7151 76.6177 14.0166 76.4967 14.384C76.3758 14.7702 76.292 15.2412 76.2734 15.7781C76.2362 16.6165 76.3944 17.323 76.748 17.8599C77.0922 18.378 77.5482 18.6418 78.1344 18.67C78.5624 18.6889 78.9253 18.6041 79.2231 18.4251C79.5301 18.2367 79.8186 17.9259 80.0977 17.5208L80.2373 17.3136L81.112 17.9164L80.9817 18.1237L80.991 18.1048ZM90.5193 19.9982C90.4448 20.3185 90.3332 20.5917 90.1936 20.8084C90.054 21.025 89.8866 21.204 89.7005 21.3359C89.5144 21.4678 89.3096 21.5714 89.0863 21.6279C88.863 21.6938 88.6397 21.7315 88.3978 21.7409C88.1558 21.7503 87.9232 21.7409 87.6813 21.7032C87.4393 21.6656 87.2067 21.6279 86.9834 21.5714L82.4891 20.4787L82.6566 19.7722L83.5033 19.8946L83.7732 19.7251L85.1224 14.0543L84.9549 13.7811L84.1454 13.4985L84.3129 12.792L88.4071 13.7905L88.2396 14.497L87.3184 14.3557L87.0485 14.5253L86.5461 16.6259C86.7601 16.6542 86.9555 16.6918 87.1323 16.7201C87.3091 16.7484 87.5045 16.7955 87.7185 16.8426C87.9418 16.8991 88.1744 16.965 88.4257 17.0404C88.6676 17.1157 88.9095 17.2194 89.1515 17.3324C89.3841 17.4454 89.6074 17.5867 89.8121 17.7469C90.0168 17.907 90.1843 18.0954 90.3146 18.3121C90.4448 18.5287 90.5286 18.7737 90.5751 19.0562C90.6216 19.3294 90.603 19.6497 90.5193 19.9982ZM99.6195 19.9982C99.3497 19.8946 99.1636 19.7345 99.0519 19.5272C99.0519 19.5272 98.9682 19.3106 98.8751 19.1033C98.8007 19.1693 98.7356 19.2352 98.7356 19.2352L98.2424 19.8004L97.4422 20.5163C97.4422 20.5163 97.1909 20.62 96.9583 20.7047C97.2189 20.9214 97.498 21.1381 97.6283 21.3924C97.8051 21.7315 97.926 22.1177 97.9726 22.551L98.0377 23.2575L98.0749 23.7945C98.0749 23.7945 98.1959 24.1901 98.1959 24.1995C98.1959 24.1995 98.4378 24.4256 98.4471 24.4256L98.7356 24.6046L99.2101 24.8589L98.8658 25.7538L96.3163 24.7459L96.1488 24.6799L96.2046 23.4271L96.1488 22.3815C96.1023 21.9105 95.9813 21.5431 95.8138 21.2794C95.6649 21.0439 95.4044 20.8743 95.0787 20.733C94.8833 21.2323 94.4553 22.3438 94.4553 22.3438L94.4181 22.617C94.4181 22.617 94.5576 22.8336 94.5669 22.8431C94.5669 22.8431 94.8089 23.0409 94.7996 23.0315L95.3206 23.3235L94.9764 24.2184L91.1148 22.6923L91.4591 21.788L92.0174 21.9576L92.2779 22.0141L92.4826 21.967L92.6501 21.7221L94.3064 17.4078L94.3436 17.1346L94.204 16.9085C94.204 16.9085 93.9342 16.6918 93.9342 16.7013L93.4317 16.4281L93.683 15.7687L93.776 15.5332L97.6469 17.0592L97.3863 17.7469L97.2933 17.9541L96.735 17.794C96.735 17.794 96.4838 17.7469 96.4745 17.7375L96.2884 17.7846L96.1209 18.0389C96.1209 18.0389 95.6091 19.3765 95.4695 19.7439C95.5719 19.7816 95.6649 19.8193 95.6649 19.8193L96.065 19.8946L96.4279 19.8193L96.9118 19.4707L97.3957 18.9715L97.9074 18.4345C97.9074 18.4345 98.4471 18.0106 98.4471 18.0012L99.2752 17.7657L100.066 17.9164C100.485 18.0766 100.764 18.3027 100.904 18.5664C101.043 18.849 101.062 19.1316 100.95 19.433C100.848 19.6874 100.671 19.8758 100.429 19.9888C100.178 20.1113 99.908 20.1113 99.6288 19.9982H99.6195ZM104.449 28.8059L100.206 26.3661L100.634 25.5748L101.62 26.0364L101.927 25.9611L106.012 18.4157L105.91 18.1237L104.998 17.502L105.426 16.7107L109.669 19.1504L109.241 19.9417L108.245 19.4613L107.957 19.5272L103.872 27.0726L103.965 27.3835L104.877 28.0146L104.449 28.8059ZM87.9604 17.9447C87.7929 17.8128 87.5789 17.7092 87.2998 17.6433C87.0858 17.5867 86.8997 17.5585 86.7322 17.5396C86.5647 17.5208 86.4344 17.5114 86.3414 17.5114L85.69 20.2526C85.9971 20.3939 86.2948 20.4975 86.574 20.5634C86.7136 20.6011 86.8717 20.6294 87.0578 20.6388C87.2346 20.6482 87.4114 20.62 87.5882 20.554C87.765 20.4881 87.9232 20.3656 88.0721 20.1866C88.221 20.0077 88.3326 19.7533 88.4164 19.4236C88.4536 19.2635 88.4722 19.0845 88.4629 18.9055C88.4629 18.7266 88.4164 18.5476 88.3326 18.3874C88.2582 18.2179 88.1279 18.0672 87.9697 17.9353L87.9604 17.9447ZM69.9367 13.9318C69.7692 13.6963 69.5645 13.5079 69.3133 13.376C69.0714 13.2442 68.7736 13.1876 68.4386 13.2159C68.113 13.2347 67.8524 13.3195 67.6384 13.4702C67.6384 13.4702 67.2104 13.8753 67.1173 13.9695C67.1545 14.5347 67.3779 17.907 67.3779 17.9918L67.5826 18.3215L67.8989 18.6135L68.3549 18.8396L68.9225 18.8961C69.1644 18.8773 69.3877 18.8019 69.6017 18.6606C69.8158 18.5193 69.9926 18.3403 70.1321 18.0954C70.2996 17.8128 70.4113 17.4737 70.4764 17.1063L70.5229 15.8346L70.3368 14.7984L69.9367 13.9318Z" fill="#F3D332"/>
<path d="M39.0629 38.8475C39.0629 38.8475 37.5648 40.854 36.6529 41.4851C35.741 42.1162 34.7733 43.5858 32.7076 41.4192C30.6419 39.2526 21.9232 29.9174 21.9232 29.9174C21.9232 29.9174 19.7923 31.8391 13.6138 33.9303C8.14253 35.8049 5.22077 43.2466 5.52783 45.611C5.52783 45.611 17.5405 39.1207 19.7365 43.906C21.095 46.8827 20.332 49.1623 20.9554 51.8093C21.6533 54.7672 22.2209 55.8222 22.5931 56.849C22.7699 56.444 23.2445 52.2992 27.1619 50.971C31.0792 49.6428 33.8986 49.4449 37.0716 47.2972C40.2446 45.14 40.7192 42.1162 40.2725 40.5714C39.7515 38.7627 39.0629 38.8569 39.0629 38.8569V38.8475ZM60.1107 15.6462L59.6175 14.7796C59.4314 14.5535 59.1988 14.384 58.9569 14.2709C58.715 14.1673 58.4265 14.1485 58.1194 14.2238C57.7938 14.2992 57.5332 14.4311 57.3378 14.6289C57.1331 14.8361 56.9935 15.0905 56.9098 15.4013L56.7981 16.3716L56.9191 17.4172L57.282 18.6041L57.8217 19.4896C58.0264 19.7251 58.2497 19.8946 58.5009 19.9982C58.7429 20.1019 59.022 20.1113 59.3384 20.0453C59.8595 19.9323 60.2131 19.6026 60.4271 19.0374C60.6411 18.4345 60.6504 17.6527 60.455 16.6918L60.1293 15.6368L60.1107 15.6462ZM131.294 34.2412C125.906 32.1029 123.105 29.9268 123.105 29.9268C123.105 29.9268 114.386 39.2526 112.321 41.4286C110.255 43.6046 109.297 42.1351 108.385 41.4945C107.473 40.8634 105.975 38.8569 105.975 38.8569C105.975 38.8569 104.858 38.6026 104.105 40.3359C103.025 42.8133 104.477 45.7147 107.64 47.8624C110.813 50.0196 114.303 50.208 118.229 51.5362C122.147 52.8644 122.258 56.444 122.435 56.8584C122.807 55.8317 123.375 54.7766 124.073 51.8188C124.696 49.1623 123.933 46.8827 125.292 43.9154C127.479 39.1301 139.501 45.6205 139.501 45.6205C139.808 43.2561 136.672 36.3889 131.294 34.2506V34.2412ZM107.845 39.441C109.371 41.2308 109.781 41.8148 110.674 41.0989C110.944 40.8916 111.046 40.8069 111.158 40.6938C115.773 36.1252 120.332 31.1043 124.948 26.4226C125.394 25.9705 125.776 25.6219 125.72 24.9908C125.655 24.3126 125.236 24.0206 124.706 23.5307C112.721 12.5282 97.5817 4.67202 75.8919 3.61698C75.8919 3.61698 73.333 3.59814 72.3188 3.59814C71.3046 3.59814 68.8667 3.61698 68.8667 3.61698C47.1675 4.67202 32.0376 12.5282 20.0529 23.5401C19.5225 24.03 19.1038 24.322 19.0386 25.0002C18.9735 25.6314 19.3643 25.9799 19.8016 26.4321C24.4169 31.1138 28.9763 36.1346 33.5916 40.7032C33.7032 40.8163 33.8056 40.9011 34.0754 41.1083C34.9594 41.8242 35.3781 41.2402 36.9041 39.4504C42.4592 32.9224 50.4801 28.5421 60.7713 26.8936C64.27 26.3284 70.2345 26.1024 72.3095 26.1118C74.8311 26.1118 80.4792 26.3284 83.9872 26.8936C94.2785 28.5515 102.299 32.9318 107.854 39.4504L107.845 39.441ZM48.7121 24.3408L48.3865 23.5872L48.3027 23.38L49.0285 22.9467C49.0285 22.9467 49.3914 22.6829 49.4007 22.6829L49.5775 22.3909L49.5124 22.0424C49.5124 22.0424 47.67 17.8222 46.9628 16.1926C47.0186 18.1331 47.2047 24.8307 47.2047 24.8307L46.1905 25.2828L46.023 25.3393L45.2321 24.4916L44.3853 23.6249C44.3853 23.6249 41.3426 20.5258 40.0678 19.2258C40.8029 20.9026 42.0219 23.7003 42.0219 23.7003L42.6453 24.8495C42.8035 25.0567 42.9803 25.1886 43.1478 25.2263H43.7619L44.3853 25.1038L44.6086 25.0567L45.0181 25.9987L40.4028 28.0617L40.0771 27.3081L40.0027 27.1103L40.6913 26.6581L41.1565 26.206C41.203 26.1212 41.2402 26.027 41.2402 25.9234C41.2402 25.8292 41.2402 25.7256 41.2123 25.6031L40.7843 24.3597L38.7558 19.7062L38.3929 19.1316L37.9928 18.8961H37.4252L36.6157 19.1222L36.197 18.1614L41.0635 15.9854C41.0635 15.9854 45.0739 20.0642 45.8183 20.8178C45.7718 19.3106 45.6694 15.4955 45.6694 15.5049L45.5764 14.7796L45.474 14.2803L45.4182 14.0448L49.8846 12.0478L50.1079 11.9442L50.4335 12.6978L50.508 12.905L49.9032 13.263L49.531 13.5456L49.3821 13.7905L49.4565 14.139L52.3597 20.7989L52.5458 21.0627L52.8714 21.1286L53.3181 21.0439L54.0439 20.8366L54.4626 21.7974L48.7214 24.3597L48.7121 24.3408ZM62.5021 17.8317C62.4369 18.3686 62.2788 18.8584 62.0368 19.2823C61.7577 19.7627 61.3948 20.1584 60.9668 20.4598C60.5387 20.7518 60.027 20.9685 59.4407 21.091C58.9476 21.1946 58.4637 21.204 57.9799 21.1192C57.496 21.0344 57.0401 20.8555 56.6306 20.5917C56.2212 20.3279 55.8583 19.97 55.5606 19.5272C55.2628 19.0845 55.0488 18.5664 54.9185 17.9635C54.6766 16.8143 54.8348 15.7781 55.3745 14.8926C55.9235 14.0072 56.7702 13.4326 57.8961 13.1876C58.9662 12.9616 59.9432 13.1217 60.79 13.668C61.6367 14.2238 62.195 15.0905 62.4369 16.2397C62.5486 16.7484 62.5672 17.2853 62.5021 17.8222V17.8317ZM72.3746 17.3136C72.2071 17.8222 71.9559 18.265 71.6395 18.6418C71.3139 19.0186 70.9324 19.3294 70.5043 19.5461C70.0856 19.7627 69.6204 19.8946 69.1272 19.9323L67.9455 19.8569C67.9455 19.8569 67.7221 19.7627 67.5081 19.678C67.5454 20.2808 67.6291 21.4207 67.6291 21.4207C67.6291 21.4207 67.7128 21.7127 67.7128 21.7221L67.9082 21.854L68.3828 21.9387L69.1272 21.9764L69.1923 22.9373L64.605 23.2575L64.5585 22.5228V22.2873L65.2005 22.1931L65.5262 22.1083L65.6844 21.9764L65.7309 21.6562L65.2191 14.0731L65.1168 13.7811C65.1168 13.7811 64.8934 13.5644 64.8934 13.555L64.605 13.4797L63.9443 13.4326L63.8792 12.4906L66.7079 12.1232L66.9964 12.3304C66.9964 12.3304 67.015 12.6413 67.0336 12.8297C67.229 12.6413 67.4058 12.434 67.6663 12.2833C68.0664 12.0478 68.4852 11.9065 68.8946 11.8783C69.3877 11.8406 69.853 11.9159 70.281 12.0949C70.6997 12.2645 71.0812 12.5188 71.3976 12.8391C71.7326 13.1782 72.0117 13.5833 72.2164 14.0448C72.4212 14.5064 72.5421 15.0434 72.5886 15.6462C72.6259 16.2397 72.5607 16.8049 72.3839 17.3136H72.3746ZM80.991 18.1048C80.6095 18.6889 80.1256 19.1504 79.5394 19.4801C78.9532 19.8098 78.3391 19.9606 77.7157 19.9323C76.5805 19.8758 75.6872 19.4613 75.0638 18.6983C74.4496 17.9353 74.1705 16.9368 74.217 15.7216C74.2356 15.1941 74.3473 14.6948 74.5427 14.2332C74.7381 13.7811 75.0079 13.3572 75.3522 12.9992C75.6872 12.6413 76.0966 12.3681 76.5805 12.1609C77.0643 11.9536 77.5947 11.8688 78.1623 11.8971C78.9346 11.9348 79.5767 12.1514 80.0512 12.5377C80.5537 12.9427 80.7956 13.4891 80.7677 14.1579C80.7584 14.4499 80.6653 14.7137 80.5165 14.9303C80.3955 15.0999 80.1536 15.3071 79.6976 15.2883C79.344 15.2694 79.0556 15.1658 78.8602 14.968C78.6462 14.7608 78.5531 14.5347 78.5624 14.2803L78.6927 13.5456C78.6927 13.5456 78.7485 13.3195 78.7857 13.1971C78.7206 13.1405 78.5903 13.0463 78.5903 13.0463L78.0879 12.9521L77.5017 13.0558C77.3156 13.1311 77.1295 13.2818 76.9434 13.5079C76.7666 13.7151 76.6177 14.0166 76.4967 14.384C76.3758 14.7702 76.292 15.2412 76.2734 15.7781C76.2362 16.6165 76.3944 17.323 76.748 17.8599C77.0922 18.378 77.5482 18.6418 78.1344 18.67C78.5624 18.6889 78.9253 18.6041 79.2231 18.4251C79.5301 18.2367 79.8186 17.9259 80.0977 17.5208L80.2373 17.3136L81.112 17.9164L80.9817 18.1237L80.991 18.1048ZM90.5193 19.9982C90.4448 20.3185 90.3332 20.5917 90.1936 20.8084C90.054 21.025 89.8866 21.204 89.7005 21.3359C89.5144 21.4678 89.3096 21.5714 89.0863 21.6279C88.863 21.6938 88.6397 21.7315 88.3978 21.7409C88.1558 21.7503 87.9232 21.7409 87.6813 21.7032C87.4393 21.6656 87.2067 21.6279 86.9834 21.5714L82.4891 20.4787L82.6566 19.7722L83.5033 19.8946L83.7732 19.7251L85.1224 14.0543L84.9549 13.7811L84.1454 13.4985L84.3129 12.792L88.4071 13.7905L88.2396 14.497L87.3184 14.3557L87.0485 14.5253L86.5461 16.6259C86.7601 16.6542 86.9555 16.6918 87.1323 16.7201C87.3091 16.7484 87.5045 16.7955 87.7185 16.8426C87.9418 16.8991 88.1744 16.965 88.4257 17.0404C88.6676 17.1157 88.9095 17.2194 89.1515 17.3324C89.3841 17.4454 89.6074 17.5867 89.8121 17.7469C90.0168 17.907 90.1843 18.0954 90.3146 18.3121C90.4448 18.5287 90.5286 18.7737 90.5751 19.0562C90.6216 19.3294 90.603 19.6497 90.5193 19.9982ZM99.6195 19.9982C99.3497 19.8946 99.1636 19.7345 99.0519 19.5272C99.0519 19.5272 98.9682 19.3106 98.8751 19.1033C98.8007 19.1693 98.7356 19.2352 98.7356 19.2352L98.2424 19.8004L97.4422 20.5163C97.4422 20.5163 97.1909 20.62 96.9583 20.7047C97.2189 20.9214 97.498 21.1381 97.6283 21.3924C97.8051 21.7315 97.926 22.1177 97.9726 22.551L98.0377 23.2575L98.0749 23.7945C98.0749 23.7945 98.1959 24.1901 98.1959 24.1995C98.1959 24.1995 98.4378 24.4256 98.4471 24.4256L98.7356 24.6046L99.2101 24.8589L98.8658 25.7538L96.3163 24.7459L96.1488 24.6799L96.2046 23.4271L96.1488 22.3815C96.1023 21.9105 95.9813 21.5431 95.8138 21.2794C95.6649 21.0439 95.4044 20.8743 95.0787 20.733C94.8833 21.2323 94.4553 22.3438 94.4553 22.3438L94.4181 22.617C94.4181 22.617 94.5576 22.8336 94.5669 22.8431C94.5669 22.8431 94.8089 23.0409 94.7996 23.0315L95.3206 23.3235L94.9764 24.2184L91.1148 22.6923L91.4591 21.788L92.0174 21.9576L92.2779 22.0141L92.4826 21.967L92.6501 21.7221L94.3064 17.4078L94.3436 17.1346L94.204 16.9085C94.204 16.9085 93.9342 16.6918 93.9342 16.7013L93.4317 16.4281L93.683 15.7687L93.776 15.5332L97.6469 17.0592L97.3863 17.7469L97.2933 17.9541L96.735 17.794C96.735 17.794 96.4838 17.7469 96.4745 17.7375L96.2884 17.7846L96.1209 18.0389C96.1209 18.0389 95.6091 19.3765 95.4695 19.7439C95.5719 19.7816 95.6649 19.8193 95.6649 19.8193L96.065 19.8946L96.4279 19.8193L96.9118 19.4707L97.3957 18.9715L97.9074 18.4345C97.9074 18.4345 98.4471 18.0106 98.4471 18.0012L99.2752 17.7657L100.066 17.9164C100.485 18.0766 100.764 18.3027 100.904 18.5664C101.043 18.849 101.062 19.1316 100.95 19.433C100.848 19.6874 100.671 19.8758 100.429 19.9888C100.178 20.1113 99.908 20.1113 99.6288 19.9982H99.6195ZM104.449 28.8059L100.206 26.3661L100.634 25.5748L101.62 26.0364L101.927 25.9611L106.012 18.4157L105.91 18.1237L104.998 17.502L105.426 16.7107L109.669 19.1504L109.241 19.9417L108.245 19.4613L107.957 19.5272L103.872 27.0726L103.965 27.3835L104.877 28.0146L104.449 28.8059ZM87.9604 17.9447C87.7929 17.8128 87.5789 17.7092 87.2998 17.6433C87.0858 17.5867 86.8997 17.5585 86.7322 17.5396C86.5647 17.5208 86.4344 17.5114 86.3414 17.5114L85.69 20.2526C85.9971 20.3939 86.2948 20.4975 86.574 20.5634C86.7136 20.6011 86.8717 20.6294 87.0578 20.6388C87.2346 20.6482 87.4114 20.62 87.5882 20.554C87.765 20.4881 87.9232 20.3656 88.0721 20.1866C88.221 20.0077 88.3326 19.7533 88.4164 19.4236C88.4536 19.2635 88.4722 19.0845 88.4629 18.9055C88.4629 18.7266 88.4164 18.5476 88.3326 18.3874C88.2582 18.2179 88.1279 18.0672 87.9697 17.9353L87.9604 17.9447ZM69.9367 13.9318C69.7692 13.6963 69.5645 13.5079 69.3133 13.376C69.0714 13.2442 68.7736 13.1876 68.4386 13.2159C68.113 13.2347 67.8524 13.3195 67.6384 13.4702C67.6384 13.4702 67.2104 13.8753 67.1173 13.9695C67.1545 14.5347 67.3779 17.907 67.3779 17.9918L67.5826 18.3215L67.8989 18.6135L68.3549 18.8396L68.9225 18.8961C69.1644 18.8773 69.3877 18.8019 69.6017 18.6606C69.8158 18.5193 69.9926 18.3403 70.1321 18.0954C70.2996 17.8128 70.4113 17.4737 70.4764 17.1063L70.5229 15.8346L70.3368 14.7984L69.9367 13.9318Z" stroke="black" stroke-width="2.16352" mask="url(#path-2-outside-1_753_1376)"/>
</svg>
