<svg width="118" height="106" viewBox="0 0 118 106" fill="none" xmlns="http://www.w3.org/2000/svg">
<path d="M40.5 62.375V103M40.5 62.375V53C40.5 49.5482 43.2982 46.75 46.75 46.75H71.75C75.2018 46.75 78 49.5482 78 53V74.875M40.5 62.375H9.25C5.79822 62.375 3 65.1732 3 68.625V96.75C3 100.202 5.79822 103 9.25 103H40.5M40.5 103H78M78 74.875V103M78 74.875H109.252C112.704 74.875 115.5 77.6732 115.5 81.125V96.75C115.5 100.202 112.702 103 109.25 103H78M53 9.25L59.25 3V21.75M24.875 40.5H18.8333C16.9924 40.5 15.4312 38.8938 16.4259 37.3447C16.8545 36.6773 17.4206 36.0946 18.1002 35.6416L22.1557 32.9379C23.8546 31.8053 24.875 29.8986 24.875 27.8568V26.4375C24.875 23.8487 22.7763 21.75 20.1875 21.75C17.5987 21.75 15.5 23.8487 15.5 26.4375V28M93.625 34.25H98.3865C100.934 34.25 103 36.3156 103 38.8635C103 41.2669 101.155 43.2677 98.7595 43.462L96.75 43.625L98.7045 43.7641C101.125 43.9364 103 45.95 103 48.3762C103 50.9299 100.93 53 98.3762 53H93.625" stroke="black" stroke-width="5" stroke-linecap="round" stroke-linejoin="round"/>
</svg>
