<svg width="25" height="21" viewBox="0 0 25 21" fill="none" xmlns="http://www.w3.org/2000/svg">
<path d="M21.1666 11.9616V16.7045C21.1666 17.8878 20.7431 18.8995 19.8963 19.7397C19.0494 20.5799 18.0297 21 16.837 21H4.32952C3.1369 21 2.11716 20.5799 1.27029 19.7397C0.423432 18.8995 0 17.8878 0 16.7045V4.29545C0 3.11222 0.423432 2.1005 1.27029 1.2603C2.11716 0.420099 3.1369 0 4.32952 0H16.837C17.4684 0 18.0547 0.12429 18.5959 0.372869C18.7462 0.442472 18.8364 0.556818 18.8665 0.715909C18.8966 0.884943 18.8515 1.02912 18.7312 1.14844L17.9946 1.87926C17.8944 1.97869 17.7791 2.02841 17.6488 2.02841C17.6188 2.02841 17.5737 2.01847 17.5135 1.99858C17.283 1.93892 17.0575 1.90909 16.837 1.90909H4.32952C3.66807 1.90909 3.10182 2.14276 2.63079 2.61009C2.15975 3.07741 1.92423 3.6392 1.92423 4.29545V16.7045C1.92423 17.3608 2.15975 17.9226 2.63079 18.3899C3.10182 18.8572 3.66807 19.0909 4.32952 19.0909H16.837C17.4985 19.0909 18.0647 18.8572 18.5358 18.3899C19.0068 17.9226 19.2423 17.3608 19.2423 16.7045V12.9162C19.2423 12.7869 19.2874 12.6776 19.3776 12.5881L20.3397 11.6335C20.44 11.5341 20.5552 11.4844 20.6855 11.4844C20.7456 11.4844 20.8058 11.4993 20.8659 11.5291C21.0663 11.6087 21.1666 11.7528 21.1666 11.9616ZM24.6392 4.66832L12.4023 16.8089C12.1618 17.0476 11.8761 17.1669 11.5454 17.1669C11.2147 17.1669 10.929 17.0476 10.6885 16.8089L4.22429 10.3956C3.98376 10.157 3.8635 9.87358 3.8635 9.54545C3.8635 9.21733 3.98376 8.93395 4.22429 8.69531L5.87793 7.05469C6.11846 6.81605 6.40409 6.69673 6.73482 6.69673C7.06554 6.69673 7.35117 6.81605 7.5917 7.05469L11.5454 10.9773L21.2718 1.32741C21.5123 1.08878 21.798 0.96946 22.1287 0.96946C22.4594 0.96946 22.745 1.08878 22.9856 1.32741L24.6392 2.96804C24.8797 3.20668 25 3.49006 25 3.81818C25 4.14631 24.8797 4.42969 24.6392 4.66832Z" fill="black"/>
</svg>
