<svg width="150" height="68" viewBox="0 0 150 68" fill="none" xmlns="http://www.w3.org/2000/svg">
<path d="M19.3472 17.5592C23.5582 13.0855 29.021 13.5329 29.021 13.5329V26.9539H15.5915C15.5915 26.9539 15.1363 22.0329 19.3472 17.5592Z" fill="#FFBF3C"/>
<path d="M33.7212 0C33.7212 0 39.4916 22.3684 41.654 24.2697C43.8163 26.1711 68.1714 31.3158 68.1714 31.3158L33.7212 31.7632V0Z" fill="#00B2E3"/>
<path d="M34.0288 31.4276L33.915 62.6316C33.915 62.6316 28.4522 40.5987 26.2621 38.5669C24.072 36.5351 0 31.6699 0 31.6699L34.0288 31.4276Z" fill="#00B2E3"/>
<path d="M43.4659 39.2566H50.9022C55.4841 39.2566 57.1116 41.5695 57.1116 43.8332C57.1116 45.2111 56.4857 46.5397 55.0084 47.4255C56.8612 48.1391 57.7876 49.4924 57.7876 51.4116C57.7876 54.2904 55.6093 56.4803 51.403 56.4803H43.4659C42.8149 56.4803 42.3643 56.0866 42.3643 55.5207V40.2162C42.3643 39.6503 42.8149 39.2566 43.4659 39.2566ZM51.453 48.3359H44.9432V55.0778H51.403C53.9067 55.0778 55.2087 53.3062 55.2087 51.4116C55.2087 49.4924 53.8817 48.3359 51.453 48.3359ZM44.9432 46.958H50.9272C53.6814 46.9088 54.5327 45.3095 54.5327 43.8332C54.5327 42.283 53.5061 40.6591 50.9022 40.6591H44.9432V46.958Z" fill="#001A70"/>
<path d="M60.8004 55.5207V40.2162C60.8004 39.6503 61.2511 39.2566 61.9021 39.2566H68.9127C72.1927 39.2566 74.8968 41.6187 74.8968 44.6943C74.8968 46.8842 73.2442 48.828 70.9157 49.5908C73.9704 50.9687 74.0455 55.7175 74.8717 55.9389C75.1471 56.0128 75.2723 56.1358 75.2723 56.2834C75.2723 56.7263 74.421 56.7509 74.0955 56.7509C70.0895 56.7509 71.8922 50.1321 67.811 50.1321H63.3793V55.5207C63.4043 56.0866 62.9537 56.4803 62.2776 56.4803H61.9021C61.2511 56.4803 60.8004 56.0866 60.8004 55.5207ZM68.437 40.6591H63.3793V48.7296H68.437C71.1411 48.7296 72.3429 46.6874 72.3178 44.6943C72.2928 42.5291 71.0659 40.6591 68.437 40.6591Z" fill="#001A70"/>
<path d="M76.6864 56.4803C76.3108 56.4803 76.0354 56.308 76.2357 55.8651L83.9223 39.7979C84.1226 39.3796 84.4732 39.2566 84.9239 39.2566H85.8753C86.3009 39.2566 86.7016 39.478 86.8768 39.8225L94.3882 55.5945C94.6636 56.185 94.5134 56.4803 93.9125 56.4803H92.8859C92.4352 56.4803 92.0597 56.2588 91.8844 55.9143L90.1318 52.2728H79.8662L78.1135 55.9143C77.9383 56.2588 77.7129 56.4803 77.2122 56.4803H76.6864ZM80.5422 50.8457H89.4557L84.999 41.4711L80.5422 50.8457Z" fill="#001A70"/>
<path d="M96.6457 55.7667V40.2162C96.6457 39.6503 97.0964 39.2566 97.7474 39.2566H98.7239C99.0994 39.2566 99.45 39.4042 99.6252 39.6503L110.191 53.8967V39.9455C110.191 39.5518 110.517 39.2566 111.018 39.2566C111.493 39.2566 111.869 39.5272 111.869 39.9209V55.5453C111.869 56.1112 111.418 56.4803 110.767 56.4803H109.741C109.39 56.4803 109.014 56.308 108.839 56.0866L98.3233 41.8401V55.7667C98.3483 56.185 97.9978 56.4803 97.497 56.4803C96.9963 56.4803 96.6457 56.2096 96.6457 55.7667Z" fill="#001A70"/>
<path d="M122.875 56.4803H116.966C116.315 56.4803 115.864 56.0866 115.864 55.5207V40.2162C115.864 39.6503 116.315 39.2566 116.966 39.2566H122.875C128.158 39.2566 131.989 42.8736 131.964 47.8684C131.964 53.0355 128.008 56.4803 122.875 56.4803ZM118.443 40.6591V55.0778H122.549C126.305 55.0778 129.26 52.2728 129.26 47.8684C129.26 43.4641 126.405 40.6591 122.549 40.6591H118.443Z" fill="#001A70"/>
<path d="M134.76 54.5611C134.46 54.3396 134.285 54.1428 134.285 53.8967C134.285 53.7491 134.46 53.4784 134.61 53.3062L135.186 52.6418C135.361 52.4204 135.562 52.3712 135.712 52.3712C136.037 52.3712 136.313 52.6665 136.538 52.8879C138.065 54.4134 139.843 55.2992 141.996 55.2992C144.175 55.2992 146.403 54.5118 146.428 52.0267C146.478 47.0072 134.335 49.5416 134.335 43.2426C134.335 40.8313 136.688 39.0105 141.02 39.0105C145.276 39.0105 147.955 40.4376 147.93 42.5291C147.93 43.4887 146.854 44.1776 146.203 44.2022C145.527 44.2022 145.602 43.784 145.602 43.3165C145.602 41.6925 143.824 40.413 141.02 40.413C138.14 40.413 136.914 41.7417 136.914 43.1688C136.914 47.4993 149.057 45.088 149.007 51.8791C148.982 54.9055 146.278 56.7263 142.021 56.7263C138.191 56.7263 135.762 55.2992 134.76 54.5611Z" fill="#001A70"/>
<path d="M78.4413 29.5576C78.1136 29.316 77.9224 29.1013 77.9224 28.8329C77.9224 28.6718 78.1136 28.3766 78.2774 28.1887L78.9057 27.4639C79.0969 27.2224 79.3154 27.1687 79.4793 27.1687C79.8344 27.1687 80.1348 27.4908 80.3806 27.7324C82.0468 29.3966 83.9861 30.3629 86.3351 30.3629C88.7114 30.3629 91.1424 29.5039 91.1697 26.7929C91.2243 21.3171 77.977 24.0818 77.977 17.2103C77.977 14.5797 80.5445 12.5934 85.2699 12.5934C89.9133 12.5934 92.8359 14.1503 92.8086 16.4318C92.8086 17.4787 91.634 18.2303 90.9239 18.2571C90.1864 18.2571 90.2683 17.8008 90.2683 17.2908C90.2683 15.5192 88.329 14.1234 85.2699 14.1234C82.1287 14.1234 80.7903 15.5729 80.7903 17.1297C80.7903 21.8539 94.0377 19.2234 93.9831 26.6318C93.9557 29.9334 91.0058 31.9197 86.3624 31.9197C82.1834 31.9197 79.5339 30.3629 78.4413 29.5576Z" fill="#001A70"/>
<path d="M96.8146 14.3918C96.2683 14.3918 95.8859 14.0966 95.8859 13.6134C95.8859 13.1839 96.2683 12.8618 96.8146 12.8618H110.39C110.936 12.8618 111.318 13.1571 111.318 13.6134C111.318 14.0966 110.936 14.3918 110.39 14.3918H105.009V30.6045C105.009 31.2218 104.517 31.6513 103.807 31.6513H103.397C102.687 31.6513 102.195 31.2218 102.195 30.6045V14.3918H96.8146Z" fill="#001A70"/>
<path d="M111.06 31.6513C110.65 31.6513 110.35 31.4634 110.568 30.9803L118.953 13.4524C119.172 12.996 119.554 12.8618 120.046 12.8618H121.084C121.548 12.8618 121.985 13.1034 122.177 13.4792L130.371 30.685C130.671 31.3292 130.507 31.6513 129.852 31.6513H128.732C128.24 31.6513 127.831 31.4097 127.639 31.0339L125.727 27.0613H114.529L112.617 31.0339C112.425 31.4097 112.18 31.6513 111.633 31.6513H111.06ZM115.266 25.5045H124.99L120.128 15.2776L115.266 25.5045Z" fill="#001A70"/>
<path d="M133.38 30.6045V13.9087C133.38 13.2913 133.871 12.8618 134.582 12.8618H142.23C145.808 12.8618 148.758 15.4387 148.758 18.7939C148.758 21.1829 146.955 23.3034 144.415 24.1355C147.747 25.6387 147.829 30.8192 148.73 31.0608C149.031 31.1413 149.167 31.2755 149.167 31.4366C149.167 31.9197 148.239 31.9466 147.884 31.9466C143.513 31.9466 145.48 24.726 141.028 24.726H136.193V30.6045C136.22 31.2218 135.729 31.6513 134.991 31.6513H134.582C133.871 31.6513 133.38 31.2218 133.38 30.6045ZM141.711 14.3918H136.193V23.196H141.711C144.661 23.196 145.972 20.9682 145.944 18.7939C145.917 16.4318 144.579 14.3918 141.711 14.3918Z" fill="#001A70"/>
<path d="M44.3598 67.0471C43.2399 67.0471 42.3276 66.2043 42.3276 65.1252C42.3276 64.0354 43.2563 63.1872 44.3598 63.1818C45.3158 63.1818 45.8238 63.6596 45.8238 64.0193C45.8238 64.2341 45.5999 64.4488 45.4469 64.4488H45.4414C45.3814 64.4488 45.3049 64.4166 45.3049 64.2877C45.3049 63.9656 45.0754 63.4878 44.3598 63.4878C43.5513 63.4878 42.8958 64.0998 42.8903 65.1252C42.8903 66.1398 43.5622 66.7411 44.3653 66.7411C44.9334 66.7411 45.2011 66.4512 45.3431 66.2257C45.3923 66.1398 45.4851 66.1023 45.5726 66.1023C45.7037 66.1023 45.8293 66.1989 45.8293 66.3331C45.8293 66.3868 45.8075 66.4512 45.7474 66.5103C45.436 66.8485 44.9716 67.0471 44.3598 67.0471Z" fill="#001A70"/>
<path d="M47.7082 63.5415C47.5989 63.5415 47.5224 63.4825 47.5224 63.3858C47.5224 63.3 47.5989 63.2355 47.7082 63.2355H50.4232C50.5325 63.2355 50.6089 63.2946 50.6089 63.3858C50.6089 63.4825 50.5325 63.5415 50.4232 63.5415H49.347V66.7841C49.3416 66.9075 49.2487 66.9934 49.1067 66.9934H49.0247C48.8827 66.9934 48.7844 66.9075 48.7844 66.7841V63.5415H47.7082Z" fill="#001A70"/>
<path d="M52.8157 66.9934C52.6737 66.9934 52.5753 66.9075 52.5753 66.7841V63.4449C52.5753 63.3214 52.6737 63.2355 52.8157 63.2355H54.4382C55.4379 63.2355 55.7929 63.7402 55.7929 64.2341C55.7929 64.5347 55.6564 64.8246 55.3341 65.0178C55.7383 65.1735 55.9404 65.4688 55.9404 65.8875C55.9404 66.5156 55.4652 66.9934 54.5474 66.9934H52.8157ZM53.138 66.6874H54.5474C55.0937 66.6874 55.3778 66.3009 55.3778 65.8875C55.3778 65.4688 55.0882 65.2165 54.5583 65.2165H53.138V66.6874ZM53.138 63.5415V64.9158H54.4436C55.0445 64.9051 55.2248 64.5562 55.2303 64.2341C55.2303 63.8958 55.0063 63.5415 54.4382 63.5415H53.138Z" fill="#001A70"/>
<path d="M59.8864 67.0471C58.7665 67.0471 57.8542 66.1774 57.8542 65.1037C57.8542 64.0247 58.8047 63.2033 59.8864 63.1818C60.9899 63.2033 61.924 64.0408 61.9186 65.1037C61.9186 66.1774 60.9735 67.0256 59.8864 67.0471ZM58.4169 65.1037C58.4169 66.0647 59.0779 66.7411 59.8864 66.7411C60.7003 66.7411 61.3559 66.0647 61.3559 65.1037C61.3559 64.1428 60.7003 63.4932 59.8864 63.4932C59.0779 63.4932 58.4169 64.1428 58.4169 65.1037Z" fill="#001A70"/>
<path d="M64.2906 66.9934C64.1486 66.9934 64.0502 66.9075 64.0502 66.7841V63.4449C64.0502 63.3214 64.1486 63.2355 64.2906 63.2355H65.6454C66.372 63.2355 66.951 63.7348 66.951 64.422C66.951 65.0501 66.432 65.6084 65.6509 65.6084H64.6129V66.7841C64.6184 66.9075 64.5201 66.9934 64.3726 66.9934H64.2906ZM64.6129 63.5415V65.3024H65.5416C66.1316 65.3024 66.3883 64.8568 66.3829 64.422C66.3829 63.9442 66.1043 63.5415 65.5416 63.5415H64.6129Z" fill="#001A70"/>
<path d="M69.3239 66.9934C69.1818 66.9934 69.0835 66.9075 69.0835 66.7841V63.4449C69.0835 63.3214 69.1818 63.2355 69.3239 63.2355H69.4058C69.5533 63.2355 69.6462 63.3214 69.6462 63.4449V64.9642H70.1051C70.1815 63.9388 71.0829 63.1872 72.1372 63.1818C73.2571 63.1765 74.1694 64.0247 74.1694 65.1037C74.1694 66.1774 73.2189 67.0256 72.1372 67.0471C71.0938 67.031 70.1925 66.258 70.1105 65.2702H69.6462V66.7841C69.6462 66.9075 69.5533 66.9934 69.4058 66.9934H69.3239ZM72.1372 63.4932C71.3233 63.4878 70.6677 64.1482 70.6677 65.1037C70.6677 66.0647 71.3287 66.7411 72.1372 66.7411C72.9457 66.7411 73.6067 66.0647 73.6067 65.1037C73.6067 64.1428 72.9457 63.4932 72.1372 63.4932Z" fill="#001A70"/>
<path d="M78.1124 67.0471C77.0143 67.0256 76.0802 66.1882 76.0802 65.1252C76.0802 64.0354 77.0089 63.1818 78.1124 63.1818C79.0574 63.1818 79.5655 63.6596 79.5764 64.0193C79.5709 64.2287 79.347 64.4488 79.1995 64.4488H79.194C79.1339 64.4488 79.0574 64.4166 79.0574 64.2877C79.0574 63.9603 78.8225 63.4878 78.1124 63.4878C77.353 63.4878 76.7193 64.0408 76.6483 64.9642H78.7078C78.8116 64.9642 78.8881 65.0286 78.8881 65.1145C78.8881 65.2057 78.8116 65.2702 78.7078 65.2702H76.6483C76.7139 66.1774 77.3694 66.725 78.1178 66.7411C78.6696 66.7304 78.9536 66.4512 79.0957 66.2257C79.1503 66.1398 79.2377 66.1023 79.3251 66.1023C79.4562 66.1023 79.5819 66.1989 79.5819 66.3331C79.5819 66.3868 79.56 66.4512 79.4999 66.5103C79.1776 66.8324 78.7133 67.0417 78.1124 67.0471Z" fill="#001A70"/>
<path d="M81.6574 63.4449C81.6574 63.3214 81.7557 63.2355 81.8978 63.2355H82.0944C82.1818 63.2355 82.2692 63.2785 82.302 63.3322L83.5912 65.4205C84.0064 64.7333 84.4052 64.0086 84.8422 63.3375C84.8805 63.2785 84.9569 63.2355 85.0498 63.2355H85.2301C85.3776 63.2355 85.4759 63.3214 85.4759 63.4449V66.7841C85.4759 66.9075 85.3776 66.9934 85.2301 66.9934H85.1536C85.0061 66.9934 84.9132 66.9075 84.9132 66.7841V63.9012C84.509 64.5669 84.1321 65.2702 83.695 65.9197C83.6404 66.0003 83.5639 66.0486 83.482 66.0486C83.4 66.0486 83.3345 66.0056 83.2799 65.9197L82.0234 63.8905V66.8377C82.0289 66.929 81.9524 66.9934 81.8431 66.9934C81.7339 66.9934 81.6574 66.9344 81.6574 66.8377V63.4449Z" fill="#001A70"/>
<path d="M89.6406 67.0471C88.5207 67.0471 87.6085 66.1774 87.6085 65.1037C87.6085 64.0247 88.559 63.2033 89.6406 63.1818C90.7441 63.2033 91.6783 64.0408 91.6728 65.1037C91.6728 66.1774 90.7277 67.0256 89.6406 67.0471ZM88.1711 65.1037C88.1711 66.0647 88.8321 66.7411 89.6406 66.7411C90.4546 66.7411 91.1101 66.0647 91.1101 65.1037C91.1101 64.1428 90.4546 63.4932 89.6406 63.4932C88.8321 63.4932 88.1711 64.1428 88.1711 65.1037Z" fill="#001A70"/>
<path d="M96.8855 66.9934C96.7435 66.9934 96.6452 66.9075 96.6452 66.7841V63.4449C96.6452 63.3214 96.7435 63.2355 96.8855 63.2355H98.2403C98.9669 63.2355 99.5459 63.7348 99.5459 64.422C99.5459 65.0501 99.027 65.6084 98.2458 65.6084H97.2078V66.7841C97.2133 66.9075 97.115 66.9934 96.9675 66.9934H96.8855ZM97.2078 63.5415V65.3024H98.1365C98.7265 65.3024 98.9832 64.8568 98.9778 64.422C98.9778 63.9442 98.6992 63.5415 98.1365 63.5415H97.2078Z" fill="#001A70"/>
<path d="M100.757 66.8807C100.751 66.8646 100.762 66.8377 100.773 66.8109L102.417 63.3536V63.359C102.445 63.2838 102.538 63.2355 102.636 63.2355H102.843C102.942 63.2355 103.035 63.2838 103.062 63.359C103.488 64.524 104.176 65.5923 104.674 66.7357C104.69 66.7733 104.701 66.8109 104.701 66.8377C104.701 66.9344 104.624 66.9934 104.482 66.9934H104.373C104.275 66.9934 104.193 66.9451 104.155 66.87L103.778 66.0754H101.532C101.407 66.3385 101.27 66.6069 101.155 66.87C101.123 66.9451 101.068 66.9934 100.959 66.9934H100.915C100.811 66.9934 100.757 66.9505 100.757 66.8807ZM102.652 63.7187L101.685 65.7641H103.625L102.652 63.7187Z" fill="#001A70"/>
<path d="M106.577 66.5371C106.544 66.4995 106.528 66.4673 106.528 66.4297C106.528 66.3814 106.555 66.3277 106.61 66.2848L106.659 66.2472H106.653C106.697 66.215 106.746 66.1935 106.801 66.1989C106.883 66.2043 106.954 66.2418 107.003 66.3116C107.194 66.5908 107.544 66.7411 107.861 66.7411C108.374 66.7411 108.735 66.419 108.74 65.952C108.724 65.3507 108.057 65.2004 107.637 65.2004H107.369C107.26 65.2004 107.183 65.1306 107.183 65.0447C107.183 64.9481 107.26 64.8944 107.364 64.8944L107.609 64.889C107.997 64.8783 108.516 64.5776 108.516 64.0891C108.516 63.7402 108.303 63.4932 107.866 63.4878C107.424 63.4932 107.058 63.7133 107.058 64.1804C107.058 64.2341 107.036 64.2609 106.948 64.2609C106.839 64.2555 106.55 64.1482 106.55 63.912C106.55 63.5415 107.134 63.1926 107.861 63.1818C108.451 63.1926 109.079 63.4503 109.079 64.0945C109.079 64.4703 108.789 64.8246 108.391 64.9803C108.833 65.0769 109.292 65.3722 109.308 65.909C109.297 66.4727 108.811 67.0471 107.861 67.0471C107.107 67.0471 106.719 66.725 106.577 66.5371Z" fill="#001A70"/>
<path d="M113.308 67.0471C112.188 67.0471 111.276 66.1774 111.276 65.1037C111.276 64.0247 112.226 63.2033 113.308 63.1818C114.411 63.2033 115.346 64.0408 115.34 65.1037C115.34 66.1774 114.395 67.0256 113.308 67.0471ZM111.838 65.1037C111.838 66.0647 112.499 66.7411 113.308 66.7411C114.122 66.7411 114.777 66.0647 114.777 65.1037C114.777 64.1428 114.122 63.4932 113.308 63.4932C112.499 63.4932 111.838 64.1428 111.838 65.1037Z" fill="#001A70"/>
<path d="M117.472 63.4449C117.472 63.3214 117.57 63.2355 117.712 63.2355H117.909C117.996 63.2355 118.084 63.2785 118.116 63.3322L119.406 65.4205C119.821 64.7333 120.22 64.0086 120.657 63.3375C120.695 63.2785 120.771 63.2355 120.864 63.2355H121.044C121.192 63.2355 121.29 63.3214 121.29 63.4449V66.7841C121.29 66.9075 121.192 66.9934 121.044 66.9934H120.968C120.82 66.9934 120.728 66.9075 120.728 66.7841V63.9012C120.323 64.5669 119.946 65.2702 119.509 65.9197C119.455 66.0003 119.378 66.0486 119.296 66.0486C119.214 66.0486 119.149 66.0056 119.094 65.9197L117.838 63.8905V66.8377C117.843 66.929 117.767 66.9934 117.657 66.9934C117.548 66.9934 117.472 66.9344 117.472 66.8377V63.4449Z" fill="#001A70"/>
</svg>
