<svg width="35" height="35" viewBox="0 0 35 35" fill="none" xmlns="http://www.w3.org/2000/svg">
<path d="M29.25 29.25V8.625H23.625V3H6.75V29.25H3V31.125H16.125V25.5H19.875V31.125H33V29.25H29.25ZM14.25 21.75H10.5V18H14.25V21.75ZM14.25 16.125H10.5V12.375H14.25V16.125ZM14.25 10.5H10.5V6.75H14.25V10.5ZM19.875 21.75H16.125V18H19.875V21.75ZM19.875 16.125H16.125V12.375H19.875V16.125ZM19.875 10.5H16.125V6.75H19.875V10.5ZM27.375 21.75H23.625V18H27.375V21.75ZM27.375 16.125H23.625V12.375H27.375V16.125Z" fill="#FFBF3C"/>
</svg>
