<svg width="112" height="100" viewBox="0 0 112 100" fill="none" xmlns="http://www.w3.org/2000/svg">
<path d="M54.0192 94.4271C54.7467 94.4271 55.4927 94.2638 56.2573 93.9372C57.0218 93.6069 57.6398 93.206 58.1112 92.7347L101.514 49.3319C102.913 47.9327 103.991 46.5037 104.749 45.0451C105.509 43.579 105.89 41.9719 105.89 40.2238C105.89 38.4534 105.509 36.735 104.749 35.0685C103.991 33.3983 102.913 31.8766 101.514 30.5033L80.6365 9.62588C79.2595 8.22663 77.8436 7.20039 76.3886 6.54716C74.9374 5.89392 73.3266 5.56731 71.5562 5.56731C69.8081 5.56731 68.1843 5.89392 66.6848 6.54716C65.1854 7.20039 63.7713 8.22663 62.4425 9.62588L57.599 14.4694L67.8985 24.8079C69.0008 25.8917 69.8229 27.1258 70.3648 28.5102C70.9067 29.8946 71.1795 31.3013 71.1832 32.7302C71.1832 35.6252 70.2368 38.021 68.3439 39.9176C66.4436 41.8105 64.0459 42.7569 61.1509 42.7569C59.722 42.7569 58.3283 42.5398 56.9699 42.1056C55.6077 41.6713 54.3848 40.9104 53.301 39.823L42.6508 29.2117L18.6111 53.2457C18.047 53.8099 17.6238 54.4501 17.3418 55.1665C17.0597 55.8865 16.9187 56.6102 16.9187 57.3377C16.9187 58.6516 17.3399 59.7354 18.1824 60.589C19.025 61.4427 20.1032 61.8695 21.417 61.8695C22.1445 61.8695 22.8905 61.7025 23.6551 61.3684C24.4197 61.0418 25.0376 60.6428 25.509 60.1715L43.1518 42.5287L47.0935 46.4703L29.4785 64.1187C28.9143 64.6791 28.4912 65.3175 28.2092 66.0338C27.9271 66.7539 27.786 67.4776 27.786 68.2051C27.786 69.4448 28.2259 70.5025 29.1055 71.3785C29.9814 72.2581 31.0411 72.6979 32.2844 72.6979C33.0119 72.6979 33.7579 72.5346 34.5225 72.208C35.2871 71.8814 35.905 71.4824 36.3764 71.011L55.3052 52.11L59.2413 56.0517L40.3459 74.9805C39.8523 75.4519 39.4477 76.0698 39.1322 76.8344C38.813 77.599 38.6534 78.345 38.6534 79.0725C38.6534 80.3121 39.0932 81.3699 39.9729 82.2458C40.8488 83.1255 41.9084 83.5653 43.1518 83.5653C43.8793 83.5653 44.603 83.4243 45.3231 83.1422C46.0394 82.8601 46.6796 82.4388 47.2438 81.8784L66.1726 62.9774L70.1087 66.9191L51.1799 85.8479C50.6157 86.412 50.1926 87.0875 49.9105 87.8744C49.6284 88.6649 49.4874 89.3887 49.4874 90.0456C49.4874 91.3595 49.9513 92.4192 50.8792 93.2246C51.8034 94.03 52.8501 94.4327 54.0192 94.4327M53.9858 100C51.1242 100 48.6746 98.9533 46.6369 96.86C44.5956 94.763 43.7011 92.1779 43.9535 89.1048C40.7987 89.1419 38.1728 88.1992 36.0758 86.2766C33.975 84.3577 32.9785 81.678 33.0861 78.2374C29.6455 78.2745 26.9361 77.2909 24.9578 75.2867C22.9759 73.2825 22.074 70.6436 22.2521 67.37C19.1567 67.4071 16.5661 66.5349 14.4802 64.7534C12.3943 62.9793 11.3513 60.5074 11.3513 57.3377C11.3513 55.9088 11.6297 54.4798 12.1864 53.0509C12.7395 51.6182 13.556 50.36 14.6361 49.2762L42.6508 21.295L57.0255 35.6697C57.4969 36.1634 58.0796 36.5698 58.7737 36.889C59.464 37.2045 60.2434 37.3622 61.1119 37.3622C62.3071 37.3622 63.3611 36.9465 64.2742 36.1151C65.1872 35.2837 65.6437 34.2018 65.6437 32.8694C65.6437 31.9972 65.486 31.214 65.1705 30.52C64.8513 29.8296 64.4468 29.2488 63.9568 28.7774L44.8053 9.62588C43.4246 8.22663 41.9901 7.20039 40.5018 6.54716C39.0172 5.89392 37.3878 5.56731 35.6137 5.56731C33.8655 5.56731 32.277 5.89392 30.8481 6.54716C29.4228 7.20039 28.0106 8.22663 26.6113 9.62588L9.66445 26.6062C8.46934 27.7939 7.50434 29.2135 6.76945 30.8652C6.03457 32.5168 5.64486 34.2185 5.60032 35.9704C5.5632 37.2286 5.67084 38.4367 5.92322 39.5947C6.18303 40.7564 6.5913 41.8476 7.14803 42.8683L2.92801 47.0827C1.9927 45.5944 1.26153 43.8778 0.73449 41.933C0.20374 39.9844 -0.0393663 37.9987 0.00517221 35.9759C0.0497107 33.4484 0.556336 31.0266 1.52505 28.7106C2.49747 26.3909 3.88559 24.3291 5.68939 22.5253L22.5305 5.68422C24.4716 3.76536 26.526 2.33641 28.6935 1.3974C30.861 0.465799 33.203 0 35.7195 0C38.2433 0 40.5686 0.467654 42.6953 1.40296C44.8257 2.33827 46.8522 3.76536 48.7748 5.68422L53.6184 10.5333L58.473 5.68422C60.4142 3.76536 62.45 2.33641 64.5804 1.3974C66.7108 0.465799 69.0361 0 71.5562 0C74.0764 0 76.4183 0.467654 78.5822 1.40296C80.7497 2.33827 82.7929 3.76536 84.7118 5.68422L105.45 26.4224C107.373 28.3413 108.853 30.4959 109.893 32.8861C110.936 35.28 111.457 37.7371 111.457 40.2572C111.457 42.7736 110.938 45.0971 109.898 47.2275C108.855 49.3579 107.373 51.3844 105.45 53.307L62.0473 96.6763C60.893 97.8343 59.6348 98.6768 58.2726 99.2039C56.9142 99.7309 55.4853 99.9944 53.9858 99.9944" fill="black"/>
</svg>
