<svg width="129" height="106" viewBox="0 0 129 106" fill="none" xmlns="http://www.w3.org/2000/svg">
<path d="M91.3111 86.3333H114.771C122.175 86.3333 128.503 80.0079 125.014 73.5133C119.276 62.835 106.345 56.3333 91.3111 56.3333C83.9544 56.3333 77.1217 57.8168 71.3916 60.5762M3.98619 90.18C9.72364 79.5017 22.6554 73 37.6889 73C52.7224 73 65.6541 79.5017 71.3916 90.18C74.8811 96.6745 68.5523 103 61.1486 103H14.2292C6.82548 103 0.496645 96.6745 3.98619 90.18ZM54.4458 36.3333C54.4458 45.5381 46.9435 53 37.6889 53C28.4343 53 20.9319 45.5381 20.9319 36.3333C20.9319 27.1286 28.4343 19.6667 37.6889 19.6667C46.9435 19.6667 54.4458 27.1286 54.4458 36.3333ZM108.068 19.6667C108.068 28.8714 100.566 36.3333 91.3111 36.3333C82.0565 36.3333 74.5542 28.8714 74.5542 19.6667C74.5542 10.4619 82.0565 3 91.3111 3C100.566 3 108.068 10.4619 108.068 19.6667Z" stroke="black" stroke-width="5" stroke-linecap="round" stroke-linejoin="round"/>
</svg>
