<svg width="120" height="106" viewBox="0 0 120 106" fill="none" xmlns="http://www.w3.org/2000/svg">
<path d="M88.7143 95.8571V28C88.7143 24.0551 91.9122 20.8571 95.8571 20.8571H110.143C114.088 20.8571 117.286 24.0551 117.286 28V95.8571C117.286 99.802 114.088 103 110.143 103H95.8571C91.9122 103 88.7143 99.802 88.7143 95.8571Z" stroke="black" stroke-width="5" stroke-linecap="round" stroke-linejoin="round"/>
<path d="M45.8571 95.8571V10.1429C45.8571 6.19797 49.0551 3 53 3H67.2857C71.2306 3 74.4286 6.19797 74.4286 10.1429V95.8571C74.4286 99.802 71.2306 103 67.2857 103H53C49.0551 103 45.8571 99.802 45.8571 95.8571Z" stroke="black" stroke-width="5" stroke-linecap="round" stroke-linejoin="round"/>
<path d="M3 95.8571V49.4286C3 45.4837 6.193 42.2857 10.1379 42.2857H24.4327C28.3776 42.2857 31.5714 45.4837 31.5714 49.4286V95.8571C31.5714 99.802 28.3735 103 24.4286 103H10.1429C6.19797 103 3 99.802 3 95.8571Z" stroke="black" stroke-width="5" stroke-linecap="round" stroke-linejoin="round"/>
</svg>
