<svg width="29" height="28" viewBox="0 0 29 28" fill="none" xmlns="http://www.w3.org/2000/svg">
<path d="M19.2629 19.5195V7.05083H19.2943V19.5195C19.2943 21.011 18.7732 22.2694 17.7199 23.3228C16.6665 24.3762 15.408 24.8976 13.9164 24.8983C12.425 24.8983 11.1668 24.3769 10.1134 23.3229L10.1133 23.3228C9.05998 22.2694 8.53894 21.011 8.53894 19.5195V6.55083C8.53894 5.51236 8.90281 4.63591 9.64433 3.89439C10.3858 3.15287 11.2623 2.789 12.3008 2.789C13.3401 2.789 14.2164 3.15292 14.9571 3.89422L14.9574 3.89455C15.6996 4.63611 16.0638 5.51251 16.0638 6.55083V18.2175C16.0638 18.8297 15.858 19.3285 15.4423 19.7449C15.0269 20.1601 14.5284 20.3658 13.9154 20.3658C13.3033 20.3658 12.8056 20.1601 12.3909 19.7449C11.9752 19.3285 11.7694 18.8297 11.7694 18.2175V7.05083H11.8008V18.2175C11.8008 18.8014 12.0035 19.3145 12.4116 19.7226L12.412 19.723C12.8205 20.1305 13.3333 20.3333 13.9166 20.3333C14.4999 20.3333 15.0127 20.1305 15.4212 19.723L15.4217 19.7226C15.8297 19.3145 16.0324 18.8014 16.0324 18.2175V6.55083C16.0324 5.51705 15.6695 4.62418 14.9478 3.90339C14.2263 3.18277 13.3332 2.82033 12.2996 2.82033C11.2654 2.82033 10.3724 3.18271 9.65217 3.90383C8.93219 4.62471 8.57027 5.51745 8.57027 6.55083V19.5195C8.57027 20.9945 9.09446 22.2653 10.1332 23.3032C11.171 24.3418 12.4418 24.8658 13.9166 24.8658C15.3914 24.8658 16.6622 24.3418 17.7 23.3032C18.7388 22.2653 19.2629 20.9945 19.2629 19.5195Z" fill="black" stroke="black"/>
</svg>
