<svg width="12" height="24" viewBox="0 0 12 24" fill="none" xmlns="http://www.w3.org/2000/svg">
<path d="M5.91661 23.3984C4.29261 23.3984 2.907 22.8244 1.75977 21.6764C0.612551 20.5292 0.0389404 19.1436 0.0389404 17.5196V4.5509C0.0389404 3.37878 0.456218 2.37545 1.29077 1.5409C2.12533 0.70634 3.12866 0.289062 4.30077 0.289062C5.47366 0.289062 6.477 0.70634 7.31077 1.5409C8.14611 2.37545 8.56377 3.37878 8.56377 4.5509V16.2176C8.56377 16.9588 8.30788 17.5857 7.79611 18.0982C7.28433 18.61 6.65744 18.8659 5.91544 18.8659C5.17422 18.8659 4.54811 18.61 4.03711 18.0982C3.52533 17.5857 3.26944 16.9588 3.26944 16.2176V4.5509H4.30077V16.2176C4.30077 16.6757 4.45555 17.0595 4.76511 17.3691C5.07544 17.6786 5.45927 17.8334 5.91661 17.8334C6.37394 17.8334 6.75777 17.6786 7.06811 17.3691C7.37766 17.0595 7.53244 16.6757 7.53244 16.2176V4.5509C7.53244 3.64634 7.21977 2.88178 6.59444 2.25723C5.96911 1.63267 5.20416 1.3204 4.29961 1.3204C3.39427 1.3204 2.62972 1.63267 2.00594 2.25723C1.38216 2.88178 1.07027 3.64634 1.07027 4.5509V17.5196C1.07027 18.8628 1.54239 20.0061 2.48661 20.9496C3.43005 21.8938 4.57338 22.3659 5.91661 22.3659C7.25983 22.3659 8.40316 21.8938 9.34661 20.9496C10.2908 20.0061 10.7629 18.8628 10.7629 17.5196V4.5509H11.7943V17.5196C11.7943 19.1436 11.2207 20.5292 10.0734 21.6764C8.92622 22.8236 7.54061 23.3976 5.91661 23.3984Z" fill="black"/>
</svg>
