<svg width="20" height="38" viewBox="0 0 20 38" fill="none" xmlns="http://www.w3.org/2000/svg">
<path fill-rule="evenodd" clip-rule="evenodd" d="M12.9334 2.78698C11.7418 3.51877 11.2987 4.49495 10.9515 5.61031C10.7898 6.12977 10.6711 7.02427 10.5909 8.11758C10.5118 9.19691 10.4728 10.4261 10.4563 11.5888C10.4398 12.7506 10.4457 13.8409 10.4558 14.6411C10.4599 14.9685 10.4648 15.247 10.469 15.4618H19.9803V16.4618H10.4803L10.4802 37.6667L9.48016 37.6667L9.48025 16.4618H0V15.4618H9.46882C9.46462 15.2477 9.45993 14.9738 9.45589 14.6537C9.44573 13.8476 9.43972 12.7479 9.45639 11.5746C9.47305 10.4023 9.51242 9.15139 9.59358 8.04445C9.67372 6.95149 9.7973 5.95351 9.99669 5.31306C10.3717 4.10858 10.9135 2.85392 12.4102 1.93483C13.8729 1.03659 16.1814 0.5 19.9802 0.5V1.5C16.2425 1.5 14.1591 2.03433 12.9334 2.78698Z" fill="black"/>
</svg>
