<svg width="49" height="70" viewBox="0 0 49 70" fill="none" xmlns="http://www.w3.org/2000/svg">
<path d="M44.1099 70C44.382 69.1748 44.68 68.3149 44.8793 67.872C49.6155 57.3199 49.0782 46.1713 48.8684 42.5998C48.7228 40.1892 48.467 38.1535 47.0087 36.5376C44.8547 34.1656 41.5508 33.4271 40.1395 33.2099C39.2431 31.1308 37.8727 29.7636 36.0625 29.1371C35.3551 28.8918 34.5831 28.7677 33.7737 28.7677C32.4126 28.7677 31.189 29.1122 30.3666 29.4197C29.2791 27.5975 27.8278 26.4676 26.0491 26.0561C25.561 25.9419 25.0443 25.8844 24.5146 25.8844C22.8206 25.8844 21.2707 26.4741 20.2172 27.002C19.9433 25.3187 18.9882 11.7089 18.4226 4.24707C18.2421 1.85789 16.0892 0 13.4934 0H13.4898C10.717 0 8.46681 2.06853 8.45548 4.62687C8.37049 20.8036 7.91525 36.7814 7.80838 39.2018C6.10603 39.9165 3.14074 40.8705 1.82133 42.5219C-1.19612 46.2992 0.116639 49.2599 1.61267 51.571C4.98982 56.795 10.8706 66.1318 13.3754 70H44.1099Z" fill="white"/>
</svg>
