<svg width="40" height="40" viewBox="0 0 40 40" fill="none" xmlns="http://www.w3.org/2000/svg">
<path fill-rule="evenodd" clip-rule="evenodd" d="M32.6253 0.991733C33.3993 0.489684 34.3048 0.228322 35.2273 0.240651C36.4448 0.252063 37.6092 0.740761 38.4702 1.6017C39.3315 2.46291 39.8202 3.62776 39.8314 4.84564L39.8314 4.85021L39.8314 4.97126C39.8187 5.89412 39.5325 6.79248 39.0092 7.55275C38.4859 8.31301 37.7489 8.90104 36.8914 9.24248C36.0339 9.58392 35.0944 9.66343 34.1917 9.47098C33.2891 9.27852 32.4637 8.82273 31.8201 8.16123C31.1764 7.49974 30.7434 6.66225 30.5757 5.75466C30.408 4.84707 30.5133 3.91014 30.8781 3.06235C31.2429 2.21456 31.8509 1.49398 32.6253 0.991733ZM35.2148 1.24057C34.4897 1.23071 33.7779 1.43608 33.1694 1.83071C32.561 2.22534 32.0833 2.79151 31.7966 3.45762C31.51 4.12374 31.4273 4.85989 31.5591 5.57299C31.6908 6.28609 32.031 6.94411 32.5368 7.46386C33.0425 7.98361 33.691 8.34174 34.4003 8.49296C35.1095 8.64418 35.8477 8.5817 36.5215 8.31342C37.1952 8.04514 37.7743 7.58311 38.1855 6.98576C38.596 6.38933 38.8207 5.68473 38.8314 4.96081V4.85255C38.8221 3.89753 38.4386 2.98421 37.7631 2.30882C37.0872 1.63292 36.1729 1.24933 35.217 1.2406L35.2148 1.24057Z" fill="black"/>
<path fill-rule="evenodd" clip-rule="evenodd" d="M7.01635 12.712C9.42828 11.1004 12.2639 10.2402 15.1647 10.2402C19.0546 10.2402 22.7851 11.7855 25.5356 14.536C28.2862 17.2865 29.8314 21.0171 29.8314 24.9069C29.8314 27.8077 28.9712 30.6433 27.3596 33.0553C25.748 35.4672 23.4574 37.347 20.7774 38.4571C18.0974 39.5672 15.1484 39.8577 12.3034 39.2917C9.45834 38.7258 6.84499 37.329 4.79382 35.2778C2.74265 33.2266 1.34579 30.6133 0.77987 27.7682C0.213953 24.9232 0.504401 21.9742 1.61449 19.2942C2.72457 16.6142 4.60443 14.3236 7.01635 12.712ZM15.1647 11.2402C12.4617 11.2402 9.8194 12.0418 7.57192 13.5435C5.32445 15.0452 3.57276 17.1796 2.53837 19.6769C1.50397 22.1741 1.23332 24.9221 1.76065 27.5731C2.28799 30.2242 3.58961 32.6594 5.50093 34.5707C7.41224 36.482 9.84741 37.7836 12.4985 38.311C15.1496 38.8383 17.8975 38.5676 20.3947 37.5332C22.892 36.4989 25.0264 34.7472 26.5281 32.4997C28.0298 30.2522 28.8314 27.6099 28.8314 24.9069C28.8314 21.2823 27.3915 17.8061 24.8285 15.2431C22.2655 12.6801 18.7893 11.2402 15.1647 11.2402Z" fill="black"/>
</svg>
