<svg width="285" height="88" viewBox="0 0 285 88" fill="none" xmlns="http://www.w3.org/2000/svg">
<path d="M43.0723 28.749L67.6506 14.5482L92.2289 28.749V57.1546L67.6506 71.3554L43.0723 57.1546V28.749Z" stroke="#006ACC" stroke-width="6.14458"/>
<path d="M52.9036 34.2661L67.6506 25.6213L82.3976 34.2661V51.6371L67.6506 60.2819L52.9036 51.6371V34.2661Z" stroke="#006ACC" stroke-width="6.14458"/>
<path d="M67.6506 34.3492L75.6386 38.9577V48.1745L67.6506 52.783L59.6627 48.1745V38.9577L67.6506 34.3492Z" fill="#DE8500"/>
<path d="M112.359 51.5488C109.786 51.5488 107.648 50.6968 105.944 48.9927C104.256 47.2722 103.412 45.1421 103.412 42.6023C103.412 40.0625 104.256 37.9406 105.944 36.2365C107.648 34.516 109.786 33.6558 112.359 33.6558C113.899 33.6558 115.324 34.0163 116.635 34.7372C117.946 35.4418 118.978 36.4086 119.732 37.6375L116.34 39.6037C115.963 38.9319 115.423 38.4158 114.718 38.0553C114.013 37.6784 113.227 37.49 112.359 37.49C110.835 37.49 109.614 37.957 108.696 38.891C107.795 39.825 107.345 41.0621 107.345 42.6023C107.345 44.1425 107.795 45.3797 108.696 46.3136C109.614 47.2476 110.835 47.7146 112.359 47.7146C113.227 47.7146 114.013 47.5262 114.718 47.1493C115.439 46.7724 115.98 46.2563 116.34 45.6009L119.732 47.5671C118.995 48.796 117.971 49.771 116.66 50.4919C115.349 51.1965 113.915 51.5488 112.359 51.5488ZM125.379 41.103C125.608 40.3165 126.067 39.7184 126.755 39.3088C127.46 38.8828 128.23 38.6698 129.066 38.6698V42.8481C128.164 42.7006 127.321 42.8563 126.534 43.3151C125.764 43.7575 125.379 44.5358 125.379 45.65V51.2047H121.692V38.9156H125.379V41.103ZM134.181 37.1951C133.755 37.6211 133.239 37.8341 132.632 37.8341C132.026 37.8341 131.502 37.6211 131.059 37.1951C130.633 36.7527 130.42 36.2283 130.42 35.6221C130.42 35.0158 130.633 34.4997 131.059 34.0736C131.502 33.6312 132.026 33.41 132.632 33.41C133.239 33.41 133.755 33.6312 134.181 34.0736C134.623 34.4997 134.844 35.0158 134.844 35.6221C134.844 36.2283 134.623 36.7527 134.181 37.1951ZM130.789 51.2047V38.9156H134.476V51.2047H130.789ZM140.544 42.504C140.544 42.7498 140.749 42.9546 141.158 43.1184C141.584 43.2659 142.092 43.4216 142.682 43.5854C143.272 43.7329 143.862 43.9295 144.452 44.1753C145.042 44.4211 145.541 44.8307 145.951 45.4042C146.377 45.9613 146.59 46.6659 146.59 47.518C146.59 48.8452 146.098 49.8529 145.115 50.5411C144.132 51.2129 142.92 51.5488 141.478 51.5488C138.889 51.5488 137.127 50.5739 136.193 48.624L139.389 46.8052C139.716 47.7719 140.413 48.2553 141.478 48.2553C142.363 48.2553 142.805 48.0013 142.805 47.4934C142.805 47.2476 142.592 47.0428 142.166 46.8789C141.756 46.7151 141.256 46.5594 140.667 46.4119C140.077 46.2481 139.487 46.0433 138.897 45.7975C138.307 45.5353 137.799 45.1339 137.373 44.5931C136.963 44.0524 136.759 43.3888 136.759 42.6023C136.759 41.3242 137.217 40.3329 138.135 39.6283C139.069 38.9237 140.216 38.5715 141.576 38.5715C142.592 38.5715 143.518 38.8009 144.353 39.2597C145.189 39.7021 145.861 40.3493 146.369 41.2013L143.223 42.8972C142.83 42.1763 142.281 41.8158 141.576 41.8158C140.888 41.8158 140.544 42.0452 140.544 42.504ZM155.9 38.5715C157.522 38.5715 158.906 39.2023 160.053 40.464C161.2 41.7093 161.774 43.2413 161.774 45.0601C161.774 46.8789 161.2 48.4192 160.053 49.6809C158.906 50.9262 157.522 51.5488 155.9 51.5488C154.327 51.5488 153.106 51.049 152.237 50.0495V56.1204H148.551V38.9156H152.237V40.0707C153.106 39.0712 154.327 38.5715 155.9 38.5715ZM153.049 47.2476C153.606 47.7883 154.31 48.0587 155.162 48.0587C156.014 48.0587 156.711 47.7883 157.251 47.2476C157.809 46.7069 158.087 45.9777 158.087 45.0601C158.087 44.1425 157.809 43.4134 157.251 42.8727C156.711 42.3319 156.014 42.0616 155.162 42.0616C154.31 42.0616 153.606 42.3319 153.049 42.8727C152.508 43.4134 152.237 44.1425 152.237 45.0601C152.237 45.9777 152.508 46.7069 153.049 47.2476ZM171.126 38.9156H175.059L170.856 50.836C170.168 52.7695 169.258 54.1541 168.128 54.9898C167.013 55.8254 165.588 56.2023 163.851 56.1204V52.6794C164.703 52.6794 165.359 52.5237 165.817 52.2124C166.276 51.9175 166.645 51.3931 166.923 50.6394L162.032 38.9156H166.088L168.816 46.4365L171.126 38.9156ZM183.619 42.4548H181.087V46.8052C181.087 47.2968 181.284 47.6081 181.677 47.7392C182.07 47.8703 182.718 47.9112 183.619 47.8621V51.2047C181.276 51.4505 179.653 51.2293 178.752 50.5411C177.851 49.8365 177.4 48.5912 177.4 46.8052V42.4548H175.434V38.9156H177.4V36.5806L181.087 35.4746V38.9156H183.619V42.4548ZM194.388 38.9156H198.075V51.2047H194.388V50.0495C193.52 51.049 192.299 51.5488 190.726 51.5488C189.104 51.5488 187.719 50.9262 186.572 49.6809C185.425 48.4192 184.852 46.8789 184.852 45.0601C184.852 43.2413 185.425 41.7093 186.572 40.464C187.719 39.2023 189.104 38.5715 190.726 38.5715C192.299 38.5715 193.52 39.0712 194.388 40.0707V38.9156ZM189.35 47.2476C189.89 47.7883 190.595 48.0587 191.463 48.0587C192.332 48.0587 193.036 47.7883 193.577 47.2476C194.118 46.7069 194.388 45.9777 194.388 45.0601C194.388 44.1425 194.118 43.4134 193.577 42.8727C193.036 42.3319 192.332 42.0616 191.463 42.0616C190.595 42.0616 189.89 42.3319 189.35 42.8727C188.809 43.4134 188.538 44.1425 188.538 45.0601C188.538 45.9777 188.809 46.7069 189.35 47.2476ZM207.981 42.4548H205.449V46.8052C205.449 47.2968 205.646 47.6081 206.039 47.7392C206.433 47.8703 207.08 47.9112 207.981 47.8621V51.2047C205.638 51.4505 204.016 51.2293 203.115 50.5411C202.213 49.8365 201.763 48.5912 201.763 46.8052V42.4548H199.796V38.9156H201.763V36.5806L205.449 35.4746V38.9156H207.981V42.4548ZM213.46 37.1951C213.034 37.6211 212.518 37.8341 211.912 37.8341C211.306 37.8341 210.781 37.6211 210.339 37.1951C209.913 36.7527 209.7 36.2283 209.7 35.6221C209.7 35.0158 209.913 34.4997 210.339 34.0736C210.781 33.6312 211.306 33.41 211.912 33.41C212.518 33.41 213.034 33.6312 213.46 34.0736C213.903 34.4997 214.124 35.0158 214.124 35.6221C214.124 36.2283 213.903 36.7527 213.46 37.1951ZM210.068 51.2047V38.9156H213.755V51.2047H210.068ZM226.973 49.6809C225.711 50.9262 224.171 51.5488 222.352 51.5488C220.533 51.5488 218.993 50.9262 217.731 49.6809C216.469 48.4192 215.839 46.8789 215.839 45.0601C215.839 43.2413 216.469 41.7093 217.731 40.464C218.993 39.2023 220.533 38.5715 222.352 38.5715C224.171 38.5715 225.711 39.2023 226.973 40.464C228.234 41.7093 228.865 43.2413 228.865 45.0601C228.865 46.8789 228.234 48.4192 226.973 49.6809ZM220.336 47.1493C220.877 47.69 221.549 47.9604 222.352 47.9604C223.155 47.9604 223.827 47.69 224.367 47.1493C224.908 46.6086 225.178 45.9122 225.178 45.0601C225.178 44.2081 224.908 43.5117 224.367 42.971C223.827 42.4303 223.155 42.1599 222.352 42.1599C221.549 42.1599 220.877 42.4303 220.336 42.971C219.796 43.5117 219.525 44.2081 219.525 45.0601C219.525 45.9122 219.796 46.6086 220.336 47.1493ZM238.152 38.5715C239.463 38.5715 240.552 39.0221 241.421 39.9233C242.306 40.8245 242.748 42.0698 242.748 43.6592V51.2047H239.061V44.1999C239.061 43.4789 238.856 42.93 238.447 42.5531C238.054 42.1599 237.546 41.9633 236.923 41.9633C236.218 41.9633 235.661 42.1763 235.252 42.6023C234.842 43.0283 234.637 43.6592 234.637 44.4948V51.2047H230.95V38.9156H234.637V40.0707C235.375 39.0712 236.546 38.5715 238.152 38.5715Z" fill="black"/>
</svg>
