<svg width="285" height="88" viewBox="0 0 285 88" fill="none" xmlns="http://www.w3.org/2000/svg">
<path d="M165.44 34.6114C164.306 34.0134 162.433 33.5672 159.884 33.2816C157.941 33.0674 156.623 32.8086 155.972 32.5141C154.953 32.0679 154.46 31.2022 154.46 29.8635C154.46 28.7926 154.935 27.9893 155.92 27.4092C156.763 26.9095 157.818 26.6685 159.04 26.6864C160.13 26.7042 161.211 26.9987 162.249 27.561C162.961 27.9358 163.541 28.3553 163.98 28.7926C164.437 29.3013 165.229 29.4797 166.327 29.328C166.995 29.2299 167.373 29.0424 167.479 28.739C167.567 28.507 167.47 28.2214 167.198 27.9179C166.635 27.2754 165.826 26.6864 164.78 26.1687C163.04 25.2584 161.15 24.7765 159.19 24.7408C156.834 24.6783 154.812 25.1424 153.195 26.1152C151.63 27.0612 150.839 28.3196 150.839 29.8635C150.839 31.7823 151.77 33.1835 153.59 34.0224C154.583 34.4864 156.429 34.8791 159.084 35.1736C160.965 35.3878 162.249 35.6734 162.899 36.0036C163.98 36.5748 164.508 37.5654 164.508 39.0469C164.508 40.2874 164.007 41.3048 163.013 42.0813C162.011 42.8666 160.702 43.2682 159.128 43.2682C157.836 43.2682 156.588 42.9916 155.436 42.4472C154.504 42.0188 153.88 41.5993 153.599 41.1977C153.186 40.6355 152.403 40.4302 151.287 40.5998C150.61 40.698 150.223 40.8854 150.092 41.1888C150.004 41.4119 150.056 41.6707 150.276 41.9652C150.821 42.6524 151.744 43.3039 153.028 43.9108C154.794 44.7497 156.851 45.1781 159.137 45.1781C162.046 45.1781 164.358 44.5088 166.011 43.1879C167.409 42.0723 168.112 40.6712 168.112 39.0469C168.112 37.0032 167.215 35.5128 165.448 34.6025L165.44 34.6114Z" fill="#001A70"/>
<path d="M178.854 43.9197V26.8916H184.928C185.552 26.8916 185.886 26.5614 185.886 25.9634C185.886 25.5529 185.719 25.0621 184.928 25.0264H169.272C168.692 25.0264 168.367 25.3566 168.367 25.9634C168.367 26.5703 168.718 26.8738 169.36 26.8916H175.399V43.9286C175.408 44.5623 175.988 44.8925 177.131 44.8925C178.273 44.8925 178.845 44.5712 178.862 43.9286L178.854 43.9197Z" fill="#001A70"/>
<path d="M183.302 44.3749C183.477 44.6694 183.908 44.839 184.62 44.8836C184.761 44.8925 184.901 44.9014 185.024 44.9014C185.895 44.9014 186.422 44.6605 186.616 44.1875L188.488 39.6895H197.349L199.239 44.1696C199.441 44.6962 200.091 44.9193 201.234 44.83C201.981 44.7765 202.421 44.6069 202.588 44.3213C202.684 44.1428 202.684 43.9376 202.57 43.7055L194.58 25.7403C194.404 25.2673 193.859 25.0264 192.962 25.0264C192.066 25.0264 191.512 25.2406 191.292 25.6957L183.31 43.7055C183.196 43.9643 183.196 44.1875 183.31 44.3749H183.302ZM189.305 37.7975L192.918 29.2388L196.557 37.7975H189.314H189.305Z" fill="#001A70"/>
<path d="M205.919 44.8836C206.658 44.8836 207.141 44.7497 207.405 44.482C207.554 44.3303 207.625 44.1429 207.616 43.9197V36.7087H214.288L218.235 44.241C218.481 44.6962 219.149 44.8925 220.256 44.8568C220.96 44.83 221.373 44.6783 221.54 44.3927C221.654 44.1964 221.636 43.9554 221.496 43.6699L217.593 36.2535C218.656 35.8251 219.536 35.1558 220.221 34.2812C220.951 33.3173 221.32 32.1661 221.32 30.8452C221.32 29.1138 220.713 27.6948 219.509 26.606C218.296 25.5172 216.802 24.9996 215.096 25.0085H205.497C204.434 25.0085 204.205 25.5172 204.205 25.9456V43.9108C204.205 44.5534 204.785 44.8747 205.919 44.8747V44.8836ZM207.633 34.7988V26.8916H213.549C214.78 26.9095 215.826 27.2754 216.643 27.9626C217.479 28.6765 217.918 29.6493 217.936 30.8541C217.944 32.0679 217.522 33.0228 216.67 33.71C215.826 34.4329 214.771 34.7988 213.549 34.7988H207.633Z" fill="#001A70"/>
<path d="M121.971 58.2703C121.971 58.2703 121.927 58.2435 121.11 57.8241C121.25 57.7438 121.4 57.6545 121.532 57.5564C122.982 56.6014 123.72 55.2806 123.72 53.6295C123.72 52.0945 123.14 50.8629 122.006 49.9705C120.934 49.1137 119.554 48.6764 117.901 48.6764H109.155C108.074 48.6764 107.845 49.2029 107.845 49.6402V67.8196C107.845 68.2569 108.074 68.7835 109.155 68.7835H118.174C120.169 68.7835 121.769 68.2034 122.929 67.061C124.002 66.0079 124.547 64.5711 124.547 62.7862C124.547 61.0012 123.685 59.5287 121.971 58.2792V58.2703ZM111.3 57.012V50.5863H117.136C117.998 50.5863 118.754 50.8986 119.369 51.5233C119.984 52.1481 120.301 52.9066 120.301 53.7902C120.301 54.6737 119.984 55.4412 119.369 56.0659C118.754 56.6907 117.998 57.012 117.136 57.012H111.3ZM121.083 62.8933C121.083 63.9821 120.697 64.9191 119.941 65.6867C119.185 66.4542 118.262 66.8379 117.198 66.8379H111.3V58.9218H117.084C118.156 58.9218 119.105 59.3145 119.897 60.0909C120.688 60.8674 121.083 61.8134 121.083 62.8933Z" fill="#001A70"/>
<path d="M139.798 60.0375C140.879 59.6002 141.776 58.9219 142.461 58.0384C143.2 57.0567 143.569 55.8876 143.569 54.5578C143.569 52.8086 142.954 51.3628 141.732 50.2651C140.501 49.1674 138.98 48.6319 137.258 48.6497H127.527C126.445 48.6497 126.217 49.1674 126.217 49.5957V67.8197C126.217 68.4712 126.806 68.7925 127.957 68.7925C128.705 68.7925 129.197 68.6586 129.461 68.382C129.61 68.2303 129.68 68.0339 129.68 67.8108V60.4927H136.449L140.448 68.1321C140.703 68.5873 141.38 68.7925 142.505 68.7568C143.217 68.73 143.639 68.5783 143.806 68.2927C143.921 68.0964 143.903 67.8465 143.762 67.5609L139.807 60.0375H139.798ZM140.141 54.5489C140.15 55.7805 139.719 56.7532 138.857 57.4494C137.996 58.1812 136.932 58.5471 135.693 58.5471H129.698V50.5239H135.693C136.941 50.5417 137.996 50.9076 138.831 51.6127C139.684 52.3356 140.123 53.3262 140.141 54.5489Z" fill="#001A70"/>
<path d="M156.93 49.3636C156.755 48.8817 156.201 48.6407 155.287 48.6407C154.372 48.6407 153.819 48.8639 153.59 49.319L145.494 67.5876C145.38 67.8465 145.38 68.0785 145.494 68.2659C145.67 68.5604 146.109 68.73 146.83 68.7835C146.98 68.7925 147.112 68.8014 147.243 68.8014C148.122 68.8014 148.667 68.5604 148.852 68.0785L150.751 63.518H159.735L161.651 68.0606C161.853 68.5961 162.512 68.8192 163.681 68.73C164.437 68.6764 164.886 68.5069 165.053 68.2124C165.158 68.0339 165.149 67.8197 165.035 67.5876L156.922 49.3726L156.93 49.3636ZM158.935 61.5903H151.586L155.251 52.9067L158.943 61.5903H158.935Z" fill="#001A70"/>
<path d="M182.51 48.6407C181.746 48.6407 181.245 48.7746 180.99 49.0513C180.849 49.203 180.788 49.3815 180.796 49.5957V63.1968L169.905 49.2119C169.65 48.8282 169.061 48.6497 168.094 48.6497C167.127 48.6497 166.582 48.971 166.582 49.5957V67.8018C166.565 68.0339 166.626 68.2213 166.776 68.3819C167.031 68.6586 167.523 68.7925 168.279 68.7925C169.439 68.7925 170.037 68.4623 170.046 67.8197V54.2722L180.911 68.2124C181.209 68.605 181.816 68.8014 182.757 68.8014C183.389 68.8014 183.811 68.6764 184.04 68.4266C184.189 68.2659 184.251 68.0606 184.233 67.8286V49.6046C184.233 49.3904 184.163 49.203 184.022 49.0602C183.759 48.7925 183.258 48.6586 182.493 48.6586L182.51 48.6407Z" fill="#001A70"/>
<path d="M201.366 50.6577C199.731 49.3279 197.393 48.6497 194.395 48.6497H187.767C186.941 48.6497 186.369 48.9442 186.062 49.5332L186.044 67.8107C186.044 68.2481 186.273 68.7746 187.354 68.7746H194.404C197.401 68.7746 199.748 68.0963 201.375 66.7576C203.37 65.1334 204.381 62.4203 204.381 58.6898C204.381 54.9593 203.37 52.2909 201.375 50.6488L201.366 50.6577ZM200.926 58.6987C200.926 62.0365 200.126 64.3837 198.544 65.651C197.542 66.4453 196.144 66.8469 194.395 66.8469H189.49V50.5774H194.395C196.144 50.5774 197.542 50.9879 198.544 51.7822C200.126 53.0406 200.926 55.361 200.926 58.6987Z" fill="#001A70"/>
<path d="M220.757 58.3953C219.606 57.7885 217.707 57.3333 215.123 57.0477C213.154 56.8246 211.818 56.5658 211.158 56.2713C210.13 55.8161 209.629 54.9415 209.629 53.585C209.629 52.4962 210.112 51.684 211.106 51.095C211.958 50.5863 213.031 50.3453 214.27 50.3543C215.378 50.3721 216.476 50.6756 217.523 51.2378C218.243 51.6216 218.832 52.041 219.281 52.4872C219.747 53.0049 220.546 53.1923 221.663 53.0316C222.34 52.9335 222.726 52.7371 222.832 52.4337C222.92 52.1927 222.823 51.9161 222.551 51.6037C221.979 50.9522 221.162 50.3543 220.098 49.8277C218.331 48.9085 216.415 48.4176 214.42 48.3819C212.029 48.3195 209.98 48.7925 208.337 49.7742C206.746 50.738 205.946 52.0142 205.946 53.576C205.946 55.5216 206.886 56.9406 208.741 57.7974C209.752 58.2704 211.624 58.6631 214.314 58.9665C216.222 59.1896 217.523 59.4752 218.182 59.8143C219.281 60.3944 219.808 61.4029 219.808 62.9022C219.808 64.1606 219.298 65.1959 218.296 65.9812C217.276 66.7755 215.958 67.186 214.358 67.186C213.048 67.186 211.782 66.9094 210.613 66.3561C209.664 65.9188 209.04 65.4993 208.75 65.0888C208.328 64.5176 207.537 64.3123 206.403 64.4819C205.717 64.5801 205.321 64.7675 205.198 65.0709C205.102 65.294 205.163 65.5618 205.383 65.8563C205.937 66.5524 206.869 67.2128 208.17 67.8286C209.963 68.6764 212.046 69.1138 214.358 69.1138C217.303 69.1138 219.65 68.4355 221.329 67.0968C222.744 65.9634 223.456 64.5444 223.456 62.9022C223.456 60.8317 222.551 59.3146 220.757 58.3953Z" fill="#001A70"/>
<path d="M101.63 3.99998L101.604 43.411L142.857 43.3931C143.156 43.3931 140.44 42.7238 113.365 35.5484C111.994 35.1825 110.596 33.942 110.122 32.639C103.379 14.0937 101.63 3.78579 101.63 3.99998Z" fill="#1D8FCF"/>
<path d="M101.709 82.7862L101.736 43.3752L60.4824 43.3931C60.1835 43.3931 62.8998 44.0624 89.9741 51.2378C91.3454 51.6037 92.7431 52.8442 93.2178 54.1472C99.9688 72.7014 101.709 83.0093 101.709 82.7951V82.7862Z" fill="#1D8FCF"/>
<path d="M79.6102 38.1723H96.0482V21.4833C86.9678 21.4833 79.6102 28.9532 79.6102 38.1723Z" fill="#FFBF3F"/>
</svg>
